<svg width="58" height="58" viewBox="0 0 58 58" fill="none" xmlns="http://www.w3.org/2000/svg">
<circle cx="29" cy="29" r="29" fill="white"/>
<circle cx="29" cy="29" r="28" stroke="#3E3F43" stroke-opacity="0.12" stroke-width="2"/>
<mask id="mask0_1480_2833" style="mask-type:alpha" maskUnits="userSpaceOnUse" x="9" y="9" width="40" height="40">
<path d="M47.9954 32.0434C49.6763 21.552 42.534 11.6843 32.0426 10.0034C21.5511 8.32246 11.6835 15.4648 10.0026 25.9562C8.32164 36.4476 15.464 46.3153 25.9554 47.9962C36.4468 49.6771 46.3145 42.5348 47.9954 32.0434Z" fill="white"/>
</mask>
<g mask="url(#mask0_1480_2833)">
<path fill-rule="evenodd" clip-rule="evenodd" d="M19.4309 7.77197C19.9529 7.77197 20.3589 8.17797 20.3589 8.69997C20.3589 9.22197 19.9529 9.62797 19.4309 9.62797C18.9089 9.62797 18.5029 9.22197 18.5029 8.69997C18.5609 8.23597 18.9669 7.77197 19.4309 7.77197Z" fill="#4C5167" stroke="#4C5167" stroke-width="1.4641" stroke-miterlimit="22.9256"/>
<path fill-rule="evenodd" clip-rule="evenodd" d="M19.4309 7.77197C19.9529 7.77197 20.3589 8.17797 20.3589 8.69997C20.3589 9.22197 19.9529 9.62797 19.4309 9.62797C18.9089 9.62797 18.5029 9.22197 18.5029 8.69997C18.5609 8.23597 18.9669 7.77197 19.4309 7.77197Z" fill="#4C5167" stroke="#4C5167" stroke-width="0.5669" stroke-miterlimit="22.9256"/>
<path fill-rule="evenodd" clip-rule="evenodd" d="M25.1731 10.9043C25.6951 10.9043 26.1011 11.3103 26.1011 11.8323C26.1011 12.3543 25.6951 12.7603 25.1731 12.7603C24.6511 12.7603 24.2451 12.3543 24.2451 11.8323C24.2451 11.3103 24.6511 10.9043 25.1731 10.9043Z" fill="#4C5167" stroke="#4C5167" stroke-width="1.4641" stroke-miterlimit="22.9256"/>
<path d="M25.1731 12.7603C25.6856 12.7603 26.1011 12.3448 26.1011 11.8323C26.1011 11.3198 25.6856 10.9043 25.1731 10.9043C24.6606 10.9043 24.2451 11.3198 24.2451 11.8323C24.2451 12.3448 24.6606 12.7603 25.1731 12.7603Z" fill="#4C5167" stroke="#4C5167" stroke-width="0.5669" stroke-miterlimit="22.9256"/>
<path fill-rule="evenodd" clip-rule="evenodd" d="M32.0169 12.5283C32.5389 12.5283 32.9449 12.9343 32.9449 13.4563C32.9449 13.9783 32.5389 14.3843 32.0169 14.3843C31.4949 14.3843 31.0889 13.9783 31.0889 13.4563C31.0889 12.9343 31.4949 12.5283 32.0169 12.5283Z" fill="#4C5167" stroke="#4C5167" stroke-width="1.4641" stroke-miterlimit="22.9256"/>
<path fill-rule="evenodd" clip-rule="evenodd" d="M32.0169 12.5283C32.5389 12.5283 32.9449 12.9343 32.9449 13.4563C32.9449 13.9783 32.5389 14.3843 32.0169 14.3843C31.4949 14.3843 31.0889 13.9783 31.0889 13.4563C31.0889 12.9343 31.4949 12.5283 32.0169 12.5283Z" fill="#4C5167" stroke="#4C5167" stroke-width="0.5669" stroke-miterlimit="22.9256"/>
<path fill-rule="evenodd" clip-rule="evenodd" d="M39.4407 11.832C39.9627 11.832 40.3687 12.238 40.3687 12.76C40.3687 13.282 39.9627 13.688 39.4407 13.688C38.9187 13.688 38.5127 13.282 38.5127 12.76C38.5127 12.238 38.9187 11.832 39.4407 11.832Z" fill="#4C5167" stroke="#4C5167" stroke-width="1.4641" stroke-miterlimit="22.9256"/>
<path fill-rule="evenodd" clip-rule="evenodd" d="M39.4407 11.832C39.9627 11.832 40.3687 12.238 40.3687 12.76C40.3687 13.282 39.9627 13.688 39.4407 13.688C38.9187 13.688 38.5127 13.282 38.5127 12.76C38.5127 12.238 38.9187 11.832 39.4407 11.832Z" fill="#4C5167" stroke="#4C5167" stroke-width="0.5669" stroke-miterlimit="22.9256"/>
<path fill-rule="evenodd" clip-rule="evenodd" d="M49.1848 9.74414C49.7068 9.74414 50.1128 10.1501 50.1128 10.6721C50.1128 11.1941 49.7068 11.6001 49.1848 11.6001C48.6628 11.6001 48.2568 11.1941 48.2568 10.6721C48.2568 10.1501 48.6628 9.74414 49.1848 9.74414Z" fill="#4C5167" stroke="#4C5167" stroke-width="1.4641" stroke-miterlimit="22.9256"/>
<path fill-rule="evenodd" clip-rule="evenodd" d="M49.1848 9.74414C49.7068 9.74414 50.1128 10.1501 50.1128 10.6721C50.1128 11.1941 49.7068 11.6001 49.1848 11.6001C48.6628 11.6001 48.2568 11.1941 48.2568 10.6721C48.2568 10.1501 48.6628 9.74414 49.1848 9.74414Z" fill="#4C5167" stroke="#4C5167" stroke-width="0.5669" stroke-miterlimit="22.9256"/>
<path fill-rule="evenodd" clip-rule="evenodd" d="M43.9641 9.97607C44.4861 9.97607 44.8921 10.3821 44.8921 10.9041C44.8921 11.4261 44.4861 11.8321 43.9641 11.8321C43.4421 11.8321 43.0361 11.4261 43.0361 10.9041C43.0361 10.3821 43.4421 9.97607 43.9641 9.97607Z" fill="#4C5167" stroke="#4C5167" stroke-width="1.4641" stroke-miterlimit="22.9256"/>
<path fill-rule="evenodd" clip-rule="evenodd" d="M43.9641 9.97607C44.4861 9.97607 44.8921 10.3821 44.8921 10.9041C44.8921 11.4261 44.4861 11.8321 43.9641 11.8321C43.4421 11.8321 43.0361 11.4261 43.0361 10.9041C43.0361 10.3821 43.4421 9.97607 43.9641 9.97607Z" fill="#4C5167" stroke="#4C5167" stroke-width="0.5669" stroke-miterlimit="22.9256"/>
<path fill-rule="evenodd" clip-rule="evenodd" d="M47.7337 14.6162C48.2557 14.6162 48.6617 15.0222 48.6617 15.5442C48.6617 16.0662 48.2557 16.4722 47.7337 16.4722C47.2117 16.4722 46.8057 16.0662 46.8057 15.5442C46.8057 15.0222 47.2117 14.6162 47.7337 14.6162Z" fill="#4C5167" stroke="#4C5167" stroke-width="1.4641" stroke-miterlimit="22.9256"/>
<path d="M47.7337 16.4722C48.2462 16.4722 48.6617 16.0567 48.6617 15.5442C48.6617 15.0317 48.2462 14.6162 47.7337 14.6162C47.2211 14.6162 46.8057 15.0317 46.8057 15.5442C46.8057 16.0567 47.2211 16.4722 47.7337 16.4722Z" fill="#4C5167" stroke="#4C5167" stroke-width="0.5669" stroke-miterlimit="22.9256"/>
<path fill-rule="evenodd" clip-rule="evenodd" d="M45.8215 20.1841C46.3435 20.1841 46.7495 20.5901 46.7495 21.1121C46.7495 21.6341 46.3435 22.0401 45.8215 22.0401C45.2995 22.0401 44.8936 21.6341 44.8936 21.1121C44.8936 20.5901 45.2995 20.1841 45.8215 20.1841Z" fill="#4C5167" stroke="#4C5167" stroke-width="1.4641" stroke-miterlimit="22.9256"/>
<path fill-rule="evenodd" clip-rule="evenodd" d="M35.6126 16.5303C36.1346 16.5303 36.5406 16.9363 36.5406 17.4583C36.5406 17.9803 36.1346 18.3863 35.6126 18.3863C35.0906 18.3863 34.6846 17.9803 34.6846 17.4583C34.6846 16.9943 35.0906 16.5303 35.6126 16.5303Z" fill="#4C5167" stroke="#4C5167" stroke-width="1.4641" stroke-miterlimit="22.9256"/>
<path fill-rule="evenodd" clip-rule="evenodd" d="M35.6126 16.5303C36.1346 16.5303 36.5406 16.9363 36.5406 17.4583C36.5406 17.9803 36.1346 18.3863 35.6126 18.3863C35.0906 18.3863 34.6846 17.9803 34.6846 17.4583C34.6846 16.9943 35.0906 16.5303 35.6126 16.5303Z" fill="#4C5167" stroke="#4C5167" stroke-width="0.5669" stroke-miterlimit="22.9256"/>
<path fill-rule="evenodd" clip-rule="evenodd" d="M23.1438 17.8643C23.6658 17.8643 24.0718 18.2703 24.0718 18.7923C24.0718 19.3143 23.6658 19.7203 23.1438 19.7203C22.6218 19.7203 22.2158 19.3143 22.2158 18.7923C22.2738 18.2703 22.6798 17.8643 23.1438 17.8643Z" fill="#4C5167" stroke="#4C5167" stroke-width="1.4641" stroke-miterlimit="22.9256"/>
<path fill-rule="evenodd" clip-rule="evenodd" d="M23.1438 17.8643C23.6658 17.8643 24.0718 18.2703 24.0718 18.7923C24.0718 19.3143 23.6658 19.7203 23.1438 19.7203C22.6218 19.7203 22.2158 19.3143 22.2158 18.7923C22.2738 18.2703 22.6798 17.8643 23.1438 17.8643Z" fill="#4C5167" stroke="#4C5167" stroke-width="0.5669" stroke-miterlimit="22.9256"/>
<path d="M18.5618 16.5298C19.0743 16.5298 19.4898 16.1144 19.4898 15.6018C19.4898 15.0893 19.0743 14.6738 18.5618 14.6738C18.0493 14.6738 17.6338 15.0893 17.6338 15.6018C17.6338 16.1144 18.0493 16.5298 18.5618 16.5298Z" fill="#4C5167" stroke="#4C5167" stroke-width="1.4638" stroke-miterlimit="22.9256"/>
<path fill-rule="evenodd" clip-rule="evenodd" d="M29.4075 16.2979C29.9295 16.2979 30.3355 16.7038 30.3355 17.2258C30.3355 17.7478 29.9295 18.1538 29.4075 18.1538C28.8855 18.1538 28.4795 17.7478 28.4795 17.2258C28.4795 16.7038 28.8855 16.2979 29.4075 16.2979Z" fill="#4C5167" stroke="#4C5167" stroke-width="1.4641" stroke-miterlimit="22.9256"/>
<path fill-rule="evenodd" clip-rule="evenodd" d="M29.4075 16.2979C29.9295 16.2979 30.3355 16.7038 30.3355 17.2258C30.3355 17.7478 29.9295 18.1538 29.4075 18.1538C28.8855 18.1538 28.4795 17.7478 28.4795 17.2258C28.4795 16.7038 28.8855 16.2979 29.4075 16.2979Z" fill="#4C5167" stroke="#4C5167" stroke-width="0.5669" stroke-miterlimit="22.9256"/>
<path fill-rule="evenodd" clip-rule="evenodd" d="M31.2044 8.12012C31.7264 8.12012 32.1324 8.52612 32.1324 9.04812C32.1324 9.57012 31.7264 9.97612 31.2044 9.97612C30.6824 9.97612 30.2764 9.57012 30.2764 9.04812C30.3344 8.52612 30.7404 8.12012 31.2044 8.12012Z" fill="#4C5167" stroke="#4C5167" stroke-width="1.4641" stroke-miterlimit="22.9256"/>
<path fill-rule="evenodd" clip-rule="evenodd" d="M36.1341 8.41016C36.6561 8.41016 37.0621 8.81616 37.0621 9.33816C37.0621 9.86016 36.6561 10.2662 36.1341 10.2662C35.6121 10.2662 35.2061 9.86016 35.2061 9.33816C35.2641 8.81616 35.6701 8.41016 36.1341 8.41016Z" fill="#4C5167" stroke="#4C5167" stroke-width="1.4641" stroke-miterlimit="22.9256"/>
<path fill-rule="evenodd" clip-rule="evenodd" d="M9.62722 20.7061C10.1492 20.7061 10.5552 21.1121 10.5552 21.6341C10.5552 22.1561 10.1492 22.5621 9.62722 22.5621C9.10522 22.5621 8.69922 22.1561 8.69922 21.6341C8.69922 21.1121 9.10522 20.7061 9.62722 20.7061Z" fill="#4C5167" stroke="#4C5167" stroke-width="1.4641" stroke-miterlimit="22.9256"/>
<path fill-rule="evenodd" clip-rule="evenodd" d="M9.62722 20.7061C10.1492 20.7061 10.5552 21.1121 10.5552 21.6341C10.5552 22.1561 10.1492 22.5621 9.62722 22.5621C9.10522 22.5621 8.69922 22.1561 8.69922 21.6341C8.69922 21.1121 9.10522 20.7061 9.62722 20.7061Z" fill="#4C5167" stroke="#4C5167" stroke-width="0.5669" stroke-miterlimit="22.9256"/>
<path fill-rule="evenodd" clip-rule="evenodd" d="M16.3557 19.894C16.8777 19.894 17.2837 20.3 17.2837 20.822C17.2837 21.344 16.8777 21.75 16.3557 21.75C15.8337 21.75 15.4277 21.344 15.4277 20.822C15.4277 20.3 15.8337 19.894 16.3557 19.894Z" fill="#4C5167" stroke="#4C5167" stroke-width="1.4641" stroke-miterlimit="22.9256"/>
<path fill-rule="evenodd" clip-rule="evenodd" d="M16.3557 19.894C16.8777 19.894 17.2837 20.3 17.2837 20.822C17.2837 21.344 16.8777 21.75 16.3557 21.75C15.8337 21.75 15.4277 21.344 15.4277 20.822C15.4277 20.3 15.8337 19.894 16.3557 19.894Z" fill="#4C5167" stroke="#4C5167" stroke-width="0.5669" stroke-miterlimit="22.9256"/>
<path fill-rule="evenodd" clip-rule="evenodd" d="M13.3987 23.6641C13.9207 23.6641 14.3267 24.0701 14.3267 24.5921C14.3267 25.1141 13.9207 25.5201 13.3987 25.5201C12.8767 25.5201 12.4707 25.1141 12.4707 24.5921C12.4707 24.0701 12.8767 23.6641 13.3987 23.6641Z" fill="#4C5167" stroke="#4C5167" stroke-width="1.4641" stroke-miterlimit="22.9256"/>
<path fill-rule="evenodd" clip-rule="evenodd" d="M13.3987 23.6641C13.9207 23.6641 14.3267 24.0701 14.3267 24.5921C14.3267 25.1141 13.9207 25.5201 13.3987 25.5201C12.8767 25.5201 12.4707 25.1141 12.4707 24.5921C12.4707 24.0701 12.8767 23.6641 13.3987 23.6641Z" fill="#4C5167" stroke="#4C5167" stroke-width="0.5669" stroke-miterlimit="22.9256"/>
<path fill-rule="evenodd" clip-rule="evenodd" d="M19.1409 26.7383C19.6629 26.7383 20.0689 27.1443 20.0689 27.6663C20.0689 28.1883 19.6629 28.5943 19.1409 28.5943C18.6189 28.5943 18.2129 28.1883 18.2129 27.6663C18.2129 27.1443 18.6189 26.7383 19.1409 26.7383Z" fill="#4C5167" stroke="#4C5167" stroke-width="1.4641" stroke-miterlimit="22.9256"/>
<path fill-rule="evenodd" clip-rule="evenodd" d="M19.1409 26.7383C19.6629 26.7383 20.0689 27.1443 20.0689 27.6663C20.0689 28.1883 19.6629 28.5943 19.1409 28.5943C18.6189 28.5943 18.2129 28.1883 18.2129 27.6663C18.2129 27.1443 18.6189 26.7383 19.1409 26.7383Z" fill="#4C5167" stroke="#4C5167" stroke-width="0.5669" stroke-miterlimit="22.9256"/>
<path fill-rule="evenodd" clip-rule="evenodd" d="M25.9261 28.3618C26.4481 28.3618 26.8541 28.7678 26.8541 29.2898C26.8541 29.8118 26.4481 30.2178 25.9261 30.2178C25.4041 30.2178 24.998 29.8118 24.998 29.2898C24.998 28.8258 25.4041 28.3618 25.9261 28.3618Z" fill="#4C5167" stroke="#4C5167" stroke-width="1.4641" stroke-miterlimit="22.9256"/>
<path fill-rule="evenodd" clip-rule="evenodd" d="M25.9261 28.3618C26.4481 28.3618 26.8541 28.7678 26.8541 29.2898C26.8541 29.8118 26.4481 30.2178 25.9261 30.2178C25.4041 30.2178 24.998 29.8118 24.998 29.2898C24.998 28.7678 25.4041 28.3618 25.9261 28.3618Z" fill="#4C5167" stroke="#4C5167" stroke-width="0.5669" stroke-miterlimit="22.9256"/>
<path fill-rule="evenodd" clip-rule="evenodd" d="M33.3499 27.666C33.8719 27.666 34.2779 28.072 34.2779 28.594C34.2779 29.116 33.8719 29.522 33.3499 29.522C32.8279 29.522 32.4219 29.116 32.4219 28.594C32.4219 28.072 32.8859 27.666 33.3499 27.666Z" fill="#4C5167" stroke="#4C5167" stroke-width="1.4641" stroke-miterlimit="22.9256"/>
<path d="M33.3499 29.522C33.8624 29.522 34.2779 29.1065 34.2779 28.594C34.2779 28.0815 33.8624 27.666 33.3499 27.666C32.8373 27.666 32.4219 28.0815 32.4219 28.594C32.4219 29.1065 32.8373 29.522 33.3499 29.522Z" fill="#4C5167" stroke="#4C5167" stroke-width="0.5669" stroke-miterlimit="22.9256"/>
<path fill-rule="evenodd" clip-rule="evenodd" d="M20.0686 22.7358C20.5906 22.7358 20.9966 23.1418 20.9966 23.6638C20.9966 24.1858 20.5906 24.5918 20.0686 24.5918C19.5466 24.5918 19.1406 24.1858 19.1406 23.6638C19.1406 23.1418 19.5466 22.7358 20.0686 22.7358Z" fill="#4C5167" stroke="#4C5167" stroke-width="1.4641" stroke-miterlimit="22.9256"/>
<path fill-rule="evenodd" clip-rule="evenodd" d="M20.0686 22.7358C20.5906 22.7358 20.9966 23.1418 20.9966 23.6638C20.9966 24.1858 20.5906 24.5918 20.0686 24.5918C19.5466 24.5918 19.1406 24.1858 19.1406 23.6638C19.1406 23.1418 19.5466 22.7358 20.0686 22.7358Z" fill="#4C5167" stroke="#4C5167" stroke-width="0.5669" stroke-miterlimit="22.9256"/>
<path d="M39.4983 22.3882C40.0108 22.3882 40.4263 21.9727 40.4263 21.4602C40.4263 20.9477 40.0108 20.5322 39.4983 20.5322C38.9858 20.5322 38.5703 20.9477 38.5703 21.4602C38.5703 21.9727 38.9858 22.3882 39.4983 22.3882Z" fill="#4C5167" stroke="#4C5167" stroke-width="1.4641" stroke-miterlimit="22.9256"/>
<path fill-rule="evenodd" clip-rule="evenodd" d="M39.4983 20.5898C40.0203 20.5898 40.4263 20.9958 40.4263 21.5178C40.4263 22.0398 40.0203 22.4458 39.4983 22.4458C38.9763 22.4458 38.5703 22.0398 38.5703 21.5178C38.5703 20.9958 38.9763 20.5898 39.4983 20.5898Z" fill="#4C5167" stroke="#4C5167" stroke-width="0.5669" stroke-miterlimit="22.9256"/>
<path fill-rule="evenodd" clip-rule="evenodd" d="M43.1526 25.5781C43.6746 25.5781 44.0806 25.9841 44.0806 26.5061C44.0806 27.0281 43.6746 27.4341 43.1526 27.4341C42.6306 27.4341 42.2246 27.0281 42.2246 26.5061C42.2246 25.9841 42.6306 25.5781 43.1526 25.5781Z" fill="#4C5167" stroke="#4C5167" stroke-width="1.4641" stroke-miterlimit="22.9256"/>
<path fill-rule="evenodd" clip-rule="evenodd" d="M43.1526 25.5781C43.6746 25.5781 44.0806 25.9841 44.0806 26.5061C44.0806 27.0281 43.6746 27.4341 43.1526 27.4341C42.6306 27.4341 42.2246 27.0281 42.2246 26.5061C42.2246 25.9841 42.6306 25.5781 43.1526 25.5781Z" fill="#4C5167" stroke="#4C5167" stroke-width="0.5669" stroke-miterlimit="22.9256"/>
<path fill-rule="evenodd" clip-rule="evenodd" d="M37.8733 25.8101C38.3953 25.8101 38.8013 26.2161 38.8013 26.7381C38.8013 27.2601 38.3953 27.6661 37.8733 27.6661C37.3513 27.6661 36.9453 27.2601 36.9453 26.7381C36.9453 26.2161 37.4093 25.8101 37.8733 25.8101Z" fill="#4C5167" stroke="#4C5167" stroke-width="1.4641" stroke-miterlimit="22.9256"/>
<path fill-rule="evenodd" clip-rule="evenodd" d="M37.8733 25.8101C38.3953 25.8101 38.8013 26.2161 38.8013 26.7381C38.8013 27.2601 38.3953 27.6661 37.8733 27.6661C37.3513 27.6661 36.9453 27.2601 36.9453 26.7381C36.9453 26.2161 37.4093 25.8101 37.8733 25.8101Z" fill="#4C5167" stroke="#4C5167" stroke-width="0.5669" stroke-miterlimit="22.9256"/>
<path fill-rule="evenodd" clip-rule="evenodd" d="M46.6331 33.814C47.1551 33.814 47.5611 34.22 47.5611 34.742C47.5611 35.264 47.1551 35.67 46.6331 35.67C46.1111 35.67 45.7051 35.264 45.7051 34.742C45.7051 34.22 46.1111 33.814 46.6331 33.814Z" fill="#4C5167" stroke="#4C5167" stroke-width="1.4641" stroke-miterlimit="22.9256"/>
<path fill-rule="evenodd" clip-rule="evenodd" d="M46.6331 33.814C47.1551 33.814 47.5611 34.22 47.5611 34.742C47.5611 35.264 47.1551 35.67 46.6331 35.67C46.1111 35.67 45.7051 35.264 45.7051 34.742C45.7051 34.22 46.1111 33.814 46.6331 33.814Z" fill="#4C5167" stroke="#4C5167" stroke-width="0.5669" stroke-miterlimit="22.9256"/>
<path d="M41.7034 32.3062C42.2159 32.3062 42.6314 31.8907 42.6314 31.3782C42.6314 30.8657 42.2159 30.4502 41.7034 30.4502C41.1909 30.4502 40.7754 30.8657 40.7754 31.3782C40.7754 31.8907 41.1909 32.3062 41.7034 32.3062Z" fill="#4C5167" stroke="#4C5167" stroke-width="1.4641" stroke-miterlimit="22.9256"/>
<path fill-rule="evenodd" clip-rule="evenodd" d="M41.7034 30.4502C42.2254 30.4502 42.6314 30.8562 42.6314 31.3782C42.6314 31.9002 42.2254 32.3062 41.7034 32.3062C41.1814 32.3062 40.7754 31.9002 40.7754 31.3782C40.7754 30.9142 41.1814 30.4502 41.7034 30.4502Z" fill="#4C5167" stroke="#4C5167" stroke-width="0.5669" stroke-miterlimit="22.9256"/>
<path fill-rule="evenodd" clip-rule="evenodd" d="M37.2932 33.9883C37.8152 33.9883 38.2212 34.3943 38.2212 34.9163C38.2212 35.4383 37.8152 35.8443 37.2932 35.8443C36.7712 35.8443 36.3652 35.4383 36.3652 34.9163C36.3652 34.3943 36.7712 33.9883 37.2932 33.9883Z" fill="#4C5167" stroke="#4C5167" stroke-width="1.4641" stroke-miterlimit="22.9256"/>
<path fill-rule="evenodd" clip-rule="evenodd" d="M37.2932 33.9883C37.8152 33.9883 38.2212 34.3943 38.2212 34.9163C38.2212 35.4383 37.8152 35.8443 37.2932 35.8443C36.7712 35.8443 36.3652 35.4383 36.3652 34.9163C36.3652 34.3943 36.7712 33.9883 37.2932 33.9883Z" fill="#4C5167" stroke="#4C5167" stroke-width="0.5669" stroke-miterlimit="22.9256"/>
<path fill-rule="evenodd" clip-rule="evenodd" d="M29.5803 32.4219C30.1023 32.4219 30.5083 32.8279 30.5083 33.3499C30.5083 33.8719 30.1023 34.2779 29.5803 34.2779C29.0583 34.2779 28.6523 33.8719 28.6523 33.3499C28.6523 32.8279 29.0583 32.4219 29.5803 32.4219Z" fill="#4C5167" stroke="#4C5167" stroke-width="1.4641" stroke-miterlimit="22.9256"/>
<path fill-rule="evenodd" clip-rule="evenodd" d="M29.5803 32.4219C30.1023 32.4219 30.5083 32.8279 30.5083 33.3499C30.5083 33.8719 30.1023 34.2779 29.5803 34.2779C29.0583 34.2779 28.6523 33.8719 28.6523 33.3499C28.6523 32.8279 29.0583 32.4219 29.5803 32.4219Z" fill="#4C5167" stroke="#4C5167" stroke-width="0.5669" stroke-miterlimit="22.9256"/>
<path fill-rule="evenodd" clip-rule="evenodd" d="M17.1096 33.6982C17.6316 33.6982 18.0376 34.1042 18.0376 34.6262C18.0376 35.1482 17.6316 35.5542 17.1096 35.5542C16.5876 35.5542 16.1816 35.1482 16.1816 34.6262C16.1816 34.1042 16.5876 33.6982 17.1096 33.6982Z" fill="#4C5167" stroke="#4C5167" stroke-width="1.4641" stroke-miterlimit="22.9256"/>
<path fill-rule="evenodd" clip-rule="evenodd" d="M17.1096 33.6982C17.6316 33.6982 18.0376 34.1042 18.0376 34.6262C18.0376 35.1482 17.6316 35.5542 17.1096 35.5542C16.5876 35.5542 16.1816 35.1482 16.1816 34.6262C16.1816 34.1042 16.5876 33.6982 17.1096 33.6982Z" fill="#4C5167" stroke="#4C5167" stroke-width="0.5669" stroke-miterlimit="22.9256"/>
<path fill-rule="evenodd" clip-rule="evenodd" d="M15.0803 29.3481C15.6023 29.3481 16.0083 29.7541 16.0083 30.2761C16.0083 30.7981 15.6023 31.2041 15.0803 31.2041C14.5583 31.2041 14.1523 30.7981 14.1523 30.2761C14.2103 29.7541 14.6163 29.3481 15.0803 29.3481Z" fill="#4C5167" stroke="#4C5167" stroke-width="1.4641" stroke-miterlimit="22.9256"/>
<path fill-rule="evenodd" clip-rule="evenodd" d="M15.0803 29.3481C15.6023 29.3481 16.0083 29.7541 16.0083 30.2761C16.0083 30.7981 15.6023 31.2041 15.0803 31.2041C14.5583 31.2041 14.1523 30.7981 14.1523 30.2761C14.2103 29.7541 14.6163 29.3481 15.0803 29.3481Z" fill="#4C5167" stroke="#4C5167" stroke-width="0.5669" stroke-miterlimit="22.9256"/>
<path fill-rule="evenodd" clip-rule="evenodd" d="M23.3167 32.1318C23.8387 32.1318 24.2447 32.5378 24.2447 33.0598C24.2447 33.5818 23.8387 33.9878 23.3167 33.9878C22.7947 33.9878 22.3887 33.5818 22.3887 33.0598C22.4467 32.5378 22.8527 32.1318 23.3167 32.1318Z" fill="#4C5167" stroke="#4C5167" stroke-width="1.4641" stroke-miterlimit="22.9256"/>
<path d="M23.3167 33.9302C23.8292 33.9302 24.2447 33.5147 24.2447 33.0022C24.2447 32.4897 23.8292 32.0742 23.3167 32.0742C22.8042 32.0742 22.3887 32.4897 22.3887 33.0022C22.3887 33.5147 22.8042 33.9302 23.3167 33.9302Z" fill="#4C5167" stroke="#4C5167" stroke-width="0.5669" stroke-miterlimit="22.9256"/>
<path d="M25.1721 25.8101C25.6847 25.8101 26.1001 25.3946 26.1001 24.8821C26.1001 24.3696 25.6847 23.9541 25.1721 23.9541C24.6596 23.9541 24.2441 24.3696 24.2441 24.8821C24.2441 25.3946 24.6596 25.8101 25.1721 25.8101Z" fill="#4C5167" stroke="#4C5167" stroke-width="1.4638" stroke-miterlimit="22.9256"/>
<path d="M30.1018 26.1001C30.6144 26.1001 31.0298 25.6847 31.0298 25.1721C31.0298 24.6596 30.6144 24.2441 30.1018 24.2441C29.5893 24.2441 29.1738 24.6596 29.1738 25.1721C29.1738 25.6847 29.5893 26.1001 30.1018 26.1001Z" fill="#4C5167" stroke="#4C5167" stroke-width="1.4641" stroke-miterlimit="22.9256"/>
<path fill-rule="evenodd" clip-rule="evenodd" d="M34.2776 20.8799C34.7996 20.8799 35.2056 21.2859 35.2056 21.8079C35.2056 22.3299 34.7996 22.7359 34.2776 22.7359C33.7556 22.7359 33.3496 22.3299 33.3496 21.8079C33.3496 21.2859 33.7556 20.8799 34.2776 20.8799Z" fill="#4C5167" stroke="#4C5167" stroke-width="1.4641" stroke-miterlimit="22.9256"/>
<path fill-rule="evenodd" clip-rule="evenodd" d="M27.8987 20.7637C28.4207 20.7637 28.8267 21.1697 28.8267 21.6917C28.8267 22.2137 28.4207 22.6197 27.8987 22.6197C27.3767 22.6197 26.9707 22.2137 26.9707 21.6917C27.0287 21.1697 27.4347 20.7637 27.8987 20.7637Z" fill="#4C5167" stroke="#4C5167" stroke-width="1.4641" stroke-miterlimit="22.9256"/>
<path fill-rule="evenodd" clip-rule="evenodd" d="M29.1155 36.6562C29.6375 36.6562 30.0435 37.0623 30.0435 37.5843C30.0435 38.1063 29.6375 38.5123 29.1155 38.5123C28.5935 38.5123 28.1875 38.1063 28.1875 37.5843C28.1875 37.0623 28.5935 36.6562 29.1155 36.6562Z" fill="#4C5167" stroke="#4C5167" stroke-width="1.4641" stroke-miterlimit="22.9256"/>
<path fill-rule="evenodd" clip-rule="evenodd" d="M49.5901 25.0562C50.1121 25.0562 50.5181 25.4622 50.5181 25.9842C50.5181 26.5062 50.1121 26.9122 49.5901 26.9122C49.0681 26.9122 48.6621 26.5062 48.6621 25.9842C48.6621 25.4622 49.0681 25.0562 49.5901 25.0562Z" fill="#4C5167" stroke="#4C5167" stroke-width="1.4641" stroke-miterlimit="22.9256"/>
<path fill-rule="evenodd" clip-rule="evenodd" d="M15.7171 39.2656C16.2391 39.2656 16.6451 39.6716 16.6451 40.1936C16.6451 40.7156 16.2391 41.1216 15.7171 41.1216C15.1951 41.1216 14.7891 40.7156 14.7891 40.1936C14.7891 39.6716 15.1951 39.2656 15.7171 39.2656Z" fill="#4C5167" stroke="#4C5167" stroke-width="1.4641" stroke-miterlimit="22.9256"/>
<path d="M15.7171 41.1216C16.2296 41.1216 16.6451 40.7061 16.6451 40.1936C16.6451 39.6811 16.2296 39.2656 15.7171 39.2656C15.2045 39.2656 14.7891 39.6811 14.7891 40.1936C14.7891 40.7061 15.2045 41.1216 15.7171 41.1216Z" fill="#4C5167" stroke="#4C5167" stroke-width="0.5669" stroke-miterlimit="22.9256"/>
<path fill-rule="evenodd" clip-rule="evenodd" d="M22.4456 38.5117C22.9676 38.5117 23.3736 38.9177 23.3736 39.4397C23.3736 39.9617 22.9676 40.3677 22.4456 40.3677C21.9236 40.3677 21.5176 39.9617 21.5176 39.4397C21.5176 38.9177 21.9236 38.5117 22.4456 38.5117Z" fill="#4C5167" stroke="#4C5167" stroke-width="1.4641" stroke-miterlimit="22.9256"/>
<path fill-rule="evenodd" clip-rule="evenodd" d="M22.4456 38.5117C22.9676 38.5117 23.3736 38.9177 23.3736 39.4397C23.3736 39.9617 22.9676 40.3677 22.4456 40.3677C21.9236 40.3677 21.5176 39.9617 21.5176 39.4397C21.5176 38.9177 21.9236 38.5117 22.4456 38.5117Z" fill="#4C5167" stroke="#4C5167" stroke-width="0.5669" stroke-miterlimit="22.9256"/>
<path fill-rule="evenodd" clip-rule="evenodd" d="M19.4299 42.2236C19.9519 42.2236 20.3579 42.6296 20.3579 43.1516C20.3579 43.6736 19.9519 44.0796 19.4299 44.0796C18.9079 44.0796 18.502 43.6736 18.502 43.1516C18.56 42.6296 18.9659 42.2236 19.4299 42.2236Z" fill="#4C5167" stroke="#4C5167" stroke-width="1.4641" stroke-miterlimit="22.9256"/>
<path fill-rule="evenodd" clip-rule="evenodd" d="M19.4299 42.2236C19.9519 42.2236 20.3579 42.6296 20.3579 43.1516C20.3579 43.6736 19.9519 44.0796 19.4299 44.0796C18.9079 44.0796 18.502 43.6736 18.502 43.1516C18.56 42.6296 18.9659 42.2236 19.4299 42.2236Z" fill="#4C5167" stroke="#4C5167" stroke-width="0.5669" stroke-miterlimit="22.9256"/>
<path fill-rule="evenodd" clip-rule="evenodd" d="M25.1721 45.3555C25.6941 45.3555 26.1001 45.7615 26.1001 46.2835C26.1001 46.8055 25.6941 47.2115 25.1721 47.2115C24.6501 47.2115 24.2441 46.8055 24.2441 46.2835C24.2441 45.7615 24.6501 45.3555 25.1721 45.3555Z" fill="#4C5167" stroke="#4C5167" stroke-width="1.4641" stroke-miterlimit="22.9256"/>
<path fill-rule="evenodd" clip-rule="evenodd" d="M25.1721 45.3555C25.6941 45.3555 26.1001 45.7615 26.1001 46.2835C26.1001 46.8055 25.6941 47.2115 25.1721 47.2115C24.6501 47.2115 24.2441 46.8055 24.2441 46.2835C24.2441 45.7615 24.6501 45.3555 25.1721 45.3555Z" fill="#4C5167" stroke="#4C5167" stroke-width="0.5669" stroke-miterlimit="22.9256"/>
<path fill-rule="evenodd" clip-rule="evenodd" d="M32.0159 46.9795C32.5379 46.9795 32.9439 47.3855 32.9439 47.9075C32.9439 48.4295 32.5379 48.8355 32.0159 48.8355C31.4939 48.8355 31.0879 48.4295 31.0879 47.9075C31.0879 47.3855 31.4939 46.9795 32.0159 46.9795Z" fill="#4C5167" stroke="#4C5167" stroke-width="1.4641" stroke-miterlimit="22.9256"/>
<path fill-rule="evenodd" clip-rule="evenodd" d="M32.0159 46.9795C32.5379 46.9795 32.9439 47.3855 32.9439 47.9075C32.9439 48.4295 32.5379 48.8355 32.0159 48.8355C31.4939 48.8355 31.0879 48.4295 31.0879 47.9075C31.0879 47.3855 31.4939 46.9795 32.0159 46.9795Z" fill="#4C5167" stroke="#4C5167" stroke-width="0.5669" stroke-miterlimit="22.9256"/>
<path d="M39.4397 48.1397C39.9522 48.1397 40.3677 47.7242 40.3677 47.2117C40.3677 46.6992 39.9522 46.2837 39.4397 46.2837C38.9272 46.2837 38.5117 46.6992 38.5117 47.2117C38.5117 47.7242 38.9272 48.1397 39.4397 48.1397Z" fill="#4C5167" stroke="#4C5167" stroke-width="1.4641" stroke-miterlimit="22.9256"/>
<path fill-rule="evenodd" clip-rule="evenodd" d="M39.4397 46.2837C39.9617 46.2837 40.3677 46.6897 40.3677 47.2117C40.3677 47.7337 39.9617 48.1397 39.4397 48.1397C38.9177 48.1397 38.5117 47.7337 38.5117 47.2117C38.5117 46.6897 38.9177 46.2837 39.4397 46.2837Z" fill="#4C5167" stroke="#4C5167" stroke-width="0.5669" stroke-miterlimit="22.9256"/>
<path fill-rule="evenodd" clip-rule="evenodd" d="M26.0999 41.2959C26.6219 41.2959 27.0279 41.7019 27.0279 42.2239C27.0279 42.7459 26.6219 43.1519 26.0999 43.1519C25.5779 43.1519 25.1719 42.7459 25.1719 42.2239C25.1719 41.7019 25.5779 41.2959 26.0999 41.2959Z" fill="#4C5167" stroke="#4C5167" stroke-width="1.4641" stroke-miterlimit="22.9256"/>
<path fill-rule="evenodd" clip-rule="evenodd" d="M26.0999 41.2959C26.6219 41.2959 27.0279 41.7019 27.0279 42.2239C27.0279 42.7459 26.6219 43.1519 26.0999 43.1519C25.5779 43.1519 25.1719 42.7459 25.1719 42.2239C25.1719 41.7019 25.5779 41.2959 26.0999 41.2959Z" fill="#4C5167" stroke="#4C5167" stroke-width="0.5669" stroke-miterlimit="22.9256"/>
<path fill-rule="evenodd" clip-rule="evenodd" d="M45.5882 39.1494C46.1102 39.1494 46.5162 39.5554 46.5162 40.0774C46.5162 40.5994 46.1102 41.0054 45.5882 41.0054C45.0662 41.0054 44.6602 40.5994 44.6602 40.0774C44.6602 39.5554 45.0662 39.1494 45.5882 39.1494Z" fill="#4C5167" stroke="#4C5167" stroke-width="1.4641" stroke-miterlimit="22.9256"/>
<path d="M45.5882 41.0054C46.1007 41.0054 46.5162 40.5899 46.5162 40.0774C46.5162 39.5649 46.1007 39.1494 45.5882 39.1494C45.0756 39.1494 44.6602 39.5649 44.6602 40.0774C44.6602 40.5899 45.0756 41.0054 45.5882 41.0054Z" fill="#4C5167" stroke="#4C5167" stroke-width="0.5669" stroke-miterlimit="22.9256"/>
<path fill-rule="evenodd" clip-rule="evenodd" d="M49.1839 44.1958C49.7059 44.1958 50.1119 44.6018 50.1119 45.1238C50.1119 45.6458 49.7059 46.0518 49.1839 46.0518C48.6619 46.0518 48.2559 45.6458 48.2559 45.1238C48.2559 44.6018 48.6619 44.1958 49.1839 44.1958Z" fill="#4C5167" stroke="#4C5167" stroke-width="1.4641" stroke-miterlimit="22.9256"/>
<path fill-rule="evenodd" clip-rule="evenodd" d="M49.1839 44.1958C49.7059 44.1958 50.1119 44.6018 50.1119 45.1238C50.1119 45.6458 49.7059 46.0518 49.1839 46.0518C48.6619 46.0518 48.2559 45.6458 48.2559 45.1238C48.2559 44.6018 48.6619 44.1958 49.1839 44.1958Z" fill="#4C5167" stroke="#4C5167" stroke-width="0.5669" stroke-miterlimit="22.9256"/>
<path fill-rule="evenodd" clip-rule="evenodd" d="M43.9632 44.3696C44.4852 44.3696 44.8912 44.7756 44.8912 45.2976C44.8912 45.8196 44.4852 46.2256 43.9632 46.2256C43.4412 46.2256 43.0352 45.8196 43.0352 45.2976C43.0352 44.8336 43.4412 44.3696 43.9632 44.3696Z" fill="#4C5167" stroke="#4C5167" stroke-width="1.4641" stroke-miterlimit="22.9256"/>
<path d="M43.9632 46.2256C44.4757 46.2256 44.8912 45.8102 44.8912 45.2976C44.8912 44.7851 44.4757 44.3696 43.9632 44.3696C43.4506 44.3696 43.0352 44.7851 43.0352 45.2976C43.0352 45.8102 43.4506 46.2256 43.9632 46.2256Z" fill="#4C5167" stroke="#4C5167" stroke-width="0.5669" stroke-miterlimit="22.9256"/>
<path fill-rule="evenodd" clip-rule="evenodd" d="M21.1702 47.9077C21.6922 47.9077 22.0982 48.3137 22.0982 48.8357C22.0982 49.3577 21.6922 49.7637 21.1702 49.7637C20.6482 49.7637 20.2422 49.3577 20.2422 48.8357C20.2422 48.3717 20.6482 47.9077 21.1702 47.9077Z" fill="#4C5167" stroke="#4C5167" stroke-width="1.4641" stroke-miterlimit="22.9256"/>
<path fill-rule="evenodd" clip-rule="evenodd" d="M21.1702 47.9077C21.6922 47.9077 22.0982 48.3137 22.0982 48.8357C22.0982 49.3577 21.6922 49.7637 21.1702 49.7637C20.6482 49.7637 20.2422 49.3577 20.2422 48.8357C20.2422 48.3717 20.6482 47.9077 21.1702 47.9077Z" fill="#4C5167" stroke="#4C5167" stroke-width="0.5669" stroke-miterlimit="22.9256"/>
<path fill-rule="evenodd" clip-rule="evenodd" d="M31.2034 42.5718C31.7254 42.5718 32.1314 42.9778 32.1314 43.4998C32.1314 44.0218 31.7254 44.4278 31.2034 44.4278C30.6814 44.4278 30.2754 44.0218 30.2754 43.4998C30.3334 42.9778 30.7394 42.5718 31.2034 42.5718Z" fill="#4C5167" stroke="#4C5167" stroke-width="1.4641" stroke-miterlimit="22.9256"/>
<path fill-rule="evenodd" clip-rule="evenodd" d="M36.1331 42.8613C36.6551 42.8613 37.0611 43.2673 37.0611 43.7893C37.0611 44.3113 36.6551 44.7173 36.1331 44.7173C35.6111 44.7173 35.2051 44.3113 35.2051 43.7893C35.2631 43.2673 35.6691 42.8613 36.1331 42.8613Z" fill="#4C5167" stroke="#4C5167" stroke-width="1.4641" stroke-miterlimit="22.9256"/>
<path fill-rule="evenodd" clip-rule="evenodd" d="M40.3108 39.498C40.8328 39.498 41.2388 39.904 41.2388 40.426C41.2388 40.948 40.8328 41.354 40.3108 41.354C39.7888 41.354 39.3828 40.948 39.3828 40.426C39.4408 39.904 39.8468 39.498 40.3108 39.498Z" fill="#4C5167" stroke="#4C5167" stroke-width="1.4638" stroke-miterlimit="22.9256"/>
<path d="M33.9886 41.1797C34.5011 41.1797 34.9166 40.7643 34.9166 40.2517C34.9166 39.7392 34.5011 39.3237 33.9886 39.3237C33.476 39.3237 33.0605 39.7392 33.0605 40.2517C33.0605 40.7643 33.476 41.1797 33.9886 41.1797Z" fill="#4C5167" stroke="#4C5167" stroke-width="1.4641" stroke-miterlimit="22.9256"/>
<path d="M31.9635 10.4971C42.1822 12.1343 49.1389 21.7455 47.5017 31.9643C45.8645 42.1831 36.2533 49.1398 26.0345 47.5025C15.8157 45.8653 8.85903 36.2541 10.4963 26.0353C12.1335 15.8165 21.7447 8.85984 31.9635 10.4971Z" stroke="#4C5167"/>
</g>
</svg>
