<svg width="58" height="58" viewBox="0 0 58 58" fill="none" xmlns="http://www.w3.org/2000/svg">
<circle cx="29" cy="29" r="29" fill="white"/>
<circle cx="29" cy="29" r="28" stroke="#3E3F43" stroke-opacity="0.12" stroke-width="2"/>
<mask id="mask0_1480_3347" style="mask-type:alpha" maskUnits="userSpaceOnUse" x="9" y="9" width="40" height="40">
<path d="M47.9954 32.0434C49.6763 21.552 42.534 11.6843 32.0426 10.0034C21.5511 8.32246 11.6835 15.4648 10.0026 25.9562C8.32164 36.4476 15.464 46.3153 25.9554 47.9962C36.4468 49.6771 46.3145 42.5348 47.9954 32.0434Z" fill="white"/>
</mask>
<g mask="url(#mask0_1480_3347)">
<path fill-rule="evenodd" clip-rule="evenodd" d="M22.1305 13.9777L22.3124 14.766L23.1007 15.2511L22.7369 15.8575L19.7051 13.9171L20.0689 13.3714L21.6454 14.3416L20.9784 11.8555L21.4029 11.1885L21.9486 13.3714L24.4953 13.0682L24.0708 13.7352L22.1305 13.9777Z" fill="#ECBF28"/>
<path fill-rule="evenodd" clip-rule="evenodd" d="M26.4357 21.0117L25.2229 19.3746L25.4048 21.3149L25.2229 21.4362L23.4645 20.7086L24.6166 22.2851L24.1921 22.5883L22.373 20.1628L22.7369 19.8597L24.9198 20.7692L24.6772 18.465L25.041 18.1618L26.8601 20.5873L26.4357 21.0117ZM27.9516 17.0098L27.5271 17.3129L27.709 17.5555C27.5877 17.4948 27.4059 17.4948 27.2846 17.5555C27.1633 17.6161 26.9814 17.6768 26.8601 17.7374C26.6782 17.8587 26.5569 18.0406 26.4357 18.2225C26.375 18.4044 26.3144 18.5863 26.3144 18.7682C26.3144 18.9501 26.4357 19.132 26.5569 19.3139C26.6782 19.4958 26.8601 19.6171 27.042 19.6777C27.2239 19.7384 27.4059 19.799 27.5878 19.7384C27.7697 19.7384 27.9516 19.6171 28.1335 19.4958C28.2547 19.3746 28.376 19.3139 28.4366 19.1927C28.4973 19.0714 28.5579 18.9501 28.5579 18.8288L28.6185 18.9501C28.7398 19.132 28.8005 19.3139 28.8005 19.4958C28.8005 19.6778 28.6792 19.799 28.4366 19.9809C28.3154 20.1022 28.1941 20.1628 28.0122 20.2235C27.8303 20.2841 27.709 20.2841 27.5878 20.2841L27.6484 20.7692C27.8303 20.7692 28.0122 20.7692 28.1941 20.6479C28.376 20.5873 28.5579 20.466 28.7398 20.3447C29.4068 19.8597 29.5281 19.2533 29.043 18.6469L27.9516 17.0098ZM28.0122 19.1927C27.8303 19.3139 27.6484 19.3746 27.4665 19.3746C27.2846 19.3746 27.1633 19.2533 27.042 19.132C26.9208 18.9501 26.8601 18.8288 26.9207 18.6469C26.9814 18.465 27.042 18.3438 27.2239 18.2225C27.4058 18.1012 27.5877 18.0406 27.709 18.0406C27.8909 18.0406 28.0122 18.1619 28.1335 18.2831C28.2547 18.465 28.3154 18.5863 28.2547 18.7682C28.2547 18.8895 28.1335 19.0714 28.0122 19.1927Z" fill="#ECBF28"/>
<path fill-rule="evenodd" clip-rule="evenodd" d="M35.8946 18.1621L36.3798 21.1333L35.8946 21.1939L33.8937 19.4355L34.1968 21.4365L33.6511 21.4971L33.166 18.5259L33.6511 18.4653L35.6521 20.2237L35.3489 18.2227L35.8946 18.1621ZM37.6531 18.5866C38.0169 18.5259 38.2594 18.5866 38.4414 18.7078C38.6233 18.8291 38.7446 19.0716 38.8052 19.3748L39.0477 20.7088L38.5626 20.7695L38.502 20.4663C38.4414 20.5876 38.3807 20.6482 38.2595 20.7695C38.1382 20.8301 38.0169 20.8907 37.835 20.8907C37.6531 20.8907 37.5318 20.8907 37.3499 20.8907C37.2286 20.8301 37.1074 20.7695 36.9861 20.7088C36.9255 20.5876 36.8648 20.5269 36.8042 20.345C36.7435 20.1631 36.8042 19.9812 36.9255 19.7993C37.0467 19.678 37.2893 19.5567 37.5925 19.4961L38.1988 19.3748V19.3142C38.1988 19.1323 38.0775 19.011 38.0169 18.9504C37.8956 18.8897 37.7744 18.8897 37.5925 18.8897C37.4712 18.8897 37.3499 18.9504 37.2286 19.011C37.1074 19.0717 36.9861 19.1323 36.9255 19.2536L36.6223 18.8897C36.7435 18.7685 36.8648 18.7078 37.0467 18.5866C37.2893 18.6472 37.4712 18.5866 37.6531 18.5866ZM37.8957 20.5269C38.0169 20.5269 38.1382 20.4663 38.2595 20.4056C38.3807 20.345 38.4414 20.2237 38.4414 20.1025L38.3807 19.8599L37.835 19.9206C37.5318 19.9812 37.4105 20.1025 37.4105 20.2844C37.4105 20.4056 37.4712 20.4663 37.5925 20.4663C37.6531 20.5269 37.7744 20.5269 37.8957 20.5269Z" fill="#ECBF28"/>
<path fill-rule="evenodd" clip-rule="evenodd" d="M30.4364 15.4937C30.1332 15.4331 29.8301 15.3118 29.5875 15.1299C29.345 14.948 29.2237 14.7054 29.1024 14.4022C28.9812 14.0991 28.9811 13.8565 29.0418 13.4927C29.1024 13.1895 29.2237 12.947 29.4662 12.7044C29.6481 12.4619 29.8907 12.3406 30.1939 12.28C30.4971 12.2193 30.8002 12.1587 31.1034 12.28C31.346 12.3406 31.5885 12.4012 31.7704 12.5832C31.9523 12.7044 32.1342 12.8863 32.2555 13.0682L31.8311 13.3714C31.6491 13.0682 31.4066 12.8863 31.0428 12.8257C30.8002 12.7651 30.6183 12.7651 30.4364 12.8257C30.2545 12.8863 30.0726 13.0076 29.9513 13.1289C29.83 13.2502 29.7088 13.4321 29.7088 13.6746C29.6482 13.9172 29.6482 14.0991 29.7088 14.281C29.7694 14.4629 29.8907 14.6448 30.012 14.7661C30.1939 14.8873 30.3758 15.0086 30.5577 15.0086C30.9215 15.0692 31.2247 15.0086 31.4672 14.8267L31.7704 15.2511C31.5885 15.3724 31.4066 15.4937 31.164 15.5543C30.9215 15.5543 30.6789 15.5543 30.4364 15.4937ZM33.5895 13.614C33.4076 13.5533 33.2257 13.5533 32.9831 13.5533C32.8012 13.5533 32.6193 13.614 32.498 13.6746L32.6193 14.1597C32.7406 14.0991 32.8618 14.0384 32.9831 14.0384C33.1044 14.0384 33.2863 14.0384 33.4076 14.0384C33.5895 14.0991 33.7714 14.1597 33.832 14.281C33.8927 14.4022 33.9533 14.5235 33.8927 14.7054V14.7661L33.2863 14.6448C32.9225 14.5842 32.6799 14.5841 32.498 14.7054C32.3161 14.8267 32.1949 14.948 32.1342 15.1905C32.1342 15.3118 32.1342 15.433 32.1949 15.615C32.2555 15.7362 32.3161 15.8575 32.4374 15.9181C32.5587 15.9788 32.7406 16.1 32.9225 16.1C33.1044 16.1607 33.2863 16.1607 33.4076 16.1C33.5288 16.1 33.6501 16.0394 33.7714 15.9181L33.7108 16.2213L34.2565 16.3426L34.5597 14.948C34.6203 14.5842 34.6203 14.3416 34.4384 14.0991C34.1958 13.7959 33.9533 13.6746 33.5895 13.614ZM33.1044 15.615C32.9831 15.615 32.8618 15.5543 32.8012 15.433C32.7406 15.3724 32.68 15.2511 32.7406 15.1905C32.8012 14.948 32.9831 14.8873 33.2863 14.948L33.8927 15.0692L33.832 15.3724C33.7714 15.4937 33.6501 15.5543 33.5289 15.615C33.3469 15.6756 33.2257 15.6756 33.1044 15.615Z" fill="#ECBF28"/>
<path fill-rule="evenodd" clip-rule="evenodd" d="M28.4961 10.7645L27.4653 9.06668V11.007L27.2228 11.1283L25.525 10.2794L26.5558 11.9772L26.0707 12.2804L24.4941 9.67304L24.9186 9.4305L26.9802 10.5219L26.9196 8.21778L27.344 7.97524L28.9206 10.5826L28.4961 10.7645ZM30.3152 6.88379L29.8908 7.12633L30.0727 7.36888C29.9514 7.30824 29.7695 7.30824 29.6482 7.30824C29.5269 7.30824 29.345 7.36888 29.2237 7.49015C29.0418 7.61142 28.9206 7.73269 28.7993 7.9146C28.678 8.09651 28.6174 8.27841 28.6174 8.46032C28.6174 8.64223 28.678 8.82414 28.7993 9.06668C28.9206 9.24859 29.0418 9.36987 29.2237 9.49114C29.4056 9.61241 29.5876 9.61241 29.7695 9.61241C29.9514 9.61241 30.1939 9.55177 30.3758 9.4305C30.4971 9.36986 30.6184 9.24859 30.679 9.12732C30.7397 9.00605 30.8003 8.88477 30.8609 8.7635L30.9216 8.88478C31.0429 9.06669 31.1035 9.24859 31.0428 9.4305C30.9822 9.61241 30.8609 9.73368 30.679 9.85495C30.5577 9.91559 30.3758 9.97622 30.2546 10.0369C30.0727 10.0975 29.9514 10.0975 29.8301 10.0369V10.5219C30.012 10.5219 30.1939 10.5219 30.3758 10.4613C30.5577 10.4007 30.7397 10.34 30.9822 10.2188C31.7098 9.79432 31.8311 9.18796 31.4067 8.52096L30.3152 6.88379ZM30.1939 9.00605C30.012 9.12732 29.8301 9.12732 29.6482 9.12732C29.4663 9.06668 29.345 9.00605 29.2237 8.82414C29.1025 8.64223 29.1025 8.52096 29.1631 8.33905C29.2238 8.15714 29.345 8.03587 29.5269 7.9146C29.7088 7.79333 29.8908 7.79333 30.0727 7.79333C30.2546 7.85396 30.3758 7.9146 30.4971 8.09651C30.6184 8.27842 30.6184 8.46033 30.5577 8.5816C30.4971 8.76351 30.3758 8.88478 30.1939 9.00605Z" fill="#ECBF28"/>
<path fill-rule="evenodd" clip-rule="evenodd" d="M41.7149 14.4022L40.6841 12.7044V14.6447L40.4415 14.766L38.7437 13.9171L39.7745 15.6149L39.2894 15.9181L37.7129 13.3107L38.1373 13.0682L40.199 14.1596L40.1383 11.7948L40.5628 11.5523L42.1393 14.1596L41.7149 14.4022ZM43.534 10.5215L43.1095 10.764L43.2914 11.0066C43.1701 10.9459 42.9882 10.9459 42.867 10.9459C42.7457 10.9459 42.5638 11.0066 42.4425 11.1278C42.2606 11.2491 42.1393 11.3704 42.0181 11.5523C41.8968 11.7342 41.8362 11.9161 41.8362 12.098C41.8362 12.2799 41.8968 12.4618 42.0181 12.7044C42.1393 12.8863 42.2606 13.0076 42.4425 13.1288C42.6244 13.2501 42.8063 13.2501 42.9882 13.2501C43.1701 13.2501 43.4127 13.1895 43.5946 13.0682C43.7159 13.0076 43.8371 12.8863 43.8978 12.765C43.9584 12.6437 44.019 12.5225 44.0797 12.4012L44.1403 12.5225C44.2616 12.7044 44.3222 12.8863 44.2616 13.0682C44.201 13.2501 44.0797 13.3714 43.8978 13.4926C43.7765 13.5533 43.5946 13.6139 43.4733 13.6746C43.2914 13.7352 43.1702 13.7352 43.0489 13.6746V14.1596C43.2308 14.1596 43.4127 14.1596 43.5946 14.099C43.7765 14.0384 43.9584 13.9777 44.2009 13.8565C44.9286 13.432 45.0499 12.8257 44.6254 12.1587L43.534 10.5215ZM43.4127 12.6437C43.2308 12.765 43.0489 12.765 42.867 12.765C42.685 12.7044 42.5638 12.6437 42.4425 12.4618C42.3213 12.2799 42.3212 12.1587 42.3819 11.9767C42.4425 11.7948 42.5638 11.6736 42.7457 11.5523C42.9276 11.431 43.1095 11.431 43.2914 11.431C43.4733 11.4917 43.5946 11.5523 43.7159 11.7342C43.8371 11.9161 43.8371 12.098 43.7765 12.2193C43.7159 12.4012 43.5946 12.5225 43.4127 12.6437Z" fill="#ECBF28"/>
<path fill-rule="evenodd" clip-rule="evenodd" d="M49.0512 13.3717L48.3236 13.7355L48.0811 14.6451L47.4141 14.4025L48.5055 10.9463L49.1119 11.1888L48.5662 12.9473L50.8097 11.6739L51.5373 11.9165L49.6576 13.0079L50.5671 15.3727L49.8395 15.1908L49.0512 13.3717Z" fill="#ECBF28"/>
<path fill-rule="evenodd" clip-rule="evenodd" d="M42.442 20.0416C42.1388 19.9204 41.8963 19.7991 41.6537 19.5565C41.4718 19.314 41.2899 19.0714 41.2293 18.8289C41.1687 18.5257 41.1686 18.2225 41.2899 17.9194C41.4112 17.6162 41.5324 17.3736 41.775 17.1917C42.0175 17.0098 42.2601 16.8885 42.5632 16.8279C42.8664 16.7673 43.1696 16.7673 43.4728 16.8886C43.7153 16.9492 43.9579 17.0705 44.1398 17.2524C44.3217 17.4343 44.443 17.6162 44.5643 17.7981L44.0791 18.0406C43.9579 17.7375 43.7154 17.5555 43.3515 17.4343C43.1696 17.3736 42.9271 17.3736 42.7452 17.3736C42.5633 17.4343 42.3813 17.4949 42.2601 17.6162C42.1388 17.7375 42.0175 17.9194 41.9569 18.1619C41.8963 18.3438 41.8963 18.5864 41.9569 18.7683C42.0175 18.9502 42.0782 19.1321 42.2601 19.2534C42.3813 19.3746 42.5633 19.4959 42.8058 19.5565C43.109 19.6778 43.4728 19.6172 43.7153 19.4353L43.9579 19.9204C43.776 20.0416 43.5334 20.1023 43.2909 20.1629C42.9271 20.1023 42.6846 20.1023 42.442 20.0416ZM45.777 18.4045C45.5951 18.3438 45.4132 18.3438 45.2312 18.2832C45.0493 18.2832 44.8674 18.2832 44.7462 18.3438L44.8674 18.8289C44.9887 18.7683 45.11 18.7683 45.2312 18.7683C45.3525 18.7683 45.5344 18.7683 45.6557 18.8289C45.8376 18.8895 45.9589 18.9502 46.0802 19.0714C46.1408 19.1927 46.1408 19.314 46.1408 19.4959V19.5565L45.5344 19.3746C45.1706 19.2534 44.9281 19.2534 44.7462 19.314C44.5643 19.3746 44.443 19.5565 44.3823 19.7384C44.3217 19.8597 44.3217 19.981 44.3823 20.1629C44.443 20.2842 44.5036 20.4054 44.6249 20.5267C44.7462 20.648 44.8674 20.7086 45.0493 20.7693C45.2313 20.8299 45.4132 20.8299 45.5344 20.8299C45.6557 20.8299 45.777 20.7693 45.8982 20.7086L45.8376 21.0118L46.3833 21.1937L46.8078 19.7991C46.929 19.4353 46.8684 19.1927 46.7471 18.9502C46.3833 18.647 46.1408 18.4651 45.777 18.4045ZM45.11 20.3448C44.9887 20.2842 44.8674 20.2235 44.8068 20.1629C44.7462 20.1023 44.7462 19.981 44.7462 19.8597C44.8068 19.6778 44.9887 19.6172 45.2919 19.6778L45.8376 19.8597L45.777 20.1629C45.7164 20.2842 45.5951 20.3448 45.4738 20.3448C45.3525 20.4054 45.2312 20.4054 45.11 20.3448Z" fill="#ECBF28"/>
<path fill-rule="evenodd" clip-rule="evenodd" d="M37.1072 9.6125L37.2891 10.4008L38.0774 10.8859L37.7135 11.4316L34.6211 9.55186L34.9849 8.9455L36.5615 9.97631L35.9551 7.49024L36.3796 6.82324L36.9253 8.9455L39.472 8.64232L39.0475 9.30932L37.1072 9.6125Z" fill="#ECBF28"/>
<path fill-rule="evenodd" clip-rule="evenodd" d="M11.2755 37.9903L10.0628 36.3531L10.2447 38.2934L10.0628 38.4147L8.30433 37.6871L9.45643 39.2636L9.03197 39.5668L7.21289 37.1414L7.57673 36.8382L9.75961 37.7477L9.51705 35.4435L9.88089 35.1404L11.7 37.5658L11.2755 37.9903ZM12.7914 33.9883L12.367 34.2915L12.5489 34.534C12.4276 34.4734 12.2457 34.4734 12.1244 34.534C12.0032 34.5946 11.8212 34.6553 11.7 34.7159C11.5181 34.8372 11.3968 35.0191 11.2755 35.201C11.2149 35.3829 11.1542 35.5648 11.1542 35.7467C11.1542 35.9286 11.2149 36.1105 11.3968 36.2925C11.5181 36.4744 11.7 36.5956 11.8819 36.6563C12.0638 36.7169 12.2457 36.7775 12.4276 36.7169C12.6095 36.7169 12.7914 36.5956 12.9733 36.4744C13.0946 36.3531 13.2159 36.2925 13.2765 36.1712C13.3371 36.0499 13.3978 35.9286 13.3978 35.8074L13.4584 35.9286C13.5797 36.1105 13.6403 36.2925 13.6403 36.4744C13.6403 36.6563 13.519 36.7775 13.2765 36.9594C13.1552 37.0807 13.0339 37.1414 12.852 37.202C12.6701 37.2626 12.5489 37.2626 12.4276 37.2626L12.4882 37.7477C12.6701 37.7477 12.8521 37.7477 13.034 37.6264C13.2159 37.5658 13.3978 37.4445 13.5797 37.3233C14.2467 36.8382 14.3679 36.2318 13.8829 35.6255L12.7914 33.9883ZM12.852 36.1105C12.6701 36.2318 12.4882 36.2925 12.3063 36.2925C12.1244 36.2925 12.0031 36.1712 11.8819 36.0499C11.7606 35.868 11.7 35.7467 11.7606 35.5648C11.8212 35.3829 11.8819 35.2616 12.0638 35.1404C12.2457 35.0191 12.4276 34.9585 12.5489 34.9585C12.6701 34.9585 12.852 35.0797 12.9733 35.201C13.0946 35.3829 13.1552 35.5042 13.0946 35.6861C13.0946 35.868 12.9733 35.9893 12.852 36.1105Z" fill="#ECBF28"/>
<path fill-rule="evenodd" clip-rule="evenodd" d="M20.7345 35.0801L21.2196 38.0512L20.7345 38.1119L18.7335 36.3534L19.0367 38.3544L18.491 38.4151L18.0059 35.4439L18.491 35.3833L20.492 37.1417L20.1888 35.1407L20.7345 35.0801ZM22.4929 35.5045C22.8568 35.4439 23.0993 35.5045 23.2812 35.6258C23.4631 35.7471 23.5844 35.9896 23.645 36.2928L23.8876 37.6268L23.4025 37.6874L23.3419 37.3842C23.2812 37.5055 23.2206 37.5662 23.0993 37.6874C22.978 37.7481 22.8567 37.8087 22.6748 37.8087C22.4929 37.8087 22.3717 37.8087 22.1898 37.8087C22.0685 37.7481 21.9472 37.6874 21.826 37.6268C21.7653 37.5055 21.7047 37.4449 21.644 37.263C21.5834 37.0811 21.644 36.8992 21.7653 36.7172C21.8866 36.596 22.1291 36.4747 22.4323 36.4141L23.0387 36.2928V36.2322C23.0387 36.0503 22.9174 35.929 22.8567 35.8683C22.7355 35.8077 22.6142 35.8077 22.4323 35.8077C22.311 35.8077 22.1898 35.8683 22.0685 35.929C21.9472 35.9896 21.8259 36.0503 21.7653 36.1715L21.4621 35.8077C21.5834 35.6864 21.7047 35.6258 21.8866 35.5045C22.1291 35.5652 22.311 35.5652 22.4929 35.5045ZM22.7355 37.4449C22.8568 37.4449 22.978 37.3842 23.0993 37.3236C23.2206 37.263 23.2812 37.1417 23.2812 37.0204L23.2206 36.7779L22.6748 36.8385C22.3717 36.8992 22.2504 37.0204 22.2504 37.2023C22.2504 37.3236 22.311 37.3842 22.4323 37.3842C22.493 37.5055 22.6142 37.5055 22.7355 37.4449Z" fill="#ECBF28"/>
<path fill-rule="evenodd" clip-rule="evenodd" d="M15.2782 32.4722C14.975 32.4116 14.6719 32.2903 14.4293 32.1084C14.1868 31.9265 14.0655 31.6839 13.9442 31.3808C13.823 31.0776 13.8229 30.835 13.8836 30.4712C13.9442 30.168 14.0655 29.9255 14.308 29.6829C14.4899 29.4404 14.7325 29.3191 15.0357 29.2585C15.3388 29.1979 15.642 29.1372 15.9452 29.2585C16.1878 29.3191 16.4303 29.3798 16.6122 29.5617C16.7941 29.6829 16.976 29.8649 17.0973 30.0468L16.6728 30.3499C16.4909 30.0468 16.2484 29.8649 15.8846 29.8042C15.642 29.7436 15.4601 29.7436 15.2782 29.8042C15.0963 29.8649 14.9144 29.9861 14.7931 30.1074C14.6718 30.2287 14.5506 30.4106 14.5506 30.6531C14.49 30.8957 14.49 31.0776 14.5506 31.2595C14.6112 31.4414 14.7325 31.6233 14.8538 31.7446C15.0357 31.8658 15.2176 31.9871 15.3995 31.9871C15.7633 32.0477 16.0665 31.9871 16.309 31.8052L16.6122 32.2297C16.4303 32.3509 16.2484 32.4722 16.0058 32.5328C15.7633 32.5328 15.5207 32.5328 15.2782 32.4722ZM18.4313 30.5319C18.2494 30.4712 18.0675 30.4712 17.8249 30.4712C17.643 30.4712 17.4611 30.5318 17.3398 30.5925L17.4611 31.0776C17.5824 31.0169 17.7036 30.9563 17.8249 30.9563C17.9462 30.9563 18.1281 30.9563 18.2494 30.9563C18.4313 31.0169 18.6132 31.0776 18.6738 31.1988C18.7345 31.3201 18.7951 31.4414 18.7345 31.6233V31.6839L18.1281 31.5627C17.7643 31.502 17.5217 31.502 17.3398 31.6233C17.1579 31.7446 17.0367 31.8658 16.976 32.1084C16.976 32.2297 16.976 32.3509 17.0366 32.5328C17.0973 32.6541 17.1579 32.7754 17.2792 32.836C17.4005 32.8967 17.5824 33.0179 17.7643 33.0179C17.9462 33.0786 18.1281 33.0786 18.2494 33.0179C18.3706 33.0179 18.4919 32.9573 18.6132 32.836L18.5525 33.1392L19.0983 33.2605L19.4015 31.8658C19.4621 31.502 19.4621 31.2595 19.2802 31.0169C19.0376 30.7744 18.7951 30.5925 18.4313 30.5319ZM17.9462 32.5935C17.8249 32.5935 17.7036 32.5328 17.643 32.4116C17.5824 32.3509 17.5218 32.2297 17.5824 32.169C17.643 31.9265 17.8249 31.8658 18.1281 31.9265L18.7345 32.0478L18.6738 32.3509C18.6132 32.4722 18.4919 32.5328 18.3706 32.5935C18.2494 32.6541 18.0675 32.5935 17.9462 32.5935Z" fill="#ECBF28"/>
<path fill-rule="evenodd" clip-rule="evenodd" d="M13.3379 27.6825L12.3071 25.9847V27.925L12.0646 28.0463L10.3668 27.1974L11.3976 28.8952L10.9125 29.1984L9.33594 26.591L9.7604 26.3485L11.822 27.4399L11.7614 25.1357L12.1858 24.8932L13.7624 27.5006L13.3379 27.6825ZM15.157 23.8018L14.7326 24.0443L14.9145 24.2868C14.7932 24.2262 14.6113 24.2262 14.49 24.2262C14.3687 24.2262 14.1868 24.2868 14.0655 24.4081C13.8836 24.5294 13.7624 24.6507 13.6411 24.8326C13.5198 25.0145 13.4592 25.1964 13.4592 25.3783C13.4592 25.5602 13.5198 25.7421 13.6411 25.9847C13.7624 26.1666 13.8836 26.2878 14.0655 26.4091C14.2474 26.5304 14.4294 26.5304 14.6113 26.5304C14.7932 26.5304 15.0357 26.4697 15.2176 26.3485C15.3389 26.2878 15.4602 26.1666 15.5208 26.0453C15.5815 25.924 15.6421 25.8027 15.7027 25.6815L15.7634 25.8027C15.8846 25.9847 15.9453 26.1666 15.8846 26.3485C15.824 26.5304 15.7027 26.6517 15.5208 26.7729C15.3995 26.8336 15.2176 26.8942 15.0964 26.9548C14.9144 27.0155 14.7932 27.0155 14.6719 26.9548V27.4399C14.8538 27.4399 15.0357 27.4399 15.2176 27.3793C15.3995 27.3187 15.5815 27.258 15.824 27.1367C16.5516 26.7123 16.6729 26.1059 16.2485 25.4389L15.157 23.8018ZM15.0357 25.9847C14.8538 26.1059 14.6719 26.1059 14.49 26.1059C14.3081 26.0453 14.1868 25.9847 14.0655 25.8027C13.9443 25.6208 13.9443 25.4996 14.0049 25.3177C14.0656 25.1357 14.1868 25.0145 14.3687 24.8932C14.5506 24.7719 14.7325 24.7719 14.9145 24.7719C15.0964 24.8326 15.2176 24.8932 15.3389 25.0751C15.4602 25.257 15.4602 25.4389 15.3995 25.5602C15.3389 25.6815 15.2176 25.8634 15.0357 25.9847Z" fill="#ECBF28"/>
<path fill-rule="evenodd" clip-rule="evenodd" d="M26.5567 31.3202L25.5259 29.6224V31.5627L25.2833 31.684L23.5855 30.8351L24.6163 32.5329L24.1312 32.8361L22.5547 30.2287L22.9791 29.9862L25.0408 31.0776L24.9801 28.7734L25.4046 28.5309L26.9811 31.1383L26.5567 31.3202ZM28.3758 27.4395L27.9513 27.682L28.1332 27.9245C28.0119 27.8639 27.83 27.8639 27.7087 27.8639C27.5875 27.8639 27.4056 27.9245 27.2843 28.0458C27.1024 28.1671 26.9811 28.2884 26.8599 28.4703C26.7386 28.6522 26.678 28.8341 26.678 29.016C26.678 29.1979 26.7386 29.3798 26.8599 29.6224C26.9811 29.8043 27.1024 29.9255 27.2843 30.0468C27.4662 30.1681 27.6481 30.1681 27.83 30.1681C28.0119 30.1681 28.2545 30.1074 28.4364 29.9862C28.5577 29.9255 28.6789 29.8043 28.7396 29.683C28.8002 29.5617 28.8608 29.4404 28.9215 29.3192L28.9821 29.4404C29.1034 29.6224 29.164 29.8043 29.1034 29.9862C29.0428 30.1681 28.9215 30.2894 28.7396 30.4106C28.6183 30.4713 28.4364 30.5319 28.3151 30.5925C28.1332 30.6532 28.012 30.6532 27.8907 30.5925V31.0776C28.0726 31.0776 28.2545 31.0776 28.4364 31.017C28.6183 30.9563 28.8002 30.8957 29.0427 30.7744C29.7704 30.35 29.8917 29.7436 29.4672 29.0766L28.3758 27.4395ZM28.2545 29.6224C28.0726 29.7436 27.8907 29.7436 27.7087 29.7436C27.5268 29.683 27.4056 29.6224 27.2843 29.4404C27.1631 29.2585 27.163 29.1373 27.2237 28.9554C27.2843 28.7734 27.4056 28.6522 27.5875 28.5309C27.7694 28.4096 27.9513 28.4096 28.1332 28.4096C28.3151 28.4703 28.4364 28.5309 28.5577 28.7128C28.6789 28.8947 28.6789 29.0766 28.6183 29.1979C28.5577 29.3798 28.4364 29.5011 28.2545 29.6224Z" fill="#ECBF28"/>
<path fill-rule="evenodd" clip-rule="evenodd" d="M31.8923 23.0739L31.4073 26.045L30.9222 25.9844L29.5882 23.6802L29.285 25.6812L28.7393 25.6206L29.2243 22.6494L29.7095 22.71L31.0434 25.0142L31.3466 23.0132L31.8923 23.0739ZM33.4082 24.044C33.7721 24.1047 34.0146 24.2259 34.1359 24.4079C34.3178 24.5898 34.3178 24.8323 34.3178 25.1961L34.1359 26.5301L33.6508 26.4695L33.7114 26.1663C33.6508 26.2269 33.5295 26.3482 33.4082 26.3482C33.287 26.4088 33.1051 26.4088 32.9838 26.3482C32.8019 26.3482 32.6806 26.2876 32.5593 26.1663C32.438 26.1057 32.3774 25.9844 32.3168 25.8631C32.2562 25.7419 32.2561 25.6206 32.2561 25.4993C32.3168 25.3174 32.3774 25.1355 32.5593 25.0142C32.7412 24.8929 32.9838 24.8929 33.287 24.9536L33.8933 25.0749V25.0142C33.8933 24.8323 33.8933 24.711 33.8327 24.6504C33.7721 24.5291 33.5901 24.4685 33.4082 24.4685C33.287 24.4685 33.1657 24.4685 33.0444 24.4685C32.9232 24.4685 32.8019 24.5291 32.6806 24.5898L32.5593 24.1653C32.6806 24.1047 32.8625 24.044 33.0444 24.044C33.0444 23.9834 33.2263 23.9834 33.4082 24.044ZM33.0444 25.9844C33.1657 25.9844 33.287 25.9844 33.4082 25.9238C33.5295 25.8631 33.5902 25.8025 33.6508 25.6812L33.7114 25.4387L33.1657 25.378C32.8625 25.3174 32.6806 25.378 32.6806 25.6206C32.6806 25.7418 32.6806 25.8025 32.7413 25.8631C32.8019 25.9238 32.8625 25.9844 33.0444 25.9844Z" fill="#ECBF28"/>
<path fill-rule="evenodd" clip-rule="evenodd" d="M33.893 30.2896L33.1654 30.7141L32.9229 31.563L32.2559 31.3811L33.3473 27.9248L33.9537 28.1067L33.408 29.8652L35.6515 28.6524L36.3791 28.8343L34.4994 29.9864L35.4089 32.3512L34.6813 32.1087L33.893 30.2896Z" fill="#ECBF28"/>
<path fill-rule="evenodd" clip-rule="evenodd" d="M27.2838 36.9596C26.9806 36.8383 26.7381 36.717 26.4955 36.4745C26.3136 36.232 26.1317 35.9894 26.0711 35.7469C26.0104 35.4437 26.0104 35.1405 26.1317 34.8373C26.253 34.5341 26.3742 34.2916 26.6168 34.1097C26.8593 33.9278 27.1019 33.8065 27.405 33.7459C27.7082 33.6852 28.0114 33.6852 28.3146 33.8065C28.5571 33.8672 28.7997 33.9884 28.9816 34.1703C29.1635 34.3522 29.2848 34.5341 29.4061 34.7161L28.8603 34.898C28.7391 34.5948 28.4965 34.4129 28.1327 34.2916C27.9508 34.231 27.7082 34.231 27.5263 34.231C27.3444 34.2916 27.1625 34.3522 27.0412 34.4735C26.92 34.5948 26.7987 34.7767 26.7381 35.0192C26.6774 35.2011 26.6774 35.4437 26.7381 35.6256C26.7987 35.8075 26.8593 35.9894 27.0412 36.1107C27.1625 36.232 27.3444 36.3532 27.587 36.4139C27.8902 36.5351 28.254 36.4745 28.4965 36.2926L28.739 36.7777C28.5571 36.899 28.3146 36.9596 28.0721 37.0202C27.7689 37.0809 27.5263 37.0202 27.2838 36.9596ZM30.6188 35.3224C30.4369 35.2618 30.255 35.2618 30.073 35.2011C29.8911 35.2011 29.7092 35.2011 29.588 35.2618L29.7092 35.7469C29.8305 35.6862 29.9518 35.6862 30.073 35.6862C30.1943 35.6862 30.3762 35.6862 30.4975 35.7469C30.6794 35.8075 30.8007 35.8681 30.922 35.9894C30.9826 36.1107 30.9826 36.232 30.9826 36.4139V36.4745L30.3762 36.2926C30.0124 36.1713 29.7699 36.1713 29.588 36.232C29.4061 36.2926 29.2848 36.4745 29.2241 36.6564C29.1635 36.7777 29.1635 36.899 29.2241 37.0809C29.2848 37.2021 29.3454 37.3234 29.4667 37.4447C29.588 37.5659 29.7092 37.6266 29.8911 37.6872C30.0731 37.7479 30.255 37.7479 30.3762 37.7479C30.4975 37.7479 30.6188 37.6872 30.74 37.6266L30.6794 37.9298L31.2251 38.1117L31.6496 36.717C31.7708 36.3532 31.7102 36.1107 31.5889 35.8681C31.2251 35.565 30.9826 35.4437 30.6188 35.3224ZM29.9518 37.3234C29.8305 37.2628 29.7092 37.2021 29.6486 37.1415C29.5879 37.0809 29.588 36.9596 29.588 36.8383C29.6486 36.6564 29.8305 36.5958 30.1337 36.6564L30.6794 36.8383L30.6188 37.1415C30.5581 37.2628 30.4369 37.3234 30.3156 37.3234C30.1943 37.384 30.073 37.3234 29.9518 37.3234Z" fill="#ECBF28"/>
<path fill-rule="evenodd" clip-rule="evenodd" d="M36.2578 37.3235L36.8642 35.3831L35.4089 36.6565L35.1664 36.5959L34.6813 34.7161L34.0749 36.5959L33.5898 36.4139L34.4994 33.5034L34.9238 33.6247L35.4696 35.9289L37.1674 34.3523L37.5918 34.4736L36.7429 37.3841L36.2578 37.3235ZM40.3811 36.1714L39.896 36.0501L39.8353 36.3533C39.7747 36.232 39.7141 36.1108 39.5928 35.9895C39.4715 35.8682 39.3503 35.8076 39.1684 35.8076C38.9865 35.747 38.7439 35.7469 38.562 35.7469C38.3801 35.8076 38.1982 35.8682 38.0163 35.9895C37.895 36.1108 37.7737 36.2927 37.7131 36.4746C37.6524 36.6565 37.6524 36.899 37.7131 37.0809C37.7737 37.2629 37.8344 37.4448 38.0163 37.566C38.1375 37.6873 38.3195 37.8086 38.562 37.8692C38.7439 37.9298 38.8652 37.9298 38.9865 37.9298C39.1077 37.9298 39.229 37.8692 39.3503 37.8086L39.2896 37.9298C39.229 38.1724 39.1077 38.2937 38.9865 38.3543C38.8652 38.4149 38.6226 38.4149 38.3801 38.3543C38.1982 38.2937 38.0769 38.233 37.9556 38.1724C37.8344 38.0511 37.7131 37.9905 37.6525 37.8692L37.2887 38.1724C37.4099 38.2937 37.5312 38.4149 37.7131 38.5362C37.895 38.6575 38.0769 38.7181 38.3194 38.7787C39.1077 39.0213 39.6535 38.7788 39.896 37.9905L40.3811 36.1714ZM38.6833 37.4448C38.5014 37.3841 38.3195 37.2628 38.2588 37.1416C38.1982 36.9597 38.1376 36.8384 38.1982 36.5959C38.2588 36.4139 38.3801 36.2927 38.5014 36.1714C38.6833 36.1108 38.8652 36.1108 39.0471 36.1714C39.229 36.232 39.4109 36.3533 39.4715 36.4746C39.5322 36.6565 39.5928 36.7778 39.5322 36.9597C39.4715 37.1416 39.3503 37.2629 39.229 37.3841C39.0471 37.5054 38.8652 37.5054 38.6833 37.4448Z" fill="#ECBF28"/>
<path fill-rule="evenodd" clip-rule="evenodd" d="M21.947 26.5305L22.1289 27.3187L22.9172 27.8645L22.5534 28.4102L19.4609 26.4698L19.8247 25.9241L21.4013 26.8943L20.7949 24.4082L21.2194 23.7412L21.7651 25.9241L24.3118 25.6209L23.8874 26.2879L21.947 26.5305Z" fill="#ECBF28"/>
<path fill-rule="evenodd" clip-rule="evenodd" d="M42.3816 28.6523C42.0784 28.713 41.7752 28.6523 41.472 28.5917C41.1688 28.4704 40.9263 28.3492 40.7444 28.1066C40.5625 27.8641 40.4412 27.6215 40.3806 27.3183C40.32 27.0152 40.3806 26.712 40.4412 26.4088C40.5625 26.1056 40.7444 25.9237 40.9869 25.7418C41.2295 25.5599 41.5327 25.4386 41.8359 25.378C42.0784 25.3174 42.3209 25.3174 42.5635 25.378C42.806 25.4386 42.9879 25.5599 43.1698 25.6812L42.8666 26.1056C42.6241 25.9237 42.3209 25.8025 41.9571 25.8631C41.7146 25.9237 41.5327 25.9844 41.4114 26.1056C41.2295 26.2269 41.1688 26.4088 41.0476 26.5907C40.9869 26.7726 40.9869 26.9545 40.9869 27.1971C41.0476 27.4396 41.1082 27.6215 41.2295 27.7428C41.3508 27.9247 41.5327 27.9853 41.7146 28.046C41.8965 28.1066 42.0784 28.1066 42.3209 28.1066C42.6848 28.046 42.9273 27.8641 43.1092 27.5609L43.5337 27.8641C43.4124 28.046 43.2305 28.2279 43.0486 28.3492C42.8667 28.4704 42.6241 28.5917 42.3816 28.6523ZM44.6251 25.6812C44.9889 25.6205 45.2921 25.6812 45.474 25.8024C45.7166 25.9237 45.8378 26.1663 45.8984 26.5301L46.141 27.9853L45.5953 28.046L45.5346 27.7428C45.474 27.8641 45.4134 27.9853 45.2921 28.046C45.1708 28.1066 45.0496 28.1673 44.8677 28.2279C44.6858 28.2279 44.5038 28.2279 44.3825 28.2279C44.2613 28.1673 44.14 28.1066 44.0187 28.046C43.8975 27.9247 43.8975 27.8034 43.8368 27.6822C43.7762 27.4396 43.8368 27.2577 44.0187 27.1364C44.14 26.9545 44.3826 26.8939 44.7464 26.8333L45.3527 26.712V26.6513C45.3527 26.4694 45.2315 26.3482 45.1102 26.2875C44.9889 26.2269 44.807 26.1663 44.6251 26.2269C44.5038 26.2269 44.3826 26.2875 44.2613 26.3482C44.14 26.4088 44.0188 26.4694 43.9581 26.5907L43.6549 26.2269C43.7762 26.1056 43.8975 25.9844 44.0794 25.9237C44.2613 25.7418 44.4432 25.7418 44.6251 25.6812ZM44.9283 27.7428C45.0496 27.7428 45.1708 27.6822 45.2921 27.5609C45.4134 27.5003 45.474 27.379 45.474 27.2577L45.4134 26.9545L44.807 27.0758C44.5038 27.1364 44.3219 27.2577 44.3825 27.5003C44.3825 27.6215 44.4432 27.6822 44.5645 27.7428C44.6251 27.8034 44.7464 27.8034 44.9283 27.7428Z" fill="#ECBF28"/>
<path fill-rule="evenodd" clip-rule="evenodd" d="M45.111 33.5637L45.2929 34.3519L46.0812 34.837L45.7173 35.3828L42.6855 33.503L42.9887 32.8967L44.5653 33.9275L43.9589 31.3808L44.3833 30.7744L44.9291 32.8967L47.4758 32.5935L47.0513 33.2605L45.111 33.5637Z" fill="#ECBF28"/>
<path fill-rule="evenodd" clip-rule="evenodd" d="M49.4161 40.5977L48.2034 38.9605L48.3853 40.9009L48.2034 41.0221L46.445 40.2945L47.5971 41.871L47.1726 42.1742L45.3535 39.7488L45.7173 39.4456L47.9002 40.3551L47.6577 38.051L48.0215 37.7478L49.8406 40.1732L49.4161 40.5977ZM50.932 36.5957L50.5076 36.8989L50.6895 37.1414C50.5682 37.0808 50.3863 37.0808 50.265 37.1414C50.1437 37.2021 49.9618 37.2627 49.8406 37.3233C49.6586 37.4446 49.5374 37.6265 49.4161 37.8084C49.3555 37.9903 49.2949 38.1722 49.2949 38.3541C49.2949 38.5361 49.3555 38.718 49.5374 38.8999C49.6586 39.0818 49.8406 39.203 50.0225 39.2637C50.2044 39.3243 50.3863 39.385 50.5682 39.3243C50.7501 39.3243 50.932 39.203 51.1139 39.0818C51.2352 38.9605 51.3565 38.8999 51.4171 38.7786C51.4778 38.6573 51.5384 38.5361 51.5384 38.4148L51.599 38.5361C51.7203 38.718 51.7809 38.8999 51.7809 39.0818C51.7809 39.2637 51.6597 39.385 51.4171 39.5669C51.2958 39.6881 51.1746 39.7488 50.9927 39.8094C50.8107 39.87 50.6895 39.87 50.5682 39.87L50.6289 40.3551C50.8108 40.3551 50.9926 40.3551 51.1746 40.2339C51.3565 40.1732 51.5384 40.052 51.7203 39.9307C52.3873 39.4456 52.5086 38.8392 52.0235 38.2329L50.932 36.5957ZM50.932 38.718C50.7501 38.8392 50.5682 38.8999 50.3863 38.8999C50.2044 38.8999 50.0831 38.7786 49.9618 38.6573C49.8406 38.4754 49.7799 38.3541 49.8406 38.1722C49.9012 37.9903 49.9618 37.8691 50.1437 37.7478C50.3256 37.6265 50.5076 37.5659 50.6289 37.5659C50.8108 37.5659 50.932 37.6872 51.0533 37.8084C51.1745 37.9903 51.2352 38.1116 51.1746 38.2935C51.2352 38.4754 51.1139 38.5967 50.932 38.718Z" fill="#ECBF28"/>
<path fill-rule="evenodd" clip-rule="evenodd" d="M51.4161 30.2899L50.3852 28.5921V30.5324L50.1427 30.6537L48.4449 29.8048L49.4757 31.5026L48.9906 31.8058L47.4141 29.1984L47.8385 28.9559L49.9002 30.0473L49.8395 27.7432L50.264 27.5006L51.8405 30.108L51.4161 30.2899ZM53.2958 26.4092L52.8713 26.6517L53.0532 26.8943C52.932 26.8336 52.7501 26.8336 52.6288 26.8336C52.5075 26.8336 52.3256 26.8943 52.2043 27.0155C52.0224 27.1368 51.9011 27.2581 51.7799 27.44C51.6586 27.6219 51.598 27.8038 51.598 27.9857C51.598 28.1676 51.6586 28.3495 51.7799 28.5921C51.9011 28.8346 52.0224 28.8953 52.2043 29.0165C52.3862 29.1378 52.5682 29.1378 52.7501 29.1378C52.932 29.1378 53.1745 29.0772 53.3564 28.9559C53.4777 28.8953 53.599 28.774 53.6596 28.6527C53.7202 28.5314 53.7809 28.4102 53.8415 28.2889L53.9021 28.4102C54.0234 28.5921 54.084 28.774 54.0234 28.9559C53.9628 29.1378 53.8415 29.2591 53.6596 29.3803C53.5383 29.441 53.3564 29.5016 53.2351 29.5622C53.0532 29.6229 52.932 29.6229 52.8107 29.5622V30.0473C52.9926 30.0473 53.1745 30.0473 53.3564 29.9867C53.5383 29.9261 53.7202 29.8654 53.9628 29.7442C54.6904 29.3197 54.8117 28.7133 54.3872 28.0463L53.2958 26.4092ZM53.1745 28.5921C52.9926 28.7134 52.8107 28.7133 52.6288 28.7133C52.4469 28.6527 52.3256 28.5921 52.2043 28.4102C52.083 28.2283 52.0831 28.107 52.1437 27.9251C52.2043 27.7432 52.3256 27.6219 52.5075 27.5006C52.6894 27.3794 52.8713 27.3794 53.0532 27.3794C53.2351 27.44 53.3564 27.5006 53.4777 27.6825C53.5989 27.8644 53.599 28.0463 53.5383 28.1676C53.417 28.3495 53.3564 28.4708 53.1745 28.5921Z" fill="#ECBF28"/>
<path fill-rule="evenodd" clip-rule="evenodd" d="M14.3679 44.4785C14.0647 44.5392 13.7615 44.4785 13.4583 44.4179C13.1552 44.2966 12.9127 44.1753 12.7307 43.9328C12.5488 43.6902 12.4275 43.4477 12.3669 43.1445C12.3063 42.8413 12.3669 42.5382 12.4276 42.235C12.5488 41.9318 12.7307 41.7499 12.9733 41.568C13.2158 41.3861 13.519 41.2648 13.8222 41.2042C14.0647 41.1435 14.3073 41.1435 14.5498 41.2042C14.7924 41.2648 14.9743 41.3861 15.1562 41.5073L14.853 41.9318C14.6105 41.7499 14.3073 41.6286 13.9435 41.6893C13.7009 41.7499 13.519 41.8105 13.3977 41.9318C13.2158 42.0531 13.1552 42.235 13.0339 42.4169C12.9733 42.5988 12.9733 42.7807 12.9733 43.0232C13.0339 43.2658 13.0946 43.4477 13.2158 43.569C13.3371 43.7509 13.519 43.8115 13.7009 43.8722C13.8828 43.9328 14.0647 43.9328 14.3073 43.9328C14.6711 43.8722 14.9136 43.6902 15.0955 43.3871L15.52 43.6902C15.3987 43.8722 15.2168 44.0541 15.0349 44.1753C14.853 44.3572 14.6104 44.4179 14.3679 44.4785ZM16.6114 41.5073C16.9752 41.4467 17.2784 41.5074 17.4603 41.6286C17.7029 41.7499 17.8242 41.9924 17.8848 42.3563L18.1273 43.8115L17.5816 43.8722L17.521 43.569C17.4603 43.6903 17.3997 43.8115 17.2784 43.8722C17.1572 43.9328 17.0359 43.9934 16.854 44.0541C16.6721 44.0541 16.4902 44.0541 16.3689 44.0541C16.2476 43.9934 16.1263 43.9328 16.0051 43.8722C15.8838 43.7509 15.8838 43.6296 15.8232 43.5083C15.7625 43.2658 15.8232 43.0839 16.0051 42.9626C16.1263 42.7807 16.3689 42.7201 16.7327 42.6594L17.3391 42.5382V42.4775C17.3391 42.2956 17.2178 42.1743 17.0965 42.1137C16.9752 42.0531 16.7933 41.9924 16.6114 42.0531C16.4902 42.0531 16.3689 42.1137 16.2476 42.1743C16.1264 42.235 16.0051 42.2956 15.9444 42.4169L15.6413 42.0531C15.7625 41.9318 15.8838 41.8105 16.0657 41.7499C16.2476 41.6286 16.4295 41.568 16.6114 41.5073ZM16.9146 43.6296C17.0359 43.6296 17.1572 43.569 17.2784 43.4477C17.3997 43.3871 17.4603 43.2658 17.4603 43.1445L17.3997 42.8413L16.7933 42.9626C16.4901 43.0233 16.3083 43.1445 16.3689 43.3871C16.3689 43.5083 16.4295 43.569 16.5508 43.6296C16.6114 43.6296 16.7327 43.6296 16.9146 43.6296Z" fill="#ECBF28"/>
<path fill-rule="evenodd" clip-rule="evenodd" d="M17.0954 49.3898L17.2773 50.1781L18.0656 50.6632L17.7017 51.2696L14.6699 49.3292L14.9731 48.7835L16.5497 49.7537L15.9433 47.2676L16.3678 46.6006L16.9135 48.7228L19.4602 48.4197L19.0357 49.0867L17.0954 49.3898Z" fill="#ECBF28"/>
<path fill-rule="evenodd" clip-rule="evenodd" d="M25.3427 50.9058C25.0395 50.8452 24.7363 50.7239 24.4937 50.542C24.2512 50.3601 24.1299 50.1175 24.0087 49.8143C23.8874 49.5112 23.8874 49.2686 23.948 48.9048C24.0087 48.6016 24.1299 48.3591 24.3725 48.1165C24.5544 47.874 24.7969 47.7527 25.1001 47.6921C25.4033 47.6315 25.7065 47.5708 26.0096 47.6921C26.2522 47.7527 26.4947 47.8134 26.6767 47.9953C26.8586 48.1165 27.0405 48.2984 27.1617 48.4803L26.7373 48.7835C26.5554 48.4803 26.3128 48.2984 25.949 48.2378C25.7065 48.1772 25.5246 48.1772 25.3427 48.2378C25.1608 48.2984 24.9788 48.4197 24.8576 48.541C24.7363 48.6623 24.615 48.8442 24.615 49.0867C24.5544 49.3293 24.5544 49.5112 24.615 49.6931C24.6757 49.875 24.7969 50.0569 24.9182 50.1782C25.1001 50.2994 25.282 50.4207 25.4639 50.4207C25.8278 50.4813 26.1309 50.4207 26.3735 50.2388L26.6767 50.6632C26.4947 50.7845 26.3128 50.9058 26.0703 50.9664C25.8884 50.9664 25.6458 50.9664 25.3427 50.9058ZM28.5564 48.9654C28.3745 48.9048 28.1925 48.9048 27.95 48.9048C27.7681 48.9048 27.5862 48.9654 27.4649 49.0261L27.5862 49.5112C27.7075 49.4505 27.8287 49.3899 27.95 49.3899C28.0713 49.3899 28.2532 49.3899 28.3745 49.3899C28.5564 49.4505 28.7383 49.5112 28.7989 49.6324C28.8596 49.7537 28.9202 49.875 28.8595 50.0569V50.1175L28.2532 49.9962C27.8894 49.9356 27.6468 49.9356 27.4649 50.0569C27.283 50.1782 27.1617 50.2994 27.1011 50.542C27.1011 50.6632 27.1011 50.7845 27.1617 50.9664C27.2224 51.0877 27.283 51.209 27.4043 51.2696C27.5255 51.3302 27.7075 51.4515 27.8894 51.4515C28.0713 51.5122 28.2532 51.5122 28.3745 51.4515C28.4957 51.4515 28.617 51.3909 28.7383 51.2696L28.6776 51.5728L29.2233 51.6941L29.5265 50.2994C29.5872 49.9356 29.5872 49.6931 29.4053 49.4505C29.1627 49.208 28.9202 49.0867 28.5564 48.9654ZM28.0713 51.0271C27.95 51.0271 27.8287 50.9664 27.7681 50.8452C27.7075 50.7845 27.6468 50.6632 27.7074 50.6026C27.7681 50.3601 27.95 50.2994 28.2532 50.3601L28.8595 50.4813L28.7989 50.7845C28.7383 50.9058 28.617 50.9664 28.4957 51.0271C28.3138 51.0877 28.1925 51.0877 28.0713 51.0271Z" fill="#ECBF28"/>
<path fill-rule="evenodd" clip-rule="evenodd" d="M23.4004 46.1155L22.3696 44.4177V46.358L22.1271 46.4793L20.4292 45.6304L21.46 47.3282L20.975 47.6314L19.3984 45.024L19.8229 44.7815L21.8845 45.8729L21.8239 43.5688L22.2483 43.3262L23.8249 45.9336L23.4004 46.1155ZM25.2801 42.2954L24.8557 42.538L25.0376 42.7805C24.9163 42.7199 24.7344 42.7199 24.6131 42.7199C24.4918 42.7199 24.3099 42.7805 24.1887 42.9018C24.0068 43.023 23.8855 43.1443 23.7642 43.3262C23.6429 43.5081 23.5823 43.69 23.5823 43.8719C23.5823 44.0539 23.6429 44.2358 23.7642 44.4783C23.8855 44.6602 24.0068 44.7815 24.1887 44.9028C24.3706 45.024 24.5525 45.024 24.7344 45.024C24.9163 45.024 25.1588 44.9634 25.3408 44.8421C25.462 44.7815 25.5833 44.6602 25.6439 44.5389C25.7046 44.4177 25.7652 44.2964 25.8258 44.1751L25.8865 44.2964C26.0077 44.4783 26.0684 44.6602 26.0077 44.8421C25.9471 45.024 25.8258 45.1453 25.6439 45.2666C25.5227 45.3272 25.3408 45.3878 25.2195 45.4485C25.0376 45.5091 24.9163 45.5091 24.795 45.4485V45.9336C24.9769 45.9336 25.1588 45.9336 25.3408 45.8729C25.5227 45.8123 25.7046 45.7517 25.9471 45.6304C26.6747 45.2059 26.796 44.5996 26.3716 43.9326L25.2801 42.2954ZM25.1589 44.4177C24.9769 44.5389 24.795 44.5389 24.6131 44.5389C24.4312 44.4783 24.3099 44.4177 24.1887 44.2358C24.0674 44.0539 24.0674 43.9326 24.128 43.7507C24.1887 43.5688 24.3099 43.4475 24.4918 43.3262C24.6737 43.2049 24.8557 43.205 25.0376 43.205C25.2195 43.2656 25.3408 43.3262 25.462 43.5081C25.5833 43.69 25.5833 43.8719 25.5227 43.9932C25.4014 44.1751 25.3408 44.2964 25.1589 44.4177Z" fill="#ECBF28"/>
<path fill-rule="evenodd" clip-rule="evenodd" d="M36.6817 49.7537L35.6509 48.0559V49.9962L35.4083 50.1175L33.7105 49.2686L34.7413 50.9664L34.2562 51.2696L32.6797 48.6622L33.1041 48.4197L35.1658 49.5111L35.1051 47.207L35.5296 46.9644L37.1061 49.5718L36.6817 49.7537ZM38.5008 45.9336L38.0763 46.1761L38.2582 46.4187C38.1369 46.358 37.955 46.358 37.8337 46.358C37.7125 46.358 37.5306 46.4187 37.4093 46.54C37.2274 46.6612 37.1061 46.7825 36.9849 46.9644C36.8636 47.1463 36.8029 47.3282 36.8029 47.5101C36.8029 47.692 36.8636 47.8739 36.9849 48.1165C37.1061 48.2984 37.2274 48.4197 37.4093 48.5409C37.5912 48.6622 37.7731 48.6622 37.955 48.6622C38.1369 48.6622 38.3795 48.6016 38.5614 48.4803C38.6827 48.4197 38.8039 48.2984 38.8646 48.1771C38.9252 48.0559 38.9858 47.9346 39.0465 47.8133L39.1071 47.9346C39.2284 48.1165 39.289 48.2984 39.2284 48.4803C39.1677 48.6622 39.0465 48.7835 38.8646 48.9048C38.7433 48.9654 38.5614 49.026 38.4401 49.0867C38.2582 49.1473 38.1369 49.1473 38.0156 49.0867V49.5718C38.1976 49.5718 38.3795 49.5718 38.5614 49.5111C38.7433 49.4505 38.9252 49.3898 39.1677 49.2686C39.8954 48.8441 40.0167 48.2378 39.5922 47.5708L38.5008 45.9336ZM38.3795 48.0559C38.1976 48.1771 38.0157 48.1771 37.8337 48.1771C37.6518 48.1165 37.5306 48.0559 37.4093 47.8739C37.288 47.692 37.288 47.5101 37.3487 47.3889C37.4093 47.207 37.5306 47.0857 37.7125 46.9644C37.8944 46.8431 38.0763 46.8431 38.2582 46.8431C38.4401 46.9038 38.5614 46.9644 38.6827 47.1463C38.8039 47.3282 38.8039 47.5101 38.7433 47.6314C38.6827 47.8133 38.5614 47.9346 38.3795 48.0559Z" fill="#ECBF28"/>
<path fill-rule="evenodd" clip-rule="evenodd" d="M41.9568 41.568L41.4717 44.5392L40.9866 44.4785L39.6526 42.1744L39.3494 44.1754L38.8037 44.1147L39.2888 41.1436L39.7739 41.2042L41.1079 43.5084L41.4111 41.5074L41.9568 41.568ZM43.5333 42.4775C43.8971 42.5382 44.1397 42.6595 44.261 42.8414C44.4429 43.0233 44.4429 43.2658 44.4429 43.6296L44.261 44.9636L43.7758 44.903L43.8365 44.5998C43.7759 44.6604 43.6546 44.7211 43.5333 44.7817C43.412 44.8424 43.2301 44.8424 43.1089 44.7817C42.9269 44.7817 42.8057 44.7211 42.6844 44.5998C42.5631 44.5392 42.5025 44.4179 42.4419 44.2966C42.3812 44.1754 42.3812 44.0541 42.3812 43.9328C42.4418 43.7509 42.5025 43.569 42.6844 43.4477C42.8663 43.3265 43.1089 43.3264 43.412 43.3871L44.0184 43.5084V43.4477C44.0184 43.2658 44.0184 43.1445 43.9578 43.0839C43.8971 42.9626 43.7152 42.902 43.5333 42.902C43.412 42.902 43.2907 42.902 43.1695 42.902C43.0482 42.902 42.9269 42.9626 42.8057 43.0233L42.6844 42.5988C42.8057 42.5382 42.9876 42.4775 43.1695 42.4775C43.1088 42.4775 43.2908 42.4775 43.5333 42.4775ZM43.1089 44.4179C43.2301 44.4179 43.3514 44.4179 43.4727 44.3573C43.5939 44.2966 43.6546 44.236 43.7152 44.1147L43.7758 43.8722L43.2301 43.8115C42.927 43.7509 42.7451 43.8115 42.7451 44.0541C42.7451 44.1754 42.745 44.236 42.8057 44.2966C42.8663 44.3573 42.9876 44.4179 43.1089 44.4179Z" fill="#ECBF28"/>
<path fill-rule="evenodd" clip-rule="evenodd" d="M44.018 48.7232L43.2904 49.1477L43.0479 49.9966L42.3809 49.8147L43.4117 46.3584L44.0787 46.5403L43.533 48.3594L45.7765 47.086L46.5041 47.3286L44.5638 48.42L45.5339 50.7848L44.8063 50.5423L44.018 48.7232Z" fill="#ECBF28"/>
<path fill-rule="evenodd" clip-rule="evenodd" d="M32.0114 45.0246L32.2539 45.8129L33.0422 46.298L32.6784 46.8437L29.5859 44.964L29.9497 44.3576L31.5263 45.3278L30.9199 42.8417L31.2837 42.2354L31.8901 44.3576L34.4368 44.0544L34.0124 44.7214L32.0114 45.0246Z" fill="#ECBF28"/>
<path fill-rule="evenodd" clip-rule="evenodd" d="M10.9105 10.4615L10.2435 10.8859L9.94034 11.7348L9.33398 11.5529L10.3648 8.09668L10.9712 8.27859L10.4861 10.037L12.7296 8.82431L13.4572 9.00622L11.5169 10.1583L12.4871 12.5231L11.6988 12.2806L10.9105 10.4615Z" fill="#ECBF28"/>
<path fill-rule="evenodd" clip-rule="evenodd" d="M13.2773 17.4954L13.8837 15.555L12.4285 16.8284L12.1859 16.7677L11.7008 14.888L11.0945 16.7677L10.6094 16.5858L11.5189 13.6753L11.9433 13.7966L12.4891 16.1007L14.1869 14.5242L14.6113 14.6455L13.7624 17.556L13.2773 17.4954ZM17.4006 16.3433L16.9155 16.222L16.8549 16.5252C16.7942 16.4039 16.7336 16.2826 16.6123 16.1614C16.491 16.0401 16.3698 15.9795 16.1879 15.9795C16.0059 15.9188 15.7634 15.9188 15.5815 15.9188C15.3996 15.9795 15.2177 16.0401 15.0358 16.1614C14.9145 16.2826 14.7933 16.4645 14.7326 16.6465C14.672 16.8284 14.672 17.0709 14.7326 17.2528C14.7933 17.4347 14.8539 17.6166 15.0358 17.7379C15.1571 17.8592 15.339 17.9804 15.5815 18.0411C15.7634 18.1017 15.8847 18.1017 16.006 18.1017C16.1272 18.1017 16.2485 18.0411 16.3698 17.9805L16.3091 18.1017C16.2485 18.3443 16.1272 18.4655 16.006 18.5262C15.8847 18.5868 15.6421 18.5868 15.3996 18.5262C15.2177 18.4655 15.0964 18.4049 14.9751 18.3443C14.8539 18.223 14.7326 18.1624 14.672 18.0411L14.3082 18.3443C14.4294 18.4655 14.5507 18.5868 14.7326 18.7081C14.9145 18.8294 15.0964 18.89 15.339 18.9506C16.1272 19.1932 16.673 18.9506 16.9155 18.1624L17.4006 16.3433ZM15.7028 17.6166C15.5209 17.556 15.339 17.4347 15.2783 17.3135C15.2177 17.1315 15.1571 17.0103 15.2177 16.7677C15.2783 16.5858 15.3996 16.4645 15.5209 16.3433C15.7028 16.2826 15.8847 16.2826 16.0666 16.3433C16.2485 16.4039 16.4304 16.5252 16.491 16.6465C16.5517 16.8284 16.6123 16.9496 16.5517 17.1315C16.4911 17.3135 16.3698 17.4347 16.2485 17.556C16.0666 17.6773 15.8847 17.6773 15.7028 17.6166Z" fill="#ECBF28"/>
<path d="M31.9635 10.4971C42.1822 12.1343 49.1389 21.7455 47.5017 31.9643C45.8645 42.1831 36.2533 49.1398 26.0345 47.5025C15.8157 45.8653 8.85903 36.2541 10.4963 26.0353C12.1335 15.8165 21.7447 8.85984 31.9635 10.4971Z" stroke="#4C5167"/>
</g>
</svg>
