<svg width="58" height="58" viewBox="0 0 58 58" fill="none" xmlns="http://www.w3.org/2000/svg">
<circle cx="29" cy="29" r="29" fill="white"/>
<circle cx="29" cy="29" r="28" stroke="#3E3F43" stroke-opacity="0.12" stroke-width="2"/>
<mask id="mask0_1480_3425" style="mask-type:alpha" maskUnits="userSpaceOnUse" x="9" y="9" width="40" height="40">
<path d="M47.9954 32.0434C49.6763 21.552 42.534 11.6843 32.0426 10.0034C21.5511 8.32246 11.6835 15.4648 10.0026 25.9562C8.32164 36.4476 15.464 46.3153 25.9554 47.9962C36.4468 49.6771 46.3145 42.5348 47.9954 32.0434Z" fill="white"/>
</mask>
<g mask="url(#mask0_1480_3425)">
<g filter="url(#filter0_d_1480_3425)">
<path d="M47.9954 32.0434C49.6763 21.552 42.534 11.6843 32.0426 10.0034C21.5511 8.32246 11.6835 15.4648 10.0026 25.9562C8.32164 36.4476 15.464 46.3153 25.9554 47.9962C36.4468 49.6771 46.3145 42.5348 47.9954 32.0434Z" fill="white"/>
<path d="M31.9635 10.4971C42.1822 12.1343 49.1389 21.7455 47.5017 31.9643C45.8645 42.1831 36.2533 49.1398 26.0345 47.5025C15.8157 45.8653 8.85903 36.2541 10.4963 26.0353C12.1335 15.8165 21.7447 8.85984 31.9635 10.4971Z" stroke="#4C5167"/>
</g>
<path fill-rule="evenodd" clip-rule="evenodd" d="M19.4946 33.2239C19.1436 33.2239 18.3915 33.1236 18.592 33.6752C18.6923 33.8757 18.9932 33.8757 19.294 33.8757C19.5447 33.8757 19.8957 33.9259 19.9959 33.7253C20.1463 33.2741 19.7452 33.2239 19.4946 33.2239Z" fill="#45C4FF"/>
<path fill-rule="evenodd" clip-rule="evenodd" d="M21.599 33.2238C21.1979 33.2238 20.6464 33.1737 20.7968 33.6249C20.8971 33.9258 21.2481 33.8255 21.4988 33.8255C21.7996 33.8255 22.1506 33.8756 22.2007 33.5748C22.301 33.2238 21.8998 33.2238 21.599 33.2238Z" fill="#45C4FF"/>
<path fill-rule="evenodd" clip-rule="evenodd" d="M20.2464 33.9759C19.9957 34.1263 20.096 34.3268 20.096 34.8282C20.096 35.129 20.2464 35.5301 20.5973 35.2794C20.7478 35.1792 20.8982 33.5748 20.2464 33.9759Z" fill="#45C4FF"/>
<path fill-rule="evenodd" clip-rule="evenodd" d="M20.6964 32.5221V32.0207C20.6964 31.77 20.4959 31.5193 20.1951 31.7199C19.9945 31.8201 20.0446 32.2212 20.0446 32.4719C20.0446 32.7727 19.9945 33.0736 20.2953 33.0736C20.6964 33.1738 20.6964 32.8229 20.6964 32.5221Z" fill="#45C4FF"/>
<path fill-rule="evenodd" clip-rule="evenodd" d="M33.4326 19.2857C33.6332 20.5893 34.3853 20.8901 34.5357 21.1909C34.0343 21.943 32.8811 21.8929 32.4299 21.1408C32.2293 20.7898 32.1792 20.2383 32.4299 19.8873C32.6304 19.5865 32.9814 19.1854 33.4326 19.2857ZM34.0844 19.1353C34.1847 20.1882 35.1875 21.1408 36.3908 20.9904C37.4437 20.84 38.3461 19.9375 38.1957 18.684C38.0954 17.581 37.0927 16.6785 35.8894 16.8289C34.8365 16.9794 33.934 17.932 34.0844 19.1353ZM33.4326 18.5838C33.0817 18.7342 32.9313 18.6339 32.5302 18.8846C31.6277 19.4862 31.377 20.6394 31.9285 21.4416C32.6806 22.6449 34.4354 22.5948 35.0872 21.4416C35.7891 21.592 36.1401 21.7424 36.9423 21.4918C38.4965 21.0405 39.4492 19.1353 38.3963 17.4306C37.193 15.4752 33.7836 15.9766 33.4326 18.5838Z" fill="#45C4FF"/>
<path fill-rule="evenodd" clip-rule="evenodd" d="M37.8949 25.5026C37.5941 25.653 37.6944 26.0541 38.0454 26.0541C38.1958 26.0541 38.998 26.0541 39.0982 26.0541C39.3489 25.9539 39.3489 25.5026 38.9478 25.4525C38.7472 25.4525 38.0453 25.4023 37.8949 25.5026Z" fill="#45C4FF"/>
<path fill-rule="evenodd" clip-rule="evenodd" d="M35.3873 25.5026C35.1366 25.653 35.1367 26.0541 35.5378 26.0541C35.6882 26.0541 36.4904 26.0541 36.5907 26.004C36.7912 25.9037 36.8915 25.4525 36.4402 25.4023C36.2898 25.4525 35.4876 25.4525 35.3873 25.5026Z" fill="#45C4FF"/>
<path fill-rule="evenodd" clip-rule="evenodd" d="M37.1422 26.3045C36.8915 26.4549 36.9416 26.856 36.9416 27.207C36.9416 27.5078 36.9416 27.9591 37.3928 27.8087C37.6937 27.7084 37.5433 26.5051 37.4932 26.4549C37.443 26.2544 37.2424 26.2043 37.1422 26.3045Z" fill="#45C4FF"/>
<path fill-rule="evenodd" clip-rule="evenodd" d="M37.0921 23.7983C36.8414 23.9487 36.9417 24.1994 36.9417 24.7008C36.9417 25.0016 37.042 25.4027 37.3929 25.2022C37.6436 25.1019 37.5434 24.6005 37.5434 24.2997C37.5434 23.9989 37.4932 23.4975 37.0921 23.7983Z" fill="#45C4FF"/>
<path fill-rule="evenodd" clip-rule="evenodd" d="M19.9456 25.2021C19.7952 24.3497 20.3968 23.6478 21.0987 23.5475C21.951 23.3971 22.7031 24.0489 22.7533 24.7007C23.0541 26.6059 20.2965 26.9569 19.9456 25.2021ZM21.0486 22.8957C19.9957 23.0461 19.1433 23.9988 19.3439 25.2522C19.4943 26.255 20.4971 27.1574 21.7004 26.9569C23.6558 26.656 23.9064 24.1993 22.6028 23.2968C22.2519 22.996 21.7004 22.7954 21.0486 22.8957Z" fill="#45C4FF"/>
<path fill-rule="evenodd" clip-rule="evenodd" d="M21.5 17.2301C21.9512 17.0797 22.4025 17.4307 22.5027 17.7816C22.6531 18.3331 22.3022 18.7342 21.9512 18.8345C20.9485 19.1855 20.3468 17.6312 21.5 17.2301ZM21.3997 16.6285C20.5473 16.829 20.1462 17.5811 20.2967 18.3331C20.6476 20.1381 23.5556 19.6367 23.1545 17.7315C23.0041 17.0296 22.252 16.4279 21.3997 16.6285Z" fill="#45C4FF"/>
<path fill-rule="evenodd" clip-rule="evenodd" d="M22.9533 21.492C22.6525 21.5923 22.7026 21.9934 22.9533 22.0435C23.1038 22.0937 23.8558 22.0937 23.9561 22.0435C24.2569 21.9433 24.2067 21.5422 23.9059 21.4419C23.8056 21.4419 23.0536 21.4419 22.9533 21.492Z" fill="#45C4FF"/>
<path fill-rule="evenodd" clip-rule="evenodd" d="M25.2604 21.4917C24.9094 21.592 24.9596 22.0432 25.2604 22.0934C25.4108 22.1435 26.1127 22.1435 26.2632 22.0934C26.564 21.9931 26.564 21.5418 26.213 21.4917C26.1128 21.4416 25.2604 21.4416 25.2604 21.4917Z" fill="#45C4FF"/>
<path fill-rule="evenodd" clip-rule="evenodd" d="M24.5076 19.9375C24.2068 20.0879 24.3071 20.3887 24.3071 20.7397C24.3071 21.0405 24.3071 21.4416 24.7082 21.3414C25.0591 21.2411 24.9087 20.138 24.8586 20.0378C24.8084 19.9876 24.658 19.8874 24.5076 19.9375Z" fill="#45C4FF"/>
<path fill-rule="evenodd" clip-rule="evenodd" d="M24.5569 22.1935C24.206 22.2938 24.3062 22.5946 24.3062 22.9456C24.3062 23.2464 24.2561 23.6475 24.6572 23.5974C24.958 23.5472 24.9079 23.096 24.9079 22.7952C24.9079 22.5445 24.958 22.0932 24.5569 22.1935Z" fill="#45C4FF"/>
<path fill-rule="evenodd" clip-rule="evenodd" d="M26.8134 30.4163C26.8134 27.9596 27.1142 24.9012 29.7715 24.851C32.4789 24.851 32.8299 27.8593 32.8299 30.4163C32.8299 31.77 32.8299 33.4246 32.4288 34.678C32.0277 36.0819 31.2756 36.7337 29.8216 36.7337C26.7131 36.6835 26.8134 33.0235 26.8134 30.4163ZM34.4343 31.1684C34.5346 28.0097 34.2839 23.6978 30.2729 23.4472C26.1115 23.1965 25.209 26.4554 25.209 30.316C25.209 34.0262 25.6602 37.8868 29.4707 38.0373C33.6321 38.2879 34.2839 34.9788 34.4343 31.1684Z" fill="#45C4FF"/>
<path fill-rule="evenodd" clip-rule="evenodd" d="M26.8134 30.4163C26.8134 27.9596 27.1142 24.9012 29.7715 24.851C32.4789 24.851 32.8299 27.8593 32.8299 30.4163C32.8299 31.77 32.8299 33.4246 32.4288 34.678C32.0277 36.0819 31.2756 36.7337 29.8216 36.7337C26.7131 36.6835 26.8134 33.0235 26.8134 30.4163ZM34.4343 31.1684C34.5346 28.0097 34.2839 23.6978 30.2729 23.4472C26.1115 23.1965 25.209 26.4554 25.209 30.316C25.209 34.0262 25.6602 37.8868 29.4707 38.0373C33.6321 38.2879 34.2839 34.9788 34.4343 31.1684Z" fill="#45C4FF"/>
<path fill-rule="evenodd" clip-rule="evenodd" d="M35.4374 37.285C35.5878 36.9341 35.5377 36.533 35.8886 36.4327C36.2396 36.2823 36.6407 36.3825 36.8413 36.6834C37.0418 36.9842 36.9917 37.4354 36.7911 37.6861C36.5404 37.9368 36.1895 37.8867 35.8385 37.987V38.739C36.2897 38.8393 36.6407 38.739 36.9415 39.09C37.1922 39.3908 37.1922 39.8922 36.9917 40.193C36.7911 40.4437 36.39 40.6443 35.9387 40.4938C35.5376 40.2933 35.5376 40.0927 35.4374 39.5412H34.3344C34.2842 40.1429 34.5349 40.8949 35.1366 41.1958C36.1393 41.7473 38.0947 41.5467 38.2953 39.8922C38.4457 38.8894 37.9443 38.5886 37.4931 38.1875C38.546 37.4856 38.2952 35.8812 36.9415 35.5302C35.6379 35.1792 34.5349 35.6806 34.3845 37.3352L35.4374 37.285Z" fill="#45C4FF"/>
<path fill-rule="evenodd" clip-rule="evenodd" d="M35.4374 37.285C35.5878 36.9341 35.5377 36.533 35.8886 36.4327C36.2396 36.2823 36.6407 36.3825 36.8413 36.6834C37.0418 36.9842 36.9917 37.4354 36.7911 37.6861C36.5404 37.9368 36.1895 37.8867 35.8385 37.987V38.739C36.2897 38.8393 36.6407 38.739 36.9415 39.09C37.1922 39.3908 37.1922 39.8922 36.9917 40.193C36.7911 40.4437 36.39 40.6443 35.9387 40.4938C35.5376 40.2933 35.5376 40.0927 35.4374 39.5412H34.3344C34.2842 40.1429 34.5349 40.8949 35.1366 41.1958C36.1393 41.7473 38.0947 41.5467 38.2953 39.8922C38.4457 38.8894 37.9443 38.5886 37.4931 38.1875C38.546 37.4856 38.2952 35.8812 36.9415 35.5302C35.6379 35.1792 34.5349 35.6806 34.3845 37.3352L35.4374 37.285Z" fill="#45C4FF"/>
<path d="M31.9635 10.4971C42.1822 12.1343 49.1389 21.7455 47.5017 31.9643C45.8645 42.1831 36.2533 49.1398 26.0345 47.5025C15.8157 45.8653 8.85903 36.2541 10.4963 26.0353C12.1335 15.8165 21.7447 8.85984 31.9635 10.4971Z" stroke="#4C5167"/>
</g>
<defs>
<filter id="filter0_d_1480_3425" x="-7.24219" y="-7.2417" width="88.4824" height="88.4829" filterUnits="userSpaceOnUse" color-interpolation-filters="sRGB">
<feFlood flood-opacity="0" result="BackgroundImageFix"/>
<feColorMatrix in="SourceAlpha" type="matrix" values="0 0 0 0 0 0 0 0 0 0 0 0 0 0 0 0 0 0 127 0" result="hardAlpha"/>
<feOffset dx="8" dy="8"/>
<feGaussianBlur stdDeviation="12.5"/>
<feColorMatrix type="matrix" values="0 0 0 0 0.239216 0 0 0 0 0.298039 0 0 0 0 0.415686 0 0 0 0.1 0"/>
<feBlend mode="normal" in2="BackgroundImageFix" result="effect1_dropShadow_1480_3425"/>
<feBlend mode="normal" in="SourceGraphic" in2="effect1_dropShadow_1480_3425" result="shape"/>
</filter>
</defs>
</svg>
