<svg width="58" height="58" viewBox="0 0 58 58" fill="none" xmlns="http://www.w3.org/2000/svg">
<circle cx="29" cy="29" r="29" fill="white"/>
<circle cx="29" cy="29" r="28" stroke="#3E3F43" stroke-opacity="0.12" stroke-width="2"/>
<mask id="mask0_1480_2629" style="mask-type:alpha" maskUnits="userSpaceOnUse" x="9" y="9" width="40" height="40">
<path d="M47.9954 32.0434C49.6763 21.552 42.534 11.6843 32.0426 10.0034C21.5511 8.32246 11.6835 15.4648 10.0026 25.9562C8.32164 36.4476 15.464 46.3153 25.9554 47.9962C36.4468 49.6771 46.3145 42.5348 47.9954 32.0434Z" fill="white"/>
</mask>
<g mask="url(#mask0_1480_2629)">
<path d="M8.3418 33.4966H51.6174" stroke="#4C5167" stroke-width="1.5" stroke-miterlimit="22.9256"/>
<path d="M9.1875 37.918H53.7331" stroke="#4C5167" stroke-width="1.5" stroke-miterlimit="22.9256"/>
<path d="M11.0684 42.1514H55.8962" stroke="#4C5167" stroke-width="1.5" stroke-miterlimit="22.9256"/>
<path d="M13.0918 46.3379H57.6845" stroke="#4C5167" stroke-width="1.5" stroke-miterlimit="22.9256"/>
<path d="M-0.078125 11.6704H43.1975" stroke="#4C5167" stroke-width="1.5" stroke-miterlimit="22.9256"/>
<path d="M0.767578 16.0918H45.3132" stroke="#4C5167" stroke-width="1.5" stroke-miterlimit="22.9256"/>
<path d="M2.64844 20.3257H47.4763" stroke="#4C5167" stroke-width="1.5" stroke-miterlimit="22.9256"/>
<path d="M4.67188 24.5591H49.2646" stroke="#4C5167" stroke-width="1.5" stroke-miterlimit="22.9256"/>
<path d="M6.88281 29.0278H51.2873" stroke="#4C5167" stroke-width="1.5" stroke-miterlimit="22.9256"/>
<path d="M31.9635 10.4971C42.1822 12.1343 49.1389 21.7455 47.5017 31.9643C45.8645 42.1831 36.2533 49.1398 26.0345 47.5025C15.8157 45.8653 8.85903 36.2541 10.4963 26.0353C12.1335 15.8165 21.7447 8.85984 31.9635 10.4971Z" stroke="#4C5167"/>
</g>
</svg>
