<svg width="58" height="58" viewBox="0 0 58 58" fill="none" xmlns="http://www.w3.org/2000/svg">
<circle cx="29" cy="29" r="29" fill="white"/>
<circle cx="29" cy="29" r="28" stroke="#3E3F43" stroke-opacity="0.12" stroke-width="2"/>
<mask id="mask0_1480_3071" style="mask-type:alpha" maskUnits="userSpaceOnUse" x="9" y="9" width="40" height="40">
<path d="M47.9954 32.0434C49.6763 21.552 42.534 11.6843 32.0426 10.0034C21.5511 8.32246 11.6835 15.4648 10.0026 25.9562C8.32164 36.4476 15.464 46.3153 25.9554 47.9962C36.4468 49.6771 46.3145 42.5348 47.9954 32.0434Z" fill="white"/>
</mask>
<g mask="url(#mask0_1480_3071)">
<path fill-rule="evenodd" clip-rule="evenodd" d="M35.0635 9.26172C35.2955 9.26172 35.4694 9.43572 35.4694 9.66772C35.4694 9.89972 35.2955 10.0737 35.0635 10.0737C34.8315 10.0737 34.6575 9.89972 34.6575 9.66772C34.5995 9.43572 34.8315 9.26172 35.0635 9.26172Z" fill="#82B8DD" stroke="#82B8DD" stroke-width="0.5669" stroke-miterlimit="22.9256"/>
<path fill-rule="evenodd" clip-rule="evenodd" d="M38.949 11.6396C39.181 11.6396 39.355 11.8136 39.355 12.0456C39.355 12.2776 39.181 12.4516 38.949 12.4516C38.717 12.4516 38.543 12.2776 38.543 12.0456C38.543 11.8136 38.717 11.6396 38.949 11.6396Z" fill="#82B8DD" stroke="#82B8DD" stroke-width="0.5669" stroke-miterlimit="22.9256"/>
<path fill-rule="evenodd" clip-rule="evenodd" d="M41.8493 15.3516C42.0813 15.3516 42.2554 15.5256 42.2554 15.7576C42.2554 15.9896 42.0813 16.1636 41.8493 16.1636C41.6173 16.1636 41.4434 15.9896 41.4434 15.7576C41.4434 15.5256 41.6173 15.3516 41.8493 15.3516Z" fill="#82B8DD" stroke="#82B8DD" stroke-width="0.5669" stroke-miterlimit="22.9256"/>
<path fill-rule="evenodd" clip-rule="evenodd" d="M43.706 10.9434C43.938 10.9434 44.112 11.1174 44.112 11.3494C44.112 11.5814 43.938 11.7554 43.706 11.7554C43.474 11.7554 43.3 11.5814 43.3 11.3494C43.242 11.1174 43.474 10.9434 43.706 10.9434Z" fill="#82B8DD" stroke="#82B8DD" stroke-width="0.5669" stroke-miterlimit="22.9256"/>
<path fill-rule="evenodd" clip-rule="evenodd" d="M46.3162 16.6279C46.5482 16.6279 46.7222 16.8019 46.7222 17.0339C46.7222 17.2659 46.5482 17.4399 46.3162 17.4399C46.0842 17.4399 45.9102 17.2659 45.9102 17.0339C45.9102 16.8019 46.0842 16.6279 46.3162 16.6279Z" fill="#82B8DD" stroke="#82B8DD" stroke-width="0.5669" stroke-miterlimit="22.9256"/>
<path fill-rule="evenodd" clip-rule="evenodd" d="M38.197 17.8457C38.429 17.8457 38.603 18.0197 38.603 18.2517C38.603 18.4837 38.429 18.6577 38.197 18.6577C37.965 18.6577 37.791 18.4837 37.791 18.2517C37.791 18.0197 37.965 17.8457 38.197 17.8457Z" fill="#82B8DD" stroke="#82B8DD" stroke-width="0.5669" stroke-miterlimit="22.9256"/>
<path fill-rule="evenodd" clip-rule="evenodd" d="M35.238 14.8301C35.47 14.8301 35.644 15.0041 35.644 15.2361C35.644 15.4681 35.47 15.6421 35.238 15.6421C35.006 15.6421 34.832 15.4681 34.832 15.2361C34.832 15.0621 35.006 14.8301 35.238 14.8301Z" fill="#82B8DD" stroke="#82B8DD" stroke-width="0.5669" stroke-miterlimit="22.9256"/>
<path fill-rule="evenodd" clip-rule="evenodd" d="M30.7146 11.582C30.9466 11.582 31.1206 11.756 31.1206 11.988C31.1206 12.22 30.9466 12.394 30.7146 12.394C30.4826 12.394 30.3086 12.22 30.3086 11.988C30.3086 11.756 30.4826 11.582 30.7146 11.582Z" fill="#82B8DD" stroke="#82B8DD" stroke-width="0.5669" stroke-miterlimit="22.9256"/>
<path fill-rule="evenodd" clip-rule="evenodd" d="M30.8291 16.2217C31.0611 16.2217 31.2351 16.3957 31.2351 16.6277C31.2351 16.8597 31.0611 17.0337 30.8291 17.0337C30.5971 17.0337 30.4231 16.8597 30.4231 16.6277C30.3651 16.3957 30.5971 16.2217 30.8291 16.2217Z" fill="#82B8DD" stroke="#82B8DD" stroke-width="0.5669" stroke-miterlimit="22.9256"/>
<path fill-rule="evenodd" clip-rule="evenodd" d="M26.4216 13.9014C26.6536 13.9014 26.8276 14.0754 26.8276 14.3074C26.8276 14.5394 26.6536 14.7134 26.4216 14.7134C26.1896 14.7134 26.0156 14.5394 26.0156 14.3074C26.0156 14.0754 26.1896 13.9014 26.4216 13.9014Z" fill="#82B8DD" stroke="#82B8DD" stroke-width="0.5669" stroke-miterlimit="22.9256"/>
<path fill-rule="evenodd" clip-rule="evenodd" d="M23.8708 10.4795C24.1028 10.4795 24.2768 10.6535 24.2768 10.8855C24.2768 11.1175 24.1028 11.2915 23.8708 11.2915C23.6388 11.2915 23.4648 11.1175 23.4648 10.8855C23.4648 10.6535 23.6388 10.4795 23.8708 10.4795Z" fill="#82B8DD" stroke="#82B8DD" stroke-width="0.5669" stroke-miterlimit="22.9256"/>
<path fill-rule="evenodd" clip-rule="evenodd" d="M19.2869 12.1035C19.5189 12.1035 19.6929 12.2775 19.6929 12.5095C19.6929 12.7415 19.5189 12.9155 19.2869 12.9155C19.0549 12.9155 18.8809 12.7415 18.8809 12.5095C18.8809 12.2775 19.0549 12.1035 19.2869 12.1035Z" fill="#82B8DD" stroke="#82B8DD" stroke-width="0.5669" stroke-miterlimit="22.9256"/>
<path fill-rule="evenodd" clip-rule="evenodd" d="M22.1885 15.9316C22.4205 15.9316 22.5945 16.1056 22.5945 16.3376C22.5945 16.5696 22.4205 16.7436 22.1885 16.7436C21.9565 16.7436 21.7825 16.5696 21.7825 16.3376C21.7245 16.1056 21.9565 15.9316 22.1885 15.9316Z" fill="#82B8DD" stroke="#82B8DD" stroke-width="0.5669" stroke-miterlimit="22.9256"/>
<path fill-rule="evenodd" clip-rule="evenodd" d="M9.07907 11.0596C9.31107 11.0596 9.48507 11.2336 9.48507 11.4656C9.48507 11.6976 9.31107 11.8716 9.07907 11.8716C8.84707 11.8716 8.67308 11.6976 8.67308 11.4656C8.61508 11.2336 8.84707 11.0596 9.07907 11.0596Z" fill="#82B8DD" stroke="#82B8DD" stroke-width="0.5669" stroke-miterlimit="22.9256"/>
<path fill-rule="evenodd" clip-rule="evenodd" d="M13.5466 12.3359C13.7786 12.3359 13.9526 12.5099 13.9526 12.7419C13.9526 12.9739 13.7786 13.1479 13.5466 13.1479C13.3146 13.1479 13.1406 12.9739 13.1406 12.7419C13.1406 12.5099 13.3146 12.3359 13.5466 12.3359Z" fill="#82B8DD" stroke="#82B8DD" stroke-width="0.5669" stroke-miterlimit="22.9256"/>
<path fill-rule="evenodd" clip-rule="evenodd" d="M15.5759 16.1055C15.8079 16.1055 15.9819 16.2795 15.9819 16.5115C15.9819 16.7435 15.8079 16.9175 15.5759 16.9175C15.3439 16.9175 15.1699 16.7435 15.1699 16.5115C15.1699 16.3375 15.3439 16.1055 15.5759 16.1055Z" fill="#82B8DD" stroke="#82B8DD" stroke-width="0.5669" stroke-miterlimit="22.9256"/>
<path fill-rule="evenodd" clip-rule="evenodd" d="M28.5681 19.8174C28.8001 19.8174 28.9741 19.9914 28.9741 20.2234C28.9741 20.4554 28.8001 20.6294 28.5681 20.6294C28.3361 20.6294 28.1621 20.4554 28.1621 20.2234C28.1621 19.9914 28.3361 19.8174 28.5681 19.8174Z" fill="#82B8DD" stroke="#82B8DD" stroke-width="0.5669" stroke-miterlimit="22.9256"/>
<path fill-rule="evenodd" clip-rule="evenodd" d="M25.2615 22.5439C25.4935 22.5439 25.6675 22.7179 25.6675 22.9499C25.6675 23.1819 25.4935 23.3559 25.2615 23.3559C25.0295 23.3559 24.8555 23.1819 24.8555 22.9499C24.8555 22.7179 25.0295 22.5439 25.2615 22.5439Z" fill="#82B8DD" stroke="#82B8DD" stroke-width="0.5669" stroke-miterlimit="22.9256"/>
<path fill-rule="evenodd" clip-rule="evenodd" d="M30.3084 24.6895C30.5404 24.6895 30.7144 24.8635 30.7144 25.0955C30.7144 25.3275 30.5404 25.5014 30.3084 25.5014C30.0764 25.5014 29.9023 25.3275 29.9023 25.0955C29.9023 24.9215 30.0764 24.6895 30.3084 24.6895Z" fill="#82B8DD" stroke="#82B8DD" stroke-width="0.5669" stroke-miterlimit="22.9256"/>
<path fill-rule="evenodd" clip-rule="evenodd" d="M32.279 21.5576C32.511 21.5576 32.685 21.7316 32.685 21.9636C32.685 22.1956 32.511 22.3696 32.279 22.3696C32.047 22.3696 31.873 22.1956 31.873 21.9636C31.873 21.7316 32.047 21.5576 32.279 21.5576Z" fill="#82B8DD" stroke="#82B8DD" stroke-width="0.5669" stroke-miterlimit="22.9256"/>
<path fill-rule="evenodd" clip-rule="evenodd" d="M24.1013 26.3721C24.3333 26.3721 24.5073 26.5461 24.5073 26.7781C24.5073 27.0101 24.3333 27.1841 24.1013 27.1841C23.8693 27.1841 23.6953 27.0101 23.6953 26.7781C23.6953 26.5461 23.8693 26.3721 24.1013 26.3721Z" fill="#82B8DD" stroke="#82B8DD" stroke-width="0.5669" stroke-miterlimit="22.9256"/>
<path d="M19.8669 28.1694C20.0912 28.1694 20.273 27.9877 20.273 27.7634C20.273 27.5392 20.0912 27.3574 19.8669 27.3574C19.6427 27.3574 19.4609 27.5392 19.4609 27.7634C19.4609 27.9877 19.6427 28.1694 19.8669 28.1694Z" fill="#82B8DD" stroke="#82B8DD" stroke-width="0.5669" stroke-miterlimit="22.9256"/>
<path fill-rule="evenodd" clip-rule="evenodd" d="M27.8136 28.9238C28.0456 28.9238 28.2196 29.0978 28.2196 29.3298C28.2196 29.5618 28.0456 29.7358 27.8136 29.7358C27.5816 29.7358 27.4076 29.5618 27.4076 29.3298C27.3496 29.0978 27.5236 28.9238 27.8136 28.9238Z" fill="#82B8DD" stroke="#82B8DD" stroke-width="0.5669" stroke-miterlimit="22.9256"/>
<path fill-rule="evenodd" clip-rule="evenodd" d="M33.2068 27.2998C33.4388 27.2998 33.6128 27.4738 33.6128 27.7058C33.6128 27.9378 33.4388 28.1118 33.2068 28.1118C32.9748 28.1118 32.8008 27.9378 32.8008 27.7058C32.8008 27.5318 32.9748 27.2998 33.2068 27.2998Z" fill="#82B8DD" stroke="#82B8DD" stroke-width="0.5669" stroke-miterlimit="22.9256"/>
<path fill-rule="evenodd" clip-rule="evenodd" d="M31.699 31.2437C31.931 31.2437 32.105 31.4177 32.105 31.6497C32.105 31.8817 31.931 32.0556 31.699 32.0556C31.467 32.0556 31.293 31.8817 31.293 31.6497C31.293 31.4177 31.467 31.2437 31.699 31.2437Z" fill="#82B8DD" stroke="#82B8DD" stroke-width="0.5669" stroke-miterlimit="22.9256"/>
<path fill-rule="evenodd" clip-rule="evenodd" d="M34.5993 34.9561C34.8313 34.9561 35.0054 35.1301 35.0054 35.3621C35.0054 35.5941 34.8313 35.7681 34.5993 35.7681C34.3673 35.7681 34.1934 35.5941 34.1934 35.3621C34.1934 35.1301 34.3673 34.9561 34.5993 34.9561Z" fill="#82B8DD" stroke="#82B8DD" stroke-width="0.5669" stroke-miterlimit="22.9256"/>
<path fill-rule="evenodd" clip-rule="evenodd" d="M36.3982 30.6055C36.6302 30.6055 36.8042 30.7795 36.8042 31.0115C36.8042 31.2435 36.6302 31.4175 36.3982 31.4175C36.1662 31.4175 35.9922 31.2435 35.9922 31.0115C35.9922 30.7795 36.1662 30.6055 36.3982 30.6055Z" fill="#82B8DD" stroke="#82B8DD" stroke-width="0.5669" stroke-miterlimit="22.9256"/>
<path fill-rule="evenodd" clip-rule="evenodd" d="M39.0674 36.2314C39.2994 36.2314 39.4734 36.4054 39.4734 36.6374C39.4734 36.8694 39.2994 37.0435 39.0674 37.0435C38.8354 37.0435 38.6614 36.8694 38.6614 36.6374C38.6034 36.4054 38.8354 36.2314 39.0674 36.2314Z" fill="#82B8DD" stroke="#82B8DD" stroke-width="0.5669" stroke-miterlimit="22.9256"/>
<path fill-rule="evenodd" clip-rule="evenodd" d="M30.947 37.4497C31.179 37.4497 31.353 37.6237 31.353 37.8557C31.353 38.0877 31.179 38.2617 30.947 38.2617C30.715 38.2617 30.541 38.0877 30.541 37.8557C30.541 37.6817 30.715 37.4497 30.947 37.4497Z" fill="#82B8DD" stroke="#82B8DD" stroke-width="0.5669" stroke-miterlimit="22.9256"/>
<path fill-rule="evenodd" clip-rule="evenodd" d="M27.988 34.4917C28.22 34.4917 28.394 34.6657 28.394 34.8977C28.394 35.1297 28.22 35.3037 27.988 35.3037C27.756 35.3037 27.582 35.1297 27.582 34.8977C27.582 34.6657 27.756 34.4917 27.988 34.4917Z" fill="#82B8DD" stroke="#82B8DD" stroke-width="0.5669" stroke-miterlimit="22.9256"/>
<path fill-rule="evenodd" clip-rule="evenodd" d="M23.4638 31.2437C23.6958 31.2437 23.8698 31.4177 23.8698 31.6497C23.8698 31.8817 23.6958 32.0556 23.4638 32.0556C23.2318 32.0556 23.0578 31.8817 23.0578 31.6497C22.9998 31.4177 23.2318 31.2437 23.4638 31.2437Z" fill="#82B8DD" stroke="#82B8DD" stroke-width="0.5669" stroke-miterlimit="22.9256"/>
<path fill-rule="evenodd" clip-rule="evenodd" d="M23.5212 35.8257C23.7532 35.8257 23.9272 35.9997 23.9272 36.2317C23.9272 36.4637 23.7532 36.6377 23.5212 36.6377C23.2892 36.6377 23.1152 36.4637 23.1152 36.2317C23.1152 35.9997 23.2892 35.8257 23.5212 35.8257Z" fill="#82B8DD" stroke="#82B8DD" stroke-width="0.5669" stroke-miterlimit="22.9256"/>
<path fill-rule="evenodd" clip-rule="evenodd" d="M19.1728 33.5635C19.4048 33.5635 19.5788 33.7375 19.5788 33.9695C19.5788 34.2015 19.4048 34.3755 19.1728 34.3755C18.9408 34.3755 18.7668 34.2015 18.7668 33.9695C18.7088 33.7375 18.9408 33.5635 19.1728 33.5635Z" fill="#82B8DD" stroke="#82B8DD" stroke-width="0.5669" stroke-miterlimit="22.9256"/>
<path fill-rule="evenodd" clip-rule="evenodd" d="M16.6208 30.1416C16.8528 30.1416 17.0268 30.3156 17.0268 30.5476C17.0268 30.7796 16.8528 30.9536 16.6208 30.9536C16.3888 30.9536 16.2148 30.7796 16.2148 30.5476C16.2148 30.3156 16.3888 30.1416 16.6208 30.1416Z" fill="#82B8DD" stroke="#82B8DD" stroke-width="0.5669" stroke-miterlimit="22.9256"/>
<path fill-rule="evenodd" clip-rule="evenodd" d="M11.9802 27.0674C12.2122 27.0674 12.3862 27.2414 12.3862 27.4734C12.3862 27.7054 12.2122 27.8794 11.9802 27.8794C11.7482 27.8794 11.5742 27.7054 11.5742 27.4734C11.5742 27.2414 11.7482 27.0674 11.9802 27.0674Z" fill="#82B8DD" stroke="#82B8DD" stroke-width="0.5669" stroke-miterlimit="22.9256"/>
<path fill-rule="evenodd" clip-rule="evenodd" d="M12.0369 31.7656C12.2689 31.7656 12.4429 31.9396 12.4429 32.1716C12.4429 32.4036 12.2689 32.5776 12.0369 32.5776C11.8049 32.5776 11.6309 32.4036 11.6309 32.1716C11.6309 31.9396 11.8049 31.7656 12.0369 31.7656Z" fill="#82B8DD" stroke="#82B8DD" stroke-width="0.5669" stroke-miterlimit="22.9256"/>
<path fill-rule="evenodd" clip-rule="evenodd" d="M14.9385 35.5938C15.1705 35.5938 15.3445 35.7677 15.3445 35.9997C15.3445 36.2317 15.1705 36.4057 14.9385 36.4057C14.7065 36.4057 14.5325 36.2317 14.5325 35.9997C14.4745 35.7677 14.7065 35.5938 14.9385 35.5938Z" fill="#82B8DD" stroke="#82B8DD" stroke-width="0.5669" stroke-miterlimit="22.9256"/>
<path fill-rule="evenodd" clip-rule="evenodd" d="M26.3064 17.5557C26.5384 17.5557 26.7124 17.7297 26.7124 17.9617C26.7124 18.1937 26.5384 18.3677 26.3064 18.3677C26.0744 18.3677 25.9004 18.1937 25.9004 17.9617C25.9004 17.7297 26.0744 17.5557 26.3064 17.5557Z" fill="#82B8DD" stroke="#82B8DD" stroke-width="0.5669" stroke-miterlimit="22.9256"/>
<path fill-rule="evenodd" clip-rule="evenodd" d="M16.2146 25.1533C16.4466 25.1533 16.6206 25.3273 16.6206 25.5593C16.6206 25.7913 16.4466 25.9653 16.2146 25.9653C15.9826 25.9653 15.8086 25.7913 15.8086 25.5593C15.8086 25.3273 15.9826 25.1533 16.2146 25.1533Z" fill="#82B8DD" stroke="#82B8DD" stroke-width="0.5669" stroke-miterlimit="22.9256"/>
<path fill-rule="evenodd" clip-rule="evenodd" d="M9.6013 20.9199C9.8333 20.9199 10.0073 21.0939 10.0073 21.3259C10.0073 21.5579 9.8333 21.7319 9.6013 21.7319C9.3693 21.7319 9.19531 21.5579 9.19531 21.3259C9.19531 21.0939 9.3693 20.9199 9.6013 20.9199Z" fill="#82B8DD" stroke="#82B8DD" stroke-width="0.5669" stroke-miterlimit="22.9256"/>
<path fill-rule="evenodd" clip-rule="evenodd" d="M12.8506 23.4136C13.0826 23.4136 13.2566 23.5876 13.2566 23.8196C13.2566 24.0516 13.0826 24.2256 12.8506 24.2256C12.6186 24.2256 12.4446 24.0516 12.4446 23.8196C12.3866 23.6456 12.6186 23.4136 12.8506 23.4136Z" fill="#82B8DD" stroke="#82B8DD" stroke-width="0.5669" stroke-miterlimit="22.9256"/>
<path fill-rule="evenodd" clip-rule="evenodd" d="M14.0681 19.5273C14.3001 19.5273 14.4741 19.7014 14.4741 19.9334C14.4741 20.1654 14.3001 20.3393 14.0681 20.3393C13.8361 20.3393 13.6621 20.1654 13.6621 19.9334C13.6621 19.7594 13.8361 19.5273 14.0681 19.5273Z" fill="#82B8DD" stroke="#82B8DD" stroke-width="0.5669" stroke-miterlimit="22.9256"/>
<path fill-rule="evenodd" clip-rule="evenodd" d="M19.4041 23.8779C19.6361 23.8779 19.81 24.0519 19.81 24.2839C19.81 24.5159 19.6361 24.6899 19.4041 24.6899C19.1721 24.6899 18.998 24.5159 18.998 24.2839C18.998 24.0519 19.1721 23.8779 19.4041 23.8779Z" fill="#82B8DD" stroke="#82B8DD" stroke-width="0.5669" stroke-miterlimit="22.9256"/>
<path fill-rule="evenodd" clip-rule="evenodd" d="M18.1287 20.5137C18.3607 20.5137 18.5347 20.6877 18.5347 20.9197C18.5347 21.1517 18.3607 21.3257 18.1287 21.3257C17.8967 21.3257 17.7227 21.1517 17.7227 20.9197C17.7227 20.6877 17.8967 20.5137 18.1287 20.5137Z" fill="#82B8DD" stroke="#82B8DD" stroke-width="0.5669" stroke-miterlimit="22.9256"/>
<path fill-rule="evenodd" clip-rule="evenodd" d="M22.363 20.2236C22.595 20.2236 22.769 20.3976 22.769 20.6296C22.769 20.8616 22.595 21.0356 22.363 21.0356C22.131 21.0356 21.957 20.8616 21.957 20.6296C21.957 20.4556 22.131 20.2236 22.363 20.2236Z" fill="#82B8DD" stroke="#82B8DD" stroke-width="0.5669" stroke-miterlimit="22.9256"/>
<path fill-rule="evenodd" clip-rule="evenodd" d="M28.2204 40.002C28.4524 40.002 28.6264 40.176 28.6264 40.408C28.6264 40.64 28.4524 40.814 28.2204 40.814C27.9884 40.814 27.8145 40.64 27.8145 40.408C27.8145 40.176 27.9884 40.002 28.2204 40.002Z" fill="#82B8DD" stroke="#82B8DD" stroke-width="0.5669" stroke-miterlimit="22.9256"/>
<path fill-rule="evenodd" clip-rule="evenodd" d="M30.1931 44.6416C30.4251 44.6416 30.5991 44.8156 30.5991 45.0476C30.5991 45.2796 30.4251 45.4536 30.1931 45.4536C29.9611 45.4536 29.7871 45.2796 29.7871 45.0476C29.7871 44.8156 29.9611 44.6416 30.1931 44.6416Z" fill="#82B8DD" stroke="#82B8DD" stroke-width="0.5669" stroke-miterlimit="22.9256"/>
<path fill-rule="evenodd" clip-rule="evenodd" d="M25.7849 43.3662C26.0169 43.3662 26.1909 43.5402 26.1909 43.7722C26.1909 44.0042 26.0169 44.1782 25.7849 44.1782C25.5529 44.1782 25.3789 44.0042 25.3789 43.7722C25.3789 43.5402 25.5529 43.3662 25.7849 43.3662Z" fill="#82B8DD" stroke="#82B8DD" stroke-width="0.5669" stroke-miterlimit="22.9256"/>
<path fill-rule="evenodd" clip-rule="evenodd" d="M22.3044 39.7119C22.5364 39.7119 22.7104 39.8859 22.7104 40.1179C22.7104 40.3499 22.5364 40.5239 22.3044 40.5239C22.0724 40.5239 21.8984 40.3499 21.8984 40.1179C21.8984 39.8859 22.0724 39.7119 22.3044 39.7119Z" fill="#82B8DD" stroke="#82B8DD" stroke-width="0.5669" stroke-miterlimit="22.9256"/>
<path fill-rule="evenodd" clip-rule="evenodd" d="M20.2166 45.8604C20.4486 45.8604 20.6225 46.0343 20.6225 46.2663C20.6225 46.4983 20.4486 46.6723 20.2166 46.6723C19.9846 46.6723 19.8105 46.4983 19.8105 46.2663C19.8105 46.0343 19.9846 45.8604 20.2166 45.8604Z" fill="#82B8DD" stroke="#82B8DD" stroke-width="0.5669" stroke-miterlimit="22.9256"/>
<path fill-rule="evenodd" clip-rule="evenodd" d="M17.5486 41.5679C17.7806 41.5679 17.9546 41.7419 17.9546 41.9739C17.9546 42.2059 17.7806 42.3799 17.5486 42.3799C17.3166 42.3799 17.1426 42.2059 17.1426 41.9739C17.1426 41.7419 17.3166 41.5679 17.5486 41.5679Z" fill="#82B8DD" stroke="#82B8DD" stroke-width="0.5669" stroke-miterlimit="22.9256"/>
<path fill-rule="evenodd" clip-rule="evenodd" d="M21.0869 42.728C21.3189 42.728 21.4929 42.902 21.4929 43.134C21.4929 43.366 21.3189 43.54 21.0869 43.54C20.8549 43.54 20.6809 43.366 20.6809 43.134C20.6229 42.902 20.8549 42.728 21.0869 42.728Z" fill="#82B8DD" stroke="#82B8DD" stroke-width="0.5669" stroke-miterlimit="22.9256"/>
<path fill-rule="evenodd" clip-rule="evenodd" d="M24.1618 47.3682C24.3938 47.3682 24.5679 47.5422 24.5679 47.7742C24.5679 48.0062 24.3938 48.1802 24.1618 48.1802C23.9298 48.1802 23.7559 48.0062 23.7559 47.7742C23.7559 47.5422 23.9298 47.3682 24.1618 47.3682Z" fill="#82B8DD" stroke="#82B8DD" stroke-width="0.5669" stroke-miterlimit="22.9256"/>
<path fill-rule="evenodd" clip-rule="evenodd" d="M28.2204 47.6001C28.4524 47.6001 28.6264 47.7741 28.6264 48.0061C28.6264 48.2381 28.4524 48.4121 28.2204 48.4121C27.9884 48.4121 27.8145 48.2381 27.8145 48.0061C27.8145 47.7741 27.9884 47.6001 28.2204 47.6001Z" fill="#82B8DD" stroke="#82B8DD" stroke-width="0.5669" stroke-miterlimit="22.9256"/>
<path fill-rule="evenodd" clip-rule="evenodd" d="M40.9802 47.542C41.2122 47.542 41.3862 47.716 41.3862 47.948C41.3862 48.18 41.2122 48.354 40.9802 48.354C40.7482 48.354 40.5742 48.18 40.5742 47.948C40.5742 47.716 40.7482 47.542 40.9802 47.542Z" fill="#82B8DD" stroke="#82B8DD" stroke-width="0.5669" stroke-miterlimit="22.9256"/>
<path fill-rule="evenodd" clip-rule="evenodd" d="M33.4998 47.3682C33.7318 47.3682 33.9058 47.5422 33.9058 47.7742C33.9058 48.0062 33.7318 48.1802 33.4998 48.1802C33.2678 48.1802 33.0938 48.0062 33.0938 47.7742C33.0938 47.5422 33.2678 47.3682 33.4998 47.3682Z" fill="#82B8DD" stroke="#82B8DD" stroke-width="0.5669" stroke-miterlimit="22.9256"/>
<path fill-rule="evenodd" clip-rule="evenodd" d="M34.3689 43.3662C34.6009 43.3662 34.7749 43.5402 34.7749 43.7722C34.7749 44.0042 34.6009 44.1782 34.3689 44.1782C34.1369 44.1782 33.9629 44.0042 33.9629 43.7722C33.9629 43.5402 34.1369 43.3662 34.3689 43.3662Z" fill="#82B8DD" stroke="#82B8DD" stroke-width="0.5669" stroke-miterlimit="22.9256"/>
<path fill-rule="evenodd" clip-rule="evenodd" d="M37.6169 45.8604C37.8489 45.8604 38.0229 46.0343 38.0229 46.2663C38.0229 46.4983 37.8489 46.6723 37.6169 46.6723C37.3849 46.6723 37.2109 46.4983 37.2109 46.2663C37.2109 46.0343 37.3849 45.8604 37.6169 45.8604Z" fill="#82B8DD" stroke="#82B8DD" stroke-width="0.5669" stroke-miterlimit="22.9256"/>
<path fill-rule="evenodd" clip-rule="evenodd" d="M38.8337 41.9736C39.0657 41.9736 39.2397 42.1476 39.2397 42.3796C39.2397 42.6116 39.0657 42.7856 38.8337 42.7856C38.6017 42.7856 38.4277 42.6116 38.4277 42.3796C38.4277 42.1476 38.6017 41.9736 38.8337 41.9736Z" fill="#82B8DD" stroke="#82B8DD" stroke-width="0.5669" stroke-miterlimit="22.9256"/>
<path fill-rule="evenodd" clip-rule="evenodd" d="M31.2947 41.5679C31.5267 41.5679 31.7007 41.7419 31.7007 41.9739C31.7007 42.2059 31.5267 42.3799 31.2947 42.3799C31.0627 42.3799 30.8887 42.2059 30.8887 41.9739C30.8887 41.7419 31.0627 41.5679 31.2947 41.5679Z" fill="#82B8DD" stroke="#82B8DD" stroke-width="0.5669" stroke-miterlimit="22.9256"/>
<path fill-rule="evenodd" clip-rule="evenodd" d="M44.2283 46.2656C44.4603 46.2656 44.6343 46.4396 44.6343 46.6716C44.6343 46.9036 44.4603 47.0776 44.2283 47.0776C43.9963 47.0776 43.8223 46.9036 43.8223 46.6716C43.8223 46.4396 43.9963 46.2656 44.2283 46.2656Z" fill="#82B8DD" stroke="#82B8DD" stroke-width="0.5669" stroke-miterlimit="22.9256"/>
<path fill-rule="evenodd" clip-rule="evenodd" d="M42.9541 42.96C43.1861 42.96 43.3601 43.134 43.3601 43.366C43.3601 43.598 43.1861 43.772 42.9541 43.772C42.7221 43.772 42.5481 43.598 42.5481 43.366C42.4901 43.134 42.7221 42.96 42.9541 42.96Z" fill="#82B8DD" stroke="#82B8DD" stroke-width="0.5669" stroke-miterlimit="22.9256"/>
<path fill-rule="evenodd" clip-rule="evenodd" d="M47.1287 42.6699C47.3607 42.6699 47.5347 42.8439 47.5347 43.0759C47.5347 43.3079 47.3607 43.4819 47.1287 43.4819C46.8967 43.4819 46.7227 43.3079 46.7227 43.0759C46.7227 42.8439 46.8967 42.6699 47.1287 42.6699Z" fill="#82B8DD" stroke="#82B8DD" stroke-width="0.5669" stroke-miterlimit="22.9256"/>
<path fill-rule="evenodd" clip-rule="evenodd" d="M47.3025 20.9775C47.5345 20.9775 47.7085 21.1515 47.7085 21.3835C47.7085 21.6155 47.5345 21.7895 47.3025 21.7895C47.0705 21.7895 46.8965 21.6155 46.8965 21.3835C46.8965 21.1515 47.0705 20.9775 47.3025 20.9775Z" fill="#82B8DD" stroke="#82B8DD" stroke-width="0.5669" stroke-miterlimit="22.9256"/>
<path fill-rule="evenodd" clip-rule="evenodd" d="M44.9248 24.3418C45.1568 24.3418 45.3308 24.5158 45.3308 24.7478C45.3308 24.9798 45.1568 25.1538 44.9248 25.1538C44.6928 25.1538 44.5188 24.9798 44.5188 24.7478C44.4608 24.5158 44.6928 24.3418 44.9248 24.3418Z" fill="#82B8DD" stroke="#82B8DD" stroke-width="0.5669" stroke-miterlimit="22.9256"/>
<path fill-rule="evenodd" clip-rule="evenodd" d="M41.3855 20.6875C41.6175 20.6875 41.7915 20.8615 41.7915 21.0935C41.7915 21.3255 41.6175 21.4995 41.3855 21.4995C41.1535 21.4995 40.9795 21.3255 40.9795 21.0935C40.9795 20.8615 41.1535 20.6875 41.3855 20.6875Z" fill="#82B8DD" stroke="#82B8DD" stroke-width="0.5669" stroke-miterlimit="22.9256"/>
<path fill-rule="evenodd" clip-rule="evenodd" d="M39.2986 26.8354C39.5306 26.8354 39.7046 27.0094 39.7046 27.2414C39.7046 27.4734 39.5306 27.6474 39.2986 27.6474C39.0666 27.6474 38.8926 27.4734 38.8926 27.2414C38.8926 27.0094 39.0666 26.8354 39.2986 26.8354Z" fill="#82B8DD" stroke="#82B8DD" stroke-width="0.5669" stroke-miterlimit="22.9256"/>
<path fill-rule="evenodd" clip-rule="evenodd" d="M36.6306 22.5435C36.8626 22.5435 37.0366 22.7175 37.0366 22.9495C37.0366 23.1815 36.8626 23.3555 36.6306 23.3555C36.3986 23.3555 36.2246 23.1815 36.2246 22.9495C36.2246 22.7175 36.3986 22.5435 36.6306 22.5435Z" fill="#82B8DD" stroke="#82B8DD" stroke-width="0.5669" stroke-miterlimit="22.9256"/>
<path fill-rule="evenodd" clip-rule="evenodd" d="M40.1677 23.7031C40.3997 23.7031 40.5737 23.8771 40.5737 24.1091C40.5737 24.3411 40.3997 24.5151 40.1677 24.5151C39.9357 24.5151 39.7617 24.3411 39.7617 24.1091C39.7617 23.8771 39.9357 23.7031 40.1677 23.7031Z" fill="#82B8DD" stroke="#82B8DD" stroke-width="0.5669" stroke-miterlimit="22.9256"/>
<path fill-rule="evenodd" clip-rule="evenodd" d="M43.2419 28.3438C43.4739 28.3438 43.6479 28.5177 43.6479 28.7497C43.6479 28.9817 43.4739 29.1557 43.2419 29.1557C43.0099 29.1557 42.8359 28.9817 42.8359 28.7497C42.8359 28.5177 43.0099 28.3438 43.2419 28.3438Z" fill="#82B8DD" stroke="#82B8DD" stroke-width="0.5669" stroke-miterlimit="22.9256"/>
<path fill-rule="evenodd" clip-rule="evenodd" d="M47.3025 28.5752C47.5345 28.5752 47.7085 28.7492 47.7085 28.9812C47.7085 29.2132 47.5345 29.3872 47.3025 29.3872C47.0705 29.3872 46.8965 29.2132 46.8965 28.9812C46.8965 28.8072 47.0705 28.5752 47.3025 28.5752Z" fill="#82B8DD" stroke="#82B8DD" stroke-width="0.5669" stroke-miterlimit="22.9256"/>
<path fill-rule="evenodd" clip-rule="evenodd" d="M40.4568 31.3018C40.6888 31.3018 40.8628 31.4758 40.8628 31.7078C40.8628 31.9398 40.6888 32.1138 40.4568 32.1138C40.2248 32.1138 40.0508 31.9398 40.0508 31.7078C40.0508 31.4758 40.2248 31.3018 40.4568 31.3018Z" fill="#82B8DD" stroke="#82B8DD" stroke-width="0.5669" stroke-miterlimit="22.9256"/>
<path fill-rule="evenodd" clip-rule="evenodd" d="M45.6775 34.0854C45.9095 34.0854 46.0835 34.2594 46.0835 34.4914C46.0835 34.7234 45.9095 34.8974 45.6775 34.8974C45.4455 34.8974 45.2715 34.7234 45.2715 34.4914C45.2715 34.3174 45.4455 34.0854 45.6775 34.0854Z" fill="#82B8DD" stroke="#82B8DD" stroke-width="0.5669" stroke-miterlimit="22.9256"/>
<path fill-rule="evenodd" clip-rule="evenodd" d="M42.8943 36.5215C43.1263 36.5215 43.3003 36.6955 43.3003 36.9275C43.3003 37.1595 43.1263 37.3335 42.8943 37.3335C42.6623 37.3335 42.4883 37.1595 42.4883 36.9275C42.4883 36.6955 42.6623 36.5215 42.8943 36.5215Z" fill="#82B8DD" stroke="#82B8DD" stroke-width="0.5669" stroke-miterlimit="22.9256"/>
<path fill-rule="evenodd" clip-rule="evenodd" d="M45.0986 39.8271C45.3306 39.8271 45.5046 40.0012 45.5046 40.2332C45.5046 40.4652 45.3306 40.6392 45.0986 40.6392C44.8666 40.6392 44.6926 40.4652 44.6926 40.2332C44.6346 40.0592 44.8666 39.8271 45.0986 39.8271Z" fill="#82B8DD" stroke="#82B8DD" stroke-width="0.5669" stroke-miterlimit="22.9256"/>
<path fill-rule="evenodd" clip-rule="evenodd" d="M11.1689 40.8721C11.4009 40.8721 11.5749 41.0461 11.5749 41.2781C11.5749 41.5101 11.4009 41.6841 11.1689 41.6841C10.9369 41.6841 10.7629 41.5101 10.7629 41.2781C10.7049 41.0461 10.9369 40.8721 11.1689 40.8721Z" fill="#82B8DD" stroke="#82B8DD" stroke-width="0.5669" stroke-miterlimit="22.9256"/>
<path fill-rule="evenodd" clip-rule="evenodd" d="M12.8493 45.7437C13.0813 45.7437 13.2554 45.9177 13.2554 46.1497C13.2554 46.3817 13.0813 46.5556 12.8493 46.5556C12.6173 46.5556 12.4434 46.3817 12.4434 46.1497C12.4434 45.9177 12.6173 45.7437 12.8493 45.7437Z" fill="#82B8DD" stroke="#82B8DD" stroke-width="0.5669" stroke-miterlimit="22.9256"/>
<path fill-rule="evenodd" clip-rule="evenodd" d="M14.8798 42.5537C15.1118 42.5537 15.2859 42.7277 15.2859 42.9597C15.2859 43.1917 15.1118 43.3657 14.8798 43.3657C14.6478 43.3657 14.4739 43.1917 14.4739 42.9597C14.4159 42.7857 14.6478 42.5537 14.8798 42.5537Z" fill="#82B8DD" stroke="#82B8DD" stroke-width="0.5669" stroke-miterlimit="22.9256"/>
<path fill-rule="evenodd" clip-rule="evenodd" d="M15.8096 48.3535C16.0416 48.3535 16.2156 48.5275 16.2156 48.7595C16.2156 48.9915 16.0416 49.1655 15.8096 49.1655C15.5776 49.1655 15.4035 48.9915 15.4035 48.7595C15.3455 48.5275 15.5776 48.3535 15.8096 48.3535Z" fill="#82B8DD" stroke="#82B8DD" stroke-width="0.5669" stroke-miterlimit="22.9256"/>
<path d="M31.9635 10.4971C42.1822 12.1343 49.1389 21.7455 47.5017 31.9643C45.8645 42.1831 36.2533 49.1398 26.0345 47.5025C15.8157 45.8653 8.85903 36.2541 10.4963 26.0353C12.1335 15.8165 21.7447 8.85984 31.9635 10.4971Z" stroke="#4C5167"/>
</g>
</svg>
