<svg width="58" height="58" viewBox="0 0 58 58" fill="none" xmlns="http://www.w3.org/2000/svg">
<circle cx="29" cy="29" r="29" fill="white"/>
<circle cx="29" cy="29" r="28" stroke="#3E3F43" stroke-opacity="0.12" stroke-width="2"/>
<mask id="mask0_1480_3003" style="mask-type:alpha" maskUnits="userSpaceOnUse" x="9" y="9" width="40" height="40">
<path d="M47.9954 32.0434C49.6763 21.552 42.534 11.6843 32.0426 10.0034C21.5511 8.32246 11.6835 15.4648 10.0026 25.9562C8.32164 36.4476 15.464 46.3153 25.9554 47.9962C36.4468 49.6771 46.3145 42.5348 47.9954 32.0434Z" fill="white"/>
</mask>
<g mask="url(#mask0_1480_3003)">
<mask id="mask1_1480_3003" style="mask-type:alpha" maskUnits="userSpaceOnUse" x="5" y="5" width="48" height="48">
<path d="M29.263 52.6457C42.3643 52.6457 52.985 42.025 52.985 28.9237C52.985 15.8224 42.3643 5.20166 29.263 5.20166C16.1617 5.20166 5.54102 15.8224 5.54102 28.9237C5.54102 42.025 16.1617 52.6457 29.263 52.6457Z" fill="white"/>
</mask>
<g mask="url(#mask1_1480_3003)">
<path d="M29.263 52.6457C42.3643 52.6457 52.985 42.025 52.985 28.9237C52.985 15.8224 42.3643 5.20166 29.263 5.20166C16.1617 5.20166 5.54102 15.8224 5.54102 28.9237C5.54102 42.025 16.1617 52.6457 29.263 52.6457Z" fill="#C1FFD3"/>
<path fill-rule="evenodd" clip-rule="evenodd" d="M31.4503 4.42271L29.2887 10.4032L22.8038 11.484L18.6247 6.51227L20.8584 0.531801L20.4981 0.387695L18.1924 6.58432L22.6597 11.9163L29.5769 10.7634L31.8106 4.56682L31.6664 4.49476L31.4503 4.42271Z" fill="#28BE53" stroke="#28BE53" stroke-width="0.5669" stroke-miterlimit="22.9256"/>
<path fill-rule="evenodd" clip-rule="evenodd" d="M31.4505 4.42285L29.2168 10.6195L33.6841 15.9515L40.5292 14.7986L42.835 8.60196L42.6188 8.52991L42.4747 8.45786L40.2411 14.4383L33.8283 15.5912L29.6491 10.5474L31.8108 4.56696L31.6666 4.4949L31.4505 4.42285Z" fill="#28BE53" stroke="#28BE53" stroke-width="0.5669" stroke-miterlimit="22.9256"/>
<path fill-rule="evenodd" clip-rule="evenodd" d="M53.4259 12.5646L51.2643 18.473L44.7794 19.6259L40.6003 14.5821L42.834 8.60162L42.6178 8.52958L42.4737 8.45752L40.168 14.6541L44.6353 19.9861L51.5525 18.8333L53.7861 12.6366L53.4259 12.5646Z" fill="#28BE53" stroke="#28BE53" stroke-width="0.5669" stroke-miterlimit="22.9256"/>
<path fill-rule="evenodd" clip-rule="evenodd" d="M15.3094 48.3757L17.471 42.3952L13.2919 37.3515L6.87907 38.5043L4.64543 44.4128L4.28516 44.2686L6.59089 38.1441L13.436 36.9912L17.9033 42.3232L15.6696 48.5198L15.4535 48.4478L15.3094 48.3757Z" fill="#28BE53" stroke="#28BE53" stroke-width="0.5669" stroke-miterlimit="22.9256"/>
<path fill-rule="evenodd" clip-rule="evenodd" d="M15.3105 48.3754L17.5442 42.1787L24.4614 41.0259L28.9287 46.3579L26.623 52.5545L26.4789 52.4824L26.2627 52.4104L28.4964 46.4299L24.2452 41.4582L17.8324 42.539L15.6708 48.5195L15.4547 48.4474L15.3105 48.3754Z" fill="#28BE53" stroke="#28BE53" stroke-width="0.5669" stroke-miterlimit="22.9256"/>
<path fill-rule="evenodd" clip-rule="evenodd" d="M37.2859 56.4455L39.4475 50.5371L35.2684 45.4934L28.8556 46.5742L26.622 52.5546L26.4779 52.4826L26.2617 52.4105L28.5674 46.2859L35.4126 45.061L39.8799 50.4651L37.6462 56.5896L37.2859 56.4455Z" fill="#28BE53" stroke="#28BE53" stroke-width="0.5669" stroke-miterlimit="22.9256"/>
<path fill-rule="evenodd" clip-rule="evenodd" d="M18.697 6.36817L23.0202 11.556C23.0923 11.7002 23.1643 11.8443 23.0922 11.9163L20.7866 18.257C20.7145 18.4012 20.6424 18.4732 20.4983 18.4732L13.8694 19.6261C13.7253 19.6261 13.5812 19.554 13.5091 19.482L9.18587 14.2941C9.11382 14.15 9.04178 14.0059 9.11383 13.9338L11.4196 7.59309C11.4916 7.44898 11.5636 7.37692 11.7078 7.37692L18.3367 6.22407C18.4808 6.15201 18.6249 6.22407 18.697 6.36817ZM20.2822 9.39443L18.2647 6.94461L12.068 8.02541L9.90641 13.9338L13.9414 18.7614L20.1381 17.6806L22.2997 11.7722L20.2822 9.39443Z" fill="#28BE53" stroke="#28BE53" stroke-width="0.5669" stroke-miterlimit="22.9256"/>
<path fill-rule="evenodd" clip-rule="evenodd" d="M29.2158 11.0514L23.0192 12.1322L20.8576 18.0406L24.8926 22.8682L31.0892 21.7874L33.2508 15.879L29.2158 11.0514ZM25.9734 10.8352L29.2879 10.2588C29.432 10.2588 29.5761 10.2588 29.6481 10.4029L33.9714 15.5908C34.0434 15.6628 34.1155 15.879 34.0434 16.0231L31.7377 22.3638C31.6656 22.5079 31.5936 22.58 31.4495 22.58L24.8205 23.7328C24.6764 23.7328 24.5323 23.7328 24.4603 23.5887L20.137 18.4009C20.065 18.3288 19.993 18.1126 20.065 17.9685L22.3707 11.6278C22.4427 11.4837 22.5148 11.4117 22.6589 11.4117L25.9734 10.8352Z" fill="#28BE53" stroke="#28BE53" stroke-width="0.5669" stroke-miterlimit="22.9256"/>
<path fill-rule="evenodd" clip-rule="evenodd" d="M40.6735 14.4381L44.9968 19.6259C45.0688 19.77 45.1409 19.9141 45.0688 19.9862L42.7631 26.3269C42.6911 26.471 42.619 26.5431 42.4749 26.5431L35.8459 27.6959C35.7018 27.6959 35.5577 27.6239 35.4857 27.5518L31.1624 22.364C31.0904 22.2199 31.0183 22.0758 31.0904 22.0037L33.3961 15.663C33.4682 15.5189 33.5402 15.4468 33.6843 15.4468L40.3133 14.2939C40.4574 14.2939 40.6015 14.366 40.6735 14.4381ZM42.2587 17.5364L40.2412 15.0865L34.0446 16.1673L31.883 22.0758L35.918 26.9034L42.1146 25.8225L44.2762 19.9141L42.2587 17.5364Z" fill="#28BE53" stroke="#28BE53" stroke-width="0.5669" stroke-miterlimit="22.9256"/>
<path fill-rule="evenodd" clip-rule="evenodd" d="M51.1924 19.1217L44.9958 20.2025L42.8341 26.1109L46.8691 30.9385L53.0658 29.8577L55.2274 23.9493L51.1924 19.1217ZM47.9499 18.9055L51.2644 18.3291C51.4086 18.3291 51.5527 18.3291 51.6247 18.4732L55.9479 23.6611C56.02 23.7331 56.092 23.9493 56.02 24.0934L53.7142 30.4341C53.6422 30.5782 53.5702 30.6503 53.4261 30.6503L46.7971 31.8032C46.653 31.8032 46.5089 31.8032 46.4368 31.6591L42.1136 26.4712C42.0416 26.3991 41.9695 26.183 42.0416 26.0389L44.3473 19.6981C44.4193 19.554 44.4914 19.482 44.6355 19.482L47.9499 18.9055Z" fill="#28BE53" stroke="#28BE53" stroke-width="0.5669" stroke-miterlimit="22.9256"/>
<path fill-rule="evenodd" clip-rule="evenodd" d="M15.8867 30.3621L22.0834 29.2813L24.245 23.3729L20.2099 18.5453L14.0133 19.6261L11.8517 25.5345L15.8867 30.3621ZM19.1291 30.5783L15.8147 31.1547C15.6706 31.1547 15.5265 31.1547 15.4544 31.0106L11.1312 25.8227C11.0591 25.7507 10.9871 25.5345 11.0591 25.3904L13.3648 19.0497C13.4369 18.9056 13.509 18.8335 13.6531 18.8335L20.282 17.6807C20.4261 17.6807 20.5702 17.6807 20.6423 17.8248L24.9655 23.0126C25.0376 23.0847 25.1096 23.3009 25.0376 23.445L22.7318 29.7857C22.6598 29.9298 22.5877 30.0019 22.4436 30.0019L19.1291 30.5783Z" fill="#28BE53" stroke="#28BE53" stroke-width="0.5669" stroke-miterlimit="22.9256"/>
<path fill-rule="evenodd" clip-rule="evenodd" d="M26.4056 35.0455L22.0824 29.8576C22.0103 29.7135 21.9383 29.5694 22.0103 29.4973L24.316 23.1566C24.3881 23.0125 24.4602 22.9405 24.6043 22.9405L31.2332 21.7876C31.3773 21.7876 31.5214 21.8596 31.5935 21.9317L35.9167 27.1196C35.9888 27.2637 36.0608 27.4078 35.9888 27.4799L33.683 33.8206C33.611 33.9647 33.5389 34.0367 33.3948 34.0367L26.7659 35.1896C26.6218 35.2617 26.4777 35.1896 26.4056 35.0455ZM24.8204 32.0192L26.8379 34.4691L33.0346 33.3883L35.1962 27.4799L31.1611 22.6522L24.9645 23.733L22.8029 29.6415L24.8204 32.0192Z" fill="#28BE53" stroke="#28BE53" stroke-width="0.5669" stroke-miterlimit="22.9256"/>
<path fill-rule="evenodd" clip-rule="evenodd" d="M37.8613 38.5042L44.058 37.4234L46.2196 31.515L42.1846 26.6874L35.9879 27.7682L33.8263 33.6766L37.8613 38.5042ZM41.1037 38.7204L37.7893 39.2968C37.6452 39.2968 37.5011 39.2968 37.429 39.1527L33.1058 33.9648C33.0337 33.8928 32.9617 33.6766 33.0338 33.5325L35.3394 27.1918C35.4115 27.0477 35.4836 26.9756 35.6277 26.9756L42.2566 25.8228C42.4007 25.8228 42.5448 25.8228 42.6169 25.9669L46.9401 31.1547C47.0122 31.2268 47.0842 31.4429 47.0122 31.5871L44.7064 37.9278C44.6344 38.0719 44.5624 38.1439 44.4182 38.1439L41.1037 38.7204Z" fill="#28BE53" stroke="#28BE53" stroke-width="0.5669" stroke-miterlimit="22.9256"/>
<path fill-rule="evenodd" clip-rule="evenodd" d="M6.8789 37.8553L13.0756 36.7745L15.2372 30.8661L11.2021 26.0385L5.00552 27.1193L2.84391 33.0277L6.8789 37.8553ZM10.1213 38.0715L6.80687 38.6479C6.66276 38.6479 6.51865 38.6479 6.4466 38.5038L2.12337 33.3159C2.05132 33.2439 1.97928 33.0277 2.05133 32.8836L4.35702 26.5429C4.42907 26.3987 4.50114 26.3267 4.64525 26.3267L11.2742 25.1738C11.4183 25.1738 11.5624 25.1738 11.6345 25.3179L15.9577 30.5058C16.0298 30.5779 16.1018 30.794 16.0297 30.9381L13.724 37.2789C13.652 37.423 13.5799 37.495 13.4358 37.495L10.1213 38.0715Z" fill="#28BE53" stroke="#28BE53" stroke-width="0.5669" stroke-miterlimit="22.9256"/>
<path fill-rule="evenodd" clip-rule="evenodd" d="M17.3978 42.5391L13.0746 37.3513C13.0025 37.2072 12.9304 37.0631 13.0025 36.991L15.3082 30.6503C15.3803 30.5062 15.4524 30.4341 15.5965 30.4341L22.2254 29.2812C22.3695 29.2812 22.5136 29.3533 22.5857 29.4254L26.9089 34.6132C26.981 34.7573 27.053 34.9014 26.9809 34.9735L24.6752 41.3142C24.6032 41.4583 24.5311 41.5304 24.387 41.5304L17.7581 42.6832C17.614 42.7553 17.4699 42.6832 17.3978 42.5391ZM15.8126 39.5129L17.8301 41.9627L24.0268 40.8819L26.1884 34.9735L22.1533 30.1459L15.9567 31.2267L13.7951 37.1351L15.8126 39.5129Z" fill="#28BE53" stroke="#28BE53" stroke-width="0.5669" stroke-miterlimit="22.9256"/>
<path fill-rule="evenodd" clip-rule="evenodd" d="M28.8555 45.9256L35.0521 44.8448L37.2137 38.9364L33.1787 34.1088L26.9821 35.1896L24.8205 41.098L28.8555 45.9256ZM32.0979 46.1418L28.7834 46.7182C28.6393 46.7182 28.4952 46.7182 28.4232 46.5741L24.0999 41.3862C24.0279 41.3142 23.9558 41.098 24.0279 40.9539L26.3336 34.6132C26.4056 34.4691 26.4777 34.397 26.6218 34.397L33.2508 33.2441C33.3949 33.2441 33.539 33.2441 33.611 33.3882L37.9343 38.5761C38.0063 38.6482 38.0784 38.8643 38.0063 39.0084L35.7006 45.3492C35.6285 45.4933 35.5565 45.5653 35.4124 45.5653L32.0979 46.1418Z" fill="#28BE53" stroke="#28BE53" stroke-width="0.5669" stroke-miterlimit="22.9256"/>
<path fill-rule="evenodd" clip-rule="evenodd" d="M39.3744 50.6095L35.0511 45.4216C34.9791 45.2775 34.907 45.1334 34.9791 45.0613L37.2848 38.7206C37.3568 38.5765 37.4289 38.5044 37.573 38.5044L44.202 37.3516C44.3461 37.3516 44.4902 37.4236 44.5622 37.4957L48.8855 42.6835C48.9575 42.8276 49.0296 42.9718 48.9575 43.0438L46.6518 49.3845C46.5797 49.5286 46.5077 49.6007 46.3636 49.6007L39.7346 50.7536C39.5905 50.8256 39.4464 50.7536 39.3744 50.6095ZM37.7892 47.5832L39.8067 50.033L46.0033 48.9522L48.1649 43.0438L44.1299 38.2162L37.9333 39.297L35.7717 45.2054L37.7892 47.5832Z" fill="#28BE53" stroke="#28BE53" stroke-width="0.5669" stroke-miterlimit="22.9256"/>
<path fill-rule="evenodd" clip-rule="evenodd" d="M23.0911 10.6914C23.6675 10.9076 24.0278 11.556 23.7396 12.2045C23.5234 12.781 22.875 13.1412 22.2265 12.853C21.6501 12.6369 21.2898 11.9884 21.578 11.3399C21.8662 10.7634 22.5147 10.4752 23.0911 10.6914Z" fill="#28BE53" stroke="#28BE53" stroke-width="0.5669" stroke-miterlimit="22.9256"/>
<path fill-rule="evenodd" clip-rule="evenodd" d="M34.1165 14.7261C34.693 14.9422 35.0532 15.5907 34.765 16.2392C34.5488 16.8156 33.9004 17.1759 33.2519 16.8877C32.6755 16.6715 32.3152 16.023 32.6034 15.3746C32.8195 14.7981 33.5401 14.5099 34.1165 14.7261Z" fill="#28BE53" stroke="#28BE53" stroke-width="0.5669" stroke-miterlimit="22.9256"/>
<path fill-rule="evenodd" clip-rule="evenodd" d="M45.0677 18.7613C45.6441 18.9774 46.0044 19.6259 45.7162 20.2744C45.5 20.8508 44.8515 21.2111 44.2031 20.9229C43.6266 20.7067 43.2663 20.0582 43.5546 19.4097C43.8428 18.9054 44.4912 18.5451 45.0677 18.7613Z" fill="#28BE53" stroke="#28BE53" stroke-width="0.5669" stroke-miterlimit="22.9256"/>
<path fill-rule="evenodd" clip-rule="evenodd" d="M20.7865 17.0322C21.3629 17.2484 21.7231 17.8969 21.4349 18.5453C21.2188 19.1218 20.5703 19.482 19.9218 19.1938C19.3454 18.9777 18.9851 18.3292 19.2733 17.6807C19.5615 17.1043 20.21 16.8161 20.7865 17.0322Z" fill="#28BE53" stroke="#28BE53" stroke-width="0.5669" stroke-miterlimit="22.9256"/>
<path fill-rule="evenodd" clip-rule="evenodd" d="M31.8119 21.0669C32.3883 21.283 32.7485 21.9315 32.4603 22.58C32.2442 23.1564 31.5957 23.5167 30.9472 23.2285C30.3708 23.0123 30.0105 22.3639 30.2987 21.7154C30.5149 21.1389 31.1634 20.8507 31.8119 21.0669Z" fill="#28BE53" stroke="#28BE53" stroke-width="0.5669" stroke-miterlimit="22.9256"/>
<path fill-rule="evenodd" clip-rule="evenodd" d="M42.763 25.1021C43.3395 25.3182 43.6997 25.9667 43.4115 26.6152C43.1953 27.1916 42.5469 27.5519 41.8984 27.2637C41.3219 27.0475 40.9617 26.399 41.2499 25.7506C41.5381 25.2462 42.1866 24.8859 42.763 25.1021Z" fill="#28BE53" stroke="#28BE53" stroke-width="0.5669" stroke-miterlimit="22.9256"/>
<path fill-rule="evenodd" clip-rule="evenodd" d="M11.7787 24.5259C12.3551 24.742 12.7153 25.3905 12.4271 26.039C12.2109 26.6154 11.5625 26.9757 10.914 26.6875C10.3376 26.4713 9.97728 25.8228 10.2655 25.1744C10.5537 24.5979 11.2022 24.3097 11.7787 24.5259Z" fill="#28BE53" stroke="#28BE53" stroke-width="0.5669" stroke-miterlimit="22.9256"/>
<path fill-rule="evenodd" clip-rule="evenodd" d="M22.804 28.5605C23.3805 28.7767 23.7407 29.4252 23.4525 30.0737C23.2363 30.6501 22.5879 31.0104 21.9394 30.7222C21.363 30.506 21.0027 29.8575 21.2909 29.209C21.507 28.6326 22.1556 28.3444 22.804 28.5605Z" fill="#28BE53" stroke="#28BE53" stroke-width="0.5669" stroke-miterlimit="22.9256"/>
<path fill-rule="evenodd" clip-rule="evenodd" d="M33.7552 32.5952C34.3316 32.8114 34.6919 33.4599 34.4037 34.1084C34.1875 34.6848 33.539 35.0451 32.8906 34.7569C32.3141 34.5407 31.9538 33.8922 32.2421 33.2437C32.5303 32.7394 33.1788 32.3791 33.7552 32.5952Z" fill="#28BE53" stroke="#28BE53" stroke-width="0.5669" stroke-miterlimit="22.9256"/>
<path fill-rule="evenodd" clip-rule="evenodd" d="M44.7806 36.703C45.357 36.9192 45.7173 37.5676 45.4291 38.2161C45.2129 38.7926 44.5644 39.1528 43.916 38.8646C43.3395 38.6485 42.9792 38 43.2675 37.3515C43.4836 36.7751 44.1321 36.4148 44.7806 36.703Z" fill="#28BE53" stroke="#28BE53" stroke-width="0.5669" stroke-miterlimit="22.9256"/>
<path fill-rule="evenodd" clip-rule="evenodd" d="M47.0853 30.2896C47.6617 30.5057 48.022 31.1542 47.7338 31.8027C47.5176 32.3791 46.8691 32.7394 46.2206 32.4512C45.6442 32.235 45.2839 31.5865 45.5721 30.9381C45.8604 30.4337 46.5089 30.0734 47.0853 30.2896Z" fill="#28BE53" stroke="#28BE53" stroke-width="0.5669" stroke-miterlimit="22.9256"/>
<path fill-rule="evenodd" clip-rule="evenodd" d="M14.1576 18.185C14.734 18.4012 15.0942 19.0497 14.806 19.6982C14.5899 20.2746 13.9414 20.6349 13.2929 20.3467C12.7165 20.1305 12.3562 19.482 12.6444 18.8335C12.8606 18.2571 13.5091 17.9689 14.1576 18.185Z" fill="#28BE53" stroke="#28BE53" stroke-width="0.5669" stroke-miterlimit="22.9256"/>
<path fill-rule="evenodd" clip-rule="evenodd" d="M25.1087 22.2202C25.6852 22.4364 26.0454 23.0848 25.7572 23.7333C25.541 24.3098 24.8926 24.67 24.2441 24.3818C23.6676 24.1657 23.3074 23.5172 23.5956 22.8687C23.8838 22.2923 24.5323 22.004 25.1087 22.2202Z" fill="#28BE53" stroke="#28BE53" stroke-width="0.5669" stroke-miterlimit="22.9256"/>
<path fill-rule="evenodd" clip-rule="evenodd" d="M36.1341 26.2549C36.7106 26.4711 37.0708 27.1196 36.7826 27.768C36.5664 28.3445 35.918 28.7047 35.2695 28.4165C34.693 28.2004 34.3328 27.5519 34.621 26.9034C34.8371 26.399 35.4856 26.0388 36.1341 26.2549Z" fill="#28BE53" stroke="#28BE53" stroke-width="0.5669" stroke-miterlimit="22.9256"/>
<path fill-rule="evenodd" clip-rule="evenodd" d="M29.7923 9.53856C30.3688 9.75473 30.729 10.4032 30.4408 11.0517C30.2246 11.6281 29.5762 11.9884 28.9277 11.7002C28.3512 11.484 27.991 10.8355 28.2792 10.1871C28.4953 9.61063 29.2159 9.3224 29.7923 9.53856Z" fill="#28BE53" stroke="#28BE53" stroke-width="0.5669" stroke-miterlimit="22.9256"/>
<path fill-rule="evenodd" clip-rule="evenodd" d="M40.7454 13.5737C41.3218 13.7899 41.6821 14.4384 41.3939 15.0868C41.1777 15.6633 40.5293 16.0236 39.8808 15.7353C39.3044 15.5192 38.9441 14.8707 39.2323 14.2222C39.5205 13.6458 40.169 13.3576 40.7454 13.5737Z" fill="#28BE53" stroke="#28BE53" stroke-width="0.5669" stroke-miterlimit="22.9256"/>
<path fill-rule="evenodd" clip-rule="evenodd" d="M18.1205 41.1704C18.6969 41.3866 19.0571 42.035 18.7689 42.6835C18.5527 43.26 17.9043 43.6202 17.2558 43.332C16.6794 43.1159 16.3191 42.4674 16.6073 41.8189C16.8955 41.2425 17.544 40.9542 18.1205 41.1704Z" fill="#28BE53" stroke="#28BE53" stroke-width="0.5669" stroke-miterlimit="22.9256"/>
<path fill-rule="evenodd" clip-rule="evenodd" d="M29.1439 45.2046C29.7203 45.4208 30.0806 46.0693 29.7924 46.7178C29.5762 47.2942 28.9277 47.6544 28.2792 47.3662C27.7028 47.1501 27.3425 46.5016 27.6307 45.8531C27.8469 45.3487 28.4954 44.9885 29.1439 45.2046Z" fill="#28BE53" stroke="#28BE53" stroke-width="0.5669" stroke-miterlimit="22.9256"/>
<path fill-rule="evenodd" clip-rule="evenodd" d="M16.1029 29.6411C16.6793 29.8573 17.0395 30.5058 16.7513 31.1543C16.5352 31.7307 15.8867 32.091 15.2382 31.8028C14.6618 31.5866 14.3015 30.9381 14.5897 30.2896C14.8779 29.7852 15.5264 29.425 16.1029 29.6411Z" fill="#28BE53" stroke="#28BE53" stroke-width="0.5669" stroke-miterlimit="22.9256"/>
<path fill-rule="evenodd" clip-rule="evenodd" d="M27.1263 33.7485C27.7027 33.9647 28.063 34.6132 27.7748 35.2617C27.5586 35.8381 26.9101 36.1984 26.2617 35.9101C25.6852 35.694 25.3249 35.0455 25.6132 34.397C25.8293 33.8206 26.5499 33.5324 27.1263 33.7485Z" fill="#28BE53" stroke="#28BE53" stroke-width="0.5669" stroke-miterlimit="22.9256"/>
<path fill-rule="evenodd" clip-rule="evenodd" d="M38.0794 37.7837C38.6559 37.9998 39.0161 38.6483 38.7279 39.2968C38.5117 39.8732 37.8633 40.2335 37.2148 39.9453C36.6384 39.7291 36.2781 39.0807 36.5663 38.4322C36.8545 37.8557 37.503 37.5675 38.0794 37.7837Z" fill="#28BE53" stroke="#28BE53" stroke-width="0.5669" stroke-miterlimit="22.9256"/>
<path fill-rule="evenodd" clip-rule="evenodd" d="M13.7962 36.0542C14.3727 36.2704 14.7329 36.9188 14.4447 37.5673C14.2285 38.1438 13.5801 38.504 12.9316 38.2158C12.3551 37.9996 11.9949 37.3512 12.2831 36.7027C12.4992 36.1262 13.2198 35.838 13.7962 36.0542Z" fill="#28BE53" stroke="#28BE53" stroke-width="0.5669" stroke-miterlimit="22.9256"/>
<path fill-rule="evenodd" clip-rule="evenodd" d="M24.7494 40.0893C25.3258 40.3055 25.686 40.954 25.3978 41.6025C25.1817 42.1789 24.5332 42.5392 23.8847 42.251C23.3083 42.0348 22.948 41.3863 23.2362 40.7378C23.5244 40.1614 24.1729 39.8732 24.7494 40.0893Z" fill="#28BE53" stroke="#28BE53" stroke-width="0.5669" stroke-miterlimit="22.9256"/>
<path fill-rule="evenodd" clip-rule="evenodd" d="M35.7728 44.1245C36.3492 44.3407 36.7095 44.9892 36.4213 45.6376C36.2051 46.2141 35.5566 46.5743 34.9081 46.2861C34.3317 46.07 33.9714 45.4215 34.2596 44.773C34.4758 44.1966 35.1243 43.9083 35.7728 44.1245Z" fill="#28BE53" stroke="#28BE53" stroke-width="0.5669" stroke-miterlimit="22.9256"/>
<path fill-rule="evenodd" clip-rule="evenodd" d="M9.83529 12.9971C10.4117 13.2132 10.772 13.8617 10.4838 14.5102C10.2676 15.0866 9.61912 15.4469 8.97064 15.1587C8.39421 14.9425 8.03392 14.294 8.32214 13.6455C8.5383 13.0691 9.18681 12.7809 9.83529 12.9971Z" fill="#28BE53" stroke="#28BE53" stroke-width="0.5669" stroke-miterlimit="22.9256"/>
<path fill-rule="evenodd" clip-rule="evenodd" d="M49.0306 41.8906C49.607 42.1068 49.9673 42.7553 49.6791 43.4037C49.4629 43.9802 48.8144 44.3404 48.166 44.0522C47.5895 43.8361 47.2292 43.1876 47.5175 42.5391C47.8057 41.9627 48.4541 41.6745 49.0306 41.8906Z" fill="#28BE53" stroke="#28BE53" stroke-width="0.5669" stroke-miterlimit="22.9256"/>
<path fill-rule="evenodd" clip-rule="evenodd" d="M46.7259 48.2309C47.3023 48.4471 47.6626 49.0956 47.3744 49.7441C47.1582 50.3205 46.5097 50.6808 45.8613 50.3926C45.2848 50.1764 44.9245 49.5279 45.2128 48.8794C45.501 48.303 46.1495 48.0148 46.7259 48.2309Z" fill="#28BE53" stroke="#28BE53" stroke-width="0.5669" stroke-miterlimit="22.9256"/>
</g>
<path d="M31.9635 10.4971C42.1822 12.1343 49.1389 21.7455 47.5017 31.9643C45.8645 42.1831 36.2533 49.1398 26.0345 47.5025C15.8157 45.8653 8.85903 36.2541 10.4963 26.0353C12.1335 15.8165 21.7447 8.85984 31.9635 10.4971Z" stroke="#4C5167"/>
</g>
</svg>
