<svg width="58" height="58" viewBox="0 0 58 58" fill="none" xmlns="http://www.w3.org/2000/svg">
<circle cx="29" cy="29" r="29" fill="white"/>
<circle cx="29" cy="29" r="28" stroke="#3E3F43" stroke-opacity="0.12" stroke-width="2"/>
<mask id="mask0_1480_3324" style="mask-type:alpha" maskUnits="userSpaceOnUse" x="9" y="9" width="40" height="40">
<path d="M47.9954 32.0434C49.6763 21.552 42.534 11.6843 32.0426 10.0034C21.5511 8.32246 11.6835 15.4648 10.0026 25.9562C8.32164 36.4476 15.464 46.3153 25.9554 47.9962C36.4468 49.6771 46.3145 42.5348 47.9954 32.0434Z" fill="white"/>
</mask>
<g mask="url(#mask0_1480_3324)">
<path fill-rule="evenodd" clip-rule="evenodd" d="M25.3878 36.5918C25.5156 37.4862 26.3673 37.401 26.921 37.401C27.6876 37.401 28.4542 37.401 29.2208 37.401C29.9873 37.401 30.7965 37.4436 31.5205 37.401C32.2445 37.3584 32.5427 36.7622 32.4149 35.9956C32.2871 35.1012 31.3928 35.1864 30.8817 35.1864C30.1151 35.1864 29.3485 35.1864 28.5819 35.1864C27.8579 35.1864 27.0061 35.1438 26.2821 35.1864C25.6007 35.2716 25.26 35.8678 25.3878 36.5918Z" fill="#A45CFF"/>
<path fill-rule="evenodd" clip-rule="evenodd" d="M26.1133 36.2509C26.1133 36.0379 26.1559 35.9528 26.4114 35.9528H30.6276C31.6072 35.9528 31.6924 35.8676 31.6924 36.2935C31.6924 36.549 31.6498 36.6342 31.3943 36.6342H26.454C26.1133 36.6342 26.1133 36.5916 26.1133 36.2509Z" fill="#A45CFF"/>
<path fill-rule="evenodd" clip-rule="evenodd" d="M27.3062 39.1471C27.2636 38.8915 27.3488 38.4657 27.2636 38.2527C27.1784 38.0398 26.9229 37.912 26.6673 38.0824C26.4544 38.2101 26.497 38.5082 26.497 38.8064C26.497 39.0193 26.4544 39.4452 26.5396 39.6155C26.6247 39.7859 28.7967 40.7228 28.9245 40.7228C29.0949 40.7228 31.2243 39.7433 31.3095 39.573C31.3947 39.4452 31.4798 38.2527 31.2243 38.0824C31.0113 37.912 30.7132 38.0398 30.628 38.2527C30.5429 38.4657 30.628 38.8915 30.5855 39.1045C30.5003 39.1897 28.9671 39.8711 28.9245 39.9137C28.9245 39.9137 27.4339 39.2322 27.3062 39.1471Z" fill="#A45CFF"/>
<path fill-rule="evenodd" clip-rule="evenodd" d="M28.1557 23.3892C27.0058 23.6022 26.0688 24.1132 25.43 25.0928C25.1319 25.5186 24.8763 26.0297 24.7912 26.6685C24.7486 26.9241 24.6208 27.3925 24.7912 27.6055C24.9615 27.861 25.3874 27.8184 25.4726 27.5203C25.6003 27.137 25.4726 26.5408 25.941 25.7742C26.5799 24.7095 27.4742 24.241 28.7093 24.1558C29.2629 24.0706 29.4759 23.1337 28.1557 23.3892Z" fill="#A45CFF"/>
<path fill-rule="evenodd" clip-rule="evenodd" d="M23.3435 32.2051C23.4287 31.9496 23.3009 31.7366 23.1306 31.6941C22.875 31.6089 22.7047 31.8218 22.577 31.907C22.2788 32.1199 21.9807 32.3329 21.6826 32.5884C21.427 32.8014 19.979 33.8235 19.8939 33.9512C19.8087 34.2068 19.9364 34.4197 20.1494 34.4623C20.4049 34.5475 20.5753 34.3345 20.7031 34.2494L22.5343 32.9291C22.6621 32.8014 23.3009 32.3329 23.3435 32.2051Z" fill="#A45CFF"/>
<path fill-rule="evenodd" clip-rule="evenodd" d="M20.1069 20.8769C19.894 20.9621 19.8088 21.1324 19.894 21.3454C19.9791 21.5583 21.0013 22.2397 21.1716 22.3675C21.4697 22.5804 21.7678 22.7934 22.066 23.0063C22.3215 23.1767 22.7474 23.6026 23.0455 23.5174C23.2159 23.4748 23.3436 23.2618 23.2585 23.0489C23.1733 22.836 22.1938 22.1545 21.9808 22.0268C21.6827 21.8138 21.4272 21.6009 21.0865 21.388C20.7458 21.175 20.405 20.7917 20.1069 20.8769Z" fill="#A45CFF"/>
<path fill-rule="evenodd" clip-rule="evenodd" d="M34.7163 32.2904C34.7589 32.4182 35.0144 32.5885 35.0995 32.6737L37.2716 34.2495C37.4419 34.3773 37.5697 34.505 37.8252 34.4199C37.9956 34.3773 38.1233 34.1643 38.0382 33.9088C37.9956 33.7384 36.5901 32.7589 36.3346 32.5886C35.9513 32.2904 35.2699 31.6516 34.9292 31.7794C34.8015 31.8645 34.6311 32.0349 34.7163 32.2904Z" fill="#A45CFF"/>
<path fill-rule="evenodd" clip-rule="evenodd" d="M37.5264 20.8767C37.2709 20.9619 36.121 21.8563 35.8229 22.0692L34.9711 22.708C34.5452 23.0487 34.8859 23.5598 35.3118 23.3894C35.4396 23.3468 35.6099 23.1765 35.7377 23.0913L37.8671 21.5155C37.9523 21.4304 37.9949 21.4304 38.0375 21.3026C38.08 21.2174 38.08 21.0897 38.0375 21.0045C37.9523 20.9193 37.7394 20.7915 37.5264 20.8767Z" fill="#A45CFF"/>
<path fill-rule="evenodd" clip-rule="evenodd" d="M17.9785 27.5206V27.7761C18.0637 27.9039 18.1063 27.989 18.3192 28.0316C18.4896 28.0742 20.7042 28.0316 21.0875 28.0316C21.4708 28.0316 21.7689 28.0316 21.8115 27.6483C21.8115 27.5206 21.8115 27.5206 21.7689 27.4354C21.7263 27.3502 21.6837 27.3502 21.6411 27.3076C21.4282 27.2225 19.2987 27.265 18.9154 27.265C18.0211 27.265 18.234 27.3076 17.9785 27.5206Z" fill="#A45CFF"/>
<path fill-rule="evenodd" clip-rule="evenodd" d="M39.8693 27.7759V27.6056C39.7841 27.4778 39.7841 27.3926 39.6138 27.3074C39.4008 27.2649 37.2714 27.2649 36.8881 27.2649C36.5474 27.2649 36.1641 27.2223 36.1641 27.6481C36.1641 28.0314 36.5048 28.0314 36.8455 28.0314C37.1862 28.0314 39.4008 28.074 39.5711 28.0314C39.7415 27.9889 39.7841 27.9037 39.8693 27.7759Z" fill="#A45CFF"/>
<path fill-rule="evenodd" clip-rule="evenodd" d="M28.7966 22.2394C29.8613 22.1542 31.0538 22.5801 31.9481 23.1337C32.1611 23.2615 32.5018 23.6022 32.6721 23.73C34.1627 25.3057 34.6738 27.6055 33.5239 29.7775C33.3535 30.0756 33.1832 30.3312 32.9702 30.5867C32.7999 30.8422 32.6295 31.0978 32.4592 31.3959C32.1611 31.8643 31.8203 32.6309 31.6926 33.3124C31.6074 33.6531 31.5648 34.5048 31.8204 34.803C31.8629 34.8455 31.9055 34.8881 31.9055 34.8881C32.0759 35.0159 32.374 34.8881 32.4166 34.7178C32.4592 34.59 32.374 33.8234 32.4166 33.5253C32.587 32.5032 33.2258 31.5662 33.7368 30.7996C34.546 29.5646 35.0571 28.1592 34.8441 26.5834C34.6738 25.5187 34.2905 24.4966 33.6517 23.6874C33.5665 23.5596 33.4387 23.4744 33.3535 23.3467C33.2258 23.1763 33.1832 23.1337 33.0129 23.006L32.6295 22.6652C31.5222 21.8135 30.6705 21.5579 29.1799 21.4302C26.4542 21.2172 23.686 23.4318 23.2175 26.2427C22.962 27.861 23.3453 29.4794 24.1119 30.5867C24.6655 31.3533 25.9006 33.0142 25.645 34.3771C25.5173 35.0585 26.582 35.4844 26.4542 33.6957C26.4116 32.9717 26.0283 32.2476 25.7728 31.694C25.134 30.5015 24.197 29.7349 23.9841 28.074C23.7711 26.2853 24.3674 24.965 25.2191 23.9429C26.1135 22.8356 27.306 22.3671 28.7966 22.2394Z" fill="#A45CFF"/>
<path fill-rule="evenodd" clip-rule="evenodd" d="M28.4117 17.1289C28.3691 17.3844 28.3691 18.8324 28.3691 19.2157V20.2804C28.4117 20.8341 29.0079 20.8341 29.1357 20.4082C29.1783 20.2804 29.1357 20.0675 29.1357 19.8971V17.2567C29.1357 17.1289 29.1357 17.0863 29.0931 17.0011C29.0505 16.9159 28.9654 16.8734 28.8376 16.8308C28.6672 16.7882 28.4543 16.8734 28.4117 17.1289Z" fill="#A45CFF"/>
<path d="M31.9635 10.4971C42.1822 12.1343 49.1389 21.7455 47.5017 31.9643C45.8645 42.1831 36.2533 49.1398 26.0345 47.5025C15.8157 45.8653 8.85903 36.2541 10.4963 26.0353C12.1335 15.8165 21.7447 8.85984 31.9635 10.4971Z" stroke="#4C5167"/>
</g>
</svg>
