<svg width="261" height="219" viewBox="0 0 261 219" fill="none" xmlns="http://www.w3.org/2000/svg">
<path opacity="0.1" d="M20.999 26.7109L261 136.552L226.971 148.725L240.001 182.435L0 72.5939L34.0288 60.4215L20.999 26.7109Z" fill="#24324A" fill-opacity="0.9"/>
<path opacity="0.1" d="M68.8268 109.56C68.8283 122.051 72.4233 134.248 79.1832 144.694C85.9432 155.139 95.582 163.393 106.949 168.469C118.316 173.545 130.932 175.229 143.29 173.321C155.648 171.412 167.227 165.992 176.643 157.706L174.745 156.866C165.603 164.684 154.45 169.761 142.586 171.507C130.723 173.252 118.637 171.593 107.735 166.723C96.8345 161.854 87.5673 153.974 81.015 144.002C74.4626 134.031 70.894 122.377 70.7249 110.4L68.8268 109.56ZM160.066 51.2593C170.222 55.788 178.974 62.9403 185.428 71.9856C191.882 81.0317 195.808 91.6484 196.806 102.753L198.816 103.644C197.949 92.0065 193.968 80.8434 187.289 71.3223C180.612 61.8018 171.481 54.2744 160.855 49.5281C150.229 44.7818 138.498 42.9921 126.892 44.3453C115.285 45.6991 104.228 50.1458 94.8801 57.221L96.8809 58.1219C105.916 51.5018 116.522 47.3789 127.621 46.1735C138.719 44.968 149.915 46.7227 160.066 51.2593ZM175.342 17.5559C194.522 26.1219 210.457 40.547 220.878 58.776C231.299 77.0051 235.675 98.1081 233.381 119.078L240.096 122.076C243.086 99.295 238.691 76.2183 227.559 56.2445C216.428 36.27 199.147 20.4547 178.263 11.1262C157.378 1.79824 133.993 -0.549517 111.552 4.42903C89.1109 9.40786 68.7997 21.4491 53.6093 38.7808L60.3336 41.786C74.6167 26.1725 93.4235 15.4245 114.074 11.0734C134.725 6.723 156.167 8.99129 175.342 17.5559ZM228.731 116.989C230.543 97.2742 226.181 77.5365 216.251 60.5136C206.32 43.49 191.313 30.0258 173.311 21.9869C155.309 13.948 135.204 11.7339 115.784 15.6521C96.3652 19.5695 78.594 29.4245 64.9372 43.8495L66.9466 44.7404C80.3159 30.7733 97.6477 21.2551 116.559 17.496C135.47 13.7362 155.03 15.9203 172.551 23.7473C190.071 31.5736 204.69 44.6591 214.398 61.2034C224.105 77.7469 228.423 96.9368 226.759 116.134L228.731 116.989ZM205.864 106.776C205.551 93.2362 201.427 80.0916 193.966 68.8507C186.505 57.6098 176.009 48.7271 163.681 43.2225C151.355 37.718 137.697 35.8149 124.274 37.7308C110.851 39.6468 98.2076 45.3039 87.7949 54.054L91.3129 55.579C101.203 47.6364 113.071 42.5627 125.607 40.9164C138.143 39.2701 150.861 41.1154 162.357 46.2491C173.853 51.3827 183.681 59.6056 190.756 70.0098C197.832 80.414 201.88 92.5957 202.454 105.21L205.864 106.776ZM210.402 172.775C196.329 189.577 177.191 201.363 155.902 206.339C134.614 211.314 112.342 209.207 92.4798 200.337C72.618 191.467 56.2549 176.321 45.8836 157.206C35.5115 138.091 31.7003 116.055 35.03 94.456L28.3892 91.4929C24.3269 114.889 28.1274 138.907 39.1949 159.781C50.2632 180.657 67.9737 197.21 89.551 206.848C111.129 216.485 135.355 218.663 158.432 213.04C181.51 207.416 202.137 194.309 217.08 175.773L210.402 172.775ZM104.042 174.764C117.104 180.595 131.644 182.374 145.795 179.875C159.947 177.376 173.066 170.711 183.468 160.735L180.125 159.25C170.207 168.415 157.838 174.484 144.558 176.701C131.278 178.918 117.671 177.186 105.433 171.721C93.1953 166.255 82.8646 157.296 75.7266 145.96C68.5886 134.624 64.9586 121.41 65.2881 107.963L61.9442 106.459C61.3208 120.812 64.9993 134.988 72.5075 147.165C80.0156 159.342 91.0104 168.965 104.08 174.799L104.042 174.764ZM94.3965 196.014C113.111 204.374 134.079 206.431 154.169 201.878C174.258 197.326 192.392 186.407 205.864 170.755L203.882 169.872C190.693 185.041 173.007 195.6 153.443 199.985C133.878 204.369 113.477 202.345 95.2589 194.214C77.0412 186.081 61.9763 172.274 52.2961 154.836C42.6166 137.398 38.8354 117.257 41.5146 97.3962L39.5416 96.5046C36.6813 116.891 40.4824 137.601 50.3773 155.539C60.2722 173.479 75.7301 187.686 94.4428 196.041L94.3965 196.014Z" fill="#24324A" fill-opacity="0.9"/>
<path opacity="0.1" d="M155.214 75.5667L150.992 69.5457L143.656 70.406L148.104 64.4756L145.081 57.7627L152.052 60.128L157.531 55.1143L157.387 62.5047L163.787 66.1162L156.725 68.321L155.214 75.5667Z" fill="#24324A" fill-opacity="0.9"/>
<path opacity="0.1" d="M171.914 84.018L168.843 79.6319L163.506 80.266L166.741 75.9441L164.545 71.0602L169.614 72.7778L173.6 69.1436L173.503 74.5097L178.157 77.1382L173.02 78.7453L171.914 84.018Z" fill="#24324A" fill-opacity="0.9"/>
<path opacity="0.1" d="M182.498 95.4038L180.321 92.2859L176.535 92.7382L178.825 89.6845L177.26 86.2158L180.87 87.4355L183.694 84.8477L183.611 88.6574L186.927 90.5277L183.279 91.6618L182.498 95.4038Z" fill="#24324A" fill-opacity="0.9"/>
<path opacity="0.1" d="M116.704 65.7969L114.527 62.6968L110.731 63.1405L113.03 60.0769L111.475 56.6174L115.067 57.8371L117.89 55.25L117.817 59.0498L121.114 60.9207L117.475 62.0634L116.704 65.7969Z" fill="#24324A" fill-opacity="0.9"/>
<path opacity="0.1" d="M134.289 67.0851L131.218 62.7169L125.881 63.3331L129.126 59.0191L126.91 54.1366L131.998 55.8535L135.974 52.21L135.869 57.5854L140.532 60.2053L135.386 61.821L134.289 67.0851Z" fill="#24324A" fill-opacity="0.9"/>
<path opacity="0.1" d="M115.144 164.629L110.922 158.608L103.587 159.467L108.034 153.538L105.002 146.835L111.983 149.19L117.452 144.186L117.317 151.567L123.718 155.178L116.655 157.383L115.144 164.629Z" fill="#24324A" fill-opacity="0.9"/>
<path opacity="0.1" d="M135.521 164.921L132.45 160.534L127.104 161.16L130.348 156.846L128.151 151.963L133.221 153.681L137.197 150.037L137.1 155.403L141.764 158.041L136.618 159.639L135.521 164.921Z" fill="#24324A" fill-opacity="0.9"/>
<path opacity="0.1" d="M153.587 159.684L151.4 156.575L147.604 157.019L149.913 153.964L148.348 150.495L151.94 151.715L154.773 149.137L154.699 152.936L157.997 154.807L154.357 155.95L153.587 159.684Z" fill="#24324A" fill-opacity="0.9"/>
<path opacity="0.1" d="M87.7837 130.087L85.5968 126.978L81.8105 127.413L84.1095 124.367L82.5453 120.899L86.146 122.109L88.9699 119.521L88.8965 123.34L92.2033 125.201L88.5634 126.344L87.7837 130.087Z" fill="#24324A" fill-opacity="0.9"/>
<path opacity="0.1" d="M97.8962 147.988L94.8161 143.611L89.4785 144.228L92.7233 139.914L90.5178 135.04L95.5958 136.748L99.5724 133.104L99.4761 138.489L104.139 141.108L98.9932 142.725L97.8962 147.988Z" fill="#24324A" fill-opacity="0.9"/>
<path d="M117.089 88.6905L109.492 104.982L105.722 103.223L111.908 89.9579L108.649 88.4386L110.06 85.4131L117.089 88.6905Z" fill="white"/>
<path d="M119.174 109.836C117.824 109.207 116.777 108.312 116.033 107.153C115.289 105.994 114.907 104.645 114.888 103.106C114.892 101.559 115.303 99.9089 116.12 98.1557C116.938 96.4024 117.934 95.0349 119.11 94.0531C120.308 93.063 121.591 92.4804 122.957 92.3052C124.323 92.13 125.681 92.3571 127.031 92.9866C128.38 93.616 129.427 94.5103 130.171 95.6694C130.915 96.8285 131.285 98.1817 131.282 99.7289C131.301 101.268 130.901 102.914 130.084 104.667C129.266 106.42 128.258 107.792 127.06 108.782C125.884 109.764 124.614 110.342 123.247 110.518C121.881 110.693 120.523 110.466 119.174 109.836ZM120.66 106.648C121.653 107.111 122.628 107.046 123.584 106.453C124.556 105.867 125.458 104.682 126.29 102.898C127.122 101.114 127.45 99.6612 127.274 98.5402C127.114 97.4264 126.537 96.638 125.544 96.175C124.566 95.7192 123.592 95.7841 122.62 96.3697C121.663 96.9626 120.769 98.1512 119.937 99.9354C119.105 101.72 118.769 103.169 118.93 104.283C119.106 105.404 119.683 106.192 120.66 106.648Z" fill="white"/>
<path d="M134.969 117.202C133.619 116.572 132.572 115.678 131.828 114.519C131.085 113.36 130.703 112.011 130.684 110.472C130.688 108.925 131.098 107.274 131.916 105.521C132.733 103.768 133.73 102.401 134.905 101.419C136.104 100.429 137.386 99.846 138.752 99.6708C140.118 99.4956 141.476 99.7227 142.826 100.352C144.176 100.982 145.223 101.876 145.967 103.035C146.711 104.194 147.081 105.547 147.077 107.094C147.096 108.633 146.697 110.279 145.88 112.033C145.062 113.786 144.054 115.158 142.856 116.148C141.68 117.129 140.409 117.708 139.043 117.883C137.677 118.058 136.319 117.831 134.969 117.202ZM136.456 114.013C137.449 114.476 138.424 114.411 139.38 113.819C140.352 113.233 141.254 112.048 142.086 110.264C142.918 108.479 143.246 107.027 143.07 105.906C142.909 104.792 142.332 104.004 141.339 103.541C140.362 103.085 139.387 103.15 138.415 103.735C137.459 104.328 136.565 105.517 135.733 107.301C134.901 109.085 134.565 110.534 134.725 111.648C134.902 112.769 135.478 113.558 136.456 114.013Z" fill="white"/>
<path d="M151.178 115.297C149.983 114.739 149.194 113.88 148.81 112.719C148.448 111.549 148.586 110.282 149.223 108.917C149.859 107.551 150.738 106.639 151.859 106.179C153.003 105.711 154.172 105.756 155.367 106.313C156.561 106.87 157.339 107.734 157.701 108.903C158.069 110.057 157.935 111.317 157.298 112.682C156.662 114.048 155.779 114.968 154.651 115.443C153.53 115.902 152.372 115.854 151.178 115.297ZM164.985 111.025L167.754 112.316L149.033 123.42L146.264 122.128L164.985 111.025ZM152.068 113.388C152.595 113.634 153.108 113.609 153.605 113.312C154.118 113.022 154.573 112.45 154.971 111.597C155.369 110.744 155.514 110.028 155.406 109.448C155.314 108.877 155.004 108.468 154.477 108.222C153.965 107.983 153.449 108.016 152.929 108.321C152.416 108.611 151.964 109.175 151.573 110.013C151.183 110.85 151.037 111.567 151.138 112.161C151.246 112.74 151.556 113.149 152.068 113.388ZM158.651 128.131C157.875 127.77 157.26 127.266 156.806 126.619C156.375 125.965 156.147 125.217 156.124 124.375C156.101 123.533 156.3 122.662 156.719 121.762C157.139 120.862 157.679 120.151 158.338 119.627C158.998 119.104 159.714 118.805 160.485 118.73C161.279 118.647 162.064 118.786 162.84 119.148C164.035 119.705 164.813 120.569 165.174 121.738C165.558 122.899 165.432 124.163 164.795 125.528C164.158 126.893 163.268 127.81 162.124 128.278C161.004 128.737 159.846 128.689 158.651 128.131ZM159.541 126.223C160.068 126.469 160.581 126.444 161.078 126.147C161.598 125.841 162.054 125.27 162.444 124.432C162.835 123.594 162.977 122.886 162.869 122.307C162.784 121.719 162.478 121.302 161.95 121.057C161.438 120.818 160.926 120.843 160.413 121.133C159.9 121.423 159.445 121.994 159.047 122.848C158.649 123.701 158.504 124.417 158.611 124.996C158.719 125.575 159.029 125.984 159.541 126.223Z" fill="white"/>
<g opacity="0.1">
<path d="M164.228 189.398L158.627 191.504L158.5 194.457L155.639 195.533L156.624 181.609L159.381 180.572L169.167 190.444L166.238 191.546L164.228 189.398ZM162.577 187.637L158.983 183.8L158.752 189.076L162.577 187.637Z" fill="#24324A" fill-opacity="0.9"/>
<path d="M147.193 189.781C147.996 189.936 148.627 190.254 149.087 190.734C149.547 191.214 149.808 191.835 149.872 192.597C149.965 193.722 149.604 194.64 148.787 195.351C147.982 196.062 146.777 196.494 145.173 196.646L138.835 197.251L137.777 184.555L143.766 183.984C145.26 183.841 146.447 184.015 147.328 184.504C148.208 184.992 148.691 185.763 148.779 186.815C148.831 187.444 148.719 188.015 148.44 188.529C148.161 189.031 147.746 189.448 147.193 189.781ZM141.173 189.532L143.947 189.268C144.596 189.206 145.075 189.033 145.385 188.747C145.693 188.45 145.827 188.047 145.784 187.539C145.743 187.043 145.54 186.679 145.175 186.445C144.822 186.211 144.327 186.124 143.69 186.185L140.916 186.449L141.173 189.532ZM144.881 194.481C146.277 194.347 146.93 193.737 146.839 192.649C146.752 191.597 146.01 191.137 144.614 191.27L141.344 191.582L141.611 194.792L144.881 194.481Z" fill="#24324A" fill-opacity="0.9"/>
<path d="M131.335 186.42L127.164 186.219L126.428 196.943L123.449 196.8L124.185 186.076L120.032 185.876L120.203 183.384L131.506 183.927L131.335 186.42Z" fill="#24324A" fill-opacity="0.9"/>
<path d="M106.618 194.123C105.338 193.822 104.247 193.27 103.345 192.468C102.458 191.656 101.839 190.682 101.489 189.546C101.154 188.401 101.143 187.197 101.457 185.934C101.772 184.672 102.346 183.612 103.18 182.754C104.029 181.887 105.038 181.295 106.206 180.978C107.389 180.652 108.626 180.64 109.918 180.943C111.007 181.199 111.94 181.623 112.717 182.217C113.505 182.813 114.108 183.546 114.525 184.414L112.223 185.724C111.622 184.53 110.693 183.785 109.436 183.49C108.659 183.307 107.921 183.321 107.223 183.529C106.528 183.726 105.93 184.093 105.429 184.631C104.94 185.171 104.597 185.836 104.401 186.625C104.204 187.414 104.196 188.158 104.377 188.855C104.57 189.556 104.928 190.154 105.45 190.649C105.976 191.132 106.628 191.465 107.405 191.648C108.662 191.942 109.84 191.686 110.94 190.878L112.372 193.064C111.589 193.664 110.707 194.054 109.724 194.235C108.742 194.416 107.707 194.378 106.618 194.123Z" fill="#24324A" fill-opacity="0.9"/>
<path d="M93.753 185.192L92.5048 187.255L83.9921 182.208L90.7129 171.1L99.0214 176.025L97.7733 178.088L91.9934 174.662L90.5341 177.074L95.6385 180.1L94.4288 182.1L89.3243 179.073L87.7689 181.644L93.753 185.192Z" fill="#24324A" fill-opacity="0.9"/>
<path d="M85.3395 166.874L76.318 176.153L74.2279 174.129L77.4756 170.789C76.3995 170.313 75.5219 169.746 74.8426 169.089C73.6147 167.9 72.9619 166.693 72.8844 165.469C72.8155 164.235 73.3266 163.058 74.4178 161.935L77.2402 159.032L79.3304 161.056L76.7399 163.72C76.1213 164.357 75.8185 164.998 75.8315 165.646C75.8619 166.293 76.1949 166.924 76.8307 167.539C77.5274 168.214 78.3137 168.709 79.1897 169.026L83.2493 164.85L85.3395 166.874Z" fill="#24324A" fill-opacity="0.9"/>
<path d="M64.4805 159.209L61.0441 154.408L58.144 155.112L56.3888 152.66L70.1622 149.709L71.854 152.072L64.689 164.257L62.8915 161.745L64.4805 159.209ZM65.7817 157.128L68.6183 152.593L63.4344 153.848L65.7817 157.128Z" fill="#24324A" fill-opacity="0.9"/>
<path d="M56.0526 138.021L55.3499 136.117L50.4902 137.945L49.48 135.208L61.543 130.669L62.5532 133.407L57.6763 135.242L58.4042 137.214L64.4356 138.508L65.5086 141.416L58.247 139.713L53.4895 146.073L52.335 142.945L56.0526 138.021Z" fill="#24324A" fill-opacity="0.9"/>
<path d="M219.814 85.3397L207.754 89.8701L206.749 87.1495L209.954 85.9457L209.024 83.4291L205.041 82.5244L203.967 79.6167L208.519 80.7337C208.555 79.8037 208.826 78.9982 209.333 78.3172C209.852 77.6319 210.582 77.1123 211.524 76.7585C212.454 76.409 213.33 76.3189 214.151 76.4881C214.984 76.6529 215.72 77.0539 216.361 77.691C217.013 78.3238 217.532 79.1616 217.917 80.2045L219.814 85.3397ZM215.668 81.1268C215.379 80.3447 214.974 79.8129 214.451 79.5315C213.933 79.2615 213.312 79.2624 212.588 79.5342C211.888 79.7974 211.421 80.1986 211.189 80.7377C210.956 81.2769 210.982 81.9319 211.267 82.7027L212.159 85.1173L216.535 83.4734L215.668 81.1268Z" fill="#24324A" fill-opacity="0.9"/>
<path d="M206.065 56.8018L207.769 59.1767L200.945 64.0885L211.304 64.1036L212.913 66.3457L202.438 73.8857L200.744 71.5256L207.553 66.6246L197.209 66.5987L195.59 64.3418L206.065 56.8018Z" fill="#24324A" fill-opacity="0.9"/>
<path d="M199.477 51.3029L196.549 48.469L189.231 55.9931L187.14 53.9689L194.458 46.4448L191.543 43.6236L193.244 41.875L201.178 49.5543L199.477 51.3029Z" fill="#24324A" fill-opacity="0.9"/>
<path d="M186.531 36.1882L179.629 47.1943L177.114 45.6363L179.944 41.1238L175.008 38.0653L172.178 42.5778L169.664 41.0198L176.566 30.0137L179.081 31.5717L176.359 35.9113L181.295 38.9697L184.017 34.6302L186.531 36.1882Z" fill="#24324A" fill-opacity="0.9"/>
<path d="M160.535 34.4962L154.711 33.1181L152.923 35.5978L149.948 34.8939L158.701 23.4177L161.569 24.0962L164.015 38.2227L160.969 37.5018L160.535 34.4962ZM160.177 32.0309L159.399 26.66L156.199 31.0896L160.177 32.0309Z" fill="#24324A" fill-opacity="0.9"/>
<path d="M141.708 19.9819C142.859 19.9708 143.854 20.152 144.693 20.5254C145.544 20.8987 146.196 21.4338 146.649 22.1309C147.102 22.8279 147.325 23.6564 147.319 24.6163C147.312 25.5639 147.078 26.3968 146.615 27.1149C146.152 27.8208 145.493 28.3686 144.636 28.7583C143.792 29.1356 142.795 29.3298 141.644 29.3409L139.027 29.3662L139.003 32.9289L135.996 32.9578L136.084 20.0361L141.708 19.9819ZM141.494 26.9059C142.397 26.8972 143.085 26.6998 143.558 26.3138C144.031 25.9154 144.27 25.3594 144.275 24.6456C144.28 23.9195 144.048 23.368 143.581 22.9911C143.113 22.6018 142.428 22.4115 141.524 22.4202L139.074 22.4438L139.044 26.9295L141.494 26.9059Z" fill="#24324A" fill-opacity="0.9"/>
<path d="M126.627 30.6504L120.706 31.5296L119.951 34.3959L116.927 34.845L120.866 21.4079L123.781 20.975L131.227 32.7212L128.13 33.1812L126.627 30.6504ZM125.391 28.5756L122.702 24.0546L121.347 29.1762L125.391 28.5756Z" fill="#24324A" fill-opacity="0.9"/>
<path d="M111.188 25.4791L105.452 27.6435L109.036 37.3354L106.263 38.3818L101.867 26.4297L110.376 23.2188L111.188 25.4791Z" fill="#24324A" fill-opacity="0.9"/>
</g>
</svg>
