<svg width="34" height="70" viewBox="0 0 34 70" fill="none" xmlns="http://www.w3.org/2000/svg">
<g opacity="0.2">
<path d="M16.9656 59.3018C18.7411 59.3018 20.3193 58.5286 21.3057 57.5622C22.4893 56.4025 23.0811 54.8562 23.0811 53.3099C23.0811 51.5703 22.292 50.024 21.3057 49.0575C20.122 47.8978 18.5438 47.318 16.9656 47.318L10.8501 47.318L10.8501 53.3099C10.8501 55.0494 11.6392 56.5957 12.6256 57.5622C13.612 58.5286 15.1902 59.3018 16.9656 59.3018ZM23.4757 59.6883C21.8975 61.2346 19.5302 62.3944 16.9656 62.3944C14.4011 62.3944 12.0338 61.4279 10.4556 59.6883C8.87739 58.142 7.69375 55.8226 7.69375 53.3099L7.69375 44.2254L16.9656 44.2254C19.5302 44.2254 21.8975 45.1918 23.4757 46.9314C25.0539 48.4777 26.2375 50.7971 26.2375 53.3099C26.2375 55.6293 25.0539 57.9488 23.4757 59.6883Z" fill="white"/>
<path d="M23.0811 16.6901C23.0811 14.9506 22.292 13.4043 21.3057 12.4378C20.122 11.2781 18.5438 10.6982 16.9656 10.6982C15.1902 10.6982 13.612 11.4714 12.6256 12.4378C11.442 13.5975 10.8501 15.1438 10.8501 16.6901L10.8501 22.682L16.9656 22.682C18.7411 22.682 20.3193 21.9089 21.3057 20.9425C22.4893 19.976 23.0811 18.4297 23.0811 16.6901ZM23.4757 10.3117C25.0539 11.858 26.2375 14.1774 26.2375 16.6901C26.2375 19.2029 25.2511 21.5223 23.4757 23.0686C21.8975 24.6149 19.5302 25.7746 16.9656 25.7746L7.69375 25.7746L7.69375 16.6901C7.69375 14.1774 8.68012 11.858 10.4556 10.3117C12.0338 8.76536 14.4011 7.60563 16.9656 7.60563C19.5302 7.60563 21.7002 8.76536 23.4757 10.3117Z" fill="white"/>
<path d="M29.0387 39.4097C30.2294 38.2409 30.8248 36.6827 30.8248 35.1244C30.8248 33.5661 30.2294 32.0078 29.0387 30.8391C27.848 29.6704 26.2604 29.086 24.6728 29.086C23.0852 29.086 21.4976 29.6704 20.3069 30.8391L15.9409 35.1244L20.3069 39.4097C21.4976 40.5784 23.0852 41.1627 24.6728 41.1627C26.2604 41.1627 27.848 40.5784 29.0387 39.4097ZM31.2217 41.3575C29.4356 43.3054 27.0542 44.0845 24.6728 44.0845C22.2914 44.0845 19.91 43.1106 18.1239 41.3575L11.575 34.9296L18.1239 28.5016C19.91 26.7486 22.2914 25.7746 24.6728 25.7746C27.0542 25.7746 29.4356 26.7486 31.2217 28.5016C33.0077 30.2547 34 32.5922 34 34.9296C34 37.267 33.0077 39.6044 31.2217 41.3575Z" fill="white"/>
<path d="M-6.24536 65.139C-5.05826 66.3056 -3.47547 66.889 -1.89267 66.889C-0.309875 66.889 1.27292 66.3056 2.46001 65.139C3.64711 63.9723 4.24066 62.4168 4.24066 60.8613C4.24066 59.3057 3.64711 57.7502 2.46001 56.5836L-1.89267 52.3059L-6.24536 56.5836C-7.43246 57.7502 -8.02601 59.3057 -8.02601 60.8613C-8.02601 62.4168 -7.43246 63.9723 -6.24536 65.139ZM-8.22386 67.2778C-10.0045 65.5279 -10.9937 63.1946 -10.9937 60.8613C-10.9937 58.528 -10.0045 56.1947 -8.22386 54.4447L-2.88192 49.0004L-1.89267 48.0282L4.63636 54.4447C6.417 56.1947 7.40625 58.528 7.40625 60.8613C7.40625 63.1946 6.417 65.5279 4.63636 67.2778C2.85571 69.0278 0.481522 70 -1.89267 70C-4.06901 69.8056 -6.44321 69.0278 -8.22386 67.2778Z" fill="white"/>
<path d="M2.72367 4.86102C1.53085 3.69438 -0.0595743 3.11105 -1.65 3.11105C-3.24042 3.11105 -4.83085 3.69438 -6.02367 4.86102C-7.21649 6.02767 -7.8129 7.5832 -7.8129 9.13872C-7.8129 10.6943 -7.21649 12.2498 -6.02367 13.4164L-1.65 17.6941L2.72367 13.4164C3.91649 12.2498 4.5129 10.6943 4.5129 9.13872C4.5129 7.5832 3.91649 6.02767 2.72367 4.86102ZM4.91051 2.72217C6.69974 4.47214 7.69375 6.80543 7.69375 9.13872C7.69375 11.472 6.69974 13.8053 4.91051 15.5553L-1.65 21.9718L-8.2105 15.5553C-9.99973 13.8053 -10.9937 11.472 -10.9937 9.13872C-10.9937 6.80543 -10.1985 4.47214 -8.2105 2.72217C-6.42127 0.972203 -4.03564 -1.66259e-06 -1.65 -1.55831e-06C0.735641 -1.45403e-06 3.12128 0.972204 4.91051 2.72217Z" fill="white"/>
<path d="M8.7 34.8592C8.7 37.5704 7.50577 40.088 5.71442 42.0246C3.92308 43.7676 1.33558 44.9296 -1.65 44.9296C-4.43654 44.9296 -7.02403 43.7676 -9.01442 42.0246C-10.8058 40.2817 -12 37.7641 -12 34.8592C-12 32.1479 -10.8058 29.6303 -9.01442 27.6937C-7.22307 25.9507 -4.63558 24.7887 -1.65 24.7887C1.13654 24.7887 3.72404 25.9507 5.71442 27.6937C7.50577 29.6303 8.7 32.1479 8.7 34.8592ZM3.32596 39.8944C3.67676 39.553 3.9897 39.1872 4.26162 38.7998C4.73065 38.1317 5.07761 37.3997 5.28618 36.6197C5.43693 36.0559 5.51539 35.4671 5.51539 34.8592C5.51539 34.4015 5.47092 33.9546 5.38461 33.5211C5.2142 32.6652 4.88066 31.8614 4.40422 31.1294C4.10095 30.6634 3.7398 30.2266 3.32596 29.8239C2.99499 29.5019 2.64155 29.2127 2.26831 28.9588C1.55533 28.4738 0.77011 28.118 -0.0687497 27.9094C-0.639314 27.7675 -1.23469 27.6937 -1.84903 27.6937C-2.3219 27.6937 -2.78352 27.7374 -3.23125 27.8222C-4.6681 28.0945 -5.96177 28.7904 -7.02404 29.8239C-8.41731 31.1796 -9.21346 32.9225 -9.21346 34.8592C-9.21346 36.7958 -8.41731 38.5387 -7.02404 39.8944C-5.99732 40.8934 -4.75442 41.5768 -3.375 41.8673C-2.88254 41.971 -2.37267 42.0246 -1.84904 42.0246C-1.27496 42.0246 -0.72825 41.9714 -0.2125 41.8684C0.653166 41.6954 1.43162 41.3823 2.1059 40.9455C2.562 40.65 2.97044 40.2979 3.32596 39.8944Z" fill="white"/>
<path fill-rule="evenodd" clip-rule="evenodd" d="M15.3125 35.0704C15.3125 34.1021 14.5234 33.5211 13.7343 33.5211L5.38461 33.5211C5.47092 33.9546 5.51539 34.4015 5.51539 34.8592C5.51539 35.4671 5.43693 36.0559 5.28618 36.6197L13.7343 36.6197C14.7207 36.6197 15.3125 35.8451 15.3125 35.0704ZM9.98289 44.4645C10.5724 45.0481 10.5724 46.0209 9.98289 46.6045C9.39341 47.1882 8.41095 47.1882 7.82147 46.6045L2.1059 40.9455C2.562 40.65 2.97044 40.2979 3.32596 39.8944C3.67676 39.553 3.9897 39.1872 4.26162 38.7998L9.98289 44.4645ZM-0.2125 50.003C-0.2125 50.7762 -0.805468 51.5493 -1.79375 51.5493C-2.58437 51.5493 -3.375 50.9694 -3.375 50.003L-3.375 41.8673C-2.88254 41.971 -2.37267 42.0246 -1.84904 42.0246C-1.27496 42.0246 -0.72825 41.9714 -0.2125 41.8684L-0.2125 50.003ZM8.09187 23.2529C8.68522 22.6716 9.67414 22.6716 10.2675 23.2529C10.8608 23.8343 10.8608 24.8032 10.2675 25.3846L4.40422 31.1294C4.10095 30.6634 3.7398 30.2266 3.32596 29.8239C2.99499 29.5019 2.64155 29.2127 2.26831 28.9588L8.09187 23.2529ZM-3.23125 19.7273C-3.23125 18.9482 -2.63828 18.169 -1.65 18.169C-0.859372 18.169 -0.0687493 18.7534 -0.0687493 19.7273L-0.0687497 27.9094C-0.639314 27.7675 -1.23469 27.6937 -1.84903 27.6937C-2.3219 27.6937 -2.78352 27.7374 -3.23125 27.8222L-3.23125 19.7273Z" fill="white"/>
</g>
</svg>
