<svg width="52" height="52" viewBox="0 0 52 52" fill="none" xmlns="http://www.w3.org/2000/svg">
<circle opacity="0.15" cx="26" cy="26" r="26" fill="#64BC2A"/>
<path fill-rule="evenodd" clip-rule="evenodd" d="M37.0932 17.7895C37.0932 16.0527 35.5974 14.7106 33.8523 14.7106C32.024 14.7106 30.6113 16.1316 30.6113 17.7895V20.8684H33.8523C35.5974 20.8684 37.0932 19.5263 37.0932 17.7895Z" fill="#E8F5DF"/>
<path d="M36.4291 17.7895C36.4291 17.079 36.0967 16.4474 35.6812 16.0527C35.1826 15.579 34.5178 15.3421 33.853 15.3421C33.1051 15.3421 32.4403 15.6579 32.0248 16.0527C31.5262 16.5263 31.2769 17.1579 31.2769 17.7895V20.2368H33.853C34.6009 20.2368 35.2657 19.9211 35.6812 19.5263C36.0967 19.1316 36.4291 18.5 36.4291 17.7895ZM36.5953 15.1842C37.2601 15.8158 37.7587 16.7632 37.7587 17.7895C37.7587 18.8158 37.3432 19.7632 36.5953 20.3947C35.9305 21.0263 34.9333 21.5 33.853 21.5H30.6121H29.9473V20.8684V17.7895C29.9473 16.7632 30.3628 15.8158 31.1107 15.1842C31.7755 14.5527 32.7727 14.079 33.853 14.079C34.8502 14.079 35.8474 14.5527 36.5953 15.1842Z" fill="#24324A"/>
<path fill-rule="evenodd" clip-rule="evenodd" d="M18.1472 14.7106C16.319 14.7106 14.9062 16.1316 14.9062 17.7895C14.9062 19.5263 16.4021 20.8684 18.1472 20.8684H21.3881V17.7895C21.3881 16.1316 19.9754 14.7106 18.1472 14.7106Z" fill="#E8F5DF"/>
<path d="M18.146 15.3421C17.3981 15.3421 16.7333 15.6579 16.3178 16.0527C15.8191 16.5263 15.5698 17.1579 15.5698 17.7895C15.5698 18.5 15.9023 19.1316 16.3178 19.5263C16.8164 20 17.4812 20.2368 18.146 20.2368H20.7221V17.7895C20.7221 17.079 20.3897 16.4474 19.9742 16.0527C19.5587 15.579 18.8939 15.3421 18.146 15.3421ZM15.4036 15.1842C16.0685 14.5527 17.0657 14.079 18.146 14.079C19.2263 14.079 20.2235 14.4737 20.8883 15.1842C21.5531 15.8158 22.0517 16.7632 22.0517 17.7895V20.8684V21.5H21.3869H18.146C17.0657 21.5 16.0685 21.1053 15.4036 20.3947C14.7388 19.7632 14.2402 18.8158 14.2402 17.7895C14.2402 16.7632 14.7388 15.8948 15.4036 15.1842Z" fill="#24324A"/>
<path fill-rule="evenodd" clip-rule="evenodd" d="M28.2847 12.5789C27.0382 11.3947 24.9607 11.3947 23.7142 12.5789C22.4677 13.7632 22.4677 15.7368 23.7142 16.921L26.041 19.1315L28.3678 16.921C29.5313 15.7368 29.5313 13.7632 28.2847 12.5789Z" fill="#E8F5DF"/>
<path d="M27.8688 12.9736C27.3702 12.4999 26.7054 12.263 26.0406 12.263C25.3758 12.263 24.711 12.4999 24.2124 12.9736C23.7138 13.4472 23.4645 14.0788 23.4645 14.7104C23.4645 15.342 23.7138 15.9735 24.2124 16.4472L26.0406 18.1841L27.8688 16.4472C28.3674 15.9735 28.6167 15.342 28.6167 14.7104C28.6167 14.0788 28.3674 13.4472 27.8688 12.9736ZM28.6998 12.1051C29.5308 12.8157 29.8632 13.763 29.8632 14.7104C29.8632 15.6578 29.4477 16.6051 28.6998 17.3156L26.373 19.5262L25.9575 19.9209L25.542 19.5262L23.2152 17.3156C22.4673 16.6051 22.0518 15.6578 22.0518 14.7104C22.0518 13.763 22.4673 12.8157 23.2152 12.1051C23.9631 11.3946 24.9603 10.9999 25.9575 10.9999C26.9547 10.9999 27.9519 11.3946 28.6998 12.1051Z" fill="#24324A"/>
<path d="M20.9721 21.3421C20.7228 21.1052 20.7228 20.7105 20.9721 20.4737C21.2214 20.2368 21.6369 20.2368 21.8862 20.4737L26.4568 24.8157C26.7061 25.0526 26.7061 25.4473 26.4568 25.6841C26.2075 25.921 25.792 25.921 25.5427 25.6841L20.9721 21.3421Z" fill="#24324A"/>
<path d="M30.0299 20.5525C30.2792 20.3157 30.6947 20.3157 30.944 20.5525C31.1933 20.7894 31.1933 21.1841 30.944 21.4209L26.4566 25.6841C26.2073 25.9209 25.7917 25.9209 25.5424 25.6841C25.2931 25.4472 25.2931 25.0525 25.5424 24.8157L30.0299 20.5525Z" fill="#24324A"/>
<path fill-rule="evenodd" clip-rule="evenodd" d="M39.3378 27.4212C40.5843 26.2369 40.5843 24.2633 39.3378 23.0791C38.0913 21.8949 36.0138 21.8949 34.7672 23.0791L32.4404 25.2896L34.7672 27.5001C36.0138 28.6054 38.0913 28.6054 39.3378 27.4212Z" fill="#E8F5DF"/>
<path d="M38.9223 27.0263C39.4209 26.5526 39.6702 25.9211 39.6702 25.2895C39.6702 24.6579 39.4209 24.0263 38.9223 23.5527C38.4236 23.079 37.7588 22.8421 37.094 22.8421C36.4292 22.8421 35.7644 23.079 35.2658 23.5527L33.4376 25.2895L35.2658 27.0263C35.7644 27.5 36.4292 27.7368 37.094 27.7368C37.7588 27.7368 38.4236 27.5 38.9223 27.0263ZM39.8364 27.8158C39.0885 28.5263 38.0912 28.921 37.094 28.921C36.0968 28.921 35.0996 28.5263 34.3517 27.8158L32.0249 25.6842L31.6094 25.2895L32.0249 24.8948L34.3517 22.6842C35.0996 21.9737 36.0968 21.579 37.094 21.579C38.0912 21.579 39.0885 21.9737 39.8364 22.6842C40.5843 23.3948 40.9998 24.3421 40.9998 25.2895C40.9167 26.1579 40.5843 27.1053 39.8364 27.8158Z" fill="#24324A"/>
<path fill-rule="evenodd" clip-rule="evenodd" d="M33.8526 35.7895C35.6809 35.7895 37.0936 34.3684 37.0936 32.7105C37.0936 30.9737 35.5978 29.6316 33.8526 29.6316H30.6117V32.7105C30.5286 34.3684 32.0244 35.7895 33.8526 35.7895Z" fill="#E8F5DF"/>
<path d="M33.853 35.158C34.6009 35.158 35.2657 34.8422 35.6812 34.4475C36.1798 33.9738 36.4291 33.3422 36.4291 32.7106C36.4291 32.0001 36.0967 31.3685 35.6812 30.9738C35.1826 30.5001 34.5178 30.1843 33.853 30.1843H31.1938V32.6317C31.1938 33.3422 31.5262 33.9738 31.9417 34.3685C32.4403 34.8422 33.1051 35.158 33.853 35.158ZM36.5953 35.3159C35.9305 35.9474 34.9333 36.4211 33.853 36.4211C32.7727 36.4211 31.7755 36.0264 31.1107 35.3159C30.4459 34.6843 29.9473 33.7369 29.9473 32.7106V29.6317V29.0001H30.6121H33.853C34.9333 29.0001 35.9305 29.3949 36.5953 30.1054C37.2601 30.737 37.7587 31.6843 37.7587 32.7106C37.6756 33.658 37.2601 34.6054 36.5953 35.3159Z" fill="#24324A"/>
<path fill-rule="evenodd" clip-rule="evenodd" d="M23.715 39.4999C24.9615 40.6841 27.039 40.6841 28.2855 39.4999C29.532 38.3157 29.532 36.342 28.2855 35.1578L25.9587 32.9473L23.715 35.0788C22.3854 36.263 22.3854 38.2367 23.715 39.4999Z" fill="#45C4FF"/>
<path d="M24.1293 39.0263C24.6279 39.5 25.2927 39.7368 25.9575 39.7368C26.6223 39.7368 27.2871 39.5 27.7857 39.0263C28.2843 38.5526 28.5336 37.9211 28.5336 37.2895C28.5336 36.6579 28.2843 36.0263 27.7857 35.5526L25.9575 33.8158L24.1293 35.5526C23.6307 36.0263 23.3814 36.6579 23.3814 37.2895C23.3814 37.9211 23.6307 38.5526 24.1293 39.0263ZM23.2152 39.8947C22.4673 39.1842 22.0518 38.2368 22.0518 37.2895C22.0518 36.3421 22.4673 35.3948 23.2152 34.6842L25.542 32.4737L25.9575 32.079L26.373 32.4737L28.6998 34.6842C29.4477 35.3948 29.8632 36.3421 29.8632 37.2895C29.8632 38.2368 29.4477 39.1842 28.6998 39.8947C27.9519 40.6052 26.9547 41 25.9575 41C24.9603 41 23.9631 40.6052 23.2152 39.8947Z" fill="#24324A"/>
<path fill-rule="evenodd" clip-rule="evenodd" d="M14.9062 32.7104C14.9062 34.4472 16.4021 35.7893 18.1472 35.7893C19.9754 35.7893 21.3881 34.3682 21.3881 32.7104V29.6314H18.1472C16.4021 29.5525 14.9062 30.9735 14.9062 32.7104Z" fill="#E8F5DF"/>
<path d="M15.5698 32.7106C15.5698 33.4211 15.9023 34.0527 16.3178 34.4475C16.8164 34.9211 17.4812 35.158 18.146 35.158C18.8939 35.158 19.5587 34.8422 19.9742 34.4475C20.4728 33.9738 20.7221 33.3422 20.7221 32.7106V30.1843H18.146C17.3981 30.1843 16.7333 30.5001 16.3178 30.8948C15.8191 31.3685 15.5698 32.0001 15.5698 32.7106ZM15.4036 35.3159C14.7388 34.6843 14.2402 33.7369 14.2402 32.7106C14.2402 31.6843 14.6557 30.737 15.4036 30.1054C16.0685 29.4738 17.0657 29.0001 18.146 29.0001H21.3869H22.0517V29.6317V32.7106C22.0517 33.7369 21.6362 34.6843 20.8883 35.3159C20.2235 35.9474 19.2263 36.4211 18.146 36.4211C17.0657 36.3422 16.1516 35.9474 15.4036 35.3159Z" fill="#24324A"/>
<path fill-rule="evenodd" clip-rule="evenodd" d="M12.6614 23.0791C11.4149 24.2633 11.4149 26.237 12.6614 27.4212C13.908 28.6054 15.9855 28.6054 17.232 27.4212L19.5588 25.2106L17.232 23.0791C15.9855 21.8159 13.908 21.8159 12.6614 23.0791Z" fill="#E8F5DF"/>
<path d="M13.0775 23.4737C12.5789 23.9474 12.3296 24.5789 12.3296 25.2105C12.3296 25.8421 12.5789 26.4737 13.0775 26.9473C13.5761 27.421 14.2409 27.6579 14.9057 27.6579C15.5705 27.6579 16.2354 27.421 16.734 26.9473L18.5622 25.2105L16.734 23.4737C16.2354 23 15.5705 22.7632 14.9057 22.7632C14.2409 22.7632 13.5761 23 13.0775 23.4737ZM12.1634 22.6053C12.9113 21.8947 13.9085 21.5 14.9057 21.5C15.903 21.5 16.9002 21.8947 17.6481 22.6053L19.9749 24.8158L20.3904 25.2105L19.9749 25.6052L17.6481 27.8158C16.9002 28.5263 15.903 28.921 14.9057 28.921C13.9085 28.921 12.9113 28.6052 12.1634 27.8158C11.4155 27.1052 11 26.1579 11 25.2105C11 24.2631 11.4155 23.3158 12.1634 22.6053Z" fill="#24324A"/>
<path d="M19.4763 25.8421C19.1439 25.8421 18.8115 25.6053 18.8115 25.2106C18.8115 24.8948 19.0608 24.579 19.4763 24.579H25.9582C26.2906 24.579 26.623 24.8158 26.623 25.2106C26.623 25.5263 26.3737 25.8421 25.9582 25.8421H19.4763Z" fill="#24324A"/>
<path d="M21.7202 30.1053C21.4709 30.3421 21.0554 30.3421 20.8061 30.1053C20.5568 29.8684 20.5568 29.4737 20.8061 29.2368L25.4598 24.8158C25.7091 24.579 26.1246 24.579 26.3739 24.8158C26.6232 25.0527 26.6232 25.4474 26.3739 25.6842L21.7202 30.1053Z" fill="#24324A"/>
<path d="M31.1933 29.3158C31.4426 29.5526 31.4426 29.9474 31.1933 30.1842C30.944 30.421 30.5285 30.421 30.2792 30.1842L25.5424 25.6842C25.2931 25.4474 25.2931 25.0527 25.5424 24.8158C25.7917 24.579 26.2073 24.579 26.4566 24.8158L31.1933 29.3158Z" fill="#24324A"/>
<path d="M32.4406 24.6578C32.773 24.6578 33.1054 24.8947 33.1054 25.2894C33.1054 25.6052 32.8561 25.921 32.4406 25.921H25.9588C25.6264 25.921 25.2939 25.6841 25.2939 25.2894C25.2939 24.9736 25.5432 24.6578 25.9588 24.6578H32.4406Z" fill="#24324A"/>
<path d="M25.377 19.0526C25.377 18.7368 25.6263 18.421 26.0418 18.421C26.3742 18.421 26.7066 18.6579 26.7066 19.0526V25.2105C26.7066 25.5262 26.4573 25.842 26.0418 25.842C25.7094 25.842 25.377 25.6052 25.377 25.2105V19.0526Z" fill="#24324A"/>
<path fill-rule="evenodd" clip-rule="evenodd" d="M25.9582 21.7368C27.9526 21.7368 29.6147 23.3158 29.6147 25.2105C29.6147 27.1052 27.9526 28.6841 25.9582 28.6841C23.9638 28.6841 22.3018 27.1052 22.3018 25.2105C22.3018 23.3158 23.9638 21.7368 25.9582 21.7368Z" fill="#FFC300"/>
<path d="M25.958 21.1052C27.1214 21.1052 28.2017 21.5789 29.0327 22.2894C29.7806 23 30.2792 24.0263 30.2792 25.2105C30.2792 26.3157 29.7806 27.342 29.0327 28.1315C28.2848 28.842 27.2045 29.3157 25.958 29.3157C24.7946 29.3157 23.7142 28.842 22.8832 28.1315C22.1353 27.421 21.6367 26.3947 21.6367 25.2105C21.6367 24.1052 22.1353 23.0789 22.8832 22.2894C23.7142 21.5789 24.7946 21.1052 25.958 21.1052ZM28.1186 23.2368C27.5369 22.6842 26.789 22.3684 25.958 22.3684C25.127 22.3684 24.379 22.6842 23.7973 23.2368C23.2156 23.7894 22.8832 24.4999 22.8832 25.2894C22.8832 26.0789 23.2156 26.7894 23.7973 27.342C24.379 27.8947 25.127 28.2105 25.958 28.2105C26.789 28.2105 27.5369 27.8947 28.1186 27.342C28.7003 26.7894 29.0327 26.0789 29.0327 25.2894C29.0327 24.421 28.7003 23.7105 28.1186 23.2368Z" fill="#24324A"/>
</svg>
