<svg width="272" height="152" viewBox="0 0 272 152" fill="none" xmlns="http://www.w3.org/2000/svg">
<g opacity="0.5">
<g opacity="0.5">
<path d="M136.261 102.304C84.9322 102.304 40.1838 91.7022 16.6369 75.9999C8.99776 70.9057 3.59006 65.2748 0.913086 59.2949V63.3662V101.348C0.913086 107.739 4.348 114.054 11.0583 120.024C17.7667 125.992 27.5828 131.455 39.8766 136.081C64.4501 145.328 98.5267 151.087 136.261 151.087C173.995 151.087 208.072 145.328 232.645 136.081C244.939 131.455 254.755 125.992 261.464 120.024C268.174 114.054 271.609 107.739 271.609 101.348V59.2949C268.932 65.2748 263.524 70.9057 255.885 75.9999C241.998 85.2607 220.736 92.7475 195.098 97.3316C177.266 100.52 157.317 102.304 136.261 102.304Z" fill="white"/>
<path d="M136.261 102.304C84.9322 102.304 40.1838 91.7022 16.6369 75.9999C8.99776 70.9057 3.59006 65.2748 0.913086 59.2949V63.3662V101.348C0.913086 107.739 4.348 114.054 11.0583 120.024C17.7667 125.992 27.5828 131.455 39.8766 136.081C64.4501 145.328 98.5267 151.087 136.261 151.087C173.995 151.087 208.072 145.328 232.645 136.081C244.939 131.455 254.755 125.992 261.464 120.024C268.174 114.054 271.609 107.739 271.609 101.348V59.2949C268.932 65.2748 263.524 70.9057 255.885 75.9999C241.998 85.2607 220.736 92.7475 195.098 97.3316C177.266 100.52 157.317 102.304 136.261 102.304Z" fill="#24324A" fill-opacity="0.15"/>
<path d="M78.7005 64.2832C92.0748 57.6872 112.956 53.5217 136.261 53.5217C159.566 53.5217 180.447 57.6872 193.821 64.2832C194.777 64.7547 195.124 64.9472 195.855 65.3427L195.832 65.3555L197.857 66.384C202.028 63.8563 205.289 60.9787 207.277 57.783C208.658 55.5619 209.435 53.1675 209.435 50.6521C209.435 46.2123 207.034 42.2105 203.192 38.7971C199.349 35.3819 193.897 32.3938 187.323 29.9232C174.162 24.9767 156.108 21.9564 136.261 21.9564C116.414 21.9564 98.3601 24.9767 85.1988 29.9232C78.6252 32.3938 73.1727 35.3819 69.3294 38.7971C65.488 42.2105 63.087 46.2123 63.087 50.6521C63.087 53.1675 63.8634 55.5619 65.2449 57.783C67.2923 61.0747 70.6913 64.0289 75.0435 66.6109C75.7022 66.0909 76.2206 65.7088 76.7293 65.3782C77.3286 64.9888 77.9144 64.6708 78.7005 64.2832Z" fill="white"/>
<path d="M78.7005 64.2832C92.0748 57.6872 112.956 53.5217 136.261 53.5217C159.566 53.5217 180.447 57.6872 193.821 64.2832C194.777 64.7547 195.124 64.9472 195.855 65.3427L195.832 65.3555L197.857 66.384C202.028 63.8563 205.289 60.9787 207.277 57.783C208.658 55.5619 209.435 53.1675 209.435 50.6521C209.435 46.2123 207.034 42.2105 203.192 38.7971C199.349 35.3819 193.897 32.3938 187.323 29.9232C174.162 24.9767 156.108 21.9564 136.261 21.9564C116.414 21.9564 98.3601 24.9767 85.1988 29.9232C78.6252 32.3938 73.1727 35.3819 69.3294 38.7971C65.488 42.2105 63.087 46.2123 63.087 50.6521C63.087 53.1675 63.8634 55.5619 65.2449 57.783C67.2923 61.0747 70.6913 64.0289 75.0435 66.6109C75.7022 66.0909 76.2206 65.7088 76.7293 65.3782C77.3286 64.9888 77.9144 64.6708 78.7005 64.2832Z" fill="#24324A" fill-opacity="0.15"/>
</g>
<path opacity="0.5" fill-rule="evenodd" clip-rule="evenodd" d="M16.6369 75.9999C40.1838 91.7022 84.9322 102.304 136.261 102.304C157.317 102.304 177.266 100.52 195.098 97.3316C220.736 92.7475 241.998 85.2607 255.885 75.9999C263.524 70.9057 268.932 65.2748 271.609 59.2949V50.6521C271.609 44.2613 268.174 37.9461 261.464 31.976C254.755 26.0076 244.939 20.5452 232.645 15.919C208.072 6.67177 173.995 0.912964 136.261 0.912964C98.5267 0.912964 64.4501 6.67177 39.8766 15.919C27.5828 20.5452 17.7667 26.0076 11.0583 31.976C4.348 37.9461 0.913086 44.2613 0.913086 50.6521V59.2949C3.59006 65.2748 8.99776 70.9057 16.6369 75.9999ZM85.1988 29.9232C98.3601 24.9767 116.414 21.9564 136.261 21.9564C156.108 21.9564 174.162 24.9767 187.323 29.9232C193.897 32.3938 199.349 35.3819 203.192 38.7971C207.034 42.2105 209.435 46.2123 209.435 50.6521C209.435 53.1675 208.658 55.5619 207.277 57.783C205.289 60.9787 202.028 63.8563 197.857 66.384C196.86 66.9881 195.811 67.5722 194.716 68.1358L193.84 68.5861L193.831 68.5814C180.457 75.1802 159.572 79.3478 136.261 79.3478C112.95 79.3478 92.0645 75.1802 78.6906 68.5814L78.6814 68.5861L77.8062 68.1358C76.8483 67.643 75.9263 67.1346 75.0435 66.6109C70.6913 64.0289 67.2923 61.0747 65.2449 57.783C63.8634 55.5619 63.087 53.1675 63.087 50.6521C63.087 46.2123 65.488 42.2105 69.3294 38.7971C73.1727 35.3819 78.6252 32.3938 85.1988 29.9232Z" fill="white"/>
</g>
<path fill-rule="evenodd" clip-rule="evenodd" d="M136.261 21.9564V53.5217C159.566 53.5217 180.447 57.6872 193.821 64.2832C194.691 64.712 195.056 64.91 195.665 65.2399L195.855 65.3427L195.832 65.3555L197.857 66.384C202.028 63.8563 205.289 60.9787 207.277 57.783C208.658 55.5619 209.435 53.1675 209.435 50.6521C209.435 46.2123 207.034 42.2105 203.192 38.7971C199.349 35.3819 193.897 32.3938 187.323 29.9232C174.162 24.9767 156.108 21.9564 136.261 21.9564Z" fill="white"/>
<path fill-rule="evenodd" clip-rule="evenodd" d="M136.261 21.9564V53.5217C159.566 53.5217 180.447 57.6872 193.821 64.2832C194.691 64.712 195.056 64.91 195.665 65.2399L195.855 65.3427L195.832 65.3555L197.857 66.384C202.028 63.8563 205.289 60.9787 207.277 57.783C208.658 55.5619 209.435 53.1675 209.435 50.6521C209.435 46.2123 207.034 42.2105 203.192 38.7971C199.349 35.3819 193.897 32.3938 187.323 29.9232C174.162 24.9767 156.108 21.9564 136.261 21.9564Z" fill="#24324A" fill-opacity="0.15"/>
<path fill-rule="evenodd" clip-rule="evenodd" d="M119 101.9C124.654 102.167 130.415 102.304 136.261 102.304C157.317 102.304 177.266 100.52 195.098 97.3316C220.736 92.7475 241.998 85.2607 255.885 75.9999C263.524 70.9057 268.932 65.2748 271.609 59.2949V101.348C271.609 107.739 268.174 114.054 261.464 120.024C254.755 125.992 244.939 131.455 232.645 136.081C208.072 145.328 173.995 151.087 136.261 151.087C130.412 151.087 124.651 150.949 119 150.68V101.9Z" fill="white"/>
<path fill-rule="evenodd" clip-rule="evenodd" d="M119 101.9C124.654 102.167 130.415 102.304 136.261 102.304C157.317 102.304 177.266 100.52 195.098 97.3316C220.736 92.7475 241.998 85.2607 255.885 75.9999C263.524 70.9057 268.932 65.2748 271.609 59.2949V101.348C271.609 107.739 268.174 114.054 261.464 120.024C254.755 125.992 244.939 131.455 232.645 136.081C208.072 145.328 173.995 151.087 136.261 151.087C130.412 151.087 124.651 150.949 119 150.68V101.9Z" fill="#24324A" fill-opacity="0.15"/>
<path fill-rule="evenodd" clip-rule="evenodd" d="M136.261 0.912964V21.9564C156.108 21.9564 174.162 24.9767 187.323 29.9232C193.897 32.3938 199.349 35.3819 203.192 38.7971C207.034 42.2105 209.435 46.2123 209.435 50.6521C209.435 53.1675 208.658 55.5619 207.277 57.783C205.289 60.9787 202.028 63.8563 197.857 66.384C196.86 66.9881 195.811 67.5722 194.716 68.1358L193.84 68.5861L193.831 68.5814C180.457 75.1802 159.572 79.3478 136.261 79.3478L119 101.9C124.654 102.167 130.415 102.304 136.261 102.304C157.317 102.304 177.266 100.52 195.098 97.3316C220.736 92.7475 241.998 85.2607 255.885 75.9999C263.524 70.9057 268.932 65.2748 271.609 59.2949V50.6521C271.609 44.2613 268.174 37.9461 261.464 31.976C254.755 26.0076 244.939 20.5452 232.645 15.919C208.072 6.67177 173.995 0.912964 136.261 0.912964Z" fill="white"/>
</svg>
