<svg width="238" height="134" viewBox="0 0 238 134" fill="none" xmlns="http://www.w3.org/2000/svg">
<path fill-rule="evenodd" clip-rule="evenodd" d="M238 88.7317C238 113.463 184.722 133.512 119 133.512C98.0908 133.512 78.4411 131.483 61.3659 127.919V83.9679C78.4411 87.5317 98.0908 89.561 119 89.561C137.255 89.561 154.55 88.0142 170.01 85.2498C192.236 81.2756 210.67 74.7848 222.709 66.7561C232.445 60.264 238 52.7664 238 44.7805V88.7317Z" fill="#7ADE38"/>
<path fill-rule="evenodd" clip-rule="evenodd" d="M117.341 0.00426053C117.893 0.00142322 118.446 0 119 0C184.722 0 238 20.0489 238 44.7805C238 52.7664 232.445 60.264 222.709 66.7561C210.67 74.7848 192.236 81.2756 170.01 85.2498C154.55 88.0142 137.255 89.561 119 89.561C98.0908 89.561 78.4411 87.5317 61.3659 83.9679L86.6585 64.5681C96.0657 66.7446 107.143 68 119 68C139.508 68 157.682 64.2445 168.919 58.4634C173.716 55.9955 177.249 53.1584 179.16 50.0868C180.22 48.3825 180.78 46.6061 180.78 44.7805C180.78 31.9567 153.12 21.561 119 21.561L117.341 0.00426053Z" fill="#7ADE38"/>
<path fill-rule="evenodd" clip-rule="evenodd" d="M119 21.561V48.9268C139.508 48.9268 157.682 52.6824 168.919 58.4634C173.716 55.9955 177.249 53.1584 179.16 50.0868C180.22 48.3825 180.78 46.6061 180.78 44.7805C180.78 31.9567 153.12 21.561 119 21.561Z" fill="#7ADE38"/>
<path fill-rule="evenodd" clip-rule="evenodd" d="M238 88.7317C238 113.463 184.722 133.512 119 133.512C98.0911 133.512 78.4414 131.483 61.3662 127.919V83.9679C78.4414 87.5317 98.0911 89.561 119 89.561C137.255 89.561 154.55 88.0142 170.01 85.2498C192.237 81.2756 210.67 74.7848 222.71 66.7561C232.445 60.264 238 52.7664 238 44.7805V88.7317Z" fill="#539D21"/>
<path fill-rule="evenodd" clip-rule="evenodd" d="M119 21.561V48.9268C139.508 48.9268 157.683 52.6824 168.92 58.4634C173.717 55.9955 177.25 53.1584 179.16 50.0868C180.22 48.3825 180.781 46.6061 180.781 44.7805C180.781 31.9567 153.121 21.561 119 21.561Z" fill="#539D21"/>
</svg>
