<svg width="271" height="151" viewBox="0 0 271 151" fill="none" xmlns="http://www.w3.org/2000/svg">
<path d="M114.277 151L0 122.134V117.187L39.1807 107.29L153.458 136.155V141.103L114.277 151Z" fill="#4C8F20"/>
<path fill-rule="evenodd" clip-rule="evenodd" d="M114.277 151L153.458 141.103V136.155L39.1807 107.29L0 117.187L114.277 146.053V151Z" fill="#AFFA7E"/>
<path d="M114.277 146.053L0 117.187L39.1807 107.29L153.458 136.155L114.277 146.053Z" fill="#64BC2A"/>
<path d="M39.1807 107.29L153.458 136.155V112.237L39.1807 85.371L39.1807 107.29Z" fill="#4C8F20"/>
<path fill-rule="evenodd" clip-rule="evenodd" d="M153.458 136.155L159.714 134.575V110.656L153.458 112.237V136.155Z" fill="#AFFA7E"/>
<path d="M153.458 136.155V141.103L159.714 139.522V134.575L153.458 136.155Z" fill="#AFFA7E"/>
<path d="M153.458 112.237L39.1807 85.371V80.4236L78.3614 70.5262L192.639 97.3921V102.339L153.458 112.237Z" fill="#4C8F20"/>
<path fill-rule="evenodd" clip-rule="evenodd" d="M153.458 112.237L192.639 102.339V97.3921L78.3614 70.5262L39.1807 80.4236L153.458 107.289L153.458 112.237Z" fill="#AFFA7E"/>
<path d="M153.458 107.289L39.1807 80.4236L78.3614 70.5262L192.639 97.3921L153.458 107.289Z" fill="#64BC2A"/>
<path d="M78.3614 70.5262L192.639 97.3921V73.4734L78.3614 48.6077V70.5262Z" fill="#4C8F20"/>
<path fill-rule="evenodd" clip-rule="evenodd" d="M192.639 97.3921L198.895 95.8116V71.8929L192.639 73.4734V97.3921Z" fill="#AFFA7E"/>
<path d="M192.639 97.3921V102.339L198.895 100.759V95.8116L192.639 97.3921Z" fill="#AFFA7E"/>
<path d="M192.639 73.4734L78.3614 48.6077V43.6605L117.542 35.7631L231.819 58.629V63.5763L192.639 73.4734Z" fill="#4C8F20"/>
<path fill-rule="evenodd" clip-rule="evenodd" d="M192.639 73.4734L231.819 63.5763V58.629L117.542 35.7631L78.3614 43.6605L192.639 68.5263V73.4734Z" fill="#AFFA7E"/>
<path d="M192.639 68.5263L78.3614 43.6605L117.542 35.7631L231.819 58.629L192.639 68.5263Z" fill="#64BC2A"/>
<path d="M117.542 35.7631L231.819 58.629V34.7103L117.542 11.8446V35.7631Z" fill="#4C8F20"/>
<path fill-rule="evenodd" clip-rule="evenodd" d="M231.819 58.629L238.076 57.0485V33.1299L231.819 34.7103V58.629Z" fill="#AFFA7E"/>
<path d="M231.819 58.629V63.5763L238.076 61.9959V57.0485L231.819 58.629Z" fill="#AFFA7E"/>
<path d="M231.819 34.7103L117.542 11.8446V6.89742L156.723 0L271 19.8659V24.8132L231.819 34.7103Z" fill="#4C8F20"/>
<path fill-rule="evenodd" clip-rule="evenodd" d="M231.819 34.7103L271 24.8132V19.8659L156.723 0L117.542 6.89742L231.819 29.7632V34.7103Z" fill="#AFFA7E"/>
<path d="M231.819 29.7632L117.542 6.89742L156.723 0L271 19.8659L231.819 29.7632Z" fill="#64BC2A"/>
<path d="M159.714 110.656V134.575V139.522L198.895 129.625L238.076 119.728L264.204 113.127C268.2 112.118 271 108.523 271 104.402V24.8132L238.076 33.1299V57.0485V61.9959L231.819 63.5763L198.895 71.8929V95.8116V100.759L192.639 102.339L159.714 110.656Z" fill="#AFFA7E"/>
</svg>
