<svg width="272" height="170" viewBox="0 0 272 170" fill="none" xmlns="http://www.w3.org/2000/svg">
<path d="M41.8818 42.5205H271V43.3629H41.8818V42.5205Z" fill="#D9D9D9"/>
<path d="M41.8818 93.0615H271V93.9039H41.8818V93.0615Z" fill="#D9D9D9"/>
<path d="M42 143.602H271.118V144.445H42V143.602Z" fill="#D9D9D9"/>
<path fill-rule="evenodd" clip-rule="evenodd" d="M259.944 1.67878C260.17 2.08545 260.024 2.59828 259.617 2.82421L240.638 13.368L221.905 22.1101L203.583 54.92L184.021 48.116L165.473 65.4274L146.52 87.3957L126.974 76.3478L109.368 86.9932L91.7291 104.212L73.5643 119.842L54.5742 132.924C54.1911 133.188 53.6666 133.092 53.4027 132.708C53.1387 132.325 53.2354 131.801 53.6185 131.537L72.534 118.506L90.5901 102.969L108.33 85.652L126.945 74.3964L146.147 85.2495L164.257 64.258L183.615 46.1909L202.801 52.8644L220.7 20.8136L239.872 11.8664L258.799 1.35152C259.206 1.12559 259.718 1.27211 259.944 1.67878Z" fill="#47A556"/>
<path opacity="0.3" d="M73.0485 119.174L54.0957 132.231H259.207V2.08789L240.254 12.6172L221.302 21.4619L203.191 53.8923L183.817 47.1535L164.864 64.8428L146.333 86.3226L126.959 75.3721L108.848 86.3226L91.159 103.591L73.0485 119.174Z" fill="url(#paint0_linear_1493_26)"/>
<path d="M56.2015 131.81C56.2015 133.205 55.0702 134.337 53.6745 134.337C52.2789 134.337 51.1475 133.205 51.1475 131.81C51.1475 130.414 52.2789 129.282 53.6745 129.282C55.0702 129.282 56.2015 130.414 56.2015 131.81Z" fill="#47A556"/>
<path fill-rule="evenodd" clip-rule="evenodd" d="M53.6745 132.652C54.1397 132.652 54.5169 132.275 54.5169 131.81C54.5169 131.344 54.1397 130.967 53.6745 130.967C53.2093 130.967 52.8322 131.344 52.8322 131.81C52.8322 132.275 53.2093 132.652 53.6745 132.652ZM53.6745 134.337C55.0702 134.337 56.2015 133.205 56.2015 131.81C56.2015 130.414 55.0702 129.282 53.6745 129.282C52.2789 129.282 51.1475 130.414 51.1475 131.81C51.1475 133.205 52.2789 134.337 53.6745 134.337Z" fill="#47A556"/>
<path d="M74.7338 120.016C74.7338 121.412 73.6024 122.543 72.2067 122.543C70.8111 122.543 69.6797 121.412 69.6797 120.016C69.6797 118.621 70.8111 117.489 72.2067 117.489C73.6024 117.489 74.7338 118.621 74.7338 120.016Z" fill="#47A556"/>
<path fill-rule="evenodd" clip-rule="evenodd" d="M72.2067 120.859C72.6719 120.859 73.0491 120.482 73.0491 120.016C73.0491 119.551 72.6719 119.174 72.2067 119.174C71.7415 119.174 71.3644 119.551 71.3644 120.016C71.3644 120.482 71.7415 120.859 72.2067 120.859ZM72.2067 122.543C73.6024 122.543 74.7338 121.412 74.7338 120.016C74.7338 118.621 73.6024 117.489 72.2067 117.489C70.8111 117.489 69.6797 118.621 69.6797 120.016C69.6797 121.412 70.8111 122.543 72.2067 122.543Z" fill="#47A556"/>
<path d="M93.265 104.012C93.265 105.408 92.1336 106.539 90.738 106.539C89.3423 106.539 88.2109 105.408 88.2109 104.012C88.2109 102.616 89.3423 101.485 90.738 101.485C92.1336 101.485 93.265 102.616 93.265 104.012Z" fill="#47A556"/>
<path fill-rule="evenodd" clip-rule="evenodd" d="M90.738 104.854C91.2032 104.854 91.5803 104.477 91.5803 104.012C91.5803 103.547 91.2032 103.17 90.738 103.17C90.2728 103.17 89.8956 103.547 89.8956 104.012C89.8956 104.477 90.2728 104.854 90.738 104.854ZM90.738 106.539C92.1336 106.539 93.265 105.408 93.265 104.012C93.265 102.616 92.1336 101.485 90.738 101.485C89.3423 101.485 88.2109 102.616 88.2109 104.012C88.2109 105.408 89.3423 106.539 90.738 106.539Z" fill="#47A556"/>
<path d="M111.797 86.3225C111.797 87.7181 110.666 88.8495 109.27 88.8495C107.875 88.8495 106.743 87.7181 106.743 86.3225C106.743 84.9268 107.875 83.7954 109.27 83.7954C110.666 83.7954 111.797 84.9268 111.797 86.3225Z" fill="#47A556"/>
<path fill-rule="evenodd" clip-rule="evenodd" d="M109.27 87.1648C109.735 87.1648 110.113 86.7877 110.113 86.3225C110.113 85.8572 109.735 85.4801 109.27 85.4801C108.805 85.4801 108.428 85.8572 108.428 86.3225C108.428 86.7877 108.805 87.1648 109.27 87.1648ZM109.27 88.8495C110.666 88.8495 111.797 87.7181 111.797 86.3225C111.797 84.9268 110.666 83.7954 109.27 83.7954C107.875 83.7954 106.743 84.9268 106.743 86.3225C106.743 87.7181 107.875 88.8495 109.27 88.8495Z" fill="#47A556"/>
<path d="M130.328 76.2143C130.328 77.6099 129.197 78.7413 127.801 78.7413C126.406 78.7413 125.274 77.6099 125.274 76.2143C125.274 74.8187 126.406 73.6873 127.801 73.6873C129.197 73.6873 130.328 74.8187 130.328 76.2143Z" fill="#47A556"/>
<path fill-rule="evenodd" clip-rule="evenodd" d="M127.801 77.0566C128.267 77.0566 128.644 76.6795 128.644 76.2143C128.644 75.7491 128.267 75.372 127.801 75.372C127.336 75.372 126.959 75.7491 126.959 76.2143C126.959 76.6795 127.336 77.0566 127.801 77.0566ZM127.801 78.7413C129.197 78.7413 130.328 77.6099 130.328 76.2143C130.328 74.8187 129.197 73.6873 127.801 73.6873C126.406 73.6873 125.274 74.8187 125.274 76.2143C125.274 77.6099 126.406 78.7413 127.801 78.7413Z" fill="#47A556"/>
<path d="M148.86 85.4802C148.86 86.8758 147.728 88.0072 146.333 88.0072C144.937 88.0072 143.806 86.8758 143.806 85.4802C143.806 84.0845 144.937 82.9531 146.333 82.9531C147.728 82.9531 148.86 84.0845 148.86 85.4802Z" fill="#47A556"/>
<path fill-rule="evenodd" clip-rule="evenodd" d="M146.333 86.3225C146.798 86.3225 147.175 85.9454 147.175 85.4802C147.175 85.015 146.798 84.6378 146.333 84.6378C145.867 84.6378 145.49 85.015 145.49 85.4802C145.49 85.9454 145.867 86.3225 146.333 86.3225ZM146.333 88.0072C147.728 88.0072 148.86 86.8758 148.86 85.4802C148.86 84.0845 147.728 82.9531 146.333 82.9531C144.937 82.9531 143.806 84.0845 143.806 85.4802C143.806 86.8758 144.937 88.0072 146.333 88.0072Z" fill="#47A556"/>
<path d="M167.392 65.2639C167.392 66.6595 166.261 67.7909 164.865 67.7909C163.469 67.7909 162.338 66.6595 162.338 65.2639C162.338 63.8682 163.469 62.7368 164.865 62.7368C166.261 62.7368 167.392 63.8682 167.392 65.2639Z" fill="#47A556"/>
<path fill-rule="evenodd" clip-rule="evenodd" d="M164.865 66.1062C165.33 66.1062 165.707 65.7291 165.707 65.2639C165.707 64.7986 165.33 64.4215 164.865 64.4215C164.4 64.4215 164.023 64.7986 164.023 65.2639C164.023 65.7291 164.4 66.1062 164.865 66.1062ZM164.865 67.7909C166.261 67.7909 167.392 66.6595 167.392 65.2639C167.392 63.8682 166.261 62.7368 164.865 62.7368C163.469 62.7368 162.338 63.8682 162.338 65.2639C162.338 66.6595 163.469 67.7909 164.865 67.7909Z" fill="#47A556"/>
<path d="M185.923 48.4169C185.923 49.8126 184.792 50.944 183.396 50.944C182.001 50.944 180.869 49.8126 180.869 48.4169C180.869 47.0213 182.001 45.8899 183.396 45.8899C184.792 45.8899 185.923 47.0213 185.923 48.4169Z" fill="#47A556"/>
<path fill-rule="evenodd" clip-rule="evenodd" d="M183.396 49.2593C183.861 49.2593 184.239 48.8822 184.239 48.4169C184.239 47.9517 183.861 47.5746 183.396 47.5746C182.931 47.5746 182.554 47.9517 182.554 48.4169C182.554 48.8822 182.931 49.2593 183.396 49.2593ZM183.396 50.944C184.792 50.944 185.923 49.8126 185.923 48.4169C185.923 47.0213 184.792 45.8899 183.396 45.8899C182.001 45.8899 180.869 47.0213 180.869 48.4169C180.869 49.8126 182.001 50.944 183.396 50.944Z" fill="#47A556"/>
<path d="M204.454 53.4709C204.454 54.8665 203.323 55.9979 201.927 55.9979C200.532 55.9979 199.4 54.8665 199.4 53.4709C199.4 52.0752 200.532 50.9438 201.927 50.9438C203.323 50.9438 204.454 52.0752 204.454 53.4709Z" fill="#47A556"/>
<path fill-rule="evenodd" clip-rule="evenodd" d="M201.927 54.3132C202.393 54.3132 202.77 53.9361 202.77 53.4709C202.77 53.0057 202.393 52.6285 201.927 52.6285C201.462 52.6285 201.085 53.0057 201.085 53.4709C201.085 53.9361 201.462 54.3132 201.927 54.3132ZM201.927 55.9979C203.323 55.9979 204.454 54.8665 204.454 53.4709C204.454 52.0752 203.323 50.9438 201.927 50.9438C200.532 50.9438 199.4 52.0752 199.4 53.4709C199.4 54.8665 200.532 55.9979 201.927 55.9979Z" fill="#47A556"/>
<path d="M222.987 22.3044C222.987 23.7 221.855 24.8314 220.46 24.8314C219.064 24.8314 217.933 23.7 217.933 22.3044C217.933 20.9087 219.064 19.7773 220.46 19.7773C221.855 19.7773 222.987 20.9087 222.987 22.3044Z" fill="#47A556"/>
<path fill-rule="evenodd" clip-rule="evenodd" d="M220.46 23.1467C220.925 23.1467 221.302 22.7696 221.302 22.3044C221.302 21.8392 220.925 21.462 220.46 21.462C219.994 21.462 219.617 21.8392 219.617 22.3044C219.617 22.7696 219.994 23.1467 220.46 23.1467ZM220.46 24.8314C221.855 24.8314 222.987 23.7 222.987 22.3044C222.987 20.9087 221.855 19.7773 220.46 19.7773C219.064 19.7773 217.933 20.9087 217.933 22.3044C217.933 23.7 219.064 24.8314 220.46 24.8314Z" fill="#47A556"/>
<path d="M241.518 13.0383C241.518 14.4339 240.387 15.5653 238.991 15.5653C237.595 15.5653 236.464 14.4339 236.464 13.0383C236.464 11.6426 237.595 10.5112 238.991 10.5112C240.387 10.5112 241.518 11.6426 241.518 13.0383Z" fill="#47A556"/>
<path fill-rule="evenodd" clip-rule="evenodd" d="M238.991 13.8806C239.456 13.8806 239.833 13.5035 239.833 13.0383C239.833 12.5731 239.456 12.1959 238.991 12.1959C238.526 12.1959 238.149 12.5731 238.149 13.0383C238.149 13.5035 238.526 13.8806 238.991 13.8806ZM238.991 15.5653C240.387 15.5653 241.518 14.4339 241.518 13.0383C241.518 11.6426 240.387 10.5112 238.991 10.5112C237.595 10.5112 236.464 11.6426 236.464 13.0383C236.464 14.4339 237.595 15.5653 238.991 15.5653Z" fill="#47A556"/>
<path d="M260.05 2.93012C260.05 4.32577 258.919 5.45716 257.523 5.45716C256.127 5.45716 254.996 4.32577 254.996 2.93012C254.996 1.53447 256.127 0.403076 257.523 0.403076C258.919 0.403076 260.05 1.53447 260.05 2.93012Z" fill="#47A556"/>
<path fill-rule="evenodd" clip-rule="evenodd" d="M257.523 3.77247C257.988 3.77247 258.365 3.39533 258.365 2.93012C258.365 2.4649 257.988 2.08777 257.523 2.08777C257.058 2.08777 256.681 2.4649 256.681 2.93012C256.681 3.39533 257.058 3.77247 257.523 3.77247ZM257.523 5.45716C258.919 5.45716 260.05 4.32577 260.05 2.93012C260.05 1.53447 258.919 0.403076 257.523 0.403076C256.127 0.403076 254.996 1.53447 254.996 2.93012C254.996 4.32577 256.127 5.45716 257.523 5.45716Z" fill="#47A556"/>
<path d="M3.00337 90.892L2.49937 90.112L4.51537 88.552H5.18737V97H4.22737V89.932L3.00337 90.892ZM12.5542 92.8C12.5542 94.16 12.3262 95.216 11.8702 95.968C11.4222 96.72 10.7502 97.096 9.85425 97.096C8.95025 97.096 8.26225 96.712 7.79025 95.944C7.33425 95.168 7.10625 94.12 7.10625 92.8C7.10625 91.488 7.33025 90.444 7.77825 89.668C8.23425 88.892 8.91825 88.504 9.83025 88.504C10.7502 88.504 11.4302 88.892 11.8702 89.668C12.3262 90.436 12.5542 91.48 12.5542 92.8ZM9.85425 96.196C10.4382 96.196 10.8622 95.916 11.1262 95.356C11.3982 94.796 11.5342 93.944 11.5342 92.8C11.5342 91.664 11.3942 90.816 11.1142 90.256C10.8422 89.688 10.4142 89.404 9.83025 89.404C8.69425 89.404 8.12625 90.536 8.12625 92.8C8.12625 95.064 8.70225 96.196 9.85425 96.196ZM19.1477 92.8C19.1477 94.16 18.9197 95.216 18.4637 95.968C18.0157 96.72 17.3437 97.096 16.4477 97.096C15.5437 97.096 14.8557 96.712 14.3837 95.944C13.9277 95.168 13.6997 94.12 13.6997 92.8C13.6997 91.488 13.9237 90.444 14.3717 89.668C14.8277 88.892 15.5117 88.504 16.4237 88.504C17.3437 88.504 18.0237 88.892 18.4637 89.668C18.9197 90.436 19.1477 91.48 19.1477 92.8ZM16.4477 96.196C17.0317 96.196 17.4557 95.916 17.7197 95.356C17.9917 94.796 18.1277 93.944 18.1277 92.8C18.1277 91.664 17.9877 90.816 17.7077 90.256C17.4357 89.688 17.0077 89.404 16.4237 89.404C15.2877 89.404 14.7197 90.536 14.7197 92.8C14.7197 95.064 15.2957 96.196 16.4477 96.196ZM25.7411 92.8C25.7411 94.16 25.5131 95.216 25.0571 95.968C24.6091 96.72 23.9371 97.096 23.0411 97.096C22.1371 97.096 21.4491 96.712 20.9771 95.944C20.5211 95.168 20.2931 94.12 20.2931 92.8C20.2931 91.488 20.5171 90.444 20.9651 89.668C21.4211 88.892 22.1051 88.504 23.0171 88.504C23.9371 88.504 24.6171 88.892 25.0571 89.668C25.5131 90.436 25.7411 91.48 25.7411 92.8ZM23.0411 96.196C23.6251 96.196 24.0491 95.916 24.3131 95.356C24.5851 94.796 24.7211 93.944 24.7211 92.8C24.7211 91.664 24.5811 90.816 24.3011 90.256C24.0291 89.688 23.6011 89.404 23.0171 89.404C21.8811 89.404 21.3131 90.536 21.3131 92.8C21.3131 95.064 21.8891 96.196 23.0411 96.196ZM32.3346 92.8C32.3346 94.16 32.1066 95.216 31.6506 95.968C31.2026 96.72 30.5306 97.096 29.6346 97.096C28.7306 97.096 28.0426 96.712 27.5706 95.944C27.1146 95.168 26.8866 94.12 26.8866 92.8C26.8866 91.488 27.1106 90.444 27.5586 89.668C28.0146 88.892 28.6986 88.504 29.6106 88.504C30.5306 88.504 31.2106 88.892 31.6506 89.668C32.1066 90.436 32.3346 91.48 32.3346 92.8ZM29.6346 96.196C30.2186 96.196 30.6426 95.916 30.9066 95.356C31.1786 94.796 31.3146 93.944 31.3146 92.8C31.3146 91.664 31.1746 90.816 30.8946 90.256C30.6226 89.688 30.1946 89.404 29.6106 89.404C28.4746 89.404 27.9066 90.536 27.9066 92.8C27.9066 95.064 28.4826 96.196 29.6346 96.196Z" fill="#24324A"/>
<path d="M46.3346 160.8C46.3346 162.16 46.1066 163.216 45.6506 163.968C45.2026 164.72 44.5306 165.096 43.6346 165.096C42.7306 165.096 42.0426 164.712 41.5706 163.944C41.1146 163.168 40.8866 162.12 40.8866 160.8C40.8866 159.488 41.1106 158.444 41.5586 157.668C42.0146 156.892 42.6986 156.504 43.6106 156.504C44.5306 156.504 45.2106 156.892 45.6506 157.668C46.1066 158.436 46.3346 159.48 46.3346 160.8ZM43.6346 164.196C44.2186 164.196 44.6426 163.916 44.9066 163.356C45.1786 162.796 45.3146 161.944 45.3146 160.8C45.3146 159.664 45.1746 158.816 44.8946 158.256C44.6226 157.688 44.1946 157.404 43.6106 157.404C42.4746 157.404 41.9066 158.536 41.9066 160.8C41.9066 163.064 42.4826 164.196 43.6346 164.196Z" fill="#24324A"/>
<path d="M267.377 158.892L266.873 158.112L268.889 156.552H269.561V165H268.601V157.932L267.377 158.892Z" fill="#24324A"/>
<path d="M32.3346 141.8C32.3346 143.16 32.1066 144.216 31.6506 144.968C31.2026 145.72 30.5306 146.096 29.6346 146.096C28.7306 146.096 28.0426 145.712 27.5706 144.944C27.1146 144.168 26.8866 143.12 26.8866 141.8C26.8866 140.488 27.1106 139.444 27.5586 138.668C28.0146 137.892 28.6986 137.504 29.6106 137.504C30.5306 137.504 31.2106 137.892 31.6506 138.668C32.1066 139.436 32.3346 140.48 32.3346 141.8ZM29.6346 145.196C30.2186 145.196 30.6426 144.916 30.9066 144.356C31.1786 143.796 31.3146 142.944 31.3146 141.8C31.3146 140.664 31.1746 139.816 30.8946 139.256C30.6226 138.688 30.1946 138.404 29.6106 138.404C28.4746 138.404 27.9066 139.536 27.9066 141.8C27.9066 144.064 28.4826 145.196 29.6346 145.196Z" fill="#24324A"/>
<path d="M5.96213 47H0.838126V46.22C1.92613 45.156 2.72613 44.308 3.23813 43.676C4.14213 42.54 4.59413 41.588 4.59413 40.82C4.59413 40.42 4.47013 40.096 4.22213 39.848C3.98213 39.592 3.65013 39.464 3.22613 39.464C2.85813 39.464 2.53413 39.584 2.25413 39.824C1.98213 40.056 1.80613 40.384 1.72613 40.808L0.910126 40.472C1.00613 39.872 1.27413 39.396 1.71413 39.044C2.16213 38.684 2.69413 38.504 3.31013 38.504C4.04613 38.504 4.61413 38.716 5.01413 39.14C5.41413 39.564 5.61413 40.06 5.61413 40.628C5.61413 41.708 5.09813 42.856 4.06613 44.072C3.60213 44.616 3.23013 45.024 2.95013 45.296C2.71013 45.536 2.42213 45.804 2.08613 46.1H5.96213V47ZM12.5543 42.8C12.5543 44.16 12.3263 45.216 11.8703 45.968C11.4223 46.72 10.7503 47.096 9.85425 47.096C8.95025 47.096 8.26225 46.712 7.79025 45.944C7.33425 45.168 7.10625 44.12 7.10625 42.8C7.10625 41.488 7.33025 40.444 7.77825 39.668C8.23425 38.892 8.91825 38.504 9.83025 38.504C10.7503 38.504 11.4303 38.892 11.8703 39.668C12.3263 40.436 12.5543 41.48 12.5543 42.8ZM9.85425 46.196C10.4383 46.196 10.8623 45.916 11.1263 45.356C11.3983 44.796 11.5343 43.944 11.5343 42.8C11.5343 41.664 11.3943 40.816 11.1143 40.256C10.8423 39.688 10.4143 39.404 9.83025 39.404C8.69425 39.404 8.12625 40.536 8.12625 42.8C8.12625 45.064 8.70225 46.196 9.85425 46.196ZM19.1477 42.8C19.1477 44.16 18.9197 45.216 18.4637 45.968C18.0157 46.72 17.3437 47.096 16.4477 47.096C15.5437 47.096 14.8557 46.712 14.3837 45.944C13.9277 45.168 13.6997 44.12 13.6997 42.8C13.6997 41.488 13.9237 40.444 14.3717 39.668C14.8277 38.892 15.5117 38.504 16.4237 38.504C17.3437 38.504 18.0237 38.892 18.4637 39.668C18.9197 40.436 19.1477 41.48 19.1477 42.8ZM16.4477 46.196C17.0317 46.196 17.4557 45.916 17.7197 45.356C17.9917 44.796 18.1277 43.944 18.1277 42.8C18.1277 41.664 17.9877 40.816 17.7077 40.256C17.4357 39.688 17.0077 39.404 16.4237 39.404C15.2877 39.404 14.7197 40.536 14.7197 42.8C14.7197 45.064 15.2957 46.196 16.4477 46.196ZM25.7411 42.8C25.7411 44.16 25.5131 45.216 25.0571 45.968C24.6091 46.72 23.9371 47.096 23.0411 47.096C22.1371 47.096 21.4491 46.712 20.9771 45.944C20.5211 45.168 20.2931 44.12 20.2931 42.8C20.2931 41.488 20.5171 40.444 20.9651 39.668C21.4211 38.892 22.1051 38.504 23.0171 38.504C23.9371 38.504 24.6171 38.892 25.0571 39.668C25.5131 40.436 25.7411 41.48 25.7411 42.8ZM23.0411 46.196C23.6251 46.196 24.0491 45.916 24.3131 45.356C24.5851 44.796 24.7211 43.944 24.7211 42.8C24.7211 41.664 24.5811 40.816 24.3011 40.256C24.0291 39.688 23.6011 39.404 23.0171 39.404C21.8811 39.404 21.3131 40.536 21.3131 42.8C21.3131 45.064 21.8891 46.196 23.0411 46.196ZM32.3346 42.8C32.3346 44.16 32.1066 45.216 31.6506 45.968C31.2026 46.72 30.5306 47.096 29.6346 47.096C28.7306 47.096 28.0426 46.712 27.5706 45.944C27.1146 45.168 26.8866 44.12 26.8866 42.8C26.8866 41.488 27.1106 40.444 27.5586 39.668C28.0146 38.892 28.6986 38.504 29.6106 38.504C30.5306 38.504 31.2106 38.892 31.6506 39.668C32.1066 40.436 32.3346 41.48 32.3346 42.8ZM29.6346 46.196C30.2186 46.196 30.6426 45.916 30.9066 45.356C31.1786 44.796 31.3146 43.944 31.3146 42.8C31.3146 41.664 31.1746 40.816 30.8946 40.256C30.6226 39.688 30.1946 39.404 29.6106 39.404C28.4746 39.404 27.9066 40.536 27.9066 42.8C27.9066 45.064 28.4826 46.196 29.6346 46.196Z" fill="#24324A"/>
<defs>
<linearGradient id="paint0_linear_1493_26" x1="156.652" y1="2.08789" x2="156.652" y2="132.231" gradientUnits="userSpaceOnUse">
<stop stop-color="#47A556"/>
<stop offset="1" stop-color="#47A556" stop-opacity="0"/>
</linearGradient>
</defs>
</svg>
