<svg width="140" height="79" viewBox="0 0 140 79" fill="none" xmlns="http://www.w3.org/2000/svg">
<g opacity="0.5">
<path d="M70 52.6831C43.8234 52.6831 21.0028 47.2763 8.9944 39.2685C5.09859 36.6706 2.34078 33.7989 0.975586 30.7493V32.8256V52.1953C0.975586 55.4545 2.72731 58.6751 6.14941 61.7197C9.57058 64.7635 14.5766 67.5492 20.8461 69.9085C33.3781 74.6243 50.7564 77.5612 70 77.5612C89.2436 77.5612 106.622 74.6243 119.154 69.9085C125.423 67.5492 130.429 64.7635 133.851 61.7197C137.273 58.6751 139.024 55.4545 139.024 52.1953V30.7493C137.659 33.7989 134.901 36.6706 131.006 39.2685C123.923 43.9913 113.08 47.8094 100.006 50.1472C90.9118 51.7733 80.7383 52.6831 70 52.6831Z" fill="white"/>
<path d="M70 52.6831C43.8234 52.6831 21.0028 47.2763 8.9944 39.2685C5.09859 36.6706 2.34078 33.7989 0.975586 30.7493V32.8256V52.1953C0.975586 55.4545 2.72731 58.6751 6.14941 61.7197C9.57058 64.7635 14.5766 67.5492 20.8461 69.9085C33.3781 74.6243 50.7564 77.5612 70 77.5612C89.2436 77.5612 106.622 74.6243 119.154 69.9085C125.423 67.5492 130.429 64.7635 133.851 61.7197C137.273 58.6751 139.024 55.4545 139.024 52.1953V30.7493C137.659 33.7989 134.901 36.6706 131.006 39.2685C123.923 43.9913 113.08 47.8094 100.006 50.1472C90.9118 51.7733 80.7383 52.6831 70 52.6831Z" fill="#24324A" fill-opacity="0.15"/>
<path d="M40.6454 33.2932C47.4661 29.9294 58.115 27.8051 70 27.8051C81.885 27.8051 92.5339 29.9294 99.3545 33.2932C99.8421 33.5337 100.019 33.6319 100.391 33.8336L100.38 33.8401L101.412 34.3646C103.54 33.0755 105.203 31.608 106.217 29.9783C106.921 28.8456 107.317 27.6245 107.317 26.3417C107.317 24.0775 106.093 22.0366 104.134 20.2959C102.174 18.5542 99.3929 17.0304 96.0405 15.7704C89.3286 13.2478 80.1216 11.7075 70 11.7075C59.8783 11.7075 50.6714 13.2478 43.9594 15.7704C40.6071 17.0304 37.8264 18.5542 35.8664 20.2959C33.9073 22.0366 32.6829 24.0775 32.6829 26.3417C32.6829 27.6245 33.0788 28.8456 33.7834 29.9783C34.8275 31.657 36.561 33.1636 38.7805 34.4803C39.1164 34.2151 39.3808 34.0202 39.6402 33.8517C39.9458 33.6531 40.2445 33.4909 40.6454 33.2932Z" fill="white"/>
<path d="M40.6454 33.2932C47.4661 29.9294 58.115 27.8051 70 27.8051C81.885 27.8051 92.5339 29.9294 99.3545 33.2932C99.8421 33.5337 100.019 33.6319 100.391 33.8336L100.38 33.8401L101.412 34.3646C103.54 33.0755 105.203 31.608 106.217 29.9783C106.921 28.8456 107.317 27.6245 107.317 26.3417C107.317 24.0775 106.093 22.0366 104.134 20.2959C102.174 18.5542 99.3929 17.0304 96.0405 15.7704C89.3286 13.2478 80.1216 11.7075 70 11.7075C59.8783 11.7075 50.6714 13.2478 43.9594 15.7704C40.6071 17.0304 37.8264 18.5542 35.8664 20.2959C33.9073 22.0366 32.6829 24.0775 32.6829 26.3417C32.6829 27.6245 33.0788 28.8456 33.7834 29.9783C34.8275 31.657 36.561 33.1636 38.7805 34.4803C39.1164 34.2151 39.3808 34.0202 39.6402 33.8517C39.9458 33.6531 40.2445 33.4909 40.6454 33.2932Z" fill="#24324A" fill-opacity="0.15"/>
<path fill-rule="evenodd" clip-rule="evenodd" d="M8.9944 39.2685C21.0028 47.2763 43.8234 52.6831 70 52.6831C80.7383 52.6831 90.9118 51.7733 100.006 50.1472C113.08 47.8094 123.923 43.9913 131.006 39.2685C134.901 36.6706 137.659 33.7989 139.024 30.7493V26.3417C139.024 23.0825 137.273 19.8619 133.851 16.8173C130.429 13.7735 125.423 10.9878 119.154 8.62855C106.622 3.91269 89.2436 0.97583 70 0.97583C50.7564 0.97583 33.3781 3.91269 20.8461 8.62855C14.5766 10.9878 9.57058 13.7735 6.14941 16.8173C2.72731 19.8619 0.975586 23.0825 0.975586 26.3417V30.7493C2.34078 33.7989 5.09859 36.6706 8.9944 39.2685ZM43.9594 15.7704C50.6714 13.2478 59.8783 11.7075 70 11.7075C80.1216 11.7075 89.3286 13.2478 96.0405 15.7704C99.3929 17.0304 102.174 18.5542 104.134 20.2959C106.093 22.0366 107.317 24.0775 107.317 26.3417C107.317 27.6245 106.921 28.8456 106.217 29.9783C105.203 31.608 103.54 33.0755 101.412 34.3646C100.904 34.6727 100.369 34.9705 99.8106 35.258L99.3643 35.4876L99.3596 35.4852C92.5392 38.8505 81.8879 40.9758 70 40.9758C58.112 40.9758 47.4608 38.8505 40.6404 35.4852L40.6357 35.4876L40.1894 35.258C39.7009 35.0067 39.2307 34.7474 38.7805 34.4803C36.561 33.1636 34.8275 31.657 33.7834 29.9783C33.0788 28.8456 32.6829 27.6245 32.6829 26.3417C32.6829 24.0775 33.9073 22.0366 35.8664 20.2959C37.8264 18.5542 40.6071 17.0304 43.9594 15.7704Z" fill="white"/>
</g>
<path fill-rule="evenodd" clip-rule="evenodd" d="M140 52.1951C140 66.7431 108.66 78.5366 70 78.5366C57.7005 78.5366 46.1418 77.3429 36.0976 75.2465V49.3929C46.1418 51.4892 57.7005 52.6829 70 52.6829C80.7383 52.6829 90.9118 51.773 100.006 50.147C113.08 47.8092 123.923 43.9911 131.006 39.2683C136.732 35.4494 140 31.039 140 26.3415V52.1951Z" fill="#7ADE38"/>
<path fill-rule="evenodd" clip-rule="evenodd" d="M69.0244 0.00250619C69.3491 0.000837189 69.6743 0 70 0C108.66 0 140 11.7935 140 26.3415C140 31.039 136.732 35.4494 131.006 39.2683C123.923 43.9911 113.08 47.8092 100.006 50.147C90.9118 51.773 80.7383 52.6829 70 52.6829C57.7005 52.6829 46.1418 51.4892 36.0976 49.3929L50.9756 37.9812C56.5093 39.2615 63.0252 40 70 40C82.0635 40 92.7542 37.7909 99.3643 34.3902C102.186 32.9385 104.264 31.2696 105.388 29.4628C106.012 28.4603 106.341 27.4154 106.341 26.3415C106.341 18.7981 90.0708 12.6829 70 12.6829L69.0244 0.00250619Z" fill="#7ADE38"/>
<path fill-rule="evenodd" clip-rule="evenodd" d="M70 12.6829V28.7805C82.0635 28.7805 92.7542 30.9896 99.3643 34.3902C102.186 32.9385 104.264 31.2696 105.388 29.4628C106.012 28.4603 106.341 27.4154 106.341 26.3415C106.341 18.7981 90.0708 12.6829 70 12.6829Z" fill="#7ADE38"/>
<path fill-rule="evenodd" clip-rule="evenodd" d="M140 52.1951C140 66.7431 108.66 78.5366 70.0001 78.5366C57.7005 78.5366 46.1419 77.3429 36.0977 75.2465V49.3929C46.1419 51.4892 57.7005 52.6829 70.0001 52.6829C80.7384 52.6829 90.9119 51.773 100.006 50.147C113.08 47.8092 123.923 43.9911 131.006 39.2683C136.732 35.4494 140 31.039 140 26.3415V52.1951Z" fill="#539D21"/>
<path fill-rule="evenodd" clip-rule="evenodd" d="M70.0001 12.6829V28.7805C82.0636 28.7805 92.7543 30.9896 99.3644 34.3902C102.186 32.9385 104.264 31.2696 105.388 29.4628C106.012 28.4603 106.342 27.4154 106.342 26.3415C106.342 18.7981 90.0709 12.6829 70.0001 12.6829Z" fill="#539D21"/>
</svg>
