<svg width="223" height="132" viewBox="0 0 223 132" fill="none" xmlns="http://www.w3.org/2000/svg">
<path d="M177.462 43.6111H171.928V31.2622C171.842 31.211 171.757 31.1683 171.672 31.117H170.023V31.1085H160.424V31.117H160.416V32.9702H160.424V34.2427H160.416V36.0959H160.424V37.3769H160.416V39.23H160.424V39.2386L159.408 39.23V29.5371H148.639V30.7669H148.631V32.6115H148.639V34.2341H148.631V36.0873H148.639V37.3683H148.631V39.2215H148.639V40.4H148.631V42.2532H148.639V43.4317H148.631V45.2849H148.639V46.3951H148.631V47.5737H148.639V47.7018H136.504V58.2914H131.969V60.9559H127.076V56.3613H118.279V43.8758H116.904V42.629H116.708V43.8758H115.564H109.859V42.6375H109.662V43.8758H108.176V50.1527L100.789 50.1186V53.9958H94.5294V30.0495H75.972V55.7038H70.3014V41.8262H51.7354V131.565L178.555 131.078L177.462 43.6111Z" fill="#DFEBFA"/>
<path d="M51.7615 58.1719V66.5753V79.095V130.95H35.9453V79.095V66.5753V58.1719H51.7615Z" fill="#DFEBFA"/>
<path d="M94.5209 30.0496H80.7373V34.1061H94.5209V30.0496Z" fill="#EEF6FF"/>
<path d="M94.5209 36.2925H80.7373V40.349H94.5209V36.2925Z" fill="#EEF6FF"/>
<path d="M94.5209 42.6716H80.7373V46.7281H94.5209V42.6716Z" fill="#EEF6FF"/>
<path d="M94.5209 49.1536H80.7373V53.2101H94.5209V49.1536Z" fill="#EEF6FF"/>
<path d="M94.5209 55.405H80.7373V59.4615H94.5209V55.405Z" fill="#EEF6FF"/>
<path d="M155.531 29.5369H148.64V32.0049H155.531V29.5369Z" fill="#EEF6FF"/>
<path d="M155.531 33.3372H148.64V35.8052H155.531V33.3372Z" fill="#EEF6FF"/>
<path d="M155.531 37.2061H148.64V39.6741H155.531V37.2061Z" fill="#EEF6FF"/>
<path d="M155.531 41.1431H148.64V43.6111H155.531V41.1431Z" fill="#EEF6FF"/>
<path d="M155.531 44.9346H148.64V47.4026H155.531V44.9346Z" fill="#EEF6FF"/>
<path d="M155.531 49.1194H148.64V51.5875H155.531V49.1194Z" fill="#EEF6FF"/>
<path d="M155.531 52.9114H148.64V55.3794H155.531V52.9114Z" fill="#EEF6FF"/>
<path d="M155.531 56.7795H148.64V59.2476H155.531V56.7795Z" fill="#EEF6FF"/>
<path d="M155.531 60.7166H148.64V63.1846H155.531V60.7166Z" fill="#EEF6FF"/>
<path d="M155.531 64.5168H148.64V66.9849H155.531V64.5168Z" fill="#EEF6FF"/>
<path d="M167.333 31.1594H160.441V33.6275H167.333V31.1594Z" fill="#EEF6FF"/>
<path d="M167.333 34.9512H160.441V37.4192H167.333V34.9512Z" fill="#EEF6FF"/>
<path d="M167.333 38.8198H160.441V41.2879H167.333V38.8198Z" fill="#EEF6FF"/>
<path d="M167.333 42.7568H160.441V45.2249H167.333V42.7568Z" fill="#EEF6FF"/>
<path d="M167.333 46.5571H160.441V49.0252H167.333V46.5571Z" fill="#EEF6FF"/>
<path d="M167.333 50.5112H160.441V52.9793H167.333V50.5112Z" fill="#EEF6FF"/>
<path d="M167.333 54.303H160.441V56.771H167.333V54.303Z" fill="#EEF6FF"/>
<path d="M167.333 58.1802H160.441V60.6482H167.333V58.1802Z" fill="#EEF6FF"/>
<path d="M167.333 62.1172H160.441V64.5853H167.333V62.1172Z" fill="#EEF6FF"/>
<path d="M167.333 65.9092H160.441V68.3772H167.333V65.9092Z" fill="#EEF6FF"/>
<path d="M167.333 70.2642H160.441V72.7322H167.333V70.2642Z" fill="#EEF6FF"/>
<path d="M167.333 74.0562H160.441V76.5242H167.333V74.0562Z" fill="#EEF6FF"/>
<path d="M167.333 77.9331H160.441V80.4012H167.333V77.9331Z" fill="#EEF6FF"/>
<path d="M167.333 81.8701H160.441V84.3382H167.333V81.8701Z" fill="#EEF6FF"/>
<path d="M167.333 85.6619H160.441V88.1299H167.333V85.6619Z" fill="#EEF6FF"/>
<path d="M139.1 42.7571H138.759V47.7872H139.1V42.7571Z" fill="#DFEBFA"/>
<path d="M145.053 38.436H144.523V48.1717H145.053V38.436Z" fill="#DFEBFA"/>
<path d="M77.4242 28.2561H77.2021V30.0495H77.4242V28.2561Z" fill="#DFEBFA"/>
<path d="M82.1215 28.2561H81.8994V30.0495H82.1215V28.2561Z" fill="#DFEBFA"/>
<path d="M92.89 28.2561H92.668V30.0495H92.89V28.2561Z" fill="#DFEBFA"/>
<path d="M149.878 28.1536H149.707V29.5371H149.878V28.1536Z" fill="#DFEBFA"/>
<path d="M157.966 28.1536H157.795V29.5371H157.966V28.1536Z" fill="#DFEBFA"/>
<path d="M88.68 28.2561H88.458V30.0495H88.68V28.2561Z" fill="#DFEBFA"/>
<path d="M166.685 109.591C164.678 110.351 151.381 111.752 151.928 113.434C152.474 115.117 161.774 116.816 166.591 114.673C166.591 114.673 162.68 128.952 155.361 129.114C148.033 129.276 145.266 125.057 140.74 125.245C136.214 125.433 133.08 127.022 135.462 127.97C137.845 128.909 145.343 127.201 149.323 129.857C149.912 130.25 150.476 130.608 150.997 130.959C151.313 131.164 151.612 131.368 151.885 131.565H125.24C125.24 131.351 125.24 131.146 125.231 130.959C125.206 129.84 125.112 129.191 125.112 129.191C125.112 129.191 111.32 123.478 116.196 112.931C116.196 112.931 120.312 106.321 125.3 104.16C125.3 104.16 124.275 119.148 127.076 119.165C129.877 119.182 127.016 102.384 127.016 102.384C127.016 102.384 139.869 94.2194 145.275 94.1083C145.275 94.1083 138.511 109.421 141.236 108.746C143.951 108.071 151.731 92.4687 151.731 92.4687C151.731 92.4687 165.395 88.2328 168.615 96.2434C171.826 104.262 168.692 108.831 166.685 109.591Z" fill="#AFCDFB"/>
<path d="M57.491 4.54052C59.9335 -2.41107 71.7444 0.688967 71.7444 0.688967C71.7444 0.688967 78.9607 13.704 81.3007 14.1737C83.6406 14.6434 77.3039 1.84187 77.3039 1.84187C81.9155 1.73939 93.1798 8.21273 93.1798 8.21273C93.1798 8.21273 91.3779 22.6454 93.7606 22.5258C96.1432 22.4063 94.7085 9.66454 94.7085 9.66454C99.0468 11.3213 102.804 16.804 102.804 16.804C107.356 25.6088 95.8102 31.0061 95.8102 31.0061C95.8102 31.0061 95.2892 36.0191 97.9708 42.0142C97.9708 42.0142 98.5942 43.1329 99.1749 44.9947L97.9622 44.9093C97.8854 44.5762 97.8 44.2602 97.7061 43.9442C97.7061 43.9442 97.7061 43.9442 97.7061 43.9357C97.7061 43.9271 97.7061 43.9272 97.6975 43.9186C97.6292 43.7222 97.5267 43.4489 97.4072 43.1158C97.0912 42.3643 96.8777 41.8092 96.7496 41.4164C95.8102 39.0679 94.4352 35.9935 93.419 35.2932C93.419 35.2932 93.5641 35.1138 93.7179 34.7552C93.6239 34.926 93.5214 35.1053 93.419 35.2932C91.0192 39.5717 80.6174 39.5547 74.9469 37.9491C69.2677 36.3436 71.8981 34.9003 75.2031 32.492C78.4995 30.0838 84.9558 31.2537 86.9542 30.3656C88.9525 29.4689 86.2197 28.2306 82.3511 28.2477C78.4824 28.2562 76.2791 31.9626 70.0278 32.0992C63.7765 32.2358 59.9079 20.2115 59.9079 20.2115C64.0925 21.8597 71.9579 20.0578 72.3592 18.606C72.7606 17.1456 61.3682 16.4624 59.6261 15.8817C57.8839 15.2753 55.0401 11.5006 57.491 4.54052Z" fill="#CDE0FB"/>
<path d="M148.613 12.3802C146.718 6.99144 137.571 9.39119 137.571 9.39119C137.571 9.39119 131.986 19.4684 130.167 19.8356C128.348 20.2029 133.258 10.2879 133.258 10.2879C129.68 10.2025 120.961 15.224 120.961 15.224C120.961 15.224 122.361 26.4029 120.508 26.309C118.664 26.2151 119.774 16.3513 119.774 16.3513C116.417 17.6323 113.505 21.8767 113.505 21.8767C109.978 28.7002 118.92 32.8763 118.92 32.8763C118.92 32.8763 119.321 36.762 117.246 41.3992C117.246 41.3992 116.768 42.2618 116.315 43.705L117.254 43.6367C117.314 43.3805 117.383 43.1329 117.451 42.8937C117.451 42.8937 117.451 42.8937 117.451 42.8852V42.8767C117.502 42.7315 117.579 42.518 117.681 42.2532C117.929 41.6725 118.091 41.2455 118.185 40.9381C118.911 39.119 119.979 36.7364 120.764 36.1983C120.764 36.1983 120.653 36.0617 120.534 35.7799C120.611 35.908 120.688 36.0532 120.764 36.1983C122.618 39.5119 130.679 39.4948 135.077 38.2565C139.476 37.0096 137.435 35.8994 134.881 34.0292C132.328 32.1589 127.332 33.0727 125.777 32.381C124.232 31.6892 126.35 30.7242 129.339 30.7413C132.336 30.7498 134.036 33.6193 138.878 33.7217C143.72 33.8242 146.718 24.5156 146.718 24.5156C143.472 25.788 137.383 24.396 137.076 23.2687C136.768 22.1415 145.59 21.6034 146.931 21.1594C148.306 20.6896 150.509 17.769 148.613 12.3802Z" fill="#DFEBF9"/>
<path d="M48.5843 74.0736C50.3436 66.8317 62.5302 68.7532 62.5302 68.7532C62.5302 68.7532 71.1044 81.1191 73.5042 81.3497C75.9124 81.5888 68.2349 69.351 68.2349 69.351C72.8636 68.7788 84.8538 74.159 84.8538 74.159C84.8538 74.159 84.4952 88.8564 86.8864 88.4977C89.2776 88.139 86.5362 75.4656 86.5362 75.4656C91.0625 76.6954 95.4008 81.828 95.4008 81.828C100.866 90.2228 89.8071 96.8157 89.8071 96.8157C89.8071 96.8157 89.79 101.914 93.095 107.67C93.095 107.67 93.8294 108.729 94.6066 110.548L93.3853 110.582C93.2743 110.258 93.1548 109.942 93.0267 109.643C93.0267 109.643 93.0267 109.643 93.0267 109.634C93.0267 109.626 93.0267 109.626 93.0181 109.617C92.9327 109.429 92.8046 109.165 92.6424 108.84C92.2495 108.114 91.9848 107.585 91.814 107.2C90.6354 104.929 88.936 101.974 87.8429 101.376C87.8429 101.376 87.971 101.18 88.0905 100.804C88.0137 100.983 87.9283 101.171 87.8429 101.376C85.8616 105.928 75.4 106.953 69.5245 105.911C63.6489 104.869 66.1512 103.152 69.2256 100.394C72.3 97.6355 78.91 98.165 80.8315 97.0634C82.753 95.9617 79.875 94.9881 75.9893 95.3895C72.1036 95.7909 70.2589 99.7364 63.982 100.505C57.7051 101.274 52.5981 89.5652 52.5981 89.5652C56.9792 90.795 64.6994 88.1988 64.9641 86.6872C65.2203 85.1842 53.6913 85.6368 51.8808 85.2354C50.0703 84.8255 46.8336 81.3156 48.5843 74.0736Z" fill="#AFCDFB"/>
<path d="M161.424 80.6066C164.643 75.1752 156.095 69.1288 156.095 69.1288C156.095 69.1288 143.575 71.5627 141.978 70.2903C140.381 69.0093 152.269 66.1142 152.269 66.1142C149.792 63.0312 139.339 59.2053 139.339 59.2053C139.339 59.2053 130.867 68.3431 129.629 66.712C128.391 65.0809 137.546 59.0004 137.546 59.0004C134.07 57.0703 128.408 57.6169 128.408 57.6169C120.124 59.4786 122.942 70.0255 122.942 70.0255C122.942 70.0255 119.936 73.1256 114.53 74.6713C114.53 74.6713 113.454 74.8763 111.917 75.5253L112.643 76.2683C112.899 76.1317 113.164 76.0121 113.42 75.9096C113.42 75.9096 113.42 75.9096 113.429 75.9096C113.429 75.9096 113.437 75.9096 113.437 75.9011C113.599 75.8413 113.839 75.7559 114.129 75.6534C114.795 75.4485 115.273 75.2777 115.606 75.1496C117.664 74.4664 120.44 73.6807 121.465 73.9625C121.465 73.9625 121.499 73.7661 121.653 73.4672C121.593 73.6209 121.533 73.7917 121.465 73.9625C119.979 77.8909 125.718 84.7059 129.902 87.5497C134.087 90.3935 133.583 87.8657 133.344 84.3728C133.105 80.8799 128.784 77.2931 128.263 75.4912C127.75 73.6892 130.065 74.7994 132.191 77.3358C134.309 79.8807 133.096 83.3651 136.453 87.5411C139.809 91.7172 149.835 87.6265 149.835 87.6265C146.444 85.7819 143.293 79.6331 144.028 78.5656C144.762 77.4981 151.492 84.5948 152.824 85.4147C154.165 86.2601 158.213 86.0381 161.424 80.6066Z" fill="#AFCDFB"/>
<path d="M135.385 131.172H83.1714C79.892 131.172 77.2275 128.516 77.2275 125.228V25.3526C77.2275 22.0732 79.8835 19.4087 83.1714 19.4087H135.377C138.656 19.4087 141.32 22.0646 141.32 25.3526V125.228C141.32 128.508 138.665 131.172 135.385 131.172Z" fill="white"/>
<path d="M135.385 131.915H83.1712C79.4819 131.915 76.4844 128.918 76.4844 125.228V25.3526C76.4844 21.6633 79.4819 18.6658 83.1712 18.6658H135.376C139.066 18.6658 142.063 21.6633 142.063 25.3526V125.228C142.063 128.918 139.066 131.915 135.385 131.915ZM83.1712 20.1603C80.3103 20.1603 77.9789 22.4917 77.9789 25.3526V125.228C77.9789 128.089 80.3103 130.421 83.1712 130.421H135.376C138.237 130.421 140.569 128.089 140.569 125.228V25.3526C140.569 22.4917 138.237 20.1603 135.376 20.1603H83.1712Z" fill="#2B478B"/>
<path d="M101.652 32.1846H80.208V41.2882H101.652V32.1846Z" fill="#DCEAFF"/>
<path d="M101.652 44.2776H80.208V53.3813H101.652V44.2776Z" fill="#DCEAFF"/>
<path d="M116.666 53.5085V32.0645H106.879V53.5085H116.666Z" fill="#DCEAFF"/>
<path d="M109.343 86.4047C110.846 80.9776 107.665 75.3596 102.237 73.8565C96.8104 72.3535 91.1924 75.5346 89.6893 80.9617C88.1862 86.3888 91.3673 92.0068 96.7944 93.5099C102.222 95.0129 107.84 91.8318 109.343 86.4047Z" fill="#DCEAFF"/>
<path d="M138.622 83.6812H80.208V85.2611H138.622V83.6812Z" fill="#DCEAFF"/>
<path d="M137.042 55.8918H80.208V57.4718H137.042V55.8918Z" fill="#DCEAFF"/>
<path d="M100.89 111.552L100.89 57.408H99.3097L99.3097 111.552H100.89Z" fill="#DCEAFF"/>
<path d="M138.62 85.2263V31.0825H137.04V85.2263H138.62Z" fill="#DCEAFF"/>
<path d="M120.747 111.548L120.747 32.1851H119.167L119.167 111.548H120.747Z" fill="#DCEAFF"/>
<path d="M105.935 86.1509C107.294 82.6106 105.525 78.6392 101.985 77.2805C98.4446 75.9218 94.4732 77.6903 93.1145 81.2306C91.7557 84.7709 93.5243 88.7423 97.0646 90.101C100.605 91.4597 104.576 89.6912 105.935 86.1509Z" fill="white"/>
<path d="M110.789 59.4104H102.958V71.5714H110.789V59.4104Z" fill="#DCEAFF"/>
<path d="M87.8428 68.5652H80.208V77.3016H87.8428V68.5652Z" fill="#DCEAFF"/>
<path d="M95.5715 59.4104H80.208V67.0452H95.5715V59.4104Z" fill="#DCEAFF"/>
<path d="M117.587 59.4104H112.113V66.9683H117.587V59.4104Z" fill="#DCEAFF"/>
<path d="M117.587 68.5652H112.113V81.1959H117.587V68.5652Z" fill="#DCEAFF"/>
<path d="M117.587 86.7642H112.113V94.2452H117.587V86.7642Z" fill="#DCEAFF"/>
<path d="M128.689 59.4104H124.266V81.196H128.689V59.4104Z" fill="#DCEAFF"/>
<path d="M135.598 59.4104H130.124V81.196H135.598V59.4104Z" fill="#DCEAFF"/>
<path d="M135.163 31.8857H127.366V53.6714H135.163V31.8857Z" fill="#DCEAFF"/>
<path d="M138.621 87.5669H123.429V111.547H138.621V87.5669Z" fill="#DCEAFF"/>
<path d="M117.596 102.478H102.48V111.547H117.596V102.478Z" fill="#DCEAFF"/>
<path d="M117.596 95.9617H102.48V100.77H117.596V95.9617Z" fill="#DCEAFF"/>
<path d="M93.7867 95.9617H80.208V111.547H93.7867V95.9617Z" fill="#DCEAFF"/>
<path d="M85.9213 86.115H80.208V94.5184H85.9213V86.115Z" fill="#DCEAFF"/>
<path d="M131.098 124.519C127.656 124.519 124.522 122.692 122.771 119.788C120.431 115.885 116.101 113.264 111.14 113.264H80.1904V124.835C80.1904 126.808 81.8216 128.405 83.8285 128.405H121.183H124.616H135.658C137.281 128.405 138.604 127.116 138.604 125.519V124.528H131.098V124.519Z" fill="#F99746"/>
<path d="M127.007 118.191C127.007 115.903 128.869 114.041 131.157 114.041C133.446 114.041 135.308 115.903 135.308 118.191C135.308 120.48 133.446 122.342 131.157 122.342C128.869 122.342 127.007 120.489 127.007 118.191Z" fill="#F99746"/>
<path d="M128.715 118.388L132.72 116.381L131.482 120.796L130.5 119.105L128.715 118.388Z" fill="white"/>
<path d="M115.333 121.727H92.625V122.7H115.333V121.727Z" fill="white"/>
<path d="M92.6249 121.727H82.2744V122.7H92.6249V121.727Z" fill="#ED7D2B"/>
<path d="M90.8918 118.866L98.6461 122.282L90.7295 125.818L91.9934 122.342L90.8918 118.866Z" fill="#233862"/>
<path d="M116.725 122.214C116.725 121.326 117.451 120.6 118.339 120.6C119.227 120.6 119.953 121.326 119.953 122.214C119.953 123.102 119.227 123.828 118.339 123.828C117.451 123.828 116.725 123.102 116.725 122.214Z" fill="white"/>
<path d="M140.569 28.4784H77.9961V25.182C77.9961 22.4321 80.225 20.1946 82.9835 20.1946H135.53C138.314 20.1946 140.569 22.4491 140.569 25.2332V28.4784Z" fill="#AFCDFB"/>
<path d="M203.39 64.5771C203.031 65.5507 202.399 66.6865 201.742 66.9683C200.99 67.2843 200.683 67.7369 200.683 67.7369L200.076 67.3868L199.351 66.9683C199.351 66.9683 199.368 66.8914 199.402 66.7548C199.436 66.6267 199.487 66.4474 199.564 66.2424C199.564 66.2424 199.786 65.9606 199.649 65.6019C199.513 65.2432 199.538 64.6967 199.769 64.3551C200 64.022 200.222 63.1936 200.367 63.2107C200.708 63.2705 200.205 64.4063 200.341 64.6198C200.469 64.8077 200.632 64.7479 200.666 64.7308C200.666 64.7308 200.666 64.7308 200.674 64.7308C201.622 64.3124 202.767 62.0663 203.279 62.3738C203.467 62.4848 203.544 64.1586 203.39 64.5771Z" fill="#FFB27D"/>
<path d="M200.11 65.9348L201.297 66.7718C201.383 66.8316 201.494 66.8145 201.554 66.7291L204.594 62.4078C204.654 62.3224 204.637 62.2114 204.551 62.1516L203.364 61.3147C203.279 61.2549 203.168 61.272 203.108 61.3574L200.068 65.6786C200.008 65.7555 200.025 65.8751 200.11 65.9348Z" fill="#2B478B"/>
<path d="M201.195 66.6949L201.886 67.1817C201.946 67.2244 202.04 67.2073 202.083 67.1475L205.174 62.7494C205.217 62.6896 205.2 62.5957 205.14 62.553L204.448 62.0662C204.389 62.0235 204.295 62.0406 204.252 62.1004L201.16 66.4985C201.118 66.5668 201.135 66.6522 201.195 66.6949Z" fill="#233862"/>
<path d="M183.09 59.7263C183.09 59.7263 189.127 70.2562 191.314 72.1862L199.341 66.1997C199.341 66.1997 200.503 66.5583 201.015 67.7283C201.015 67.7283 196.139 77.6604 191.339 78.0788C186.54 78.4973 179.802 66.174 179.802 66.174L183.09 59.7263Z" fill="#233862"/>
<path d="M169.434 131.326H165.95C165.515 131.087 165.122 130.541 164.994 129.729C164.823 128.602 163.567 127.996 163.294 127.073C163.021 126.151 164.421 124.861 164.421 124.861L164.652 124.563L164.891 124.247L167.205 124.793C167.205 124.793 167.265 125.348 167.299 126.049C167.325 126.552 167.342 127.142 167.308 127.654C167.24 128.875 167.65 130.199 168.743 130.438C169.545 130.617 169.511 131.087 169.434 131.326Z" fill="#233862"/>
<path d="M189.674 131.326H181.698C181.314 130.856 181.459 129.131 181.51 128.568C181.519 128.457 181.527 128.388 181.527 128.388C181.527 128.388 184.252 126.211 184.627 127.876C184.636 127.927 184.653 127.978 184.67 128.03C185.14 129.593 187.258 130.301 188.479 130.498C189.273 130.626 189.563 131.044 189.674 131.326Z" fill="#233862"/>
<path d="M188.154 86.8155C188.154 86.8155 187.744 91.9737 187.258 98.1737C186.6 106.594 185.806 116.945 185.72 118.909C185.584 122.316 185.037 127.756 185.037 127.756C185.037 127.756 183.748 129.046 181.16 128.508C181.16 128.508 178.854 120.737 178.197 112.512C178.188 112.376 178.18 112.239 178.162 112.103C177.548 103.733 176.6 86.0981 176.6 86.0981L188.154 86.8155Z" fill="#F99746"/>
<path d="M188.154 86.8155C188.154 86.8155 187.744 91.9737 187.258 98.1737L178.197 112.504C178.188 112.367 178.18 112.231 178.162 112.094C177.548 103.725 176.6 86.0896 176.6 86.0896L188.154 86.8155Z" fill="#ED7D2B"/>
<path d="M186.267 87.4217C186.267 87.4217 178.812 106.107 173.91 114.886C169.008 123.666 167.479 126.117 167.479 126.117C167.479 126.117 164.669 124.989 164.413 124.229C164.413 124.229 166.283 107.277 169.571 103.144C171.424 100.812 173.602 93.8011 173.705 91.3501C173.807 88.8991 174.371 84.0483 174.371 84.0483L186.267 87.4217Z" fill="#F99746"/>
<path d="M184.414 60.1874C181.502 61.1098 176.463 58.6246 176.463 58.6246C176.463 58.6246 179.144 56.6092 179.008 52.416L181.262 54.235L182.791 55.4648C182.791 55.4648 182.783 56.1907 182.62 57.4632C182.578 57.7962 182.518 58.172 182.449 58.5819C183.696 59.2737 184.414 60.1874 184.414 60.1874Z" fill="#FFB27D"/>
<path d="M182.782 55.4648C182.782 55.4648 182.773 56.1907 182.611 57.4632C180.92 57.1728 178.99 54.4315 178.99 54.4315C179.853 54.1838 180.613 54.1411 181.253 54.2265L182.782 55.4648Z" fill="#ED975D"/>
<path d="M183.679 55.3965C183.679 55.3965 178.871 56.1992 178.419 53.1931C177.966 50.1871 177.044 48.2655 180.093 47.6336C183.141 47.0016 183.919 48.052 184.311 49.0171C184.704 49.9821 184.918 55.1146 183.679 55.3965Z" fill="#FFB27D"/>
<path d="M188.479 87.2423C188.393 87.3192 188.291 87.3619 188.171 87.3619C187.078 87.3448 183.884 87.9511 181.186 87.6779C178.914 87.4558 176.898 86.7897 174.738 85.8161C174.447 85.688 173.79 85.3379 173.807 85.0134C173.816 84.6632 173.85 84.1508 173.892 83.5103C174.046 81.2814 174.311 77.4384 174.055 73.0061C174.012 72.1777 173.986 71.3664 173.978 70.5551C173.952 64.5515 175.148 59.2737 177.539 57.4889C177.744 57.3437 178.999 57.9586 180.152 58.5222C181.22 59.0517 182.279 59.1029 183.286 58.898L184.294 59.7861C185.515 60.9219 186.865 62.4677 187.445 64.8162C187.941 66.8146 188.231 70.4185 188.393 74.1505C188.47 75.8414 188.521 77.5494 188.539 79.172V79.2318C188.556 79.394 188.556 79.5648 188.556 79.7271C188.607 83.8861 188.547 87.1825 188.479 87.2423Z" fill="#2B478B"/>
<path d="M173.893 83.5102C174.046 81.2813 174.311 77.4383 174.055 73.006C174.012 72.1776 173.987 71.3663 173.978 70.555C174.977 68.1382 175.788 66.3875 175.788 66.3875H178.299C178.299 66.3875 180.144 78.9669 173.893 83.5102Z" fill="#233862"/>
<path d="M161.031 97.7638L171.74 99.2924C173.132 99.4889 174.439 98.5153 174.635 97.1147L175.293 92.469C175.489 91.0769 174.516 89.7703 173.115 89.5739L162.406 88.0452C161.014 87.8488 159.707 88.8224 159.511 90.2144L158.853 94.8602C158.657 96.2607 159.63 97.5588 161.031 97.7638Z" fill="#233862"/>
<path d="M173.73 90.9573C173.431 90.2058 172.782 89.608 171.954 89.403C171.877 89.3859 171.791 89.3688 171.706 89.3518L169.571 89.0443L169.716 88.0451C169.75 87.8231 169.691 87.6011 169.554 87.4132C169.417 87.2338 169.221 87.1143 168.999 87.0801L168.444 87.0033L166.206 86.6873L165.805 86.6275C165.344 86.5592 164.908 86.8837 164.848 87.3449L164.703 88.344L161.022 87.8231C159.622 87.6267 158.315 88.6088 158.119 90.0008L157.453 94.6978C157.256 96.0984 158.238 97.405 159.63 97.6014L170.323 99.1216C170.51 99.1472 170.698 99.1557 170.878 99.1386C171.168 99.113 171.45 99.0447 171.715 98.9251C172.5 98.575 173.098 97.8491 173.226 96.9353L173.892 92.2383C173.952 91.8113 173.884 91.3587 173.73 90.9573ZM165.361 87.4388C165.378 87.3022 165.489 87.1911 165.626 87.1741C165.66 87.1655 165.685 87.1655 165.72 87.1741L166.198 87.2424L167.957 87.49L168.922 87.6267C169.093 87.6523 169.212 87.8146 169.187 87.9854L169.042 88.9845L165.216 88.438L165.361 87.4388Z" fill="#2B478B"/>
<path d="M169.169 83.9373C169.169 83.9373 168.606 84.6889 168.589 84.9878C168.435 87.0203 169.366 87.2936 166.966 88.4208C166.966 88.4208 165.941 88.8137 165.924 88.0195C165.907 87.2252 166.633 87.2082 166.505 86.098C166.351 84.817 166.368 84.7999 167.214 84.1338L167.769 83.2114L169.169 83.9373Z" fill="#FFB27D"/>
<path d="M167.743 84.518C168.648 84.6973 169.631 84.6204 169.631 84.6204C169.631 84.6204 172.312 76.3281 172.662 75.568C173.004 74.8079 180.639 65.8409 180.639 65.8409L177.453 57.8901C177.453 57.8901 169.204 71.6737 168.367 73.6123C166.983 76.8148 166.505 83.9885 166.505 83.9885C166.505 83.9885 167.034 84.3728 167.743 84.518Z" fill="#2B478B"/>
<path d="M178.409 52.9028C178.409 52.9028 178.905 52.8174 178.819 52.1427C178.734 51.468 178.742 50.5713 179.298 50.7421C179.853 50.9044 179.878 51.3485 180.109 51.0923C180.339 50.8361 180.339 49.743 181.988 49.6661C183.636 49.5892 184.302 50.1614 185.062 49.8284C185.831 49.4953 185.865 48.3338 185.865 48.3338C185.865 48.3338 185.651 48.7438 185.318 48.8804C185.318 48.8804 186.591 47.1382 185.113 45.9341C183.636 44.73 182.133 45.5242 181.27 45.5754C179.383 45.6864 178.17 45.806 177.555 47.0443C176.949 48.2741 177.197 51.7157 178.409 52.9028Z" fill="#2B478B"/>
<path d="M168.281 84.834C168.281 84.834 168.819 85.3976 168.854 85.6367C168.965 86.3883 169.212 86.7128 169.093 86.7982C168.828 86.969 168.486 86.4139 168.316 85.91C168.153 85.4062 168.281 84.834 168.281 84.834Z" fill="#FFB27D"/>
<path d="M22.9898 33.5598C18.122 33.5598 14.168 37.7017 14.168 42.8087C14.168 47.9156 22.9898 57.9672 22.9898 57.9672C22.9898 57.9672 31.8117 47.9156 31.8117 42.8087C31.8117 37.7017 27.8662 33.5598 22.9898 33.5598ZM22.9898 46.5834C20.5388 46.5834 18.549 44.5935 18.549 42.1425C18.549 39.6916 20.5388 37.7017 22.9898 37.7017C25.4408 37.7017 27.4306 39.6916 27.4306 42.1425C27.4306 44.5935 25.4408 46.5834 22.9898 46.5834Z" fill="#F99746"/>
<path d="M38.7716 93.5192C38.5496 92.7762 38.9766 91.9905 39.7196 91.7685C40.4626 91.5464 41.2483 91.9734 41.4703 92.7164C41.6923 93.4594 41.2653 94.2451 40.5224 94.4671C39.7794 94.6892 38.9937 94.2622 38.7716 93.5192Z" fill="#415DA5"/>
<path d="M26.1836 71.4347C26.1751 71.3066 26.0214 69.8975 23.8693 69.906C23.8693 69.906 24.9283 69.9914 25.1332 70.4526C25.1332 70.4526 24.3902 69.906 23.818 70.111C23.2373 70.316 22.9299 71.3579 22.947 71.6909C22.9555 72.0325 23.3227 73.1 23.6985 73.1854C23.8437 73.211 24.0059 73.2025 24.1511 73.1683C24.0572 73.3306 23.9718 73.5014 23.8778 73.6978C23.0836 75.4912 24.0315 77.1736 24.7575 76.9601C25.2186 76.8235 25.3809 77.6092 25.3809 77.6092L29.7619 73.7832C29.7448 73.7661 27.96 70.4014 26.1836 71.4347Z" fill="#2C3A64"/>
<path d="M24.6724 94.5613C24.6724 94.5613 25.4837 96.2437 26.5 98.5666C27.6444 101.18 29.0535 104.604 29.8989 107.388C30.343 108.857 30.6248 110.155 30.6334 111.052C30.6334 111.36 29.4463 112.615 29.0962 113.093C26.927 116.108 23.9636 120.139 23.9636 120.139L23.1523 119.934C23.1523 119.934 24.2881 114.895 25.9364 112.376C26.2609 111.88 27.1747 111.283 27.132 111.223C26.9868 111.044 26.6366 110.599 26.1499 109.959C24.8091 108.2 22.4947 104.989 20.9404 102.008C20.8465 101.82 20.7526 101.641 20.6586 101.453C19.8388 99.7878 19.3008 98.225 19.352 97.0721L24.6724 94.5613Z" fill="#ED975D"/>
<path d="M22.4431 120.13L22.9982 120.48C23.2031 120.566 23.3739 120.6 23.5789 120.694C23.8949 120.839 23.9546 121.044 23.9632 121.087C23.9632 121.095 23.9632 121.095 23.9632 121.095L26.3288 122.59C26.4398 122.538 26.5081 122.308 26.5423 122.128C26.5679 122.009 26.5337 121.881 26.4483 121.787C26.2434 121.556 25.7907 121.18 25.5943 120.48C25.4833 120.087 24.9026 118.858 24.9026 118.858L24.894 118.849C24.8684 118.832 24.7489 118.806 24.0742 118.9C23.7241 118.951 23.6301 118.234 23.6301 118.234C23.6301 118.234 23.5191 118.251 23.391 118.328C23.2885 118.388 23.1775 118.49 23.1092 118.661C23.0067 118.9 22.648 119.216 22.3833 119.43C22.2296 119.558 22.11 119.643 22.11 119.643C22.11 119.643 21.999 119.763 22.4431 120.13Z" fill="#233862"/>
<path d="M23.3906 118.336C23.4675 118.516 23.6297 118.874 23.8005 119.02C24.0311 119.207 24.9022 118.866 24.9022 118.866L24.8937 118.857C24.868 118.84 24.7485 118.815 24.0738 118.909C23.7237 118.96 23.6297 118.242 23.6297 118.242C23.6297 118.242 23.5187 118.26 23.3906 118.336Z" fill="#233862"/>
<path d="M22.4427 120.13L22.9978 120.48C23.2027 120.566 23.3735 120.6 23.5785 120.694C23.8945 120.839 23.9543 121.044 23.9628 121.086C23.9628 121.095 23.9628 121.095 23.9628 121.095L26.3284 122.589C26.4394 122.538 26.5077 122.308 26.5419 122.128C26.5077 122.017 26.2772 122.35 26.2003 122.376C26.1234 122.402 24.2617 121.172 24.2019 121.027C24.1422 120.881 23.903 120.531 23.3821 120.352C22.9295 120.198 22.4939 119.583 22.3914 119.43C22.2377 119.558 22.1182 119.643 22.1182 119.643C22.1182 119.643 21.9986 119.763 22.4427 120.13Z" fill="#233862"/>
<path d="M20.0757 101.418L19.002 101.761L25.3496 121.617L26.4234 121.274L20.0757 101.418Z" fill="#415DA5"/>
<path d="M24.8171 121.667L9.83789 120.369L37.6186 101.581L36.0302 104.835L13.0916 119.523L24.9196 120.548L24.8171 121.667Z" fill="#F99746"/>
<path d="M26.8415 120.787L25.8936 120.181L37.4226 101.718L38.7634 103.11L26.8415 120.787Z" fill="#F99746"/>
<path d="M28.4125 118.157L30.5219 119.378C30.7695 119.523 30.8549 119.839 30.7098 120.087C30.5646 120.335 30.2486 120.42 30.0009 120.275L27.8915 119.054C27.6439 118.909 27.5585 118.593 27.7037 118.345C27.8403 118.097 28.1648 118.012 28.4125 118.157Z" fill="#415DA5"/>
<path d="M28.8313 118.943L26.1754 121.889L25.9277 121.676L28.5837 118.729L28.8313 118.943Z" fill="#415DA5"/>
<path d="M20.266 108.865C20.1037 108.925 19.9329 108.9 19.7877 108.814C14.732 105.757 7.74628 106.91 5.72229 107.337C5.61127 107.362 5.50879 107.277 5.50879 107.157V106.764C5.50879 106.466 5.73083 106.209 6.02973 106.158C7.12286 105.996 9.67633 105.646 11.1111 105.637C11.1538 105.637 11.1879 105.637 11.2306 105.637C14.4331 105.637 17.1916 106.209 19.4632 107.345C19.9244 107.576 20.4624 107.61 20.9492 107.439L21.5726 107.217C21.9313 107.089 22.3156 107.277 22.4437 107.636C22.5205 107.866 22.401 108.114 22.1704 108.199L20.266 108.865Z" fill="#F99746"/>
<path d="M15.5683 101.171C15.5683 101.171 15.3633 100.249 15.9441 100.189C16.5248 100.129 18.6256 100.582 19.1893 100.513C19.7529 100.454 22.6821 99.9668 23.2031 100.471C23.7155 100.966 23.502 101.41 22.4686 101.504C21.4353 101.598 20.0689 101.769 19.6761 102.093C19.2832 102.418 16.465 103.383 15.5683 101.171Z" fill="#415DA5"/>
<path d="M25.8849 124.255C27.4366 124.255 28.6945 122.997 28.6945 121.445C28.6945 119.893 27.4366 118.635 25.8849 118.635C24.3331 118.635 23.0752 119.893 23.0752 121.445C23.0752 122.997 24.3331 124.255 25.8849 124.255Z" fill="#415DA5"/>
<path d="M7.71845 111.096L7.48535 111.179L10.6067 119.876L10.8398 119.793L7.71845 111.096Z" fill="#AFCDFB"/>
<path d="M1.98163 123.887L1.8877 123.657L10.7181 119.865L16.5253 111.573L16.7303 111.718L10.8803 120.07L10.8462 120.079L1.98163 123.887Z" fill="#AFCDFB"/>
<path d="M7.30162 129.558L7.0625 129.481C7.12228 129.293 10.5383 120.309 10.6835 119.925L10.7689 119.694L16.2687 128.396L16.0552 128.533L10.8201 120.258C9.57327 123.537 7.34432 129.413 7.30162 129.558Z" fill="#AFCDFB"/>
<path d="M1.01756 117.541L0.975586 117.785L10.7805 119.471L10.8224 119.227L1.01756 117.541Z" fill="#AFCDFB"/>
<path d="M14.1798 110.631L11.3057 119.242L11.5406 119.32L14.4147 110.709L14.1798 110.631Z" fill="#AFCDFB"/>
<path d="M10.7778 120.096L10.7436 120.079L1.75098 115.518L1.87054 115.296L10.8205 119.839L20.4536 118.217L20.4963 118.465L10.7778 120.096Z" fill="#AFCDFB"/>
<path d="M14.4234 129.242C14.3722 129.089 12.0663 123.409 10.7683 120.233L5.78088 128.081L5.56738 127.944L10.8195 119.686L10.9134 119.908C11.0672 120.275 14.6027 128.969 14.6625 129.157L14.4234 129.242Z" fill="#AFCDFB"/>
<path d="M10.7665 119.836L1.09473 121.272L1.13111 121.517L10.8029 120.081L10.7665 119.836Z" fill="#AFCDFB"/>
<path d="M5.0229 112.329L4.83594 112.492L10.2069 118.674L10.3938 118.512L5.0229 112.329Z" fill="#AFCDFB"/>
<path d="M10.9927 120.635L10.2432 129.691L10.49 129.711L11.2395 120.656L10.9927 120.635Z" fill="#AFCDFB"/>
<path d="M10.437 119.355L10.2959 119.559L18.8511 125.49L18.9922 125.287L10.437 119.355Z" fill="#AFCDFB"/>
<path d="M3.70596 126.672L3.53516 126.492L10.6746 119.293V109.916H10.9223V119.395L3.70596 126.672Z" fill="#AFCDFB"/>
<path d="M8.95898 119.968C8.95898 118.951 9.78737 118.123 10.8036 118.123C11.8199 118.123 12.6483 118.951 12.6483 119.968C12.6483 120.984 11.8199 121.812 10.8036 121.812C9.78737 121.804 8.95898 120.984 8.95898 119.968Z" fill="#699DEE"/>
<path d="M10.8031 130.762C4.85074 130.762 0 125.92 0 119.959C0 113.998 4.8422 109.156 10.8031 109.156C16.7555 109.156 21.6063 113.998 21.6063 119.959C21.6063 121.872 21.1024 123.742 20.1459 125.382C19.2151 126.988 17.8743 128.328 16.2688 129.276C14.612 130.25 12.7246 130.762 10.8031 130.762ZM10.8031 110.668C5.67058 110.668 1.50305 114.844 1.50305 119.968C1.50305 125.092 5.67912 129.268 10.8031 129.268C12.4599 129.268 14.0911 128.824 15.5087 127.995C16.8922 127.184 18.0451 126.023 18.8478 124.639C19.6677 123.23 20.1032 121.607 20.1032 119.968C20.1032 114.835 15.9272 110.668 10.8031 110.668Z" fill="#415DA5"/>
<path d="M10.8798 129.541C5.63623 129.541 1.36621 125.271 1.36621 120.028C1.36621 114.784 5.63623 110.514 10.8798 110.514C16.1234 110.514 20.3934 114.784 20.3934 120.028C20.3934 125.271 16.1319 129.541 10.8798 129.541ZM10.8798 110.898C5.84973 110.898 1.75051 114.997 1.75051 120.028C1.75051 125.058 5.84973 129.157 10.8798 129.157C15.9099 129.157 20.0091 125.058 20.0091 120.028C20.0091 114.997 15.9184 110.898 10.8798 110.898Z" fill="#F99746"/>
<path d="M42.9362 111.094L42.7031 111.178L45.8245 119.875L46.0576 119.791L42.9362 111.094Z" fill="#AFCDFB"/>
<path d="M37.1994 123.887L37.1055 123.657L45.9359 119.865L51.7431 111.573L51.948 111.718L46.0981 120.07L46.0725 120.079L37.1994 123.887Z" fill="#AFCDFB"/>
<path d="M42.5204 129.558L42.2812 129.481C42.341 129.293 45.757 120.309 45.9022 119.925L45.9876 119.694L51.4874 128.396L51.2739 128.533L46.0389 120.258C44.8006 123.537 42.5631 129.413 42.5204 129.558Z" fill="#AFCDFB"/>
<path d="M36.2373 117.542L36.1953 117.786L46.0002 119.473L46.0422 119.229L36.2373 117.542Z" fill="#AFCDFB"/>
<path d="M49.3995 110.63L46.5254 119.241L46.7603 119.32L49.6344 110.708L49.3995 110.63Z" fill="#AFCDFB"/>
<path d="M45.9965 120.096L45.9624 120.079L36.9697 115.518L37.0893 115.296L46.0392 119.839L55.6724 118.217L55.7151 118.465L45.9965 120.096Z" fill="#AFCDFB"/>
<path d="M49.6509 129.242C49.5997 129.089 47.2939 123.409 45.9958 120.233L41.0084 128.081L40.7949 127.944L46.047 119.686L46.141 119.908C46.2947 120.275 49.8303 128.969 49.8901 129.157L49.6509 129.242Z" fill="#AFCDFB"/>
<path d="M45.9843 119.837L36.3125 121.274L36.3489 121.519L46.0206 120.082L45.9843 119.837Z" fill="#AFCDFB"/>
<path d="M40.2407 112.331L40.0537 112.493L45.4246 118.675L45.6116 118.513L40.2407 112.331Z" fill="#AFCDFB"/>
<path d="M46.2125 120.636L45.4629 129.692L45.7097 129.712L46.4593 120.656L46.2125 120.636Z" fill="#AFCDFB"/>
<path d="M45.6548 119.355L45.5137 119.558L54.0688 125.49L54.21 125.286L45.6548 119.355Z" fill="#AFCDFB"/>
<path d="M38.9247 126.672L38.7539 126.492L45.8934 119.293V109.916H46.141V119.395L38.9247 126.672Z" fill="#AFCDFB"/>
<path d="M46.0219 130.762C40.0695 130.762 35.2188 125.92 35.2188 119.959C35.2188 113.998 40.0609 109.156 46.0219 109.156C51.9743 109.156 56.825 113.998 56.825 119.959C56.825 121.872 56.3212 123.742 55.3647 125.382C54.4338 126.988 53.093 128.328 51.4875 129.276C49.8307 130.25 47.9434 130.762 46.0219 130.762ZM46.0219 110.668C40.8893 110.668 36.7218 114.844 36.7218 119.968C36.7218 125.092 40.8979 129.268 46.0219 129.268C47.6787 129.268 49.3098 128.824 50.7274 127.995C52.1109 127.184 53.2638 126.023 54.0666 124.639C54.8864 123.23 55.322 121.607 55.322 119.968C55.322 114.835 51.1459 110.668 46.0219 110.668Z" fill="#415DA5"/>
<path d="M46.0986 129.541C40.855 129.541 36.585 125.271 36.585 120.028C36.585 114.784 40.855 110.514 46.0986 110.514C51.3421 110.514 55.6122 114.784 55.6122 120.028C55.6122 125.271 51.3507 129.541 46.0986 129.541ZM46.0986 110.898C41.0685 110.898 36.9693 114.997 36.9693 120.028C36.9693 125.058 41.0685 129.157 46.0986 129.157C51.1286 129.157 55.2278 125.058 55.2278 120.028C55.2278 114.997 51.1372 110.898 46.0986 110.898Z" fill="#F99746"/>
<path d="M28.7966 81.5803C28.7966 81.5803 27.2679 82.4428 27.4472 84.612C27.6266 86.7897 29.625 90.2142 31.1451 91.0682C32.3492 91.7429 35.825 92.7933 35.825 92.7933L35.9531 91.8454C35.9531 91.8454 33.1264 90.0007 32.5115 89.3688C31.1878 88.0195 29.9409 81.0593 28.7966 81.5803Z" fill="#ED975D"/>
<path d="M28.6435 86.4737C28.5752 86.9605 28.447 87.3875 28.2848 87.7888C28.1481 88.1219 27.9944 88.4464 27.8407 88.7795C27.3795 89.7616 26.2864 90.2398 26.2437 92.1272C26.2352 92.7762 25.6886 94.2366 25.9961 95.2955C27.5076 100.522 17.6268 95.7652 18.1563 94.3817C19.2238 91.6233 20.7354 90.0263 20.7098 87.7547C20.7098 87.7461 20.7098 87.7461 20.7098 87.7376C20.7012 87.6266 20.6842 87.3362 20.6671 86.9434C20.6244 85.9869 20.5731 84.4668 20.5561 83.6982C20.5561 83.6811 20.5561 83.664 20.5561 83.6469C20.5475 83.3139 20.539 83.0747 20.5219 83.015C21.2563 79.8893 22.9473 79.8722 23.528 79.8893C23.7415 79.8893 23.9635 79.9064 24.1514 79.9235C24.5101 79.7185 25.1421 78.7535 25.4666 77.1736L25.5947 77.2334L27.8065 78.1728C27.8065 78.1728 27.6016 78.8901 27.4564 79.5733C27.3454 80.1114 27.2685 80.6238 27.3539 80.7689C27.5247 80.8287 27.6357 80.8714 27.6357 80.8714C27.6699 80.9568 28.9936 83.9885 28.6435 86.4737Z" fill="#FFB27D"/>
<path d="M28.2847 87.7888C28.1481 88.1219 27.9943 88.4464 27.8406 88.7795C27.3795 89.7616 26.2863 90.2398 26.2436 92.1272C26.2095 92.1272 26.1753 92.1357 26.1412 92.1357C22.0932 92.4517 20.7097 87.7461 20.7097 87.7461C20.7012 87.6351 20.6841 87.3447 20.667 86.9519L27.9773 86.9604C27.9858 86.9604 28.131 87.2935 28.2847 87.7888Z" fill="#ED975D"/>
<path d="M29.3092 85.5515C29.2921 85.6112 29.2665 85.671 29.2409 85.7308C28.5406 87.4046 27.8916 88.8052 27.8916 88.8052C27.8745 88.7967 27.8489 88.7796 27.8318 88.771C27.3621 88.5148 26.7984 88.3099 26.2006 88.1647C25.6968 88.0366 25.1673 87.9512 24.6378 87.8829C23.0067 87.6779 21.4011 87.7206 20.7094 87.7548C20.7094 87.7462 20.7094 87.7462 20.7094 87.7377C20.6752 87.3619 20.5813 84.7829 20.5557 83.6983C20.5557 83.6812 20.5557 83.6641 20.5557 83.647C20.7179 83.5189 20.8716 83.3994 21.0168 83.2884C21.478 82.9211 21.8281 82.6137 21.8367 82.2294C21.8367 82.0757 21.8281 81.9219 21.811 81.7682C21.8025 81.6914 21.7854 81.623 21.7769 81.5547C21.6317 80.7947 21.2816 80.1115 21.2816 80.1115C22.0758 79.7528 23.5276 79.898 23.5276 79.898C23.5276 79.898 23.5276 79.9748 23.5361 80.1115C23.5532 80.6409 23.6045 81.9903 23.7838 82.2379C24.0058 82.5454 27.9172 83.8007 28.1051 83.3567C28.2929 82.9211 27.6695 80.9569 27.6439 80.8801C28.9505 81.3412 29.4288 81.7426 29.4288 81.7426C28.6602 82.2721 29.8558 83.9374 29.3092 85.5515Z" fill="white"/>
<path d="M27.8066 78.1728C27.8066 78.1728 27.6016 78.8902 27.4565 79.5734C26.1669 79.2659 25.7314 77.9422 25.5947 77.2334L27.8066 78.1728Z" fill="#ED975D"/>
<path d="M28.1047 78.9156C28.1047 78.9156 25.0303 78.3264 25.4316 76.422C25.833 74.5175 25.6964 73.1511 27.6777 73.45C29.659 73.7489 29.881 74.5517 29.9066 75.2178C29.9237 75.8839 28.916 79.0181 28.1047 78.9156Z" fill="#FFB27D"/>
<path d="M30.0352 74.133C29.6851 73.4584 29.3008 73.5096 29.0616 73.6377C27.5842 72.3652 26.2178 73.5011 26.2178 73.5011C25.7225 74.8248 24.5781 75.4055 24.5781 75.4055C24.5781 75.4055 25.0649 75.8666 26.4228 75.8069C26.8327 75.7898 27.2426 75.5848 27.6184 75.303C26.9181 76.0631 26.0726 76.5498 26.0726 76.5498C27.755 76.1655 28.8225 74.1501 28.9335 73.9451C29.0873 74.1501 29.3776 74.5942 29.4118 74.9785C29.463 75.4994 29.3178 76.5072 29.6167 76.5328C29.6167 76.5328 30.5647 75.1493 30.0352 74.133Z" fill="#2C3A64"/>
<path d="M31.8201 92.8273L31.5981 93.7667C31.5981 93.7667 26.4484 93.0664 24.7575 92.0843C23.0751 91.1022 20.5217 85.3377 20.3252 82.9038C20.3167 82.7757 20.3082 82.6476 20.3082 82.5365C20.2484 80.4357 21.2817 80.1026 21.2817 80.1026C21.7002 79.9147 22.2126 80.6236 22.7591 81.7338C23.9035 84.0652 25.1845 88.1559 25.9446 89.3686C26.5253 90.2994 31.8201 92.8273 31.8201 92.8273Z" fill="#FFB27D"/>
<path d="M22.7591 81.7424C21.35 81.4093 20.3082 82.5451 20.3082 82.5451C20.2484 80.4443 21.2817 80.1112 21.2817 80.1112C21.6916 79.9148 22.2126 80.6322 22.7591 81.7424Z" fill="white"/>
<path d="M29.4207 81.7336C29.4207 81.7336 30.01 82.9805 30.1381 83.305C30.1381 83.305 29.378 83.3136 29.0193 84.0565C29.0193 84.0565 28.9681 81.9386 29.4207 81.7336Z" fill="white"/>
<path d="M18.0624 94.5952C18.0624 94.5952 15.7822 98.2162 18.6004 100.206C21.4272 102.196 30.9237 103.152 30.4625 103.537C29.0364 104.715 27.7383 106.534 27.8066 117.414L28.5069 117.781C28.5069 117.781 35.2877 103.041 34.8265 101.282C34.5361 100.121 24.6468 93.8181 18.0624 94.5952Z" fill="#FFB27D"/>
<path d="M23.5453 102.128C23.5453 102.128 17.7893 101.171 17.1915 99.1385C16.7474 97.6184 16.6193 97.0035 19.224 92.093C19.224 92.093 20.3171 94.1682 26.0048 93.6815C26.0048 93.6815 25.9792 93.9462 25.9792 94.3134C25.9877 94.9198 26.0817 95.7738 26.5514 96.0214C26.5599 96.03 26.577 96.03 26.577 96.0385C27.3285 96.3801 28.4814 97.0719 28.6607 97.1316C28.6693 97.1402 25.1679 97.8063 23.5453 102.128Z" fill="#F99746"/>
<path d="M26.8581 117.944L27.4474 118.225C27.6609 118.294 27.8317 118.302 28.0537 118.371C28.3868 118.482 28.4637 118.678 28.4807 118.721C28.4807 118.729 28.4807 118.729 28.4807 118.729L31 119.942C31.1111 119.882 31.1452 119.643 31.1623 119.464C31.1709 119.336 31.1196 119.216 31.0257 119.131C30.7951 118.926 30.2998 118.601 30.0265 117.935C29.8728 117.559 29.1469 116.406 29.1469 116.406H29.1383C29.1127 116.398 28.9931 116.381 28.327 116.552C27.9854 116.637 27.8061 115.945 27.8061 115.945C27.8061 115.945 27.6951 115.971 27.584 116.065C27.4901 116.142 27.3962 116.253 27.3449 116.424C27.2766 116.671 26.9521 117.03 26.713 117.269C26.5678 117.414 26.4653 117.517 26.4653 117.517C26.4653 117.517 26.3714 117.636 26.8581 117.944Z" fill="#233862"/>
<path d="M27.5928 116.056C27.6867 116.227 27.8917 116.569 28.0796 116.688C28.3272 116.851 29.1556 116.406 29.1556 116.406H29.1471C29.1214 116.398 29.0019 116.381 28.3358 116.552C27.9942 116.637 27.8148 115.945 27.8148 115.945C27.8148 115.945 27.7038 115.962 27.5928 116.056Z" fill="#233862"/>
<path d="M26.8581 117.943L27.4474 118.225C27.6609 118.294 27.8317 118.302 28.0537 118.37C28.3868 118.481 28.4637 118.678 28.4807 118.721C28.4807 118.729 28.4807 118.729 28.4807 118.729L31.0001 119.942C31.1111 119.882 31.1452 119.643 31.1623 119.464C31.1196 119.361 30.9232 119.711 30.8549 119.745C30.7866 119.78 28.7882 118.78 28.7113 118.635C28.6345 118.499 28.3612 118.183 27.8146 118.063C27.3449 117.961 26.8411 117.405 26.7215 117.26C26.5763 117.405 26.4738 117.508 26.4738 117.508C26.4738 117.508 26.3714 117.636 26.8581 117.943Z" fill="#233862"/>
<path d="M41.18 105.979C41.0178 105.578 40.642 105.321 40.2406 105.296C35.5778 94.5865 35.5265 94.5012 35.4582 94.3816L34.7835 95.7138C34.7494 95.6541 37.3285 101.393 39.1731 105.603L38.9084 105.706L45.3305 119.447L46.3724 119.02L41.18 105.979Z" fill="#415DA5"/>
<path d="M39.8226 94.4671L31.6327 96.5167L31.4961 94.8684L39.686 92.8103L39.8226 94.4671Z" fill="#415DA5"/>
<path d="M31.8207 92.8274C31.8207 92.8274 32.5893 93.3313 33.1358 93.3056C33.6824 93.28 34.3741 93.5106 34.3741 93.5106C34.3741 93.5106 35.1001 93.7241 35.1684 94.5866C35.1684 94.5866 35.1684 94.8343 34.024 94.4842C33.7763 94.4073 33.17 94.5525 32.965 94.4842C32.7601 94.4158 32.1367 93.7412 31.5986 93.7583L31.8207 92.8274Z" fill="#FFB27D"/>
<path d="M35.9446 91.8538C35.9446 91.8538 36.7132 92.3576 37.2598 92.332C37.8064 92.3064 38.4981 92.537 38.4981 92.537C38.4981 92.537 39.224 92.7505 39.2923 93.613C39.2923 93.613 39.2752 93.9717 38.148 93.5105C37.8405 93.3824 37.294 93.5788 37.089 93.5105C36.884 93.4422 36.1325 92.87 35.6201 92.7248L35.9446 91.8538Z" fill="#ED975D"/>
<path d="M30.0607 95.9787C29.8387 95.2357 30.2657 94.45 31.0087 94.2279C31.7516 94.0059 32.5373 94.4329 32.7594 95.1759C32.9814 95.9189 32.5544 96.7046 31.8114 96.9266C31.0684 97.1486 30.2828 96.7216 30.0607 95.9787Z" fill="#415DA5"/>
<path d="M44.1777 119.968C44.1777 118.951 45.0061 118.123 46.0224 118.123C47.0386 118.123 47.867 118.951 47.867 119.968C47.867 120.984 47.0386 121.812 46.0224 121.812C45.0061 121.804 44.1777 120.984 44.1777 119.968Z" fill="#699DEE"/>
<path d="M120.184 42.6379C117.34 42.6379 115.043 45.0548 115.043 48.0352C115.043 51.0157 120.184 56.8742 120.184 56.8742C120.184 56.8742 125.325 51.0157 125.325 48.0352C125.325 45.0548 123.028 42.6379 120.184 42.6379ZM120.184 50.2386C118.749 50.2386 117.596 49.0771 117.596 47.6509C117.596 46.2247 118.758 45.0633 120.184 45.0633C121.619 45.0633 122.772 46.2247 122.772 47.6509C122.772 49.0771 121.619 50.2386 120.184 50.2386Z" fill="#F99746"/>
<path d="M120.748 85.2866H107.869L107.886 84.7144C107.886 84.6888 107.921 82.4 106.956 80.1198C105.7 77.1565 103.386 75.6022 100.081 75.4997C97.3993 75.4143 95.2813 76.1402 93.7868 77.6518C91.148 80.3333 91.3102 84.6631 91.3102 84.7058L91.3358 85.2866H90.7466H68.3461L41.3083 64.6111H22.9473V63.4924H41.6841L68.7304 84.1678H90.2C90.2427 82.7929 90.5929 79.3085 92.9926 76.8746C94.7092 75.1325 97.1089 74.2955 100.124 74.3809C104.846 74.5261 107.015 77.3614 108.006 79.7185C108.766 81.5204 108.954 83.2882 108.997 84.1678H119.638V61.7332H120.756V85.2866H120.748Z" fill="#F99746"/>
<path d="M117.861 60.4777C117.861 59.1881 118.903 58.1462 120.193 58.1462C121.482 58.1462 122.524 59.1881 122.524 60.4777C122.524 61.7672 121.482 62.8091 120.193 62.8091C118.903 62.8091 117.861 61.7672 117.861 60.4777Z" fill="white"/>
<path d="M120.184 63.2446C118.664 63.2446 117.426 62.0063 117.426 60.4862C117.426 58.9661 118.664 57.7278 120.184 57.7278C121.704 57.7278 122.943 58.9661 122.943 60.4862C122.951 62.0063 121.704 63.2446 120.184 63.2446ZM120.184 58.5903C119.142 58.5903 118.288 59.4358 118.288 60.4862C118.288 61.5281 119.134 62.3821 120.184 62.3821C121.226 62.3821 122.08 61.5366 122.08 60.4862C122.08 59.4358 121.226 58.5903 120.184 58.5903Z" fill="#F99746"/>
<path d="M22.9896 66.3877C24.2772 66.3877 25.3211 65.3439 25.3211 64.0563C25.3211 62.7687 24.2772 61.7249 22.9896 61.7249C21.702 61.7249 20.6582 62.7687 20.6582 64.0563C20.6582 65.3439 21.702 66.3877 22.9896 66.3877Z" fill="white"/>
<path d="M22.9899 66.823C21.4697 66.823 20.2314 65.5847 20.2314 64.0646C20.2314 62.5445 21.4697 61.3062 22.9899 61.3062C24.51 61.3062 25.7483 62.5445 25.7483 64.0646C25.7568 65.5847 24.5185 66.823 22.9899 66.823ZM22.9899 62.1687C21.948 62.1687 21.094 63.0142 21.094 64.0646C21.094 65.1065 21.9395 65.9605 22.9899 65.9605C24.0318 65.9605 24.8858 65.115 24.8858 64.0646C24.8858 63.0142 24.0318 62.1687 22.9899 62.1687Z" fill="#F99746"/>
<path d="M88.5684 84.4755C88.5684 83.1859 89.6102 82.144 90.8998 82.144C92.1893 82.144 93.2312 83.1859 93.2312 84.4755C93.2312 85.765 92.1893 86.8069 90.8998 86.8069C89.6102 86.8069 88.5684 85.765 88.5684 84.4755Z" fill="white"/>
<path d="M90.9 87.2424C89.3799 87.2424 88.1416 86.0041 88.1416 84.484C88.1416 82.9639 89.3799 81.7256 90.9 81.7256C92.4202 81.7256 93.6585 82.9639 93.6585 84.484C93.6585 86.0041 92.4202 87.2424 90.9 87.2424ZM90.9 82.5881C89.8582 82.5881 89.0042 83.4336 89.0042 84.484C89.0042 85.5259 89.8496 86.3799 90.9 86.3799C91.9419 86.3799 92.7959 85.5344 92.7959 84.484C92.7874 83.4336 91.9419 82.5881 90.9 82.5881Z" fill="#F99746"/>
<path d="M86.6983 26.2066L85.9297 26.7531L85.1611 26.2066C85.3319 25.9674 85.6138 25.8052 85.9297 25.8052C86.2457 25.8137 86.5275 25.9674 86.6983 26.2066Z" fill="white"/>
<path d="M85.9301 24.4729C85.1615 24.4729 84.4783 24.8572 84.0684 25.4379L84.5551 25.7795C84.8626 25.344 85.3664 25.0622 85.9301 25.0622C86.4937 25.0622 86.9891 25.344 87.2965 25.7624L87.7833 25.4123C87.3734 24.8487 86.6987 24.4729 85.9301 24.4729Z" fill="white"/>
<path d="M85.9301 21.928C84.299 21.928 82.8642 22.7393 81.9932 23.9776L82.48 24.3192C83.2486 23.2346 84.5125 22.5258 85.9387 22.5258C87.3563 22.5258 88.6117 23.2261 89.3718 24.2936L89.85 23.9434C88.9789 22.7222 87.5442 21.928 85.9301 21.928Z" fill="white"/>
<path d="M85.9308 23.3201C84.7693 23.3201 83.7445 23.8923 83.1211 24.7719L83.6079 25.1135C84.1288 24.3876 84.9743 23.9179 85.9308 23.9179C86.8787 23.9179 87.7242 24.3876 88.2451 25.0964L88.7234 24.7548C88.0999 23.8837 87.0837 23.3201 85.9308 23.3201Z" fill="white"/>
<path d="M201.707 30.5449C198.282 30.5449 195.507 33.4571 195.507 37.0439C195.507 40.6307 201.707 47.6933 201.707 47.6933C201.707 47.6933 207.907 40.6307 207.907 37.0439C207.898 33.4571 205.123 30.5449 201.707 30.5449ZM201.707 39.6998C199.982 39.6998 198.59 38.2993 198.59 36.5827C198.59 34.8576 199.99 33.4656 201.707 33.4656C203.432 33.4656 204.824 34.8662 204.824 36.5827C204.824 38.3078 203.423 39.6998 201.707 39.6998Z" fill="#CDE0FB"/>
<path d="M213.689 103.631L212.895 103.298L218.847 89.2663V70.3587L210.879 70.1025V58.5564L203.39 51.0668L204.013 50.4519L211.75 58.1892V69.257L219.718 69.5218V89.4457L219.684 89.5225L213.689 103.631Z" fill="#CDE0FB"/>
<path d="M210.964 103.818C210.964 102.529 212.006 101.487 213.295 101.487C214.585 101.487 215.627 102.529 215.627 103.818C215.627 105.108 214.585 106.15 213.295 106.15C212.006 106.15 210.964 105.108 210.964 103.818Z" fill="white"/>
<path d="M213.295 106.585C211.775 106.585 210.528 105.347 210.528 103.818C210.528 102.298 211.767 101.052 213.295 101.052C214.815 101.052 216.062 102.29 216.062 103.818C216.054 105.347 214.815 106.585 213.295 106.585ZM213.295 101.931C212.253 101.931 211.399 102.777 211.399 103.818C211.399 104.86 212.245 105.714 213.295 105.714C214.337 105.714 215.191 104.869 215.191 103.818C215.183 102.777 214.337 101.931 213.295 101.931Z" fill="#CDE0FB"/>
<path d="M216.951 69.9401C216.951 68.6505 217.993 67.6086 219.283 67.6086C220.572 67.6086 221.614 68.6505 221.614 69.9401C221.614 71.2296 220.572 72.2715 219.283 72.2715C217.993 72.2715 216.951 71.2296 216.951 69.9401Z" fill="white"/>
<path d="M219.283 72.7073C217.762 72.7073 216.516 71.469 216.516 69.9403C216.516 68.4116 217.754 67.1733 219.283 67.1733C220.811 67.1733 222.05 68.4116 222.05 69.9403C222.05 71.469 220.803 72.7073 219.283 72.7073ZM219.283 68.053C218.241 68.053 217.387 68.8984 217.387 69.9488C217.387 70.9993 218.232 71.8447 219.283 71.8447C220.333 71.8447 221.178 70.9993 221.178 69.9488C221.178 68.8984 220.324 68.053 219.283 68.053Z" fill="#CDE0FB"/>
<path d="M203.697 51.7413C204.239 51.7413 204.679 51.3016 204.679 50.7592C204.679 50.2168 204.239 49.7771 203.697 49.7771C203.155 49.7771 202.715 50.2168 202.715 50.7592C202.715 51.3016 203.155 51.7413 203.697 51.7413Z" fill="#CDE0FB"/>
<path d="M117.392 47.8556C117.392 46.3098 118.647 45.063 120.184 45.063C121.73 45.063 122.977 46.3184 122.977 47.8556C122.977 49.4013 121.721 50.6482 120.184 50.6482C118.638 50.6482 117.392 49.4013 117.392 47.8556Z" fill="white"/>
</svg>
