<svg width="163" height="143" viewBox="0 0 163 143" fill="none" xmlns="http://www.w3.org/2000/svg">
<path d="M161.683 100.509L160.439 98.2281C160.319 98.0098 160.396 97.726 160.625 97.6059C160.843 97.4858 161.127 97.5622 161.247 97.7915L162.491 100.073C162.611 100.291 162.535 100.575 162.306 100.695C162.076 100.804 161.804 100.728 161.683 100.509Z" fill="#FAE0B2"/>
<path d="M50.8447 27.1303L49.3166 27.5997L48.2797 25.2202L45.9657 25.624L44.9069 23.9758L44.0664 24.5107L45.4854 26.7265L47.6793 26.3335L48.749 28.8113L51.0521 28.1018L50.8447 27.1303Z" fill="#50BFA5"/>
<path d="M148.962 112.673L147.434 113.142L146.397 110.763L144.083 111.177L143.024 109.518L142.184 110.053L143.603 112.269L145.797 111.876L146.866 114.354L149.169 113.644L148.962 112.673Z" fill="#50BFA5"/>
<path d="M41.4141 140.834C41.4141 140.834 33.2495 113.164 32.5946 107.063C31.9397 100.961 36.5022 102.849 36.5022 102.849C36.5022 102.849 32.6601 91.2137 35.4435 88.4521C38.2159 85.6906 40.7264 90.8425 40.7264 90.8425C40.7264 90.8425 41.5669 76.7183 44.5249 76.7183C50.0371 76.7074 49.9279 92.1196 49.9279 92.1196C49.9279 92.1196 51.336 86.0835 54.294 87.7426C58.7474 90.2313 52.362 102.325 52.362 102.325C52.362 102.325 58.0379 102.325 60.0354 105.196C63.6047 110.315 41.4141 140.834 41.4141 140.834Z" fill="#50BFA5"/>
<path d="M44.088 137.167C44.088 137.167 20.5548 133.226 15.4356 129.057C10.3164 124.887 15.381 123.01 15.381 123.01C15.381 123.01 3.55986 116.952 3.69084 112.826C3.83274 108.7 9.70511 110.796 9.70511 110.796C9.70511 110.796 -0.260456 99.433 2.09723 97.2827C6.48514 93.2659 18.0116 105.076 18.0116 105.076C18.0116 105.076 14.5951 99.4549 18.1971 98.5707C23.6329 97.2282 27.6388 111.08 27.6388 111.08C27.6388 111.08 26.6237 105.611 30.3676 106.342C37.0695 107.641 44.088 137.167 44.088 137.167Z" fill="#50BFA5"/>
<path d="M30.3563 106.331C26.6015 105.655 27.6275 111.069 27.6275 111.069C27.6275 111.069 23.6216 97.2172 18.1859 98.5597C14.5838 99.4439 18.0003 105.065 18.0003 105.065C18.0003 105.065 6.48476 93.255 2.08594 97.2718L44.0003 137.167C43.2581 133.368 36.6435 107.477 30.3563 106.331Z" fill="#3C8F7C"/>
<path d="M50.7793 140.408C50.7793 140.408 38.3796 127.801 32.147 126.491C25.9035 125.181 27.0278 129.624 27.0278 129.624C27.0278 129.624 14.639 118.796 11.7683 121.416C8.89765 124.035 11.9976 126.579 11.9976 126.579C11.9976 126.579 1.6827 124.756 0.20915 128.139C-2.06121 133.346 14.901 136.173 14.901 136.173C14.901 136.173 7.79522 136.664 9.44342 139.928C11.9321 144.84 50.7793 140.408 50.7793 140.408Z" fill="#355389"/>
<path d="M0.208984 128.129C1.68254 124.745 11.9974 126.568 11.9974 126.568C11.9974 126.568 8.89748 124.036 11.7682 121.405C14.6389 118.785 26.6347 128.14 26.6347 128.14C26.6347 128.14 23.8076 122.737 30.0511 124.046C36.2946 125.356 50.7791 140.408 50.7791 140.408L0.208984 128.129Z" fill="#466EB6"/>
<path d="M70.5141 10.4083C66.3445 11.096 65.1001 16.5754 68.5712 19.0204C69.1933 19.457 69.6299 20.1228 69.8046 20.8651L70.4377 23.4083C70.6123 24.1069 71.3 24.5653 72.0094 24.4453L73.5921 24.1833C74.3016 24.0632 74.8146 23.4192 74.7492 22.6988C74.5309 20.0683 74.258 19.1186 75.1094 17.9398C77.6089 14.5124 74.6837 9.72066 70.5141 10.4083Z" fill="#F7CC7F"/>
<path d="M70.9394 21.542C70.6666 19.2935 70.2845 16.914 70.1536 16.2372C67.7631 16.3682 68.6691 13.8468 69.7715 14.8728C70.0881 15.1675 70.23 15.5605 70.3282 15.9971C71.125 15.9207 71.9 15.7024 72.6095 15.3313C72.5767 14.7746 72.5112 14.3598 72.675 13.9996C72.9042 13.4648 73.5918 13.312 73.8647 13.8359C73.9739 14.0324 73.9848 14.2834 73.9084 14.4908C73.7447 14.9383 73.2644 15.233 72.8496 15.4623C72.9806 17.2524 73.1443 19.0534 73.3735 20.8325L73.1443 20.8653C72.926 19.1189 72.7514 17.3397 72.6313 15.5823C71.9327 15.9316 71.1687 16.1499 70.3828 16.2263C70.5465 17.0886 70.9067 19.4026 71.1578 21.5202L70.9394 21.542ZM69.0184 15.7024C69.2258 15.9316 69.586 16.0298 70.1099 16.008C70.0226 15.626 69.8916 15.2767 69.6187 15.0366C69.0293 14.4908 68.6582 15.3204 69.0184 15.7024ZM72.8824 14.0869C72.7514 14.3817 72.806 14.7637 72.8278 15.2112C73.1662 15.0147 73.57 14.7746 73.6901 14.4144C73.7774 14.1633 73.6792 13.8141 73.4281 13.7486C73.4063 13.7377 72.9806 13.8796 72.8824 14.0869Z" fill="#FAE0B2"/>
<path d="M69.7939 20.7998C69.8049 20.8216 69.8049 20.8435 69.8158 20.8653L70.4489 23.4085C70.6235 24.1071 71.3112 24.5656 72.0206 24.4455L73.6034 24.1835C74.3128 24.0634 74.8259 23.4195 74.7604 22.6991C74.6621 21.5311 74.553 20.6907 74.5421 20.0139L69.7939 20.7998Z" fill="#96D9C9"/>
<path d="M64.6959 14.0104L61.978 13.7703C61.727 13.7484 61.5414 13.5301 61.5633 13.2791C61.5851 13.028 61.8034 12.8425 62.0545 12.8643L64.7723 13.1044C65.0234 13.1263 65.2089 13.3446 65.1871 13.5956C65.1653 13.8576 64.947 14.0322 64.6959 14.0104Z" fill="#FAE0B2"/>
<path d="M62.0001 22.3498C61.8255 22.1752 61.8255 21.8804 62.0001 21.7058C62.666 21.04 63.4082 20.4506 64.1832 19.9266C64.3906 19.7847 64.6743 19.8393 64.8162 20.0576C64.9581 20.265 64.9036 20.5488 64.6853 20.6907C63.9539 21.1819 63.2663 21.7385 62.6332 22.3607C62.4586 22.5354 62.1748 22.5354 62.0001 22.3498Z" fill="#FAE0B2"/>
<path d="M76.9426 11.8821C76.8662 11.642 77.0081 11.3909 77.2483 11.3145L80.0753 10.4631C80.3154 10.3867 80.5665 10.5286 80.6429 10.7688C80.7193 11.0089 80.5774 11.2599 80.3373 11.3364L77.5102 12.1877C77.2701 12.2532 77.0081 12.1222 76.9426 11.8821Z" fill="#FAE0B2"/>
<path d="M81.5813 19.4025C81.5377 19.4025 81.494 19.3916 81.4613 19.3807C80.4789 19.1078 79.5293 18.7258 78.6342 18.2455C78.4159 18.1254 78.3286 17.8525 78.4487 17.6342C78.5688 17.4159 78.8416 17.3286 79.0599 17.4487C79.9004 17.8962 80.7955 18.2564 81.7123 18.5075C81.9525 18.5729 82.0944 18.824 82.0289 19.0641C81.9634 19.2715 81.7778 19.4025 81.5813 19.4025Z" fill="#FAE0B2"/>
<path d="M122.994 39.5194L121.564 36.1466L117.973 35.4044C117.569 35.317 117.427 34.804 117.743 34.5311L120.516 32.1298L120.112 28.495C120.068 28.0803 120.516 27.7965 120.876 28.0039L124.009 29.8922L127.349 28.375C127.731 28.2003 128.146 28.5387 128.047 28.9426L127.218 32.5118L129.685 35.2188C129.968 35.5244 129.772 36.0265 129.357 36.0593L125.711 36.3758L123.9 39.5631C123.692 39.9342 123.157 39.9014 122.994 39.5194Z" fill="#F7CC7F"/>
<path d="M145.697 27.9492L145.119 30.3069L141.211 29.783L139.923 33.1339L136.943 33.2103L136.987 34.7276L140.982 34.6075L142.194 31.4421L146.254 31.9878L147.138 28.4295L145.697 27.9492Z" fill="#F48C7F"/>
<path d="M110.922 141.14H42.2979C39.6783 141.14 37.5498 138.935 37.5498 136.217V133.292C37.5498 130.574 39.6783 128.369 42.2979 128.369H110.922C107.778 131.927 107.724 137.363 110.791 140.987L110.922 141.14Z" fill="#B75742"/>
<path d="M109.863 129.832H71.8018C69.1822 129.832 67.0537 132.037 67.0537 134.755C67.0537 137.472 69.1822 139.677 71.8018 139.677H109.863C108.084 136.654 108.095 132.844 109.863 129.832Z" fill="#FAE0B2"/>
<path d="M86.8208 119.495C86.919 119.309 86.7662 119.091 86.537 119.091H50.233C47.3842 119.091 45.0811 121.165 45.0811 123.73C45.0811 126.295 47.3842 128.369 50.233 128.369H86.5479C86.7771 128.369 86.9299 128.151 86.8317 127.965C85.3909 125.28 85.3909 122.169 86.8208 119.495Z" fill="#86B1F2"/>
<path d="M86.5921 119.953H68.5929C65.2529 119.953 62.5459 121.689 62.5459 123.839C62.5459 125.989 65.2529 127.725 68.5929 127.725H86.7012C85.4678 125.258 85.4351 122.442 86.5921 119.953Z" fill="#F7CC7F"/>
<path d="M81.9424 121.798H79.5956C79.0935 121.798 78.6787 121.973 78.6787 122.18V122.213H81.9314V121.798H81.9424Z" fill="#B75742"/>
<path d="M83.9395 122.748C83.9395 122.224 83.3283 121.798 82.5751 121.798H79.5625C80.1301 121.798 80.5994 122.115 80.5994 122.518L80.5885 132.681L82.2476 131.371L83.9395 132.681V122.748Z" fill="#F47458"/>
<path d="M80.1415 118.764H59.0206C57.1432 118.764 55.626 116.963 55.626 114.736C55.626 112.509 57.1432 110.708 59.0206 110.708H80.1415C78.5261 112.935 78.4606 116.21 79.9887 118.534L80.1415 118.764Z" fill="#FAE0B2"/>
<path d="M55.6259 114.736C55.6259 112.509 57.1759 110.708 59.0969 110.708H80.5453C80.6435 110.708 80.7309 110.61 80.72 110.501C80.72 110.392 80.6435 110.293 80.5453 110.293H46.5226C44.4051 110.293 42.6914 112.28 42.6914 114.736C42.6914 117.192 44.4051 119.178 46.5226 119.178H80.5453C80.6435 119.178 80.72 119.091 80.72 118.971C80.72 118.851 80.6435 118.764 80.5453 118.764H59.0969C57.1759 118.764 55.6259 116.963 55.6259 114.736Z" fill="#466EB6"/>
<path d="M76.4521 112.684H74.1053C73.6032 112.684 73.1885 112.848 73.1885 113.055V113.088H76.4412V112.684H76.4521Z" fill="#184655"/>
<path d="M78.4493 113.611C78.4493 113.098 77.838 112.684 77.0849 112.684H74.0723C74.6399 112.684 75.1092 113 75.1092 113.393L75.0983 123.359L76.7574 122.082L78.4493 123.359V113.611Z" fill="#3C8F7C"/>
<path d="M113.803 51.1331L116.925 50.3145L114.807 78.5084L111.063 78.6285L112.952 52.1591C112.985 51.6789 113.323 51.2641 113.803 51.1331Z" fill="#184655"/>
<path d="M115.092 79.3162C115.026 79.3272 114.95 79.3272 114.873 79.3162C114.251 79.2398 113.793 78.6286 113.847 77.9409L115.921 51.4279C115.976 50.7403 116.521 50.2382 117.144 50.3146C117.766 50.391 118.224 51.0022 118.17 51.6899L116.096 78.2029C116.041 78.8032 115.615 79.2617 115.092 79.3162Z" fill="#F7CC7F"/>
<path d="M86.3848 80.7243C86.3848 80.7462 86.3848 80.768 86.3848 80.7789C86.483 81.8595 87.3235 82.6672 88.2513 82.5799L114.59 80.2222C115.517 80.1349 116.205 79.1962 116.107 78.1156C116.107 78.0719 116.096 78.0283 116.085 77.9846L86.3848 80.7243Z" fill="#F7CC7F"/>
<path d="M104.722 109.202C102.997 110.162 97.7254 108.481 97.7254 108.329C97.649 109.769 91.8203 123.872 91.8203 123.872V128.216C91.8203 128.216 103.827 128.784 103.652 127.725C103.478 126.666 102.834 127.354 100.443 125.345C100.236 125.171 96.8631 124.385 97.78 122.398C99.6138 118.392 103.51 111.701 104.722 109.202Z" fill="#F7A491"/>
<path d="M91.4381 128.369H104.58C105.049 128.325 105.169 127.932 104.995 127.703C104.646 127.223 102.135 126.077 100.432 125.324C97.4852 125.673 92.3004 124.538 91.8202 123.861C90.5758 125.531 91.1653 128.314 91.4381 128.369Z" fill="#3C8F7C"/>
<path d="M88.5462 99.0836C88.3716 98.5487 99.8653 93.6696 100.378 94.2263C101.284 95.2087 94.1566 113.721 94.1566 113.721L102.343 116.22C102.343 116.22 110.857 94.8375 110.508 90.9299C110.147 87.0223 105.89 82.5798 96.6453 85.4177C87.4001 88.2557 88.5462 99.0836 88.5462 99.0836Z" fill="#355389"/>
<path d="M112.352 111.636C110.409 111.287 107.899 111.178 105.879 111.145C106.12 112.935 107.266 122.125 107.058 122.693C106.207 124.985 104.308 126.055 104.308 126.055C104.308 126.055 113.236 134.11 113.771 133.183C114.306 132.255 113.378 132.375 112.789 129.308C112.734 129.035 111.446 124.756 111.37 122.442C111.228 118.032 112.287 114.081 112.352 111.636Z" fill="#F7A491"/>
<path d="M109.481 81.5647C108.237 80.8989 105.006 80.877 101.447 81.1062C94.5162 81.5538 87.6723 82.9182 81.0905 85.1012L76.6808 86.5638L76.6917 82.0449C76.6917 82.0449 62.6547 79.6982 62.1745 83.1801C61.4431 88.4194 62.3491 99.0508 67.0317 101.419C81.5489 108.787 101.906 89.6747 101.982 92.1742C102.08 95.5361 104.907 108.034 105.639 113.503C107.647 113.535 111.107 113.535 112.614 113.197C112.897 102.467 113.028 83.453 109.481 81.5647Z" fill="#466EB6"/>
<path d="M104.045 126.241L114.076 134.252C114.469 134.514 114.808 134.285 114.819 134.001C114.862 133.412 113.629 130.934 112.799 129.275C110.3 127.671 107.003 123.49 107.058 122.671C106.01 123.566 103.871 126.033 104.045 126.241Z" fill="#3C8F7C"/>
<path d="M81.331 37.8493C80.9926 34.7712 80.6433 31.6713 78.0891 29.4227C76.0262 27.5999 73.3956 27.2834 70.7978 28.2657C63.43 31.0382 67.2285 37.5764 57.8414 44.1692C54.9271 46.2212 51.7071 47.6184 49.5132 50.3799C46.4351 54.2439 47.603 58.8829 50.3973 61.9828C63.8011 76.8165 78.7659 56.7871 79.8465 51.9735C80.6433 48.3824 81.5493 39.8358 81.331 37.8493Z" fill="#13375B"/>
<path d="M78.6129 55.1716C77.5214 53.1523 76.3862 51.5478 76.3862 51.5478C75.2511 49.5285 72.3149 48.5024 72.3149 48.5024C72.3149 48.5024 71.3325 48.5243 70.2082 48.5788C70.1427 48.7644 70.0663 48.8954 70.0008 48.95C69.5752 49.2665 67.152 48.8626 65.5802 49.9214C60.33 54.4294 61.7817 76.2598 62.1965 83.1582L78.1982 83.311C78.1982 83.311 76.1789 68.4663 79.4316 64.6569C81.691 62.0155 80.2284 58.1733 78.6129 55.1716Z" fill="#50BFA5"/>
<path d="M71.3987 41.1241C71.3987 41.1241 70.5145 47.4113 69.9033 48.9394C69.292 50.4675 73.287 53.7312 76.6052 54.7244C79.9234 55.7177 75.5901 51.3516 75.732 49.7144C75.8739 48.0771 76.4743 40.3491 76.4743 40.3491L71.3987 41.1241Z" fill="#F7A491"/>
<path d="M76.299 42.5754C76.3972 41.2983 76.4627 40.3596 76.4627 40.3596L71.3871 41.1346C71.3871 41.1346 71.2562 41.8768 71.1143 42.9138C73.1772 44.1035 75.0328 43.7215 76.299 42.5754Z" fill="#F47458"/>
<path d="M72.9809 29.652C72.9809 29.652 70.9834 30.0995 69.75 31.9879C68.5166 33.8762 67.6652 39.4102 71.7366 42.008C75.797 44.5949 78.9624 40.9383 79.017 37.3691C79.0716 33.7889 78.2966 29.0189 72.9809 29.652Z" fill="#F7A491"/>
<path d="M79.9447 36.2338C79.5955 37.0961 78.9078 37.6309 78.4057 37.4236C77.9036 37.2162 77.7726 36.3539 78.1219 35.5025C78.4712 34.6402 79.1588 34.1053 79.6609 34.3127C80.163 34.5092 80.294 35.3715 79.9447 36.2338Z" fill="#F7A491"/>
<path d="M73.5816 29.5319C73.5816 29.5319 71.0384 35.2515 68.7899 35.7536C66.5522 36.2666 66.585 39.1373 66.585 39.1373C66.585 39.1373 66.6396 32.5008 68.7353 30.9727C70.8419 29.4555 73.5816 29.5319 73.5816 29.5319Z" fill="#13375B"/>
<path d="M69.6842 36.943C69.9789 37.8708 69.706 38.7876 69.0838 38.9841C68.4617 39.1806 67.7085 38.5912 67.4138 37.6634C67.1191 36.7356 67.392 35.8187 68.0142 35.6222C68.6472 35.4258 69.3895 36.0152 69.6842 36.943Z" fill="#F7A491"/>
<path d="M98.3155 78.2026C97.355 77.8533 95.9251 77.8097 95.9469 77.6896C96.0452 77.1766 100.28 78.8248 99.7127 78.0716C99.3961 77.6569 96.2198 76.1833 95.4448 76.4234C94.6917 76.6636 89.7798 78.0389 89.7798 78.0389L76.3432 74.8844C76.3432 74.8844 72.9486 67.1783 72.6211 60.5527C69.8159 60.9348 67.9058 61.6224 65.4717 62.9759C66.6505 69.3067 69.4994 79.5779 72.6648 81.499C73.9965 82.3067 89.8562 80.5276 89.8562 80.5276C89.8562 80.5276 93.3491 80.2765 93.9276 80.0582C94.3642 79.8945 95.4776 79.2614 96.0779 79.0867C97.4532 78.6938 99.9091 79.6762 99.92 79.4033C99.92 79.2286 99.2979 78.5628 98.3155 78.2026Z" fill="#F7A491"/>
<path d="M72.7082 53.4906C72.5772 51.4495 71.8022 49.4848 69.641 48.8517C68.2985 48.4587 66.7922 48.8299 65.7116 49.714C64.4345 50.7618 64.0743 52.4319 64.0852 54.0146C64.0961 57.6166 64.3472 61.3387 65.0021 64.8861C67.4362 63.5326 70.285 62.7249 73.0902 62.3429C73.0793 62.3101 72.8719 56.1758 72.7082 53.4906Z" fill="#96D9C9"/>
<path d="M31.0775 57.333L10.2404 53.4581C9.82558 53.3817 9.54178 52.9779 9.62911 52.5631L12.2378 38.548C12.3142 38.1332 12.7181 37.8494 13.1329 37.9367L33.97 41.8116C34.3848 41.888 34.6686 42.2919 34.5812 42.7067L31.9725 56.7218C31.8961 57.1366 31.4922 57.4094 31.0775 57.333Z" fill="#F7CC7F"/>
<path d="M21.1553 41.3094L14.8136 40.1306C14.3988 40.0542 14.115 39.6503 14.2023 39.2355L14.5953 37.1071C14.6717 36.6923 15.0756 36.4085 15.4903 36.4958L21.8321 37.6746C22.2469 37.7511 22.5306 38.1549 22.4433 38.5697L22.0504 40.6982C21.974 41.1129 21.5701 41.3858 21.1553 41.3094Z" fill="#F7CC7F"/>
<path d="M32.0159 56.7981C31.9068 57.1801 31.5247 57.4203 31.1318 57.3439L10.1746 53.4362C9.78165 53.3598 9.50877 53.0105 9.55243 52.6067L10.6549 40.0433C10.6767 39.825 10.7858 39.6285 10.9605 39.4975C11.1351 39.3665 11.3534 39.312 11.5717 39.3556L34.8648 43.689C35.0831 43.7326 35.2686 43.8527 35.3778 44.0382C35.4869 44.2238 35.5197 44.4421 35.4651 44.6495L32.0159 56.7981Z" fill="#FAE0B2"/>
<path d="M127.568 10.8997L124.009 11.8711L123.234 7.5487L124.402 7.34131L124.948 10.3867L127.262 9.75357L127.568 10.8997Z" fill="#50BFA5"/>
<path d="M13.9189 70.2674C14.814 70.191 16.1893 70.5839 16.8005 71.0096C16.8879 71.0969 17.5974 71.3807 18.3396 72.5923L18.1759 72.7015C17.4009 71.8937 16.877 71.7082 16.2548 71.5226C15.2288 71.2607 14.2027 71.4571 14.1154 71.5008L13.9189 70.2674Z" fill="#355389"/>
<path d="M18.2519 72.647C18.2519 72.647 12.8053 73.5529 13.3183 77.8099C13.8313 82.0668 19.5727 85.3741 24.6919 82.7435C31.5903 79.207 28.8615 70.2129 23.9606 69.5143C19.0487 68.8157 18.2519 72.647 18.2519 72.647Z" fill="#F47458"/>
<path d="M20.5658 70.7693C20.5658 70.7693 21.9847 69.3067 25.0956 70.6383C28.2064 71.97 28.4356 78.148 25.6522 77.7878C22.8798 77.4385 18.3391 71.6643 20.5658 70.7693Z" fill="#F48C7F"/>
<path d="M58.0048 14.2834L35.6177 22.2733C34.8973 22.5353 34.1005 22.1532 33.8494 21.4328L29.7126 9.84089C29.4506 9.12049 29.8326 8.32367 30.553 8.07263L52.9401 0.0826992C53.6605 -0.179266 54.4573 0.202768 54.7084 0.923171L58.8452 12.5042C59.1072 13.2355 58.7252 14.0214 58.0048 14.2834Z" fill="#86B1F2"/>
<path d="M43.1707 11.3035C43.9894 13.6066 42.7887 16.1499 40.4856 16.9685C38.1825 17.7872 35.6392 16.5865 34.8206 14.2834C34.002 11.9803 35.2026 9.43703 37.5057 8.61839C39.8088 7.78883 42.3412 9.00042 43.1707 11.3035Z" fill="white"/>
<path d="M39.6235 10.6816C39.8637 11.3583 39.5144 12.1115 38.8267 12.3516C38.15 12.5918 37.3968 12.2425 37.1567 11.5548C36.9166 10.8781 37.2659 10.1249 37.9535 9.88479C38.6303 9.64466 39.3834 10.0049 39.6235 10.6816Z" fill="#86B1F2"/>
<path d="M41.7518 14.3269L37.8114 15.735L37.6586 15.2984C37.3748 14.4906 37.7895 13.6065 38.5973 13.3227L39.6124 12.9625C40.4201 12.6787 41.3042 13.0935 41.588 13.9012L41.7518 14.3269Z" fill="#86B1F2"/>
<path d="M43.7166 8.88031C43.4765 8.88031 43.2691 8.7275 43.1818 8.50919C43.0726 8.21448 43.2254 7.88703 43.5201 7.78879L53.3111 4.29593C53.3766 4.2741 53.4311 4.26318 53.4966 4.26318C53.7368 4.26318 53.9442 4.416 54.0315 4.6343C54.1406 4.92901 53.9878 5.25647 53.6931 5.3547L43.9022 8.84757C43.8476 8.8694 43.7821 8.88031 43.7166 8.88031Z" fill="white"/>
<path d="M46.3582 11.3252C46.1181 11.3252 45.9107 11.1724 45.8234 10.9541C45.7142 10.6594 45.867 10.3319 46.1617 10.2337L53.8024 7.50491C53.8679 7.48308 53.9225 7.47217 53.9879 7.47217C54.2281 7.47217 54.4355 7.62498 54.5228 7.84328C54.5774 7.98518 54.5664 8.13799 54.501 8.27989C54.4355 8.42179 54.3263 8.52003 54.1844 8.5746L46.5438 11.3034C46.4892 11.3143 46.4237 11.3252 46.3582 11.3252Z" fill="white"/>
<path d="M92.7916 101.66H38.7395C37.0586 101.66 35.7051 103.024 35.7051 104.694V107.248C35.7051 108.929 37.0695 110.283 38.7395 110.283H92.7916L92.7588 110.25C90.4448 107.859 90.4666 104.05 92.7916 101.66Z" fill="#F47458"/>
<path d="M91.8312 102.937H62.9387C61.2578 102.937 59.9043 104.301 59.9043 105.971C59.9043 107.652 61.2687 109.005 62.9387 109.005H91.8312C90.7725 107.128 90.7725 104.814 91.8312 102.937Z" fill="#FAE0B2"/>
<path d="M137.031 101.911L132.938 91.6284C132.731 91.1154 132.982 90.526 133.505 90.3186L148.252 84.4462C148.765 84.2388 149.354 84.4899 149.562 85.0138L153.655 95.2959C153.862 95.8089 153.611 96.3984 153.087 96.6057L138.341 102.478C137.828 102.675 137.238 102.424 137.031 101.911Z" fill="#FAE0B2"/>
<path d="M150.937 95.9615L147.258 86.7273C147.204 86.5745 147.269 86.4107 147.422 86.3562C147.575 86.3016 147.739 86.3671 147.793 86.5199L151.472 95.7542C151.526 95.907 151.461 96.0707 151.308 96.1253C151.166 96.1798 151.002 96.1144 150.937 95.9615Z" fill="#466EB6"/>
<path d="M149.191 94.7391L146.167 87.1531C146.113 87.0003 146.178 86.8365 146.331 86.7819C146.484 86.7274 146.648 86.7929 146.702 86.9457L149.726 94.5317C149.78 94.6845 149.715 94.8483 149.562 94.9029C149.42 94.9683 149.246 94.8919 149.191 94.7391Z" fill="#466EB6"/>
<path d="M148.754 96.8351L145.076 87.6008C145.021 87.448 145.087 87.2843 145.239 87.2297C145.392 87.1751 145.556 87.2406 145.611 87.3934L149.289 96.6277C149.344 96.7805 149.278 96.9442 149.125 96.9988C148.983 97.0534 148.809 96.9879 148.754 96.8351Z" fill="#466EB6"/>
<path d="M146.811 95.165L143.973 88.0373C143.919 87.8845 143.984 87.7208 144.137 87.6662C144.29 87.6116 144.453 87.6771 144.508 87.83L147.346 94.9576C147.4 95.1104 147.335 95.2741 147.182 95.3287C147.04 95.3833 146.877 95.3069 146.811 95.165Z" fill="#466EB6"/>
<path d="M150.839 85.7343L150.762 85.5487C150.73 85.4832 150.664 85.4505 150.599 85.4723L149.201 86.029C149.136 86.0508 149.103 86.1272 149.136 86.2036L149.212 86.3892C149.245 86.4547 149.311 86.4874 149.376 86.4656L150.773 85.9089C150.839 85.8871 150.871 85.8107 150.839 85.7343Z" fill="#355389"/>
<path d="M151.155 86.5309L151.079 86.3453C151.046 86.2799 150.98 86.2471 150.915 86.2689L149.518 86.8256C149.452 86.8474 149.42 86.9238 149.452 87.0003L149.529 87.1858C149.561 87.2513 149.627 87.2841 149.692 87.2622L151.09 86.7056C151.155 86.6837 151.188 86.6073 151.155 86.5309Z" fill="#355389"/>
<path d="M151.482 87.3275L151.406 87.142C151.384 87.0765 151.308 87.0437 151.242 87.0656L149.845 87.6223C149.779 87.6441 149.747 87.7205 149.779 87.7969L149.856 87.9825C149.889 88.0479 149.954 88.0807 150.02 88.0589L151.417 87.5022C151.471 87.4694 151.504 87.393 151.482 87.3275Z" fill="#355389"/>
<path d="M151.799 88.1244L151.722 87.9388C151.689 87.8734 151.624 87.8406 151.559 87.8624L150.161 88.4191C150.096 88.441 150.063 88.5174 150.096 88.5938L150.172 88.7793C150.205 88.8448 150.271 88.8776 150.336 88.8557L151.733 88.2991C151.788 88.2663 151.82 88.1899 151.799 88.1244Z" fill="#355389"/>
<path d="M152.116 88.9215L152.04 88.736C152.007 88.6705 151.941 88.6377 151.876 88.6596L150.479 89.2162C150.413 89.2381 150.38 89.3145 150.413 89.3909L150.49 89.5764C150.522 89.6419 150.588 89.6747 150.653 89.6528L152.051 89.0962C152.105 89.0634 152.138 88.987 152.116 88.9215Z" fill="#355389"/>
<path d="M152.432 89.7182L152.356 89.5326C152.323 89.4671 152.258 89.4344 152.192 89.4562L150.795 90.0129C150.73 90.0347 150.697 90.1111 150.73 90.1875L150.806 90.3731C150.839 90.4386 150.904 90.4713 150.97 90.4495L152.367 89.8928C152.421 89.8601 152.454 89.7837 152.432 89.7182Z" fill="#355389"/>
<path d="M152.749 90.515L152.672 90.3295C152.64 90.264 152.574 90.2312 152.509 90.2531L151.112 90.8097C151.046 90.8316 151.013 90.908 151.046 90.9844L151.122 91.17C151.155 91.2354 151.221 91.2682 151.286 91.2464L152.683 90.6897C152.738 90.6569 152.771 90.5805 152.749 90.515Z" fill="#355389"/>
<path d="M153.065 91.3119L152.989 91.1264C152.956 91.0609 152.891 91.0281 152.825 91.0499L151.428 91.6066C151.362 91.6285 151.33 91.7049 151.362 91.7813L151.439 91.9668C151.472 92.0323 151.537 92.0651 151.603 92.0432L153 91.4866C153.065 91.4538 153.087 91.3774 153.065 91.3119Z" fill="#355389"/>
<path d="M153.382 92.0976L153.305 91.912C153.272 91.8465 153.207 91.8138 153.142 91.8356L151.744 92.3923C151.679 92.4141 151.646 92.4905 151.679 92.5669L151.755 92.7525C151.788 92.818 151.854 92.8507 151.919 92.8289L153.316 92.2722C153.382 92.2504 153.403 92.174 153.382 92.0976Z" fill="#355389"/>
<path d="M153.698 92.8944L153.622 92.7089C153.589 92.6434 153.523 92.6106 153.458 92.6325L152.061 93.1892C151.995 93.211 151.963 93.2874 151.995 93.3638L152.072 93.5493C152.104 93.6148 152.17 93.6476 152.235 93.6258L153.633 93.0691C153.698 93.0472 153.72 92.9708 153.698 92.8944Z" fill="#355389"/>
<path d="M154.015 93.6913L153.939 93.5057C153.917 93.4403 153.841 93.4075 153.775 93.4293L152.378 93.986C152.313 94.0078 152.28 94.0842 152.313 94.1607L152.389 94.3462C152.422 94.4117 152.487 94.4445 152.553 94.4226L153.95 93.866C154.015 93.8441 154.037 93.7677 154.015 93.6913Z" fill="#355389"/>
<path d="M154.331 94.4879L154.254 94.3024C154.222 94.2369 154.156 94.2041 154.091 94.226L152.694 94.7826C152.628 94.8045 152.595 94.8809 152.628 94.9573L152.704 95.1428C152.726 95.2083 152.803 95.2411 152.868 95.2193L154.265 94.6626C154.331 94.6298 154.364 94.5534 154.331 94.4879Z" fill="#355389"/>
<path d="M158.196 93.6694L152.345 101.998C152.334 102.02 152.323 102.041 152.313 102.063L151.712 103.897C151.647 104.115 151.887 104.29 152.072 104.148L153.633 102.969C153.655 102.958 153.666 102.936 153.688 102.915L159.56 94.5644C159.637 94.4553 159.604 94.3134 159.495 94.237L158.512 93.6039C158.403 93.5384 158.272 93.5711 158.196 93.6694Z" fill="#B75742"/>
<path d="M153.688 102.926L153.677 102.948L152.171 104.083L151.756 103.81L152.323 102.074C152.76 102.315 153.284 102.566 153.688 102.926Z" fill="#F7CC7F"/>
<path d="M98.9151 3.45508C99.7556 4.13182 101.218 6.29303 103.096 7.81024C104.187 8.69437 105.028 8.47607 106.425 8.6398C113.05 9.43661 111.249 10.7901 112.046 10.932C111.817 11.4559 109.754 15.8329 109.372 16.728C109.012 17.5466 108.4 17.9068 107.505 17.7867C106.141 17.6012 104.755 17.4593 103.401 17.1646C99.9412 16.4114 98.0201 14.6868 95.5423 12.5911C94.8874 12.0344 94.7237 11.3359 95.0621 10.55C96.6557 6.88245 98.7405 3.79345 98.9151 3.45508Z" fill="#466EB6"/>
<path d="M112.767 16.2151C112.734 17.656 112.843 17.9507 112.232 17.7324C111.861 17.6014 111.501 17.4267 111.141 17.2521C110.89 17.1211 110.879 16.9574 111.086 16.75C111.381 16.4553 111.686 16.1715 111.981 15.8768C111.763 15.3092 112.014 14.6543 112.538 14.3377C112.647 14.2722 112.57 14.4032 113.487 12.2857C110.442 11.9146 108.281 11.6526 104.559 11.1942C103.565 11.0741 102.681 10.6811 101.906 10.0371C99.243 7.81045 96.5906 5.58375 93.9382 3.36796C93.578 3.06233 93.5344 2.62573 93.8182 2.28736C94.0365 2.02539 94.3312 2.01448 94.6368 2.05814C95.4882 2.16729 103.817 3.20423 104.657 3.30247C105.77 3.43345 106.742 3.84823 107.604 4.56863C110.213 6.75167 112.832 8.93471 115.452 11.1178C115.812 11.4125 115.911 11.6963 115.78 12.0237C115.638 12.3948 115.343 12.5695 114.885 12.4603C114.557 12.3839 114.404 12.4931 114.295 12.7987C113.782 14.174 113.422 14.4796 113.553 14.9927C113.64 15.3638 113.182 16.0405 112.767 16.2151Z" fill="#86B1F2"/>
<path d="M126.574 114.267L128.091 115.718C131.683 119.146 134.608 123.195 136.725 127.682L136.955 128.173C136.955 128.173 140.928 128.522 141.484 124.931C138.002 120.991 135.132 116.788 132.763 112.116L132.043 110.436L126.574 114.267Z" fill="#466EB6"/>
<path d="M132.043 110.425C132.239 110.708 131.169 111.789 129.663 112.837C128.157 113.885 126.76 114.529 126.574 114.245C126.378 113.961 127.447 112.87 128.964 111.822C130.471 110.774 131.846 110.152 132.043 110.425Z" fill="#86B1F2"/>
<path d="M132.053 110.436C132.053 110.436 129.019 112.99 127.774 113.252L128.156 113.776C128.615 113.525 129.128 113.208 129.663 112.837C131.158 111.8 132.217 110.73 132.053 110.436Z" fill="#355389"/>
<path d="M136.092 117.869C136.092 118.306 135.928 120.216 132.763 121.013C132.97 121.297 133.177 121.581 133.374 121.875C135.382 121.286 136.277 120.249 136.692 119.463C136.758 119.343 136.834 119.168 136.889 119.048C136.616 118.666 136.354 118.273 136.092 117.869Z" fill="#B75742"/>
<path d="M133.047 120.456L128.375 120.281L129.488 121.22L128.823 122.421L133.243 121.297L133.047 120.456Z" fill="#B75742"/>
<path d="M133.473 121.537L131.813 124.429L132.981 123.982L133.429 124.899L134.204 121.864L133.473 121.537Z" fill="#B75742"/>
<path d="M134.106 122.323C133.287 122.377 132.578 121.744 132.512 120.904C132.458 120.063 133.069 119.332 133.887 119.266C134.706 119.212 135.416 119.845 135.481 120.685C135.536 121.537 134.924 122.268 134.106 122.323Z" fill="#F47458"/>
<path d="M144.006 56.8092L134.182 48.0443C133.549 47.4767 133.811 46.2978 134.695 45.8066L142.532 41.3641C143.034 41.0804 143.602 41.1022 143.962 41.4296L153.786 50.1945C154.419 50.7621 154.157 51.941 153.273 52.4322L145.436 56.8746C144.933 57.1584 144.366 57.1366 144.006 56.8092Z" fill="#9BC1F9"/>
<path d="M143.536 49.8343L142.718 43.0996C142.685 42.8377 142.87 42.5648 143.132 42.4884C143.394 42.401 143.634 42.5539 143.667 42.8049L144.42 49.0047L151.865 50.8057C152.105 50.8603 152.225 51.1223 152.116 51.3952C152.006 51.6571 151.734 51.8209 151.483 51.7663L143.536 49.8343Z" fill="white"/>
<path d="M15.2499 18.9878L16.2759 20.9962L18.5681 20.9198L19.5395 23.2556L21.9627 22.4261L23.1852 25.013L25.5101 24.5218L27.0928 26.814L26.2196 27.4143L25.0408 25.7006L22.5849 26.2137L21.4169 23.725L18.9501 24.5764L17.8695 22.0004L15.6319 22.0768L14.6932 20.2103L13.2305 20.5705L12.9795 19.5445L15.2499 18.9878Z" fill="#F7CC7F"/>
<path d="M138.111 70.3766L140.196 71.2171L141.877 69.6562L144.147 70.7695L145.424 68.5537L148.044 69.6998L149.474 67.8115L152.181 68.4992L151.919 69.5252L149.9 69.0013L148.393 71.0097L145.872 69.9072L144.573 72.1558L142.063 70.9224L140.425 72.4505L138.493 71.6646L137.62 72.898L136.758 72.2868L138.111 70.3766Z" fill="#50BFA5"/>
</svg>
