<svg width="179" height="145" viewBox="0 0 179 145" fill="none" xmlns="http://www.w3.org/2000/svg">
<path d="M14.4207 128.406C14.4207 128.406 -6.65445 104.262 2.15097 75.8895C10.0443 50.4205 45.7571 33.941 64.7273 46.5527C73.9099 52.6569 81.3208 28.1263 111.78 19.1542C134.302 12.5151 167.612 27.4071 159.158 73.0041C152.729 107.673 184.627 90.3869 177.663 128.687L14.4207 128.406Z" fill="#EBF3FA"/>
<path d="M57.676 125.819V127.591C57.676 127.731 57.6322 127.863 57.562 127.977C57.4831 128.091 57.3691 128.178 57.2375 128.231C57.2024 128.24 57.1761 128.257 57.1411 128.257C57.1323 128.257 57.1235 128.257 57.1148 128.266C57.0797 128.275 57.0358 128.275 56.992 128.275H28.7515C28.7252 128.275 28.6901 128.275 28.6638 128.266C28.655 128.266 28.6375 128.266 28.6287 128.257C28.3217 128.205 28.0849 127.942 28.0674 127.617C28.0674 127.608 28.0674 127.591 28.0674 127.582V125.81C28.0674 125.802 28.0674 125.784 28.0674 125.775C28.0849 125.416 28.3831 125.126 28.7515 125.126H56.992C57.0095 125.126 57.027 125.126 57.0446 125.126C57.0534 125.126 57.0621 125.126 57.0709 125.126C57.0797 125.126 57.0884 125.126 57.0972 125.126C57.106 125.126 57.106 125.126 57.1148 125.126C57.1586 125.135 57.2024 125.144 57.2375 125.161C57.2463 125.161 57.2463 125.17 57.2551 125.17C57.2638 125.17 57.2638 125.179 57.2726 125.179C57.2814 125.188 57.2989 125.188 57.3077 125.196C57.3165 125.205 57.334 125.214 57.3428 125.214C57.3515 125.223 57.3603 125.231 57.3779 125.231C57.3866 125.24 57.4042 125.249 57.4129 125.258C57.4217 125.267 57.4305 125.275 57.4393 125.275C57.448 125.284 57.448 125.284 57.4568 125.293C57.4743 125.31 57.4919 125.328 57.5094 125.345C57.5182 125.354 57.5182 125.354 57.527 125.363C57.5357 125.372 57.5357 125.372 57.5445 125.381C57.5533 125.389 57.562 125.407 57.5708 125.416C57.6322 125.538 57.676 125.67 57.676 125.819Z" fill="#FFB93E"/>
<path d="M43.8102 128.267H28.6813C28.6726 128.267 28.655 128.267 28.6462 128.267C28.6287 128.267 28.6199 128.267 28.6112 128.267C28.3217 128.223 28.0937 127.951 28.0762 127.626C28.0762 127.618 28.0762 127.6 28.0762 127.591V125.82C28.0762 125.811 28.0762 125.793 28.0762 125.785C28.0937 125.425 28.3568 125.135 28.6813 125.135H41.9508C41.9596 125.162 41.9596 125.188 41.9684 125.214C42.1876 126.127 42.6788 127.346 43.7838 128.258C43.7838 128.258 43.7926 128.267 43.8102 128.267Z" fill="#FFA412"/>
<path d="M54.2376 125.135H53.9131V128.275H54.2376V125.135Z" fill="#FFA412"/>
<path d="M53.1507 125.135H52.8262V128.275H53.1507V125.135Z" fill="#FFA412"/>
<path d="M51.8518 125.135H51.5273V128.275H51.8518V125.135Z" fill="#FFA412"/>
<path d="M49.8528 125.135H49.5283V128.275H49.8528V125.135Z" fill="#FFA412"/>
<path d="M47.7386 125.126H47.4141V128.266H47.7386V125.126Z" fill="#FFA412"/>
<path d="M44.5022 125.126H44.1777V128.266H44.5022V125.126Z" fill="#FFA412"/>
<path d="M41.4768 125.126H41.1523V128.266H41.4768V125.126Z" fill="#FFA412"/>
<path d="M38.7669 125.126H38.4424V128.266H38.7669V125.126Z" fill="#FFA412"/>
<path d="M55.2728 125.135H54.9482V128.275H55.2728V125.135Z" fill="#FFA412"/>
<path d="M55.9563 125.135H55.6318V128.275H55.9563V125.135Z" fill="#FFA412"/>
<path d="M56.6145 125.135H56.29V128.275H56.6145V125.135Z" fill="#FFA412"/>
<path d="M57.1145 125.144V128.257C57.0795 128.266 57.0356 128.266 56.9918 128.266H56.79V125.126H56.9918C57.0356 125.135 57.0707 125.135 57.1145 125.144Z" fill="#FFA412"/>
<path d="M57.553 125.433V127.968C57.4741 128.082 57.3601 128.17 57.2285 128.222V125.179C57.3688 125.232 57.4829 125.319 57.553 125.433Z" fill="#FFA412"/>
<path d="M59.1321 122.75V124.521C59.1321 124.661 59.0882 124.793 59.0181 124.907C58.9392 125.021 58.8251 125.109 58.6936 125.161C58.6497 125.179 58.6147 125.188 58.5708 125.196C58.5357 125.205 58.4919 125.205 58.448 125.205H30.2075C30.0935 125.205 29.9883 125.179 29.8918 125.126C29.6901 125.021 29.5497 124.819 29.5234 124.583C29.5234 124.574 29.5234 124.565 29.5234 124.556C29.5234 124.547 29.5234 124.53 29.5234 124.521V122.75C29.5234 122.741 29.5234 122.723 29.5234 122.714C29.541 122.355 29.8392 122.065 30.2075 122.065H58.448C58.4919 122.065 58.527 122.065 58.5708 122.074C58.6147 122.083 58.6585 122.092 58.6936 122.109C58.8251 122.162 58.9392 122.25 59.0181 122.364C59.0882 122.478 59.1321 122.609 59.1321 122.75Z" fill="#FFB93E"/>
<path d="M45.2662 125.205H30.1374C30.0321 125.205 29.9444 125.179 29.8567 125.126C29.6813 125.021 29.5498 124.819 29.5322 124.583C29.5322 124.574 29.5322 124.565 29.5322 124.556C29.5322 124.547 29.5322 124.53 29.5322 124.521V122.75C29.5322 122.741 29.5322 122.723 29.5322 122.714C29.5498 122.355 29.8129 122.065 30.1374 122.065H43.4069C43.6086 122.969 44.0822 124.197 45.1697 125.126C45.2048 125.153 45.2311 125.179 45.2662 125.205Z" fill="#FFA412"/>
<path d="M55.7024 122.065H55.3779V125.205H55.7024V122.065Z" fill="#FFA412"/>
<path d="M54.6155 122.065H54.291V125.205H54.6155V122.065Z" fill="#FFA412"/>
<path d="M53.3079 122.065H52.9834V125.205H53.3079V122.065Z" fill="#FFA412"/>
<path d="M51.3177 122.065H50.9932V125.205H51.3177V122.065Z" fill="#FFA412"/>
<path d="M49.2034 122.065H48.8789V125.205H49.2034V122.065Z" fill="#FFA412"/>
<path d="M45.9681 122.065H45.6436V125.205H45.9681V122.065Z" fill="#FFA412"/>
<path d="M42.9329 122.065H42.6084V125.205H42.9329V122.065Z" fill="#FFA412"/>
<path d="M40.2229 122.065H39.8984V125.205H40.2229V122.065Z" fill="#FFA412"/>
<path d="M56.7376 122.065H56.4131V125.205H56.7376V122.065Z" fill="#FFA412"/>
<path d="M57.4212 122.065H57.0967V125.205H57.4212V122.065Z" fill="#FFA412"/>
<path d="M58.0794 122.074H57.7549V125.214H58.0794V122.074Z" fill="#FFA412"/>
<path d="M58.5706 122.083V125.196C58.5355 125.205 58.4917 125.205 58.4478 125.205H58.2461V122.065H58.4478C58.4917 122.074 58.5355 122.074 58.5706 122.083Z" fill="#FFA412"/>
<path d="M59.0179 122.372V124.907C58.9389 125.021 58.8249 125.109 58.6934 125.161V122.118C58.8249 122.171 58.9389 122.258 59.0179 122.372Z" fill="#FFA412"/>
<path d="M88.9769 134.949L88.5383 135.098C86.7316 131.318 84.0128 128.547 81.3817 126.223C78.5577 123.741 72.9973 120.697 66.0687 121.259C63.2096 121.495 61.1047 122.083 60.0698 122.416L59.8418 121.916C73.2341 116.356 81.1274 122.416 85.2495 127.994C87.8893 131.573 88.9769 134.949 88.9769 134.949Z" fill="#82B378"/>
<path d="M104.176 126.757L88.9769 134.949C87.8104 132.563 86.0651 130.344 84.6005 128.722C83.1446 127.099 81.9694 126.064 81.9694 126.064C72.6553 117.864 59.8418 121.916 59.8418 121.916L70.8924 110.322C77.6544 107.892 83.6445 108.98 88.6085 111.488C98.3523 116.4 104.176 126.757 104.176 126.757Z" fill="#A8D29F"/>
<path d="M104.176 126.758L88.9772 134.949C87.8108 132.564 86.0655 130.345 84.6008 128.722C83.1449 127.1 81.9697 126.065 81.9697 126.065C72.6556 117.865 65.499 115.988 65.499 115.988L72.5241 116.119C75.1464 116.172 76.8566 114.462 79.0404 113.015C79.5403 112.681 80.0402 111.375 80.4788 111.059C82.9871 109.261 85.4866 109.901 88.6176 111.489C98.3527 116.4 104.176 126.758 104.176 126.758Z" fill="#82B378"/>
<path d="M102.693 126.327C101.229 122.679 95.6594 117.382 95.4401 117.18C92.5635 114.558 89.5026 112.602 86.3628 111.374C83.8458 110.383 81.2673 109.857 78.6976 109.804C74.3124 109.708 71.5147 111.014 71.4006 111.067L71.3568 111.085L62.3672 120.329L63.139 120.197C68.1293 119.364 72.6022 119.583 76.4436 120.846C79.5132 121.855 82.1882 123.53 84.3895 125.828C88.1608 129.748 89.4325 133.668 89.4412 133.712L102.693 126.327ZM88.7308 131.309C88.038 129.809 86.7838 127.59 84.7666 125.486C82.5039 123.126 79.7588 121.399 76.6102 120.364C73.2512 119.259 69.4273 118.925 65.2088 119.39C64.744 119.443 64.4721 118.881 64.7966 118.548L71.0235 112.146C71.4796 111.672 72.0496 111.33 72.6723 111.128C73.8651 110.751 75.9875 110.243 78.7063 110.313C81.2146 110.365 83.7317 110.892 86.1874 111.856C89.2658 113.067 92.2565 114.987 95.0893 117.566C95.1069 117.575 96.475 118.803 98.0011 120.451C100.018 122.626 101.386 124.547 101.974 126.003L89.5552 133.133C89.4325 132.704 89.2746 132.475 88.7308 131.309Z" fill="#82B378"/>
<path d="M88.749 115.795C89.7839 118.101 89.0559 120.101 86.7406 121.136C84.434 122.171 81.417 121.846 80.3908 119.531C79.3559 117.224 80.0225 115.268 82.3291 114.242C84.6357 113.207 87.7141 113.488 88.749 115.795Z" fill="#82B378"/>
<path d="M74.5764 144.842L74.094 145C72.1821 140.781 69.2352 137.65 66.3673 135.028C63.2977 132.212 57.2199 128.731 49.537 129.204C46.371 129.397 44.0205 130.002 42.8804 130.353L42.6436 129.792C57.5794 123.933 66.1744 130.818 70.6122 137.08C73.445 141.079 74.5764 144.842 74.5764 144.842Z" fill="#82B378"/>
<path d="M91.5733 136.116L74.5851 144.842C73.3485 142.176 71.4629 139.685 69.8842 137.852C68.3056 136.019 67.0339 134.861 67.0339 134.861C56.9217 125.582 42.6523 129.792 42.6523 129.792L55.1325 117.216C62.6575 114.672 69.2616 116.014 74.7079 118.899C85.3639 124.53 91.5733 136.116 91.5733 136.116Z" fill="#A8D29F"/>
<path d="M75.1115 143.483C75.1027 143.43 73.7784 139.062 69.7002 134.651C67.3059 132.064 64.3854 130.152 61.0176 128.968C56.7991 127.485 51.8526 127.143 46.3185 127.959L45.4678 128.082L55.6151 118.057L55.6589 118.04C55.7905 117.978 58.9127 116.601 63.7627 116.803C66.6043 116.917 69.4459 117.566 72.2085 118.706C75.6553 120.136 78.988 122.372 82.119 125.337C82.3646 125.565 88.4073 131.546 89.9422 135.615L75.1115 143.483ZM75.2606 142.851L89.1528 135.23C88.5389 133.607 87.0567 131.45 84.8817 129.003C83.2241 127.143 81.7419 125.758 81.7244 125.74C78.6547 122.828 75.3834 120.636 72.0068 119.233C69.3056 118.11 66.5341 117.478 63.7627 117.364C60.7545 117.233 58.3953 117.75 57.0709 118.136C56.3781 118.338 55.7378 118.715 55.2292 119.224L48.1953 126.17C47.827 126.529 48.1164 127.152 48.6339 127.108C53.3085 126.687 57.5358 127.135 61.2281 128.433C64.6836 129.652 67.683 131.616 70.1387 134.282C72.3226 136.65 73.6556 139.141 74.3924 140.808C74.9624 142.106 75.1291 142.369 75.2606 142.851Z" fill="#82B378"/>
<path d="M74.7427 123.653C75.8302 126.231 74.9795 128.424 72.4098 129.511C69.8313 130.599 66.5073 130.178 65.4198 127.599C64.3323 125.021 65.1041 122.881 67.6826 121.794C70.2523 120.697 73.6552 121.074 74.7427 123.653Z" fill="#82B378"/>
<path d="M85.6448 115.312C85.6448 115.312 84.794 121.311 85.7675 125.126H71.5684C71.5684 125.126 78.3654 100.254 92.2751 86.0193C96.2656 81.9323 99.9404 76.1088 103.484 69.7153C112.289 53.8322 120.296 34.3883 130.444 29.0823C130.444 29.0823 110.403 58.5331 106.518 75.5212C102.642 92.5094 88.8021 92.0182 85.6448 115.312Z" fill="#4C85D8"/>
<path d="M101.739 75.5213C102.151 73.7146 102.747 71.7588 103.484 69.7153C99.9407 76.1089 96.2659 81.9324 92.2754 86.0194C90.2231 88.1155 88.3287 90.4484 86.5922 92.8866C86.5834 92.7989 85.9607 87.3963 83.7594 81.9061C81.5756 76.451 77.8306 70.9081 71.5686 70.4257C71.5686 70.4257 86.715 82.0289 79.0322 105.823C74.0331 116.102 70.3145 125.126 70.3145 125.126H81.2335C80.26 121.311 81.1107 115.312 81.1107 115.312C84.2681 92.0183 97.8533 92.5094 101.739 75.5213Z" fill="#699FF0"/>
<path d="M86.5916 92.8955C86.5916 92.8955 86.574 92.9306 86.5302 92.992C86.1355 93.6585 83.8464 97.3947 84.0569 95.0969C84.285 92.5798 81.4521 83.0903 81.4521 83.0903L83.7675 81.915C85.9776 87.4491 86.5916 92.8955 86.5916 92.8955Z" fill="#4C85D8"/>
<path d="M155.246 49.7102L154.825 50.3504C153.492 49.6576 150.729 48.3859 146.861 47.4299C139.854 45.7021 133.452 46.9037 128.812 48.7805C127.242 49.412 125.883 50.1312 124.769 50.8328C120.638 53.4288 116.297 56.63 112.982 61.4098L112.412 61.1029L96.7214 49.0524L93.3975 46.5002C93.3975 46.5002 95.6251 43.7025 99.4665 40.2558C103.869 36.2916 110.403 31.4767 118.121 29.0297C122.568 27.6177 127.418 27.0038 132.478 27.8019C135.802 28.3281 139.214 29.4595 142.669 31.3714L155.246 49.7102Z" fill="#82B378"/>
<path d="M81.1982 144.281L81.6368 144.43C83.4434 140.65 86.1623 137.879 88.7934 135.554C91.6174 133.072 97.1778 130.029 104.106 130.59C106.965 130.827 109.07 131.415 110.105 131.748L110.333 131.248C96.941 125.688 89.0477 131.748 84.9256 137.326C82.2858 140.904 81.1982 144.281 81.1982 144.281Z" fill="#82B378"/>
<path d="M65.999 136.089L81.198 144.281C82.3645 141.895 84.1098 139.676 85.5744 138.054C87.0303 136.431 88.2055 135.396 88.2055 135.396C97.5196 127.196 110.333 131.248 110.333 131.248L99.2825 119.653C92.5205 117.224 86.5304 118.312 81.5664 120.82C71.8225 125.731 65.999 136.089 65.999 136.089Z" fill="#A8D29F"/>
<path d="M67.4814 135.66C68.9461 132.011 74.5153 126.714 74.7345 126.512C77.6112 123.89 80.672 121.934 83.8118 120.706C86.3289 119.715 88.9074 119.189 91.4771 119.136C95.8623 119.04 98.66 120.346 98.774 120.399L98.8179 120.417L107.807 129.661L107.036 129.529C102.045 128.696 97.5725 128.915 93.7311 130.178C90.6615 131.187 87.9865 132.862 85.7851 135.16C82.0139 139.08 80.7422 143 80.7334 143.044L67.4814 135.66ZM81.4438 140.65C82.1367 139.15 83.3908 136.931 85.408 134.826C87.6708 132.467 90.4159 130.739 93.5644 129.704C96.9235 128.599 100.747 128.266 104.966 128.731C105.431 128.784 105.703 128.222 105.378 127.889L99.1511 121.487C98.6951 121.013 98.125 120.671 97.5023 120.469C96.3096 120.092 94.1871 119.583 91.4683 119.654C88.96 119.706 86.4429 120.232 83.9872 121.197C80.9088 122.408 77.9181 124.328 75.0853 126.907C75.0678 126.915 73.6996 128.143 72.1736 129.792C70.1564 131.967 68.7882 133.888 68.2006 135.344L80.6194 142.474C80.7422 142.036 80.9001 141.808 81.4438 140.65Z" fill="#82B378"/>
<path d="M81.426 125.126C80.3911 127.433 81.1191 129.433 83.4344 130.468C85.741 131.502 88.758 131.178 89.7842 128.863C90.8191 126.556 90.1525 124.6 87.8459 123.574C85.5393 122.539 82.4609 122.82 81.426 125.126Z" fill="#82B378"/>
<path d="M116.227 141.518L115.788 141.667C113.982 137.887 111.263 135.116 108.632 132.791C105.808 130.309 100.247 127.266 93.3187 127.827C90.4596 128.064 88.3547 128.652 87.3198 128.985L87.0918 128.485C100.484 122.925 108.377 128.985 112.499 134.563C115.139 138.141 116.227 141.518 116.227 141.518Z" fill="#82B378"/>
<path d="M131.426 133.327L116.227 141.518C115.06 139.133 113.315 136.914 111.85 135.291C110.395 133.669 109.219 132.634 109.219 132.634C99.9053 124.434 87.0918 128.485 87.0918 128.485L98.1424 116.891C104.904 114.462 110.894 115.549 115.859 118.057C125.602 122.969 131.426 133.327 131.426 133.327Z" fill="#A8D29F"/>
<path d="M129.944 132.897C128.48 129.248 122.91 123.951 122.691 123.749C119.814 121.127 116.754 119.171 113.614 117.943C111.097 116.952 108.518 116.426 105.949 116.373C101.563 116.277 98.7656 117.584 98.6516 117.636L98.6078 117.654L89.6182 126.898L90.3899 126.766C95.3803 125.933 99.8531 126.152 103.695 127.415C106.764 128.424 109.439 130.099 111.64 132.397C115.412 136.317 116.683 140.238 116.692 140.281L129.944 132.897ZM115.982 137.887C115.289 136.387 114.035 134.169 112.018 132.064C109.755 129.704 107.01 127.977 103.861 126.942C100.502 125.837 96.6783 125.503 92.4598 125.968C91.9949 126.021 91.723 125.46 92.0475 125.126L98.2745 118.724C98.7305 118.25 99.3006 117.908 99.9233 117.707C101.116 117.329 103.238 116.821 105.957 116.891C108.466 116.944 110.983 117.47 113.438 118.435C116.517 119.645 119.507 121.566 122.34 124.144C122.358 124.153 123.726 125.381 125.252 127.029C127.269 129.205 128.637 131.125 129.225 132.581L116.806 139.711C116.683 139.273 116.526 139.045 115.982 137.887Z" fill="#82B378"/>
<path d="M115.999 122.364C117.034 124.67 116.306 126.67 113.991 127.705C111.684 128.74 108.667 128.415 107.641 126.1C106.606 123.793 107.272 121.837 109.579 120.811C111.886 119.776 114.964 120.057 115.999 122.364Z" fill="#82B378"/>
<path d="M128.812 48.7805C127.242 49.412 125.883 50.1312 124.769 50.8328C120.638 53.4288 116.297 56.63 112.982 61.4098L112.412 61.1029L96.7217 49.0524C97.5286 45.8249 98.4494 42.8956 99.4668 40.2558C103.869 36.2916 110.403 31.4767 118.121 29.0297C122.568 27.6177 127.418 27.0038 132.478 27.8019C132.645 27.9159 132.741 27.9773 132.741 27.9773C132.741 27.9773 124.848 37.5457 128.812 48.7805Z" fill="#719E67"/>
<path d="M108.509 44.1235L84.689 46.851L84.0488 46.8247C83.9085 44.6584 83.5313 42.615 82.9963 40.6679C82.1018 37.3966 80.7687 34.4147 79.3917 31.6871C78.5498 30.0208 77.2956 28.0825 75.6029 26.153C72.5684 22.68 68.1306 19.2157 62.2019 17.3915C58.3955 16.2162 55.3698 15.8917 53.87 15.7953L53.835 15.0322L74.0681 5.77954C77.8657 5.9111 81.251 6.64781 84.2768 7.82303C89.197 9.73496 93.1524 12.8309 96.3185 16.418C100.949 21.6626 103.896 27.9685 105.738 33.2482C107.878 39.3875 108.509 44.1235 108.509 44.1235Z" fill="#82B378"/>
<path d="M105.737 33.2397C105.395 37.6599 103.141 41.2733 98.4843 42.5888C93.3975 44.0272 87.7845 42.887 82.9871 40.6594C82.0926 37.388 80.7595 34.4061 79.3825 31.6785C78.5406 30.0122 77.2864 28.0739 75.5938 26.1445C86.1269 23.68 84.2676 7.81445 84.2676 7.81445C89.1878 9.72639 93.1432 12.8223 96.3093 16.4094C100.949 21.654 103.904 27.9687 105.737 33.2397Z" fill="#719E67"/>
<path d="M77.7164 30.5032C77.7164 30.5032 77.2867 25.9865 68.8496 27.8107C68.8496 27.8195 72.1823 31.8977 77.7164 30.5032Z" fill="#82B378"/>
<path d="M142.792 74.127C142.792 74.1358 142.792 74.1358 142.792 74.127L130.215 55.7795C121.489 50.947 113.034 51.1049 105.667 53.4378C91.231 58.0071 80.9521 70.9083 80.9521 70.9083L99.9662 85.5109L100.528 85.8179C103.843 81.038 108.184 77.8369 112.315 75.2408C116.735 72.4606 125.032 69.5226 134.407 71.838C138.275 72.7939 141.038 74.0656 142.371 74.7585L142.792 74.127C142.792 74.1358 142.792 74.1358 142.792 74.127Z" fill="#82B378"/>
<path d="M50.0281 53.5167C50.0193 53.5254 50.0193 53.5254 50.0281 53.5167L62.6047 35.1691C71.3312 30.3367 79.7858 30.4945 87.1529 32.8274C101.589 37.3968 111.868 50.2979 111.868 50.2979L92.8536 64.9093L92.2923 65.2163C88.9771 60.4365 84.6358 57.2353 80.505 54.6393C76.0847 51.8591 67.788 48.921 58.4125 51.2364C54.5448 52.1923 51.7821 53.464 50.449 54.1569L50.0281 53.5167C50.0193 53.5254 50.0193 53.5254 50.0281 53.5167Z" fill="#719E67"/>
<path d="M11.2021 121.767C11.2021 121.776 11.2111 121.776 11.229 121.785C11.2111 121.767 11.2021 121.758 11.2021 121.767Z" fill="#FFB973"/>
<path d="M91.03 43.913L90.4599 43.6148C92.5736 38.1948 92.8016 32.8098 92.6437 27.9335C92.4771 22.7151 90.2845 14.1904 83.1279 7.70908C80.1811 5.03412 77.5763 3.45546 76.2607 2.7363L76.5589 2.03467C94.9153 10.3139 96.2747 24.0745 94.5294 33.5465C93.4155 39.598 91.03 43.913 91.03 43.913Z" fill="#82B378"/>
<path d="M113.771 51.5257L91.0384 43.9042C92.3452 40.4575 92.9328 36.5722 93.1959 33.5552C93.4591 30.5295 93.3889 28.372 93.3889 28.372C92.8539 11.147 76.5674 2.01709 76.5674 2.01709L98.8177 2.20127C107.702 6.73553 112.289 13.8395 114.473 21.2592C118.726 35.7917 113.771 51.5257 113.771 51.5257Z" fill="#A8D29F"/>
<path d="M92.7133 43.2026C92.7484 43.15 95.511 38.1334 95.9057 30.5909C96.1337 26.1706 95.2918 21.8731 93.3974 17.8037C91.0294 12.7081 86.9951 7.96339 81.4171 3.70978L80.5576 3.052L98.4579 3.3765L98.5193 3.40282C98.6859 3.47298 102.659 5.06918 106.737 9.59467C109.123 12.2521 111.043 15.3656 112.429 18.8562C114.166 23.2062 115.086 28.1615 115.165 33.5728C115.174 33.9938 115.095 44.6673 112.789 49.6137L92.7133 43.2026ZM93.4149 42.7816L112.447 48.5876C113.367 46.6143 114.008 43.3956 114.297 39.291C114.516 36.1688 114.455 33.6166 114.455 33.5903C114.376 28.2755 113.473 23.4167 111.78 19.1543C110.421 15.7427 108.561 12.6994 106.237 10.1034C103.711 7.28807 101.185 5.61294 99.677 4.77099C98.8789 4.3237 97.9931 4.0869 97.0809 4.06936L84.6797 3.84133C84.0307 3.83256 83.7325 4.63066 84.2236 5.05164C88.6965 8.88428 92.0029 13.0677 94.0727 17.5231C96.011 21.6977 96.8705 26.118 96.6337 30.661C96.4232 34.6954 95.3532 38.0807 94.5025 40.2032C93.8184 41.8607 93.7394 42.2379 93.4149 42.7816Z" fill="#82B378"/>
<path d="M105.694 17.5056C102.457 16.1462 99.8526 17.3302 98.4932 20.5665C97.1338 23.8027 99.6684 27.1705 102.905 28.5212C106.141 29.8806 108.86 28.7141 110.219 25.4779C111.57 22.2416 108.93 18.8562 105.694 17.5056Z" fill="#82B378"/>
<path d="M79.2074 68.1366L78.5934 68.3383C76.1904 63.0411 72.4893 59.1119 68.8934 55.8143C65.0433 52.2886 57.4043 47.9035 47.7657 48.4998C43.7927 48.7454 40.8459 49.4997 39.4076 49.9469L39.1094 49.2453C57.8604 41.887 68.6479 50.5258 74.217 58.3928C77.7866 63.4182 79.2074 68.1366 79.2074 68.1366Z" fill="#82B378"/>
<path d="M100.537 57.1827L79.2074 68.1369C77.655 64.7954 75.287 61.6644 73.3049 59.3665C71.3228 57.0687 69.7266 55.6128 69.7266 55.6128C57.0272 43.9658 39.1182 49.2456 39.1182 49.2456L54.7908 33.4502C64.2452 30.2578 72.5332 31.9417 79.3652 35.5551C92.74 42.6503 100.537 57.1827 100.537 57.1827Z" fill="#A8D29F"/>
<path d="M79.8824 66.4441C79.8649 66.3827 78.2073 60.9013 73.0854 55.3584C70.086 52.1134 66.42 49.7103 62.1839 48.2194C56.8866 46.3601 50.6772 45.9303 43.7223 46.9477L42.6523 47.1055L55.3869 34.5201L55.4483 34.4938C55.6149 34.4236 59.5352 32.6871 65.6219 32.9414C69.1914 33.0905 72.7609 33.8974 76.2252 35.3357C80.5577 37.1337 84.7412 39.9314 88.6703 43.65C88.9773 43.9307 96.5636 51.4468 98.4931 56.5512L79.8824 66.4441ZM80.0666 65.646L97.5108 56.0864C96.739 54.0429 94.8885 51.3416 92.1434 48.2632C90.0648 45.9303 88.1967 44.185 88.1792 44.1675C84.3202 40.5102 80.2157 37.7651 75.9796 35.9935C72.5943 34.5815 69.1125 33.7922 65.6306 33.6431C61.8594 33.4852 58.895 34.1254 57.2286 34.6166C56.3516 34.8709 55.5623 35.3445 54.9133 35.9847L46.0903 44.7025C45.6343 45.1585 45.9938 45.9391 46.6341 45.8777C52.5014 45.3515 57.8075 45.9128 62.4382 47.544C66.7795 49.0701 70.542 51.5433 73.6204 54.8848C76.3568 57.858 78.0319 60.9802 78.9615 63.0763C79.6895 64.7164 79.9 65.0321 80.0666 65.646Z" fill="#82B378"/>
<path d="M79.4182 41.5364C78.05 38.3002 73.7789 37.8353 70.5426 39.2035C67.3064 40.5717 66.3416 43.2642 67.7098 46.5004C69.078 49.7367 73.2526 50.2717 76.4889 48.9035C79.7164 47.5265 80.7864 44.7727 79.4182 41.5364Z" fill="#82B378"/>
<path d="M114.587 51.5168L115.227 51.5518C116.209 45.816 118.788 41.08 121.428 36.9843C124.261 32.5904 130.531 26.4248 140.003 24.548C143.906 23.7762 146.949 23.7586 148.458 23.82L148.572 23.0658C128.567 20.7066 120.323 31.801 116.937 40.8169C114.771 46.5966 114.587 51.5168 114.587 51.5168Z" fill="#82B378"/>
<path d="M91.1787 46.3335L114.587 51.5168C115.236 47.8859 116.735 44.2549 118.069 41.5361C119.402 38.8086 120.577 36.9931 120.577 36.9931C129.909 22.5045 148.572 23.0658 148.572 23.0658L129.409 11.7696C119.454 11.0855 111.868 14.8041 106.176 20.04C95.0289 30.2926 91.1787 46.3335 91.1787 46.3335Z" fill="#A8D29F"/>
<path d="M93.0029 45.202C93.573 39.7732 99.0018 30.5819 99.2299 30.2311C102.08 25.6354 105.422 21.8642 109.158 19.0314C112.149 16.7598 115.394 15.0759 118.805 14.0235C124.629 12.2343 128.856 12.9184 129.04 12.9447L129.102 12.9535L144.616 21.8905L143.538 22.0133C136.556 22.7851 130.663 24.7759 126.006 27.9245C122.287 30.4328 119.349 33.6866 117.27 37.5894C113.718 44.2548 113.508 49.9819 113.508 50.0433L93.0029 45.202ZM113.543 46.5702C113.903 44.3075 114.736 40.8607 116.63 37.2912C118.761 33.2744 121.778 29.9329 125.585 27.3544C129.654 24.6005 134.645 22.7149 140.45 21.7326C141.091 21.6274 141.24 20.7766 140.678 20.4521L129.926 14.2603C129.137 13.8042 128.251 13.5499 127.339 13.5236C125.602 13.471 122.577 13.6025 118.963 14.7163C115.639 15.7425 112.464 17.3913 109.553 19.6102C105.895 22.3904 102.624 26.0915 99.8175 30.6082C99.7999 30.6257 98.4405 32.7832 97.0197 35.5722C95.1517 39.2382 94.0466 42.3254 93.8186 44.5004L113.122 49.3241C113.131 48.6926 113.254 48.3243 113.543 46.5702Z" fill="#82B378"/>
<path d="M115.63 21.3294C112.157 20.8294 108.149 22.3643 107.64 25.8373C107.141 29.3104 108.868 31.7047 112.341 32.2134C115.814 32.7133 119.717 31.1434 120.226 27.6615C120.726 24.1973 119.103 21.838 115.63 21.3294Z" fill="#82B378"/>
<path d="M92.4855 44.4219C94.5903 35.7568 103.326 30.4332 111.991 32.538C120.656 34.6429 125.979 43.3782 123.874 52.0433C121.77 60.7084 113.034 66.032 104.369 63.9271C95.6954 61.8222 90.3718 53.087 92.4855 44.4219Z" fill="#E2810E"/>
<path d="M118.223 59.3181C124.528 53.0127 124.528 42.7896 118.223 36.4842C111.917 30.1787 101.694 30.1787 95.3887 36.4842C89.0832 42.7896 89.0832 53.0127 95.3887 59.3181C101.694 65.6235 111.917 65.6235 118.223 59.3181Z" fill="#FFB93E"/>
<path d="M106.79 62.8045C105.624 62.8045 104.448 62.6642 103.291 62.3835C99.4755 61.4539 96.2393 59.0947 94.1958 55.7444C92.1523 52.3854 91.5384 48.4387 92.468 44.6148C93.3977 40.7997 95.7569 37.5635 99.1072 35.52C102.466 33.4765 106.413 32.8626 110.237 33.7922C118.121 35.7042 122.971 43.6764 121.059 51.5609C120.13 55.376 117.77 58.6123 114.42 60.6558C112.078 62.0766 109.456 62.8045 106.79 62.8045ZM106.737 34.2483C104.229 34.2483 101.765 34.9324 99.5632 36.2742C96.4059 38.1949 94.187 41.2295 93.3187 44.8253C92.4505 48.4124 93.0205 52.131 94.95 55.2883C96.8707 58.4457 99.9053 60.6645 103.501 61.5328C107.088 62.4011 110.807 61.831 113.964 59.9015C117.121 57.9808 119.34 54.9463 120.209 51.3505C122.007 43.9395 117.446 36.4409 110.026 34.643C108.93 34.3799 107.825 34.2483 106.737 34.2483Z" fill="#FFA412"/>
<path d="M92.3627 52.2563L31.751 69.3679L38.9259 94.7825L99.5376 77.6709L92.3627 52.2563Z" fill="#A8D29F"/>
<path d="M35.8379 70.6887L41.5562 90.9569L95.0903 75.8456L89.372 55.5774L35.8379 70.6887ZM93.231 72.1709C93.7221 73.8986 92.7135 75.6878 90.9945 76.1701L44.9064 89.1853C43.3628 89.6239 41.7579 88.7205 41.3281 87.1769L37.6972 74.3108C37.2148 72.6094 38.2059 70.8465 39.9073 70.3642L85.8113 57.4016C87.4689 56.9368 89.2054 57.9015 89.6702 59.5591L93.231 72.1709Z" fill="#82B378"/>
<path d="M71.8663 71.4605C70.8841 67.9787 67.2619 65.9528 63.7713 66.935C60.2895 67.9173 58.2635 71.5395 59.2458 75.0301C60.2281 78.5119 63.8503 80.5378 67.3409 79.5556C70.8227 78.5645 72.8574 74.9424 71.8663 71.4605Z" fill="#82B378"/>
<path opacity="0.5" d="M92.3536 52.2537L99.5277 77.6701L52.1416 91.0449C54.3342 89.6679 74.4095 83.0639 78.5403 73.8989C83.557 62.7781 79.6191 56.6915 79.7331 55.8056L92.3536 52.2537Z" fill="#82B378"/>
<path d="M162.829 59.3873L99.8496 59.6628L99.9651 86.0703L162.945 85.7948L162.829 59.3873Z" fill="#A8D29F"/>
<path d="M103.439 62.0239L103.527 83.0815L159.157 82.8359L159.07 61.7783L103.439 62.0239ZM158.342 78.8103C158.351 80.5995 156.903 82.0553 155.114 82.0641L107.219 82.2746C105.614 82.2834 104.308 80.9854 104.308 79.3804L104.246 66.0056C104.238 64.2428 105.667 62.8044 107.43 62.7957L155.149 62.5852C156.877 62.5764 158.28 63.9709 158.289 65.6987L158.342 78.8103Z" fill="#82B378"/>
<path d="M131.365 65.8738C127.743 65.8913 124.822 68.8382 124.84 72.4603C124.857 76.0825 127.804 79.003 131.426 78.9855C135.049 78.9679 137.969 76.0211 137.952 72.3989C137.934 68.7856 134.987 65.865 131.365 65.8738Z" fill="#82B378"/>
<path opacity="0.5" d="M162.833 59.384L162.947 85.7915L113.71 86.0108C116.192 85.2741 137.302 84.2743 143.74 76.5564C151.545 67.1809 149.388 60.2611 149.721 59.4454L162.833 59.384Z" fill="#82B378"/>
<path d="M124.497 78.5032C120.191 70.6888 110.368 67.8473 102.563 72.1535C94.7482 76.4597 91.9154 86.2825 96.2128 94.0881C100.519 101.902 110.342 104.735 118.147 100.438C125.962 96.1316 128.803 86.3088 124.497 78.5032Z" fill="#E2810E"/>
<path d="M123.261 79.1785C118.955 71.3641 109.132 68.5225 101.326 72.8288C93.5119 77.135 90.679 86.9578 94.9765 94.7634C99.2827 102.578 109.106 105.419 116.911 101.113C124.725 96.8157 127.567 86.9929 123.261 79.1785Z" fill="#FFB93E"/>
<path d="M109.228 101.859C107.851 101.859 106.474 101.666 105.115 101.271C101.344 100.175 98.2125 97.6839 96.3181 94.2371C94.4237 90.7991 93.9764 86.8174 95.0727 83.0462C96.169 79.2749 98.6598 76.1439 102.107 74.2495C105.545 72.3551 109.526 71.9078 113.297 73.0041C117.069 74.1004 120.2 76.5912 122.094 80.0379C126.014 87.1419 123.418 96.1052 116.314 100.026C114.104 101.245 111.684 101.859 109.228 101.859ZM109.193 73.3023C106.886 73.3023 104.606 73.8812 102.536 75.0301C95.8533 78.7136 93.4151 87.1419 97.0987 93.8249C98.8791 97.0612 101.817 99.4116 105.369 100.438C108.921 101.464 112.657 101.052 115.894 99.2625C122.577 95.579 125.015 87.1507 121.331 80.4677C119.551 77.2314 116.613 74.881 113.061 73.8548C111.78 73.4865 110.482 73.3023 109.193 73.3023Z" fill="#FFA412"/>
<path d="M93.7308 63.6636C93.1519 56.9894 87.2758 52.0429 80.5928 52.6217C73.9186 53.2006 68.9721 59.0767 69.5509 65.7597C70.1298 72.4339 76.0059 77.3804 82.6889 76.8015C89.3719 76.2227 94.3096 70.3378 93.7308 63.6636Z" fill="#E2810E"/>
<path d="M92.678 63.7515C92.0992 57.0772 86.223 52.1308 79.54 52.7096C72.8658 53.2885 67.9193 59.1646 68.4982 65.8476C69.077 72.5218 74.9532 77.4683 81.6362 76.8894C88.3104 76.3106 93.2569 70.4257 92.678 63.7515Z" fill="#FFB93E"/>
<path d="M80.5924 75.995C74.9268 75.995 70.0855 71.6449 69.5856 65.8916C69.0594 59.8225 73.5761 54.4463 79.6452 53.9288C82.5833 53.6745 85.4512 54.5778 87.7139 56.481C89.9767 58.3842 91.3624 61.0504 91.6167 63.9884C92.1429 70.0575 87.6262 75.4337 81.5571 75.9512C81.2326 75.9862 80.9169 75.995 80.5924 75.995ZM70.2434 65.839C70.7346 71.5484 75.7863 75.7933 81.4958 75.3022C87.2052 74.811 91.4501 69.7593 90.9589 64.0498C90.7221 61.2871 89.4154 58.7788 87.293 56.9897C85.1705 55.2005 82.4693 54.3498 79.7066 54.5866C73.9971 55.0778 69.7523 60.1295 70.2434 65.839Z" fill="#FFA412"/>
<path d="M90.1884 31.0385C88.3905 28.0391 84.4877 27.0656 81.4882 28.8635C78.4888 30.6614 77.5153 34.5642 79.3132 37.5637C81.1111 40.5631 85.0139 41.5366 88.0134 39.7387C91.0216 37.9408 91.9951 34.0467 90.1884 31.0385Z" fill="#E2810E"/>
<path d="M89.7148 31.3278C87.9168 28.3284 84.0141 27.3549 81.0146 29.1528C78.0151 30.9507 77.0416 34.8535 78.8395 37.853C80.6375 40.8524 84.5403 41.8259 87.5397 40.028C90.5479 38.2213 91.5215 34.3273 89.7148 31.3278Z" fill="#FFB93E"/>
<path d="M84.3294 40.4314C82.3648 40.4314 80.4441 39.4316 79.3654 37.6249C77.7253 34.8973 78.6199 31.3365 81.3475 29.6965C84.0838 28.0564 87.6358 28.9422 89.2759 31.6786C90.074 33.0029 90.302 34.5552 89.9249 36.055C89.5477 37.5547 88.6181 38.8176 87.2938 39.607C86.3641 40.1595 85.338 40.4314 84.3294 40.4314ZM79.6548 37.4495C81.1984 40.0192 84.5399 40.8523 87.1096 39.3175C88.355 38.5721 89.232 37.3881 89.5828 35.976C89.9336 34.564 89.7144 33.1081 88.9689 31.8628C87.4253 29.293 84.0838 28.4599 81.5141 29.9947C78.9532 31.5295 78.12 34.8797 79.6548 37.4495Z" fill="#FFA412"/>
<path d="M113.043 8.68278C109.649 7.80575 106.193 9.84046 105.316 13.2346C104.439 16.6287 106.474 20.0842 109.868 20.9613C113.262 21.8383 116.718 19.8036 117.595 16.4094C118.472 13.0241 116.437 9.55981 113.043 8.68278Z" fill="#E2810E"/>
<path d="M112.508 8.55119C109.113 7.67415 105.658 9.70887 104.781 13.103C103.904 16.4971 105.939 19.9526 109.333 20.8297C112.727 21.7067 116.182 19.672 117.059 16.2779C117.936 12.8837 115.902 9.42822 112.508 8.55119Z" fill="#FFB93E"/>
<path d="M110.903 20.5401C110.42 20.5401 109.938 20.4787 109.455 20.356C107.965 19.9701 106.71 19.0229 105.921 17.6898C105.14 16.3567 104.921 14.8043 105.307 13.3134C105.693 11.8224 106.64 10.5683 107.973 9.77893C109.306 8.99837 110.859 8.77911 112.35 9.16501C113.841 9.5509 115.095 10.4981 115.884 11.8312C116.665 13.1643 116.884 14.7166 116.498 16.2076C115.823 18.8036 113.472 20.5401 110.903 20.5401ZM110.894 9.32288C109.938 9.32288 108.991 9.57721 108.149 10.0771C106.895 10.8138 106.009 11.9891 105.649 13.4011C105.29 14.8043 105.491 16.269 106.228 17.5231C106.965 18.7773 108.14 19.6631 109.552 20.0227C110.008 20.1367 110.464 20.1981 110.911 20.1981C113.323 20.1981 115.542 18.5756 116.174 16.1287C116.928 13.2257 115.174 10.2613 112.28 9.50705C111.806 9.38427 111.35 9.32288 110.894 9.32288Z" fill="#FFA412"/>
<path d="M125.409 62.1116C123.988 59.7436 124.76 56.6827 127.119 55.2619C129.487 53.8411 132.548 54.6129 133.969 56.9721C135.39 59.3401 134.618 62.401 132.259 63.8218C129.891 65.2426 126.821 64.4795 125.409 62.1116Z" fill="#E2810E"/>
<path d="M125.032 62.3393C123.611 59.9713 124.383 56.9105 126.742 55.4897C129.11 54.0689 132.171 54.8407 133.592 57.1999C135.013 59.5679 134.241 62.6288 131.882 64.0496C129.514 65.4704 126.453 64.6986 125.032 62.3393Z" fill="#FFB93E"/>
<path d="M129.356 64.3655C127.813 64.3655 126.296 63.5761 125.445 62.1553C124.156 60.0066 124.857 57.2001 127.006 55.9109C129.155 54.6216 131.961 55.3232 133.25 57.472C134.54 59.6207 133.838 62.4272 131.689 63.7165C130.953 64.155 130.146 64.3655 129.356 64.3655ZM125.673 62.015C126.883 64.041 129.523 64.6987 131.54 63.4797C133.566 62.2693 134.224 59.6295 133.005 57.6123C131.795 55.5864 129.155 54.9286 127.137 56.1477C125.12 57.358 124.463 59.9978 125.673 62.015Z" fill="#FFA412"/>
<path d="M130.557 60.6295C130.513 60.5418 130.47 60.4629 130.408 60.4102C130.356 60.3489 130.285 60.3138 130.198 60.2787C130.119 60.2524 130.014 60.2348 129.908 60.2261C129.794 60.2173 129.663 60.2261 129.514 60.2348C129.251 60.2612 129.005 60.2699 128.786 60.2612C128.558 60.2612 128.356 60.2261 128.172 60.1735C127.988 60.1208 127.83 60.0331 127.689 59.9103C127.549 59.7876 127.426 59.6297 127.339 59.4192C127.26 59.235 127.216 59.0596 127.207 58.8754C127.207 58.7 127.242 58.5246 127.304 58.358C127.374 58.1914 127.479 58.0335 127.61 57.8932C127.751 57.7441 127.917 57.6213 128.11 57.5073L127.803 56.8144L128.356 56.5688L128.672 57.2705C128.882 57.2091 129.084 57.1828 129.286 57.1828C129.487 57.1915 129.663 57.2266 129.838 57.3056C130.005 57.3845 130.163 57.4897 130.303 57.6388C130.443 57.7879 130.557 57.9633 130.654 58.1826L129.654 58.6299C129.54 58.3755 129.391 58.2089 129.224 58.13C129.049 58.051 128.873 58.0598 128.68 58.1475C128.575 58.1914 128.496 58.2527 128.435 58.3141C128.373 58.3755 128.33 58.4457 128.303 58.5159C128.277 58.586 128.268 58.665 128.277 58.7439C128.286 58.8228 128.303 58.9018 128.338 58.9807C128.373 59.0596 128.417 59.1298 128.47 59.1824C128.523 59.235 128.593 59.2789 128.672 59.3052C128.751 59.3315 128.847 59.349 128.97 59.3578C129.093 59.3666 129.224 59.3578 129.382 59.349C129.645 59.3315 129.882 59.3227 130.11 59.3315C130.329 59.3403 130.54 59.3666 130.724 59.4192C130.908 59.4718 131.066 59.5595 131.206 59.6823C131.347 59.8051 131.461 59.963 131.557 60.1735C131.645 60.3664 131.689 60.5506 131.689 60.726C131.689 60.9102 131.654 61.0768 131.583 61.2434C131.513 61.4101 131.408 61.5592 131.268 61.6995C131.127 61.8398 130.961 61.9714 130.759 62.0854L131.048 62.7256L130.496 62.9712L130.206 62.331C130.005 62.4011 129.803 62.4362 129.593 62.4537C129.382 62.4713 129.18 62.445 128.987 62.3924C128.794 62.331 128.61 62.2345 128.452 62.0854C128.286 61.9363 128.145 61.7346 128.031 61.4802L129.031 61.033C129.101 61.182 129.18 61.3048 129.268 61.3838C129.356 61.4627 129.452 61.5241 129.549 61.5504C129.645 61.5767 129.75 61.5855 129.847 61.5679C129.952 61.5504 130.049 61.5241 130.145 61.4802C130.25 61.4276 130.347 61.375 130.408 61.3136C130.478 61.2522 130.531 61.182 130.566 61.1031C130.601 61.0329 130.619 60.954 130.61 60.8751C130.619 60.7874 130.592 60.7084 130.557 60.6295Z" fill="#FFA412"/>
<path d="M68.4022 57.2617C68.4022 57.2617 64.9203 54.806 62.3068 55.2884C59.6932 55.7707 56.8779 59.1298 56.8779 59.1298C56.8779 59.1298 62.0875 59.7086 64.017 58.9719C65.9465 58.244 68.4022 57.2617 68.4022 57.2617Z" fill="#FFA412"/>
<path d="M125.804 52.2099C125.804 52.2099 131.741 48.9824 134.013 50.0524C136.275 51.1223 137.477 53.6657 137.477 53.6657C137.477 53.6657 134.732 53.9376 132.601 53.8411C130.47 53.7271 129.031 51.824 125.804 52.2099Z" fill="#82B378"/>
<path d="M135.276 27.4336C135.276 27.4336 139.249 25.4691 141.03 25.9251C142.81 26.3812 144.608 27.4336 144.608 27.4336C144.608 27.4336 142.398 28.7667 140.249 28.6702C138.092 28.5825 135.276 27.4336 135.276 27.4336Z" fill="#FFA412"/>
<path d="M109.395 7.20922C109.395 7.20922 107.343 4.66582 108.062 2.81528C108.781 0.964738 109.395 0 109.395 0C109.395 0 111.272 2.13119 111.193 3.60461C111.105 5.07803 109.395 7.20922 109.395 7.20922Z" fill="#FFA412"/>
<path d="M117.797 11.6907C117.797 11.6907 117.314 8.48951 118.796 7.5774C120.279 6.66528 122.664 6.66528 122.664 6.66528C122.664 6.66528 122.296 9.36655 121.287 9.96293C120.287 10.5505 118.244 10.875 117.797 11.6907Z" fill="#82B378"/>
<path d="M94.9323 96.877C94.9323 96.877 96.9407 99.7185 97.0284 100.718C97.1161 101.727 94.1955 104.288 94.1955 104.288C94.1955 104.288 93.2483 101.815 93.6606 100.578C94.0728 99.3414 94.9323 96.877 94.9323 96.877Z" fill="#82B378"/>
<path d="M91.2047 80.6694C91.2047 80.6694 88.2227 81.678 87.8105 83.3269C87.3983 84.9757 87.5386 86.1509 87.5386 86.1509C87.5386 86.1509 91.8537 84.0548 91.2047 80.6694Z" fill="#82B378"/>
<path d="M92.1173 80.6694C92.1173 80.6694 93.0382 81.7219 93.0557 82.4586C93.0732 83.1953 92.5821 83.8268 92.5821 83.8268C92.5821 83.8268 91.4946 82.9497 92.1173 80.6694Z" fill="#82B378"/>
<path d="M129.873 125.81V127.582C129.873 127.722 129.829 127.854 129.759 127.968C129.68 128.082 129.566 128.17 129.435 128.222C129.391 128.24 129.356 128.248 129.312 128.257C129.277 128.266 129.233 128.266 129.189 128.266H100.949C100.835 128.266 100.729 128.24 100.633 128.187C100.431 128.082 100.291 127.88 100.265 127.643C100.265 127.635 100.265 127.626 100.265 127.617C100.265 127.608 100.265 127.591 100.265 127.582V125.81C100.265 125.802 100.265 125.784 100.265 125.775C100.282 125.416 100.58 125.126 100.949 125.126H129.189C129.233 125.126 129.268 125.126 129.312 125.135C129.356 125.144 129.4 125.153 129.435 125.17C129.566 125.223 129.68 125.31 129.759 125.424C129.829 125.538 129.873 125.67 129.873 125.81Z" fill="#FFB93E"/>
<path d="M116.007 128.266H100.879C100.773 128.266 100.686 128.24 100.598 128.188C100.423 128.082 100.291 127.881 100.273 127.644C100.273 127.635 100.273 127.626 100.273 127.617C100.273 127.609 100.273 127.591 100.273 127.582V125.811C100.273 125.802 100.273 125.784 100.273 125.776C100.291 125.416 100.554 125.127 100.879 125.127H114.148C114.35 126.03 114.823 127.258 115.911 128.188C115.946 128.214 115.972 128.24 116.007 128.266Z" fill="#FFA412"/>
<path d="M126.444 125.126H126.119V128.266H126.444V125.126Z" fill="#FFA412"/>
<path d="M125.357 125.126H125.032V128.266H125.357V125.126Z" fill="#FFA412"/>
<path d="M124.049 125.126H123.725V128.266H124.049V125.126Z" fill="#FFA412"/>
<path d="M122.05 125.126H121.726V128.266H122.05V125.126Z" fill="#FFA412"/>
<path d="M119.945 125.126H119.62V128.266H119.945V125.126Z" fill="#FFA412"/>
<path d="M116.7 125.126H116.376V128.266H116.7V125.126Z" fill="#FFA412"/>
<path d="M113.674 125.126H113.35V128.266H113.674V125.126Z" fill="#FFA412"/>
<path d="M110.964 125.126H110.64V128.266H110.964V125.126Z" fill="#FFA412"/>
<path d="M127.47 125.126H127.146V128.266H127.47V125.126Z" fill="#FFA412"/>
<path d="M128.154 125.126H127.829V128.266H128.154V125.126Z" fill="#FFA412"/>
<path d="M128.821 125.126H128.496V128.266H128.821V125.126Z" fill="#FFA412"/>
<path d="M129.312 125.135V128.249C129.277 128.258 129.233 128.258 129.189 128.258H128.987V125.118H129.189C129.233 125.127 129.268 125.127 129.312 125.135Z" fill="#FFA412"/>
<path d="M129.759 125.425V127.959C129.68 128.073 129.566 128.161 129.435 128.214V125.17C129.566 125.223 129.68 125.311 129.759 125.425Z" fill="#FFA412"/>
<path d="M126.786 122.671V124.443C126.786 124.583 126.743 124.714 126.672 124.82C126.593 124.934 126.479 125.021 126.348 125.074C126.304 125.092 126.269 125.1 126.225 125.109C126.19 125.118 126.146 125.118 126.102 125.118H97.8618C97.4935 125.118 97.1953 124.828 97.1777 124.469C97.1777 124.46 97.1777 124.442 97.1777 124.434V122.662C97.1777 122.653 97.1777 122.636 97.1777 122.627C97.1953 122.294 97.4496 122.022 97.7829 121.987C97.8092 121.987 97.8355 121.978 97.8618 121.978H126.102C126.146 121.978 126.181 121.978 126.225 121.987C126.269 121.996 126.313 122.004 126.348 122.022C126.479 122.075 126.593 122.162 126.672 122.276C126.743 122.399 126.786 122.531 126.786 122.671Z" fill="#FFB93E"/>
<path d="M112.912 125.126H97.7829C97.4584 125.126 97.1865 124.837 97.1777 124.477C97.1777 124.469 97.1777 124.451 97.1777 124.442V122.671C97.1777 122.662 97.1777 122.644 97.1777 122.636C97.1953 122.302 97.4233 122.03 97.7127 121.995C97.739 121.995 97.7566 121.987 97.7829 121.987H111.052C111.052 121.987 111.052 121.987 111.052 121.995C111.272 122.916 111.763 124.188 112.912 125.126Z" fill="#FFA412"/>
<path d="M123.348 121.986H123.023V125.126H123.348V121.986Z" fill="#FFA412"/>
<path d="M122.26 121.986H121.936V125.126H122.26V121.986Z" fill="#FFA412"/>
<path d="M120.962 121.986H120.638V125.126H120.962V121.986Z" fill="#FFA412"/>
<path d="M118.963 121.986H118.639V125.126H118.963V121.986Z" fill="#FFA412"/>
<path d="M116.849 121.986H116.524V125.126H116.849V121.986Z" fill="#FFA412"/>
<path d="M113.613 121.986H113.288V125.126H113.613V121.986Z" fill="#FFA412"/>
<path d="M110.578 121.986H110.254V125.126H110.578V121.986Z" fill="#FFA412"/>
<path d="M107.877 121.987H107.553V125.126H107.877V121.987Z" fill="#FFA412"/>
<path d="M124.383 121.986H124.059V125.126H124.383V121.986Z" fill="#FFA412"/>
<path d="M125.067 121.986H124.742V125.126H125.067V121.986Z" fill="#FFA412"/>
<path d="M125.725 121.986H125.4V125.126H125.725V121.986Z" fill="#FFA412"/>
<path d="M126.225 121.995V125.108C126.19 125.117 126.146 125.117 126.102 125.117H125.9V121.977H126.102C126.137 121.986 126.181 121.986 126.225 121.995Z" fill="#FFA412"/>
<path d="M126.663 122.284V124.819C126.584 124.933 126.47 125.021 126.339 125.073V122.03C126.479 122.083 126.584 122.17 126.663 122.284Z" fill="#FFA412"/>
<path d="M129.733 119.54V121.311C129.733 121.452 129.689 121.583 129.619 121.689C129.54 121.803 129.426 121.89 129.294 121.943C129.25 121.96 129.215 121.969 129.171 121.978C129.163 121.978 129.145 121.987 129.128 121.987C129.119 121.987 129.11 121.987 129.101 121.987C129.092 121.987 129.084 121.987 129.075 121.987C129.066 121.987 129.049 121.987 129.04 121.987H100.799C100.431 121.987 100.133 121.697 100.115 121.338C100.115 121.329 100.115 121.311 100.115 121.303V119.531C100.115 119.522 100.115 119.505 100.115 119.496C100.115 119.487 100.115 119.478 100.115 119.47C100.142 119.18 100.352 118.943 100.624 118.873C100.633 118.873 100.641 118.873 100.641 118.864C100.685 118.856 100.738 118.847 100.791 118.847H129.031C129.049 118.847 129.075 118.847 129.092 118.847C129.101 118.847 129.11 118.847 129.119 118.847C129.128 118.847 129.136 118.847 129.154 118.856C129.198 118.864 129.242 118.873 129.277 118.891C129.408 118.943 129.522 119.031 129.601 119.145C129.689 119.268 129.733 119.391 129.733 119.54Z" fill="#FFB93E"/>
<path d="M115.858 121.987H100.729C100.405 121.987 100.133 121.697 100.124 121.338C100.124 121.329 100.124 121.311 100.124 121.303V119.531C100.124 119.522 100.124 119.505 100.124 119.496C100.124 119.487 100.124 119.478 100.124 119.47C100.15 119.171 100.343 118.935 100.598 118.864C100.606 118.864 100.615 118.856 100.624 118.856C100.659 118.847 100.694 118.847 100.729 118.847H113.999C113.999 118.856 113.999 118.864 114.007 118.873C114.227 119.794 114.718 121.057 115.858 121.987Z" fill="#FFA412"/>
<path d="M126.294 118.855H125.97V121.995H126.294V118.855Z" fill="#FFA412"/>
<path d="M125.207 118.855H124.883V121.995H125.207V118.855Z" fill="#FFA412"/>
<path d="M123.908 118.855H123.584V121.995H123.908V118.855Z" fill="#FFA412"/>
<path d="M121.909 118.855H121.585V121.995H121.909V118.855Z" fill="#FFA412"/>
<path d="M119.795 118.847H119.471V121.986H119.795V118.847Z" fill="#FFA412"/>
<path d="M116.559 118.847H116.234V121.986H116.559V118.847Z" fill="#FFA412"/>
<path d="M113.525 118.847H113.2V121.986H113.525V118.847Z" fill="#FFA412"/>
<path d="M110.824 118.847H110.499V121.987H110.824V118.847Z" fill="#FFA412"/>
<path d="M127.329 118.855H127.005V121.995H127.329V118.855Z" fill="#FFA412"/>
<path d="M128.013 118.855H127.688V121.995H128.013V118.855Z" fill="#FFA412"/>
<path d="M128.671 118.855H128.347V121.995H128.671V118.855Z" fill="#FFA412"/>
<path d="M129.171 118.864V121.978C129.136 121.986 129.092 121.986 129.048 121.986H128.847V118.847H129.048C129.083 118.855 129.127 118.855 129.171 118.864Z" fill="#FFA412"/>
<path d="M129.61 119.154V121.688C129.531 121.802 129.417 121.89 129.285 121.942V118.899C129.425 118.952 129.531 119.039 129.61 119.154Z" fill="#FFA412"/>
<path d="M41.9683 124.968H29.874V125.994H41.9683V124.968Z" fill="#FFA412"/>
<path d="M111.052 121.908H100.738V126.53H111.052V121.908Z" fill="#FFA412"/>
<path d="M112.613 124.863L113.297 125.486L113.201 126.38L109.245 126.266L108.868 124.591L112.613 124.863Z" fill="#FFA412"/>
<path d="M47.327 44.0185C47.3183 43.808 47.1604 41.5891 43.7751 41.4751C43.7751 41.4751 45.0204 41.6593 45.6256 42.3346C45.6256 42.3346 44.5907 41.5014 43.6698 41.7996C42.7489 42.089 42.2052 43.7115 42.1964 44.2378C42.1876 44.7727 42.7051 46.483 43.2927 46.6321C43.5119 46.6847 43.7663 46.6759 44.0031 46.6321C43.8452 46.8776 43.6961 47.1407 43.547 47.4477C42.1964 50.2191 43.5909 52.9292 44.731 52.631C45.4677 52.438 45.6695 53.6922 45.6695 53.6922L52.7997 47.9213C52.7997 47.9125 50.1862 42.4925 47.327 44.0185Z" fill="#2C3A64"/>
<path opacity="0.5" d="M81.3916 86.7561L81.5582 87.7998C87.1099 102.209 83.2509 127.854 83.3737 128.266L106.475 128.292C99.3094 94.5442 81.3916 86.7561 81.3916 86.7561Z" fill="#AFCDFB"/>
<path d="M49.8094 125.749L48.2921 126.31C48.2921 126.31 41.7143 117.189 40.9075 109.164C40.7672 107.735 40.811 106.34 41.1267 105.06C41.1267 105.06 41.0653 104.692 40.9513 104.043C40.8987 103.736 40.8373 103.376 40.7584 102.955C40.5479 101.727 40.2497 100.052 39.9164 98.1489C39.1446 93.755 38.136 88.142 37.3643 84.0111L37.7765 83.8796L42.1879 82.4588L43.1001 79.5646L46.3889 78.6963C46.3889 78.6963 47.1256 80.1346 47.7834 86.9229C47.9062 87.8087 48.0114 88.791 48.0992 89.8609C48.3535 93.106 48.371 97.1403 47.7834 101.745C47.6343 102.92 47.4414 104.139 47.2046 105.393C47.0292 106.314 47.0029 107.559 47.0818 108.998C47.4063 115.549 49.8094 125.749 49.8094 125.749Z" fill="#2B478B"/>
<path d="M48.0904 89.8522L40.9513 104.043C40.8987 103.736 40.8373 103.376 40.7584 102.955C40.5479 101.727 40.2497 100.052 39.9164 98.1489C39.1446 93.755 38.136 88.142 37.3643 84.0111L37.7765 83.8796L42.1879 82.4588L43.1001 79.5646L46.3889 78.6963C46.3889 78.6963 47.1256 80.1346 47.7834 86.9229C47.8974 87.8087 48.0027 88.791 48.0904 89.8522Z" fill="#233862"/>
<path d="M44.95 80.5116L44.7834 79.0908C42.012 79.8275 34.6186 77.0386 34.6186 77.0386C34.6186 77.0386 31.9349 79.3978 32.2857 85.0459C32.4611 87.8085 32.768 99.5257 33.1013 102.99C33.2241 104.244 33.3206 105.139 33.3644 105.498C33.3732 105.604 33.3381 105.709 33.2855 105.805C32.8031 106.621 32.3997 107.48 32.0752 108.349C28.8565 116.926 32.5751 127.486 32.5751 127.486L33.5398 127.1C33.5398 127.1 35.6535 115.347 37.3725 110.155C37.6619 109.278 37.9425 108.585 38.1969 108.173C38.9424 106.972 39.6352 104.998 40.2667 102.657C41.4595 98.2277 42.4154 92.4656 43.0469 88.019C43.1258 88.0366 44.95 80.5116 44.95 80.5116Z" fill="#2B478B"/>
<path d="M48.7393 62.9799C48.9322 62.2695 49.2567 61.7082 49.59 61.2872C49.6339 61.2171 49.6777 61.1469 49.7479 61.0943C50.3004 60.4453 50.8354 60.1646 50.8354 60.1646C51.1073 60.0506 51.4055 60.191 51.7212 60.5155V60.5242C51.9756 60.7873 52.2474 61.1908 52.5105 61.6907C52.5193 61.6995 52.5369 61.717 52.5369 61.7258C52.5982 61.831 52.6509 61.945 52.721 62.0678C52.7473 62.0941 52.7561 62.1292 52.7649 62.1467C52.8877 62.4099 53.0192 62.6817 53.142 62.9712C54.554 66.0408 56.0538 70.6978 57.2992 72.0835C57.8341 72.6799 60.2986 73.8464 62.2632 74.7234C63.6752 75.3461 64.8153 75.8022 64.8153 75.8022C64.8153 75.8022 66.2274 75.5303 66.5519 75.8022C66.8764 76.074 68.4112 77.6352 68.0779 78.1438C67.7534 78.6525 66.1747 77.7229 65.8502 77.6352C65.5257 77.5475 64.6048 77.1879 64.6048 77.1879C64.6048 77.1879 64.5171 77.1879 64.3505 77.1791C63.8506 77.144 62.6227 77.0739 61.237 76.9248C59.1497 76.7143 56.6765 76.3547 55.6942 75.7408C54.1944 74.8199 51.73 72.0134 50.125 69.2069C50.0812 69.1367 50.0461 69.0665 50.011 68.9964C49.1778 67.5054 48.5902 66.032 48.5463 64.848C48.5113 64.1376 48.5902 63.5237 48.7393 62.9799Z" fill="#FFB27D"/>
<path d="M50.2391 63.3217C49.3708 63.7252 48.3184 63.997 47.0467 64.0672C42.2844 64.3303 41.2056 60.1556 41.0127 57.3842C41.6968 57.1386 42.3019 57.1562 42.644 57.1737C42.9772 57.1913 43.3368 57.2263 43.6263 57.2614C44.2051 56.9545 45.2575 55.481 45.8627 53.0078L46.0644 53.1043L49.5024 54.718C49.5024 54.718 49.134 55.8319 48.8709 56.9018C48.6604 57.735 48.5113 58.5507 48.6341 58.7699C48.906 58.8839 49.0639 58.9453 49.0639 58.9453C49.0989 59.0593 49.8444 60.9625 50.2391 63.3217Z" fill="#FFB27D"/>
<path d="M49.4937 54.7358C49.4937 54.7358 49.1253 55.8496 48.8622 56.9196C46.8538 56.3583 46.2486 54.2534 46.0645 53.1221L49.4937 54.7358Z" fill="#ED985F"/>
<path d="M49.9234 55.911C49.9234 55.911 45.1173 54.7971 45.8627 51.8152C46.5994 48.8333 46.4767 46.6846 49.5726 47.2722C52.6685 47.8598 52.9842 49.1403 52.9755 50.1927C52.9667 51.2539 51.1863 56.1302 49.9234 55.911Z" fill="#FFB27D"/>
<path d="M53.2471 48.5086C52.7297 47.4298 52.1245 47.4825 51.7474 47.6754C49.4934 45.5881 45.7046 46.1143 45.7046 46.1143C44.8539 48.1753 44.5732 50.1925 44.5732 50.1925C44.5732 50.1925 45.3099 50.9468 47.4499 50.9292C48.0989 50.9204 48.7567 50.6223 49.3619 50.21C48.2129 51.3677 46.8535 52.0781 46.8535 52.0781C49.5285 51.5695 51.3264 48.4647 51.5106 48.1402C51.7386 48.4735 52.1684 49.1839 52.2034 49.7891C52.2561 50.6047 51.9754 52.1921 52.4402 52.2535C52.4402 52.2535 54.0189 50.1223 53.2471 48.5086Z" fill="#2C3A64"/>
<path d="M53.16 62.9799C53.0284 62.5765 52.3093 61.296 51.9847 60.7259C51.8707 60.5154 51.7041 60.34 51.5112 60.2085C51.1253 59.9454 50.3622 59.4893 49.0642 58.9806C49.0993 59.1034 49.9588 62.2344 49.6431 62.9097C49.3186 63.5938 43.2407 61.3925 42.9074 60.8926C42.6443 60.4891 42.6356 58.3579 42.6443 57.5335C42.6443 57.323 42.6443 57.2002 42.6443 57.2002C42.6443 57.2002 40.3728 56.8933 39.0924 57.4107C39.0924 57.4107 39.601 58.507 39.7852 59.7173C39.8028 59.8314 39.8203 59.9454 39.8291 60.0594C39.8554 60.305 39.8641 60.5505 39.8466 60.7873C39.8291 61.1031 39.6624 61.3837 39.4081 61.6556C39.1713 61.9012 38.8556 62.1555 38.496 62.4186C38.2592 62.5852 38.0048 62.7694 37.7417 62.9624C37.7154 64.3832 37.8207 66.7248 37.5575 69.2156C37.4874 69.8471 37.2769 70.4522 36.9524 70.9872C36.8208 71.1977 36.6717 71.4082 36.5051 71.5924C35.1632 73.1009 32.7865 76.1003 33.3039 77.9596C33.339 79.7225 48.196 82.0291 47.8715 80.0996C47.8715 80.0996 50.0991 69.3472 51.3094 66.7511C51.3533 66.6547 51.3884 66.567 51.4322 66.4705C51.8181 65.4444 51.7567 64.3919 51.6252 63.4447C52.3005 62.9448 53.16 62.9799 53.16 62.9799Z" fill="#699DEE"/>
<path d="M43.8719 76.4686C40.9426 76.4335 38.4606 73.399 36.9434 70.9696C37.2766 70.4346 37.4871 69.8294 37.5485 69.198C37.8116 66.6984 37.7151 64.3655 37.7327 62.9447C37.9958 62.7518 38.2501 62.5676 38.4869 62.401C38.8465 62.1379 39.171 61.8923 39.3991 61.6379C41.8109 65.6811 47.8449 76.5124 43.8719 76.4686Z" fill="#4A75CB"/>
<path d="M38.1712 128.292H30.541C30.541 128.292 30.3568 127.126 30.7602 126.249C31.1461 125.407 31.7425 125.021 31.5934 123.995C32.0758 124.495 32.8651 125.056 33.9702 124.907C34.1017 125.126 34.8384 126.301 35.2945 126.626C35.7944 126.977 38.0221 126.845 38.1712 128.292Z" fill="#233862"/>
<path d="M54.5452 128.293H46.915C46.915 128.293 46.6256 127.074 47.1343 126.249C47.5815 125.512 47.4061 125.1 47.0816 124.495C47.4237 124.635 47.871 124.767 48.3621 124.741C48.7392 124.723 49.1427 124.548 49.4935 124.346C49.818 124.723 51.23 126.311 51.6685 126.626C52.1772 126.977 54.3961 126.845 54.5452 128.293Z" fill="#233862"/>
<path d="M55.3964 84.8617L57.2118 80.4414C57.4486 79.8626 58.0801 79.5644 58.6677 79.731C59.2641 78.5996 60.0973 77.6875 61.0357 77.0385C62.0267 76.3544 63.1318 75.9861 64.2281 75.9861C64.8069 75.9861 65.3858 76.1001 65.9295 76.3194C68.508 77.3718 69.6657 80.6344 68.7185 83.8268L68.8588 83.8882C68.8588 83.8882 69.2973 83.8618 70.034 83.8618C72.367 83.8618 77.673 84.1688 81.4004 86.7561C81.4004 86.7561 81.6372 87.0016 81.646 87.3875C81.6548 87.5103 81.6284 87.6506 81.567 87.8085C81.567 87.8085 75.5944 83.9408 70.0604 87.9137C69.7183 88.1593 69.3938 88.3786 69.0693 88.5891L68.5694 89.7994C67.745 91.8078 65.4384 92.7725 63.43 91.9481L58.3695 89.8695L57.3171 89.4398C55.5279 88.7031 54.6596 86.642 55.3964 84.8617ZM65.2104 81.2746L67.2714 82.1165C67.8327 82.3446 68.1309 82.9585 67.9818 83.5286L68.201 83.6163C69.043 80.7045 68.0169 77.7665 65.719 76.8193C65.3945 76.6877 65.0613 76.6 64.728 76.5562C63.6668 76.4158 62.5617 76.7052 61.5707 77.3192C60.6235 77.9068 59.7903 78.7926 59.1764 79.9152L59.4833 80.038C59.7815 79.5293 60.4218 79.3013 60.9831 79.5293L63.0441 80.3713C63.202 79.9766 63.5878 79.7398 63.9913 79.7398C64.1141 79.7398 64.2456 79.7661 64.3772 79.8187L64.6666 79.9327C65.1753 80.1608 65.4209 80.7571 65.2104 81.2746Z" fill="#C94C43"/>
<path d="M69.0694 88.5807C69.3939 88.3702 69.7184 88.1421 70.0605 87.9053C75.5858 83.9324 81.5671 87.8001 81.5671 87.8001C81.6285 87.651 81.6548 87.5107 81.6461 87.3791C80.8129 86.8266 77.6731 84.9936 73.7879 85.6251C69.2273 86.3618 68.4029 86.9932 69.0694 88.5807Z" fill="#B23B38"/>
<path d="M57.317 89.4399L58.3694 89.8697C56.7908 89.0102 58.7466 85.3617 59.8955 82.9499C61.0444 80.5381 62.7721 81.6431 62.7721 81.6431C63.1668 80.8363 64.0175 80.8801 64.0175 80.8801C64.0614 80.0995 64.6578 79.9504 64.6578 79.9504L64.3683 79.8364C64.2456 79.7838 64.114 79.7575 63.9824 79.7575C63.579 79.7575 63.2019 79.9943 63.0353 80.389L60.9742 79.547C60.4129 79.319 59.7814 79.547 59.4745 80.0557L59.1675 79.9329C59.7727 78.8191 60.6146 77.9245 61.5618 77.3369C62.5529 76.7142 63.6579 76.4335 64.7192 76.5739C64.5525 76.4423 64.3771 76.2494 64.2192 75.995C63.123 75.9863 62.0179 76.3634 61.0268 77.0475C60.0884 77.6877 59.264 78.6086 58.6589 79.74C58.0712 79.5821 57.4398 79.8803 57.203 80.4503L55.3875 84.8706C54.6596 86.6422 55.5278 88.7032 57.317 89.4399Z" fill="#B23B38"/>
<path d="M37.4164 61.173C37.4427 57.8491 39.0915 57.393 39.0915 57.393C39.1266 57.3842 39.1617 57.3667 39.2055 57.3579C39.4949 57.3141 39.7931 57.507 40.1001 57.8842C40.486 58.3578 40.8982 59.1208 41.3279 60.0504C41.9769 61.5326 42.6698 63.4446 43.31 65.3477C43.6696 66.3914 44.0117 67.4351 44.3537 68.3998C44.5467 68.9874 44.7396 69.5312 44.9238 70.0398C45.2746 71.0046 45.5991 71.7851 45.8885 72.2763C46.0727 72.6008 46.5989 73.0481 47.3005 73.548C48.5196 74.4338 50.2912 75.495 51.8348 76.3633C52.475 76.7316 53.0802 77.0649 53.5889 77.3368C54.0099 77.4245 56.1674 77.8893 57.1759 77.6613C58.3073 77.3982 60.2105 78.7576 60.2105 78.7576C60.2105 78.7576 60.421 79.1961 59.6843 79.4943C58.9476 79.8012 57.9214 80.88 56.2726 80.231C55.0886 79.7749 53.8432 79.4504 53.2381 79.3013C53.0013 79.2575 52.8609 79.2224 52.8609 79.2224C52.2207 79.0996 51.4489 78.9242 50.6157 78.74H50.607C49.1774 78.398 47.5724 77.9858 46.2218 77.521C45.2746 77.1877 44.4414 76.8369 43.8801 76.4773C43.8187 76.4422 43.7749 76.4071 43.7222 76.3633C42.3804 75.3898 40.7842 72.5219 39.5476 69.4522C39.3722 69.0313 39.2143 68.6015 39.0564 68.1893C38.4864 66.6545 38.0215 65.1372 37.7496 63.8304C37.5742 63.0499 37.4602 62.3395 37.4427 61.7519C37.4164 61.5502 37.4076 61.3572 37.4164 61.173Z" fill="#FFB27D"/>
<path d="M41.6969 60.2085C39.4868 59.6033 37.417 61.1645 37.417 61.1645C37.4433 57.8493 39.0921 57.3932 39.0921 57.3932C39.9253 56.9196 40.9076 58.4281 41.6969 60.2085Z" fill="#699DEE"/>
<path d="M91.1966 125.802V127.573C91.1966 127.713 91.1527 127.845 91.0825 127.95C91.0036 128.064 90.8896 128.152 90.758 128.205C90.7142 128.222 90.6791 128.231 90.6353 128.24C90.6002 128.248 90.5563 128.248 90.5125 128.248H62.272C61.9036 128.248 61.6054 127.959 61.5879 127.599C61.5879 127.591 61.5879 127.573 61.5879 127.564V125.793C61.5879 125.784 61.5879 125.766 61.5879 125.758C61.6054 125.424 61.8598 125.152 62.193 125.117C62.2193 125.117 62.2457 125.109 62.272 125.109H90.5125C90.5563 125.109 90.5914 125.109 90.6353 125.117C90.6791 125.126 90.723 125.135 90.758 125.152C90.8896 125.205 91.0036 125.293 91.0825 125.407C91.1615 125.53 91.1966 125.661 91.1966 125.802Z" fill="#FFB93E"/>
<path d="M77.3307 128.257H62.2018C61.8773 128.257 61.6055 127.968 61.5967 127.608C61.5967 127.6 61.5967 127.582 61.5967 127.573V125.802C61.5967 125.793 61.5967 125.775 61.5967 125.767C61.6142 125.433 61.8422 125.162 62.1317 125.126C62.158 125.126 62.1755 125.118 62.2018 125.118H75.4714C75.4714 125.118 75.4714 125.118 75.4714 125.126C75.6906 126.047 76.1818 127.328 77.3307 128.257Z" fill="#FFA412"/>
<path d="M87.7669 125.126H87.4424V128.266H87.7669V125.126Z" fill="#FFA412"/>
<path d="M86.68 125.118H86.3555V128.258H86.68V125.118Z" fill="#FFA412"/>
<path d="M85.3811 125.118H85.0566V128.258H85.3811V125.118Z" fill="#FFA412"/>
<path d="M83.3821 125.118H83.0576V128.258H83.3821V125.118Z" fill="#FFA412"/>
<path d="M81.2688 125.118H80.9443V128.258H81.2688V125.118Z" fill="#FFA412"/>
<path d="M78.0325 125.118H77.708V128.258H78.0325V125.118Z" fill="#FFA412"/>
<path d="M74.9973 125.118H74.6729V128.258H74.9973V125.118Z" fill="#FFA412"/>
<path d="M72.2962 125.118H71.9717V128.258H72.2962V125.118Z" fill="#FFA412"/>
<path d="M88.802 125.126H88.4775V128.266H88.802V125.126Z" fill="#FFA412"/>
<path d="M89.4866 125.126H89.1621V128.266H89.4866V125.126Z" fill="#FFA412"/>
<path d="M90.1438 125.126H89.8193V128.266H90.1438V125.126Z" fill="#FFA412"/>
<path d="M90.635 125.135V128.249C90.6 128.258 90.5561 128.258 90.5123 128.258H90.3105V125.118H90.5123C90.5561 125.127 90.6 125.127 90.635 125.135Z" fill="#FFA412"/>
<path d="M91.0823 125.425V127.959C91.0034 128.073 90.8894 128.161 90.7578 128.214V125.17C90.8894 125.223 91.0034 125.311 91.0823 125.425Z" fill="#FFA412"/>
<path d="M86.2405 122.671V124.443C86.2405 124.583 86.1966 124.714 86.1265 124.82C86.0475 124.934 85.9335 125.021 85.802 125.074C85.7581 125.092 85.723 125.1 85.6792 125.109C85.6616 125.109 85.6529 125.118 85.6353 125.118C85.6266 125.118 85.6178 125.118 85.6003 125.118C85.5915 125.118 85.5915 125.118 85.5827 125.118C85.5739 125.118 85.5652 125.118 85.5476 125.118H57.3071C56.9388 125.118 56.6406 124.828 56.623 124.469C56.623 124.46 56.623 124.442 56.623 124.434V122.662C56.623 122.653 56.623 122.636 56.623 122.627C56.6406 122.267 56.9388 121.978 57.3071 121.978H85.5476C85.5564 121.978 85.5739 121.978 85.5827 121.978C85.609 121.978 85.6353 121.987 85.6704 121.987C85.7143 121.996 85.7581 122.004 85.7932 122.022C85.8107 122.031 85.8371 122.039 85.8546 122.048C85.8634 122.057 85.8809 122.057 85.8897 122.066C85.8984 122.075 85.916 122.083 85.9248 122.083C85.9248 122.083 85.9248 122.083 85.9335 122.083C85.9423 122.092 85.9511 122.101 85.9598 122.11C85.9861 122.127 86.0037 122.145 86.03 122.171C86.0388 122.18 86.0475 122.189 86.0475 122.189L86.0563 122.197C86.0651 122.206 86.0739 122.215 86.0739 122.224C86.0826 122.232 86.0914 122.25 86.1002 122.259C86.1966 122.399 86.2405 122.531 86.2405 122.671Z" fill="#FFB93E"/>
<path d="M72.3658 125.126H57.237C56.9125 125.126 56.6406 124.837 56.6318 124.477C56.6318 124.469 56.6318 124.451 56.6318 124.442V122.671C56.6318 122.662 56.6318 122.644 56.6318 122.636C56.6494 122.276 56.9125 121.987 57.237 121.987H70.5065C70.5153 122.013 70.5153 122.03 70.524 122.057C70.7521 122.978 71.2432 124.205 72.3658 125.126C72.3658 125.118 72.3658 125.126 72.3658 125.126Z" fill="#FFA412"/>
<path d="M82.802 121.986H82.4775V125.126H82.802V121.986Z" fill="#FFA412"/>
<path d="M81.7151 121.986H81.3906V125.126H81.7151V121.986Z" fill="#FFA412"/>
<path d="M80.4173 121.986H80.0928V125.126H80.4173V121.986Z" fill="#FFA412"/>
<path d="M78.4173 121.986H78.0928V125.126H78.4173V121.986Z" fill="#FFA412"/>
<path d="M76.304 121.986H75.9795V125.126H76.304V121.986Z" fill="#FFA412"/>
<path d="M73.0677 121.986H72.7432V125.126H73.0677V121.986Z" fill="#FFA412"/>
<path d="M70.0325 121.986H69.708V125.126H70.0325V121.986Z" fill="#FFA412"/>
<path d="M67.3313 121.987H67.0068V125.126H67.3313V121.987Z" fill="#FFA412"/>
<path d="M83.8372 121.986H83.5127V125.126H83.8372V121.986Z" fill="#FFA412"/>
<path d="M84.5218 121.986H84.1973V125.126H84.5218V121.986Z" fill="#FFA412"/>
<path d="M85.179 121.986H84.8545V125.126H85.179V121.986Z" fill="#FFA412"/>
<path d="M85.6702 121.995V125.108C85.6351 125.117 85.5913 125.117 85.5474 125.117H85.3457V121.977H85.5474C85.5913 121.986 85.6351 121.995 85.6702 121.995Z" fill="#FFA412"/>
<path d="M86.1175 122.293V124.828C86.0385 124.942 85.9245 125.029 85.793 125.082V122.039C85.9333 122.083 86.0385 122.17 86.1175 122.293Z" fill="#FFA412"/>
<path d="M90.0647 119.601V121.373C90.0647 121.513 90.0209 121.645 89.9507 121.759C89.8718 121.873 89.7578 121.96 89.6262 122.013C89.5823 122.03 89.5473 122.039 89.5034 122.048C89.4683 122.057 89.4245 122.057 89.3806 122.057H61.1401C61.0349 122.057 60.9296 122.03 60.8332 121.987C60.6315 121.881 60.4824 121.68 60.4561 121.443C60.4561 121.434 60.4561 121.425 60.4561 121.417C60.4561 121.408 60.4561 121.39 60.4561 121.381V119.61C60.4561 119.601 60.4561 119.584 60.4561 119.575C60.4736 119.242 60.7279 118.97 61.0612 118.935C61.0875 118.935 61.1138 118.926 61.1401 118.926H89.3806C89.4245 118.926 89.4596 118.926 89.5034 118.935C89.5473 118.943 89.5911 118.952 89.6262 118.97C89.7578 119.022 89.8718 119.11 89.9507 119.224C90.0209 119.329 90.0647 119.461 90.0647 119.601Z" fill="#FFB93E"/>
<path d="M76.1988 122.057H61.07C60.9735 122.057 60.8771 122.03 60.7981 121.986C60.6139 121.881 60.4824 121.679 60.4648 121.443C60.4648 121.434 60.4648 121.425 60.4648 121.416C60.4648 121.408 60.4648 121.39 60.4648 121.381V119.61C60.4648 119.601 60.4648 119.583 60.4648 119.575C60.4824 119.241 60.7104 118.969 60.9998 118.934C61.0261 118.934 61.0437 118.926 61.07 118.926H74.3395C74.3395 118.926 74.3395 118.926 74.3395 118.934C74.55 119.838 75.0236 121.065 76.1111 121.995C76.1374 122.013 76.1725 122.03 76.1988 122.057Z" fill="#FFA412"/>
<path d="M86.636 118.917H86.3115V122.057H86.636V118.917Z" fill="#FFA412"/>
<path d="M85.5481 118.917H85.2236V122.057H85.5481V118.917Z" fill="#FFA412"/>
<path d="M84.2415 118.917H83.917V122.057H84.2415V118.917Z" fill="#FFA412"/>
<path d="M82.2513 118.917H81.9268V122.057H82.2513V118.917Z" fill="#FFA412"/>
<path d="M80.137 118.917H79.8125V122.057H80.137V118.917Z" fill="#FFA412"/>
<path d="M76.9007 118.917H76.5762V122.057H76.9007V118.917Z" fill="#FFA412"/>
<path d="M73.8665 118.917H73.542V122.057H73.8665V118.917Z" fill="#FFA412"/>
<path d="M71.1653 118.917H70.8408V122.057H71.1653V118.917Z" fill="#FFA412"/>
<path d="M87.6712 118.917H87.3467V122.057H87.6712V118.917Z" fill="#FFA412"/>
<path d="M88.3548 118.917H88.0303V122.057H88.3548V118.917Z" fill="#FFA412"/>
<path d="M89.013 118.917H88.6885V122.057H89.013V118.917Z" fill="#FFA412"/>
<path d="M89.5042 118.934V122.048C89.4691 122.057 89.4253 122.057 89.3814 122.057H89.1797V118.917H89.3814C89.4253 118.917 89.4691 118.926 89.5042 118.934Z" fill="#FFA412"/>
<path d="M89.9515 119.224V121.758C89.8725 121.872 89.7585 121.96 89.627 122.013V118.969C89.7585 119.013 89.8725 119.11 89.9515 119.224Z" fill="#FFA412"/>
<path d="M87.9954 116.47V118.242C87.9954 118.382 87.9515 118.514 87.8814 118.619C87.8024 118.733 87.6884 118.821 87.5569 118.873C87.513 118.891 87.4779 118.9 87.4341 118.908C87.4253 118.908 87.4078 118.917 87.3902 118.917C87.3814 118.917 87.3727 118.917 87.3639 118.917C87.3551 118.917 87.3464 118.917 87.3376 118.917C87.3288 118.917 87.3113 118.917 87.3025 118.917H59.062C58.6937 118.917 58.3955 118.628 58.3779 118.268C58.3779 118.259 58.3779 118.242 58.3779 118.233V116.461C58.3779 116.453 58.3779 116.435 58.3779 116.426C58.3955 116.067 58.6937 115.777 59.062 115.777H87.3025C87.3464 115.777 87.3814 115.777 87.4253 115.786C87.4692 115.795 87.513 115.804 87.5481 115.821C87.6796 115.874 87.7937 115.962 87.8726 116.076C87.9515 116.198 87.9954 116.33 87.9954 116.47Z" fill="#FFB93E"/>
<path d="M74.1207 118.926H58.9919C58.6674 118.926 58.3955 118.636 58.3867 118.277C58.3867 118.268 58.3867 118.25 58.3867 118.242V116.47C58.3867 116.461 58.3867 116.444 58.3867 116.435C58.4043 116.075 58.6674 115.786 58.9919 115.786H72.2614C72.4806 116.707 72.9718 117.978 74.1207 118.926C74.1207 118.917 74.1207 118.926 74.1207 118.926Z" fill="#FFA412"/>
<path d="M84.5579 115.786H84.2334V118.926H84.5579V115.786Z" fill="#FFA412"/>
<path d="M83.47 115.786H83.1455V118.926H83.47V115.786Z" fill="#FFA412"/>
<path d="M82.1722 115.786H81.8477V118.926H82.1722V115.786Z" fill="#FFA412"/>
<path d="M80.1731 115.786H79.8486V118.926H80.1731V115.786Z" fill="#FFA412"/>
<path d="M78.0589 115.786H77.7344V118.926H78.0589V115.786Z" fill="#FFA412"/>
<path d="M74.8225 115.786H74.498V118.926H74.8225V115.786Z" fill="#FFA412"/>
<path d="M71.7884 115.786H71.4639V118.926H71.7884V115.786Z" fill="#FFA412"/>
<path d="M69.0872 115.786H68.7627V118.925H69.0872V115.786Z" fill="#FFA412"/>
<path d="M85.5931 115.786H85.2686V118.926H85.5931V115.786Z" fill="#FFA412"/>
<path d="M86.2767 115.786H85.9521V118.926H86.2767V115.786Z" fill="#FFA412"/>
<path d="M86.9349 115.786H86.6104V118.926H86.9349V115.786Z" fill="#FFA412"/>
<path d="M87.4261 115.795V118.908C87.391 118.917 87.3471 118.917 87.3033 118.917H87.1016V115.777H87.3033C87.3471 115.786 87.391 115.786 87.4261 115.795Z" fill="#FFA412"/>
<path d="M87.8733 116.084V118.619C87.7944 118.733 87.6804 118.821 87.5488 118.873V115.83C87.6892 115.882 87.7944 115.97 87.8733 116.084Z" fill="#FFA412"/>
<path d="M70.6127 121.697L72.8579 121.022L72.4808 118.926C72.4808 118.926 70.7969 117.557 70.5163 115.786L59.3779 118.566V124.925H62.202V127.45H72.9106V125.135C72.9018 125.126 71.3758 124.819 70.6127 121.697Z" fill="#FFA412"/>
<path d="M85.0127 89.8696C85.0127 89.8696 95.8704 98.5698 99.6855 111.199C99.6942 111.199 97.0894 101.525 85.0127 89.8696Z" fill="white"/>
<path d="M89.3193 99.9729C89.3193 99.9729 94.7306 114.356 94.8446 124.6C94.8446 124.591 96.4058 117.601 89.3193 99.9729Z" fill="white"/>
<path d="M85.75 99.166C85.75 99.166 88.3197 109.401 88.5302 113.435C88.5214 113.435 88.6705 107.936 85.75 99.166Z" fill="white"/>
<path d="M49.3789 53.9375C49.3789 53.9375 50.4314 53.9989 50.9663 54.3234C50.9663 54.3234 50.1858 54.9198 49.3789 53.9375Z" fill="white"/>
</svg>
