<svg width="204" height="141" viewBox="0 0 204 141" fill="none" xmlns="http://www.w3.org/2000/svg">
<path d="M16.4359 139.956C16.4359 139.956 -7.57801 112.561 2.44756 80.3583C11.4468 51.4583 52.1383 32.75 73.7669 47.0675C84.2297 53.9944 92.6777 26.1543 127.392 15.9721C153.069 8.43959 191.023 25.3405 181.387 77.0841C174.061 116.431 210.419 96.8144 202.474 140.278L16.4359 139.956Z" fill="#EBF3FA"/>
<path d="M143.68 41.4845C143.68 41.4845 138.462 35.8635 143.014 32.0026C143.014 32.0026 146.359 29.8072 149.163 29.8734C149.163 29.8734 145.457 36.63 146.758 37.2451C148.06 37.8507 150.351 29.4192 150.351 29.4192C150.351 29.4192 158.124 28.3783 160.671 29.4854C160.671 29.4854 154.209 35.1632 155.625 35.4377C157.041 35.7121 164.044 30.11 164.044 30.11C164.044 30.11 171.352 31.0658 171.124 35.4944C170.905 39.9137 168.454 41.371 167.351 41.2952C166.249 41.2195 159.73 39.0147 159.616 39.9136C159.511 40.8126 163.493 43.6042 166.201 43.6421C166.201 43.6421 161.298 49.4523 157.839 47.9572C154.38 46.462 153.99 43.907 151.833 43.0175C149.676 42.128 147.87 42.2037 148.783 43.15C149.695 44.0963 153.572 44.9101 154.864 47.0014C156.157 49.0927 157.297 50.4933 153.762 50.0958C150.227 49.6984 144.411 47.3516 144.05 44.4275C143.68 41.4845 143.68 41.4845 143.68 41.4845Z" fill="#599DAD"/>
<path d="M167.56 35.7217C167.56 35.7217 147.823 35.7028 143.68 41.4752C143.68 41.4752 142.824 44.3803 139.964 47.1057L139.546 48.3737C139.546 48.3737 142.824 44.6547 144.041 44.3992C144.041 44.4087 141.865 37.5291 167.56 35.7217Z" fill="#599DAD"/>
<path d="M139.954 47.1151C139.954 47.1151 135.839 50.3893 135.754 55.9724L136.524 56.0103C136.524 56.0103 137.654 50.2 140.011 47.8626C142.377 45.5158 139.954 47.1151 139.954 47.1151Z" fill="#599DAD"/>
<path d="M131.877 34.7847C131.877 34.7847 120.151 32.154 122.574 23.1547C122.574 23.1547 124.931 17.3728 128.599 14.9787C128.599 14.9787 129.834 26.9588 132.058 26.5993C134.282 26.2302 129.711 13.3416 129.711 13.3416C129.711 13.3416 138.795 5.1372 143.072 4.30445C143.072 4.30445 139.803 17.3255 141.874 16.4265C143.936 15.5276 147.975 2.12797 147.975 2.12797C147.975 2.12797 158.238 -3.08614 161.897 2.8093C165.556 8.70474 163.693 12.7454 162.201 13.616C160.709 14.4961 150.351 17.4107 151.016 18.6693C151.681 19.9278 159.293 20.0035 162.819 17.6473C162.819 17.6473 161.669 29.4665 155.882 30.5926C150.094 31.7282 147.31 28.7663 143.746 29.5328C140.183 30.2993 137.912 31.9837 139.936 32.4001C141.96 32.8164 147.671 30.4507 151.197 32.0026C154.722 33.5545 157.44 34.3494 152.527 36.9612C147.614 39.573 138.026 41.6832 134.956 38.2293C131.877 34.7847 131.877 34.7847 131.877 34.7847Z" fill="#86D1CD"/>
<path d="M157.525 6.28223C157.525 6.28223 132.077 23.6847 131.877 34.7847C131.877 34.7847 133.369 39.2891 132.105 45.3265L132.704 47.3327C132.704 47.3327 133.625 39.6487 134.956 38.2387C134.956 38.2387 126.023 31.2834 157.525 6.28223Z" fill="#6BB7BF"/>
<path d="M132.105 45.3264C132.105 45.3264 129.72 53.1807 134.576 60.4388L135.602 59.8142C135.602 59.8142 131.896 51.3259 132.847 46.2348C133.806 41.1248 132.105 45.3264 132.105 45.3264Z" fill="#6BB7BF"/>
<path d="M66.7255 101.802C66.7255 101.802 78.4521 99.1709 76.0289 90.1716C76.0289 90.1716 73.6721 84.3897 70.004 81.9956C70.004 81.9956 68.7686 93.9757 66.5449 93.6161C64.3213 93.2565 68.8922 80.3585 68.8922 80.3585C68.8922 80.3585 59.8074 72.154 55.5311 71.3213C55.5311 71.3213 58.8001 84.3424 56.7284 83.4434C54.6568 82.5444 50.6371 69.1448 50.6371 69.1448C50.6371 69.1448 40.3739 63.9307 36.7153 69.8261C33.0567 75.7216 34.9192 79.7528 36.4112 80.6329C37.9032 81.5129 48.2613 84.4275 47.5961 85.6861C46.9309 86.9447 39.3191 87.0204 35.7935 84.6641C35.7935 84.6641 36.9434 96.4834 42.7306 97.6095C48.5179 98.745 51.3023 95.7831 54.8659 96.5496C58.4295 97.3161 60.7007 99.0005 58.6765 99.4169C56.6524 99.8333 50.9412 97.4675 47.4156 99.0195C43.89 100.571 41.1722 101.366 46.0852 103.978C50.9982 106.59 60.5866 108.7 63.6561 105.246C66.7255 101.792 66.7255 101.802 66.7255 101.802Z" fill="#86D1CD"/>
<path d="M41.0771 73.2991C41.0771 73.2991 66.526 90.7015 66.7255 101.802C66.7255 101.802 65.2336 106.306 66.4974 112.343L65.8988 114.349C65.8988 114.349 64.977 106.666 63.6466 105.256C63.6561 105.256 72.5793 98.3097 41.0771 73.2991Z" fill="#6BB7BF"/>
<path d="M66.4981 112.343C66.4981 112.343 68.8833 120.198 64.0273 127.456L63.001 126.831C63.001 126.831 66.7071 118.343 65.7568 113.252C64.8065 108.142 66.4981 112.343 66.4981 112.343Z" fill="#6BB7BF"/>
<path d="M144.497 20.9023H59.1318V140.268H144.497V20.9023Z" fill="#739AF0"/>
<path d="M141.484 24.2048H62.125V138.054H141.484V24.2048Z" fill="#DDEBFD"/>
<path d="M135.089 38.1814H70.2979V41.872H135.089V38.1814Z" fill="#A8C3F7"/>
<path d="M135.089 60.7034H70.2979V62.3972H135.089V60.7034Z" fill="#A8C3F7"/>
<path d="M135.089 64.678H70.2979V66.3719H135.089V64.678Z" fill="#A8C3F7"/>
<path d="M135.089 68.6619H70.2979V70.3557H135.089V68.6619Z" fill="#A8C3F7"/>
<path d="M135.089 72.6458H70.2979V74.3396H135.089V72.6458Z" fill="#A8C3F7"/>
<path d="M135.089 76.6296H70.2979V78.3235H135.089V76.6296Z" fill="#A8C3F7"/>
<path d="M135.089 80.6133H70.2979V82.3072H135.089V80.6133Z" fill="#A8C3F7"/>
<path d="M89.2744 103.741C89.2744 106.495 87.0317 108.719 84.2759 108.719C81.5105 108.719 79.2773 106.485 79.2773 103.741C79.2773 100.997 81.52 98.7637 84.2759 98.7637C87.0317 98.7637 89.2744 100.997 89.2744 103.741Z" fill="#A8C3F7"/>
<path d="M110.2 108.529C110.19 108.529 110.171 108.529 110.162 108.529C110.029 108.51 109.934 108.378 109.953 108.245C110 107.971 111.14 101.527 114.723 99.3406C114.98 99.1892 115.141 99.2649 115.208 99.3311C115.521 99.5961 115.284 100.287 114.2 102.861C113.773 103.892 113.26 105.104 113.051 105.851C113.431 105.35 114.001 104.498 114.457 103.817C115.873 101.697 116.149 101.347 116.434 101.347C116.538 101.347 116.624 101.394 116.69 101.479C116.842 101.697 116.728 102.056 116.339 103.116C116.187 103.523 115.958 104.138 115.892 104.479C116.091 104.299 116.396 103.911 116.576 103.675C117.07 103.041 117.317 102.738 117.612 102.776C117.669 102.785 117.821 102.832 117.897 103.022C117.926 103.107 117.945 103.192 117.954 103.296C117.992 103.552 118.04 103.845 118.344 104.015C118.971 104.365 120.757 104.347 125.775 102.265C125.899 102.208 126.051 102.274 126.098 102.397C126.155 102.52 126.089 102.672 125.965 102.719C121.736 104.479 119.161 105.037 118.097 104.441C117.583 104.148 117.507 103.665 117.46 103.372C117.317 103.523 117.118 103.779 116.975 103.968C116.434 104.668 116.073 105.094 115.711 105.066C115.597 105.056 115.502 104.999 115.445 104.905C115.274 104.63 115.445 104.1 115.873 102.937C115.939 102.747 116.025 102.539 116.092 102.34C115.74 102.814 115.274 103.514 114.894 104.091C113.307 106.466 113.022 106.807 112.699 106.722C112.651 106.712 112.49 106.646 112.471 106.419C112.442 105.861 112.956 104.574 113.754 102.672C114.162 101.706 114.685 100.438 114.818 99.88C111.559 102.066 110.456 108.274 110.447 108.34C110.428 108.444 110.323 108.529 110.2 108.529Z" fill="#A8C3F7"/>
<path d="M120.511 18.9719H110.447C110.675 18.3758 110.799 17.7323 110.799 17.0604C110.799 14.0796 108.376 11.6665 105.382 11.6665C102.389 11.6665 99.9655 14.0796 99.9655 17.0604C99.9655 17.7323 100.089 18.3758 100.317 18.9719H90.2535C89.4457 18.9719 88.79 19.6249 88.79 20.4292V24.4794C88.79 25.2837 89.4457 25.9367 90.2535 25.9367H120.52C121.328 25.9367 121.984 25.2837 121.984 24.4794V20.4292C121.974 19.6249 121.319 18.9719 120.511 18.9719ZM105.373 19.0476C104.27 19.0476 103.377 18.1581 103.377 17.0604C103.377 15.9627 104.27 15.0732 105.373 15.0732C106.475 15.0732 107.368 15.9627 107.368 17.0604C107.378 18.1581 106.475 19.0476 105.373 19.0476Z" fill="#F99746"/>
<path d="M90.2441 25.9367H120.511C121.319 25.9367 121.974 25.2837 121.974 24.4794V20.4292L90.2441 25.9367Z" fill="#ED7D2B"/>
<path d="M9.39398 139.805C11.4086 137.751 14.9627 136.341 19.0679 136.171V130.124H11.9883C11.8267 130.124 11.6937 129.992 11.5987 129.774C11.5321 129.623 11.5036 129.443 11.5036 129.244V128.941C11.5036 128.459 11.7222 128.061 11.9883 128.061H19.0679V111.16C19.0679 110.715 19.4386 110.346 19.8852 110.346C20.3318 110.346 20.7024 110.715 20.7024 111.16V128.061H27.7821C28.0482 128.061 28.2668 128.459 28.2668 128.941V129.244C28.2668 129.452 28.2288 129.641 28.1622 129.793C28.0767 129.992 27.9342 130.124 27.7821 130.124H20.7024V136.171C24.8077 136.341 28.3618 137.751 30.3764 139.805C30.519 139.956 30.6615 140.108 30.7945 140.259H8.98535C9.10889 140.108 9.25143 139.956 9.39398 139.805Z" fill="#D39E7A"/>
<path d="M19.0771 136.199C21.9375 136.464 24.3988 137.836 25.8242 139.805C25.9287 139.956 26.0333 140.107 26.1283 140.259H28.1429C28.0479 140.107 27.9434 139.956 27.8388 139.805C26.2518 137.619 23.3725 136.161 20.075 136.161C19.7424 136.152 19.4098 136.171 19.0771 136.199Z" fill="#E0B594"/>
<path d="M41.3994 136.228C41.3994 136.228 41.6465 140.193 42.4162 140.25C42.5208 140.259 46.3219 140.259 46.3219 140.259L51.1779 140.231C51.1779 140.231 51.1494 139.067 49.724 138.821C48.308 138.575 45.9323 137.581 45.0675 135.717C44.1648 133.748 41.3994 136.228 41.3994 136.228Z" fill="#163560"/>
<path d="M22.1753 107.11C22.869 108.283 23.6673 109.381 24.494 110.412C27.0503 113.62 29.8252 116.27 30.3098 118.768C30.4049 119.27 30.5569 119.8 30.7565 120.368C30.956 120.945 31.2126 121.541 31.4977 122.165C32.581 124.512 34.206 127.134 35.8215 129.528C38.6154 133.654 40.9056 136.426 40.9056 136.426C40.9056 136.426 41.6373 136.994 43.7374 136.994C44.3171 136.994 46.2842 136.672 46.2842 136.672C46.0942 136.19 43.7754 130.711 40.9531 123.746C39.8127 120.916 38.5964 117.917 37.4275 115.011C37.2755 114.623 37.1139 114.235 36.9619 113.857C36.6007 112.967 36.2491 112.097 35.907 111.245C33.2652 104.706 31.1556 99.5016 31.1556 99.5016C31.1556 99.5016 20.5978 95.5177 19.4955 98.1011C18.6022 100.24 19.334 102.322 22.1753 107.11Z" fill="#233862"/>
<path d="M56.1389 96.1804H40.1455V140.259H56.1389V96.1804Z" fill="#D39E7A"/>
<path d="M55.4774 140.26H66.9189V96.1814H55.4774L55.4774 140.26Z" fill="#F2C7AA"/>
<path d="M55.5871 95.2908H39.0615V96.1803H55.5871V95.2908Z" fill="#AF7D5B"/>
<path d="M68.1023 95.2908H55.5869V96.1803H68.1023V95.2908Z" fill="#E2B291"/>
<path d="M38.815 89.3577C38.815 89.3577 41.1052 90.6541 41.7514 90.6541C42.3976 90.6541 44.9158 90.1715 45.6095 90.5311C46.3128 90.8907 47.5862 92.329 47.8237 92.7927C48.2514 93.6349 46.0942 93.2659 45.0774 92.5467C44.9253 92.4426 44.7448 92.4047 44.5642 92.4426C44.0416 92.5562 42.9392 92.7549 42.4071 92.5562C41.6943 92.2912 37.9502 92.0073 37.9502 92.0073L38.815 89.3577Z" fill="#ED975D"/>
<path d="M21.377 71.69C21.377 71.69 23.7527 88.5057 27.6869 90.0103C29.6255 90.7579 38.2066 92.4423 40.7439 92.6032C40.7439 92.6032 41.3616 92.1016 41.2095 90.0576C41.2095 90.0576 32.2198 86.774 30.9464 84.9855C29.0458 82.3264 32.1247 74.122 29.7395 71.6237C27.3543 69.1255 23.3441 68.0467 21.377 71.69Z" fill="#82B378"/>
<path d="M30.233 124.91C30.233 124.91 26.8785 127.058 27.2016 127.758C27.2491 127.853 29.1022 131.155 29.1022 131.155L31.4969 135.367C31.4969 135.367 32.5042 134.77 32.0291 133.417C31.5539 132.064 31.2689 129.518 32.4852 127.853C33.7586 126.102 30.233 124.91 30.233 124.91Z" fill="#163560"/>
<path d="M32.1432 129.027C32.1432 129.027 29.7865 126.841 29.4159 125.487C29.4159 125.487 38.054 115.182 39.9261 112.873C40.0116 112.769 39.9926 112.646 39.8786 112.523C38.4626 110.933 22.7448 107.706 20.6922 104.527C19.9795 103.429 19.5803 102.388 19.3618 101.48C18.8961 99.5399 19.2668 98.1962 19.2668 98.1962L34.9656 97.7419C34.9656 97.7419 48.0321 105.842 49.5145 111.369C50.9875 116.895 32.1432 129.027 32.1432 129.027Z" fill="#2B478B"/>
<path d="M39.8693 112.523C38.4534 110.933 22.7356 107.706 20.6829 104.526C19.9702 103.429 19.5711 102.388 19.3525 101.479V99.5016L26.0236 98.4607C26.0236 98.4607 27.9147 104.261 33.5214 106.429C38.7765 108.463 39.7648 112.068 39.8693 112.523Z" fill="#233862"/>
<path d="M30.6612 70.63C27.4873 71.4438 22.2227 68.5198 22.2227 68.5198C22.2227 68.5198 24.2658 67.1476 25.026 64.1479C25.064 63.9965 25.102 63.845 25.1305 63.6842C25.4631 63.6179 26.0903 63.4855 26.765 63.3435L29.1883 65.5105C29.1883 65.5105 29.1313 66.4095 28.8272 67.952C28.7702 68.2169 28.7131 68.5103 28.6466 68.8226C29.9485 69.608 30.6612 70.63 30.6612 70.63Z" fill="#FFB27D"/>
<path d="M18.8583 83.7364C19.3145 89.8306 18.7158 99.0949 19.2289 100.704C19.6756 102.085 24.7501 101.262 26.7742 100.798C27.525 100.628 28.4277 100.382 29.3685 100.098C31.9818 99.2936 34.8327 98.1391 35.1368 97.2874C35.1463 97.2496 35.1558 97.2212 35.1653 97.1928C35.1938 97.0698 35.1843 96.9562 35.1558 96.8332C35.0513 96.3979 34.6617 95.9248 34.6141 94.846C34.5666 93.6442 34.5666 92.2247 34.5286 90.6917C34.5286 90.5214 34.5191 90.3321 34.5096 90.1618V90.0956C34.5096 90.0672 34.5096 90.0293 34.5096 90.0009C34.4621 88.2976 34.3766 86.5091 34.272 84.7395C34.2055 83.6229 34.1295 82.5252 34.044 81.4653C33.8159 78.74 33.5118 76.308 33.1032 74.775C32.438 72.2768 30.9745 70.6397 29.6346 69.4473L28.6653 68.624C27.5915 68.8606 26.3181 68.6997 25.1587 68.1604C23.9139 67.5736 23.4767 67.1478 23.2677 67.3087C20.3883 69.5041 18.3261 76.2891 18.8583 83.7364Z" fill="#A8D29F"/>
<path d="M29.3685 100.089C31.9818 99.2842 34.8327 98.1297 35.1368 97.278C35.1463 97.2402 35.1558 97.2118 35.1653 97.1834C35.1653 97.0604 35.1653 96.9468 35.1558 96.8238C35.0513 96.3885 34.6617 95.9153 34.6142 94.8366C34.5666 93.6348 34.5666 92.2153 34.5286 90.6823C34.5286 90.512 34.5191 90.3227 34.5096 90.1524V90.0861C34.5096 90.0578 34.5096 90.0199 34.5096 89.9915L23.9329 76.573C23.9329 76.5825 16.8247 91.3163 29.3685 100.089Z" fill="#82B378"/>
<path d="M29.1886 65.492C29.1886 65.492 29.1316 66.391 28.8275 67.9335C26.4613 67.167 25.3875 65.0378 25.0264 64.1388C25.0644 63.9874 25.1024 63.836 25.1309 63.6751C25.4635 63.6089 26.0907 63.4764 26.7654 63.3345L29.1886 65.492Z" fill="#ED975D"/>
<path d="M29.5012 66.8545C29.5012 66.8545 24.3316 65.9934 24.9208 62.8044C25.51 59.6059 25.2344 57.3442 28.5604 57.7606C31.8864 58.177 32.2951 59.5112 32.3616 60.6184C32.4281 61.735 30.8601 66.9965 29.5012 66.8545Z" fill="#FFB27D"/>
<path d="M40.8201 94.5054H53.7155L57.2221 83.2161L57.6782 83.358L53.9721 95.2908H40.8105L40.8201 94.5054Z" fill="#1C468A"/>
<path d="M37.3984 94.8369C37.3984 94.8369 41.6272 95.944 43.2142 95.8305C44.8012 95.7169 46.1221 94.9599 46.3217 94.5719C46.5212 94.1839 46.9394 93.4837 45.8655 93.6161C44.7822 93.7486 43.3092 93.9757 43.2712 93.7676C43.2237 93.5594 44.155 93.5783 44.155 93.5783C44.155 93.5783 44.4306 93.1714 44.079 93.1619C43.7274 93.143 42.7011 92.8686 42.3209 93.0578C41.9408 93.2471 41.5892 93.9474 41.3041 93.919C41.0285 93.8906 37.769 92.4617 37.769 92.4617L37.3984 94.8369Z" fill="#FFB27D"/>
<path d="M22.4219 72.5227C22.4219 72.5227 22.9255 89.4993 26.6697 91.4203C28.5132 92.3761 36.8568 94.9878 39.3561 95.4326C39.3561 95.4326 40.0308 94.9973 40.1068 92.9533C40.1068 92.9533 31.5352 88.7044 30.4613 86.7834C28.8649 83.9351 32.8371 76.1186 30.7464 73.3744C28.6558 70.6301 24.7786 69.1255 22.4219 72.5227Z" fill="#A8D29F"/>
<path d="M25.026 64.1386C25.026 64.1386 24.9689 63.0409 25.6436 62.4163C25.6436 62.4163 25.4061 61.3186 25.8432 61.1388C26.2803 60.959 26.3754 61.8864 26.5749 61.735C26.7745 61.5931 27.6678 60.9023 28.0479 59.8897C28.428 58.8772 31.9251 60.1074 32.3337 60.2872C32.7423 60.467 34.0537 59.7951 34.3103 59.2557C34.3103 59.2557 33.5786 58.6785 33.2555 58.2432C32.9324 57.8079 30.6327 54.8743 27.4302 55.7071C24.2277 56.5398 23.7906 58.0634 23.9711 59.3693C24.1517 60.6657 23.7145 63.7033 25.026 64.1386Z" fill="#233862"/>
<path d="M30.9747 104.924C26.1187 104.924 21.3102 103.95 16.8534 102.047L13.955 100.817C11.3227 99.7006 8.40527 101.622 8.40527 104.47V105.899V108.378V109.968C8.40527 110.507 8.84241 110.943 9.38408 110.943H30.9842C31.5259 110.943 31.963 110.507 31.963 109.968V105.889C31.9535 105.36 31.5069 104.924 30.9747 104.924Z" fill="#912F2F"/>
<path d="M115.399 109.164C110.847 109.939 106.437 110.11 103.073 109.845C99.6809 109.58 97.6948 108.539 97.4952 107.347C97.3052 106.268 98.5691 105.028 101.125 103.77C98.6736 104.981 97.4762 106.334 97.6473 107.318C97.8373 108.406 99.814 109.173 103.083 109.428C106.428 109.693 110.771 109.41 115.313 108.634C119.856 107.858 124.037 106.684 127.106 105.322C130.1 103.997 131.706 102.615 131.516 101.527C131.316 100.372 129.178 99.2652 125.937 98.6312C122.25 97.912 117.908 98.1486 113.622 98.8867C105.582 100.259 102.437 101.763 99.7664 103.419C102.446 101.754 105.487 99.8614 113.555 98.4798C117.85 97.7417 122.26 97.7417 125.966 98.4609C129.273 99.1044 131.459 100.268 131.668 101.498C131.877 102.691 130.271 104.101 127.163 105.482C124.094 106.845 119.951 108.388 115.399 109.164Z" fill="#C65447"/>
<path d="M168.387 94.316C168.387 94.316 168.121 96.871 167.836 97.3537C167.551 97.8363 166.315 99.3787 165.793 99.6816C165.27 99.9844 166.116 97.647 166.002 97.1928C165.897 96.7386 165.574 98.0255 165.337 98.0539C165.099 98.0823 165.166 96.9278 165.156 96.5115C165.147 96.0951 166.277 95.0542 166.677 94.1552C167.085 93.2562 168.387 94.316 168.387 94.316Z" fill="#FFB27D"/>
<path d="M136.894 70.7721L136.305 69.6649C136.305 69.6649 136.6 67.6966 134.119 66.4475C134.119 66.4475 133.217 66.0784 132.703 66.8165C132.228 67.4979 133.606 67.3749 133.53 68.5293C133.454 69.6933 134.005 70.3746 134.785 70.7531L135.421 71.4913L136.894 70.7721Z" fill="#FFB27D"/>
<path d="M160.348 68.1226C160.348 68.1226 158.219 78.5413 146.483 81.948C142.825 83.0079 134.5 71.0088 134.5 71.0088C134.5 71.0088 134.795 69.9016 136.629 70.1571C136.629 70.1571 144.725 75.4943 145.751 76.081C146.654 76.592 152.603 69.4663 155.321 68.3119C158.029 67.1574 160.348 68.1226 160.348 68.1226Z" fill="#4A75CB"/>
<path d="M129.138 66.0733L128.805 68.2339L139.7 69.9002L140.033 67.7396L129.138 66.0733Z" fill="#C65447"/>
<path d="M126.441 66.7697L128.808 68.2364L129.14 66.0789L126.441 66.7697Z" fill="#FFB27D"/>
<path d="M141.19 68.6526L141.086 69.3339C141.019 69.7503 140.63 70.0436 140.202 69.9774L139.698 69.9017L140.031 67.7441L140.582 67.8293C140.972 67.8861 141.247 68.2551 141.19 68.6526Z" fill="#FFB27D"/>
<path d="M174.355 133.616C174.355 133.616 175.809 134.941 175.524 135.878C175.239 136.815 173.927 137.439 173.747 138.594C173.566 139.739 172.863 140.373 172.217 140.373C171.58 140.373 169.166 140.373 169.166 140.373C169.166 140.373 168.701 139.568 169.831 139.322C170.972 139.076 171.399 137.732 171.323 136.474C171.257 135.225 171.428 133.55 171.428 133.55L173.842 132.991L174.355 133.616Z" fill="#233862"/>
<path d="M156.499 137.032C156.499 137.032 156.755 140.042 156.119 140.354L147.946 140.335C147.946 140.335 147.946 139.398 149.258 139.19C150.569 138.982 152.878 138.215 153.268 136.512C153.667 134.809 156.499 137.032 156.499 137.032Z" fill="#233862"/>
<path d="M149.6 94.5247C149.6 94.5247 150.027 99.7956 150.54 106.145C151.225 114.757 152.061 125.336 152.137 127.342C152.279 130.825 152.85 136.389 152.85 136.389C152.85 136.389 154.199 137.714 156.898 137.155C156.898 137.155 159.302 129.207 159.986 120.794C159.996 120.652 160.005 120.52 160.015 120.378C160.651 111.814 161.649 93.7866 161.649 93.7866L149.6 94.5247Z" fill="#2B478B"/>
<path d="M149.6 94.5245C149.6 94.5245 150.027 99.7954 150.54 106.145L159.986 120.803C159.996 120.661 160.005 120.529 160.015 120.387C160.651 111.823 161.649 93.7959 161.649 93.7959L149.6 94.5245Z" fill="#233862"/>
<path d="M151.567 95.1489C151.567 95.1489 159.341 114.255 164.453 123.235C169.566 132.215 171.162 134.723 171.162 134.723C171.162 134.723 174.089 133.578 174.355 132.793C174.355 132.793 172.398 115.457 168.977 111.236C167.038 108.851 164.767 101.688 164.662 99.1802C164.558 96.6725 163.969 91.7139 163.969 91.7139L151.567 95.1489Z" fill="#2B478B"/>
<path d="M161.792 65.7095C161.792 65.7095 156.537 68.2361 153.506 67.2993C153.506 67.2993 154.257 66.3625 155.558 65.6622C155.454 65.0566 155.368 64.5267 155.321 64.0819C155.197 63.0504 155.197 62.4732 155.197 62.4732L157.231 60.8834L159.151 59.3599C158.999 63.6371 161.792 65.7095 161.792 65.7095Z" fill="#FFB27D"/>
<path d="M164.567 92.6793C164.577 93.0011 163.893 93.3607 163.589 93.5026C161.336 94.4868 159.236 95.1681 156.86 95.4047C154.048 95.6886 150.731 95.064 149.581 95.0829C149.467 95.0829 149.363 95.0356 149.268 94.9599C149.182 94.9031 149.125 91.5343 149.182 87.2854C149.182 87.1151 149.182 86.9448 149.192 86.7744V86.7177C149.211 85.0616 149.277 83.3204 149.353 81.5793C149.515 77.7562 149.819 74.0751 150.332 72.0406C150.95 69.637 152.347 68.0472 153.62 66.8927L154.665 65.9748C155.711 66.183 156.822 66.1262 157.934 65.5868C159.151 65.0001 160.453 64.3755 160.662 64.5364C162.249 65.6909 163.322 68.2838 163.893 71.6053C164.216 73.5168 164.387 75.6554 164.368 77.8982C164.368 78.7214 164.349 79.5636 164.301 80.4058C164.026 84.9292 164.301 88.8658 164.463 91.1463C164.52 91.7993 164.558 92.3197 164.567 92.6793Z" fill="#699DEE"/>
<path d="M164.472 92.4709C146.055 92.433 161.079 72.5702 161.079 72.5702L164.063 71.605C164.3 73.649 164.415 75.9296 164.405 78.3237C164.405 79.2038 164.386 80.1027 164.357 81.0017C164.148 85.8373 164.357 90.0483 164.472 92.4709Z" fill="#4A75CB"/>
<path d="M159.179 60.9969C159.179 60.9969 157.849 63.4099 155.321 64.0818C155.197 63.0503 155.197 62.4731 155.197 62.4731L157.231 60.8833L159.179 60.9969Z" fill="#ED985F"/>
<path d="M154.266 62.3976C154.266 62.3976 159.284 63.2114 159.759 60.1454C160.234 57.0699 161.194 55.1111 158.01 54.4581C154.827 53.8052 154.019 54.884 153.611 55.8776C153.202 56.8712 152.974 62.1137 154.266 62.3976Z" fill="#FFB27D"/>
<path d="M161.583 54.0889C161.631 54.0416 161.735 53.9943 161.964 53.9848C161.964 53.9848 161.773 53.8713 161.526 53.8618C161.479 53.5401 161.308 52.9628 160.747 52.8304C160.747 52.8304 161.051 52.9912 161.089 53.3319C160.443 52.6695 159.056 52.1869 155.207 52.4897C150.142 52.8871 151.814 56.114 152.47 56.502C153.126 56.89 154.779 55.8301 155.996 55.9248C157.222 56.0194 157.45 57.7795 157.868 58.0255C158.286 58.2621 158.115 57.8363 158.685 57.5902C159.246 57.3347 159.303 58.2621 159.141 58.8677C158.98 59.4734 159.749 60.2683 159.749 60.2683C159.749 60.2683 159.749 60.2683 160.529 59.4355C161.308 58.6028 162.04 55.0636 161.688 54.3066C161.64 54.2309 161.612 54.1646 161.583 54.0889Z" fill="#2C3A64"/>
<path d="M160.67 64.5171C160.67 64.5171 163.844 66.0122 165.365 68.3118C167.721 71.8793 170.458 84.8909 170.515 86.0927C170.563 87.2945 168.52 95.8017 168.52 95.8017C168.52 95.8017 166.439 95.6692 165.906 94.6188C165.906 94.6188 166.325 85.8845 166.058 85.3167C165.792 84.7584 157.401 73.5921 158.342 71.2169C159.283 68.8417 160.67 64.5171 160.67 64.5171Z" fill="#699DEE"/>
<path d="M136.296 69.6083C136.296 69.6083 136.467 68.9269 135.992 68.6241C135.517 68.3213 135.079 67.4886 134.88 67.6021C134.471 67.8387 135.108 68.5579 134.984 69.4663C134.956 69.7786 135.697 70.6113 136.296 69.6083Z" fill="#FFB27D"/>
</svg>
