<svg width="70" height="70" viewBox="0 0 70 70" fill="none" xmlns="http://www.w3.org/2000/svg">
<path opacity="0.35" d="M56.343 14.3649L56.2798 14.3038L56.2131 14.2465C54.5221 12.7946 52.0916 11.5355 49.4097 11.5355C47.7617 11.5355 46.2155 11.9647 44.8824 12.6499C44.423 11.251 43.6052 9.90611 42.3263 8.77527C40.4607 7.00095 37.9785 6 35.4493 6C32.8946 6 30.3878 7.02129 28.516 8.8293C27.424 9.88409 26.595 11.1627 26.0934 12.5532C24.7193 11.8736 23.1819 11.5355 21.636 11.5355C18.8579 11.5355 16.3691 12.7552 14.7026 14.3648L14.6391 14.4262L14.5793 14.4911C13.1086 16.0893 11.7297 18.3428 11.7297 21.2065C11.7297 22.7331 12.1232 24.1594 12.7532 25.4014C11.356 25.8751 10.0578 26.6587 8.97298 27.7066C7.09918 29.5165 6 31.9852 6 34.5482C6 37.0854 7.07726 39.5303 8.91688 41.3352C10.0489 42.5295 11.3743 43.2955 12.7436 43.7356C12.0716 45.0542 11.7297 46.5317 11.7297 48.0322C11.7297 50.8162 13.0385 53.2663 14.7026 54.8738L14.7659 54.9348L14.8326 54.9921C16.6304 56.5357 18.8505 57.5044 21.4137 57.6948L21.5247 57.703H21.636C23.0424 57.703 24.3747 57.3905 25.5637 56.8729C25.7225 59.2152 26.791 61.4397 28.516 63.1059C30.3878 64.9139 32.8946 65.9352 35.4493 65.9352C38.0041 65.9352 40.5109 64.9139 42.3827 63.1059C44.1098 61.4377 45.1788 59.2098 45.3356 56.8643C46.6094 57.4244 48.006 57.703 49.4097 57.703C52.1877 57.703 54.6765 56.4834 56.343 54.8737L56.4065 54.8124L56.4663 54.7475C58.0996 52.9726 59.1019 50.6424 59.3049 48.29L59.316 48.1613V48.0322C59.316 46.4557 58.8964 44.9864 58.2302 43.7165C59.6517 43.2452 60.973 42.4537 62.0745 41.3898C64.049 39.4826 64.8404 37.0305 65.0342 34.9713L65.0474 34.831V34.6902C65.0474 32.1273 63.9482 29.6585 62.0745 27.8486C60.9868 26.7979 59.6846 26.013 58.2833 25.5397C58.9677 24.2118 59.316 22.7208 59.316 21.2065C59.316 18.4224 58.0071 15.9723 56.343 14.3649Z" fill="#24324A"/>
<path d="M54.343 12.3649L54.2798 12.3038L54.2131 12.2465C52.5221 10.7946 50.0916 9.53555 47.4097 9.53555C45.7617 9.53555 44.2155 9.96474 42.8824 10.6499C42.423 9.25097 41.6052 7.90611 40.3263 6.77527C38.4607 5.00095 35.9785 4 33.4493 4C30.8946 4 28.3878 5.02129 26.516 6.8293C25.424 7.88409 24.595 9.16266 24.0934 10.5532C22.7193 9.87355 21.1819 9.53555 19.636 9.53555C16.8579 9.53555 14.3691 10.7552 12.7026 12.3648L12.6391 12.4262L12.5793 12.4911C11.1086 14.0893 9.72966 16.3428 9.72966 19.2065C9.72966 20.7331 10.1232 22.1594 10.7532 23.4014C9.35599 23.8751 8.05784 24.6587 6.97298 25.7066C5.09918 27.5165 4 29.9852 4 32.5482C4 35.0854 5.07726 37.5303 6.91688 39.3352C8.04888 40.5295 9.37427 41.2955 10.7436 41.7356C10.0716 43.0542 9.72966 44.5317 9.72966 46.0322C9.72966 48.8162 11.0385 51.2663 12.7026 52.8738L12.7659 52.9348L12.8326 52.9921C14.6304 54.5357 16.8505 55.5044 19.4137 55.6948L19.5247 55.703H19.636C21.0424 55.703 22.3747 55.3905 23.5637 54.8729C23.7225 57.2152 24.791 59.4397 26.516 61.1059C28.3878 62.9139 30.8946 63.9352 33.4493 63.9352C36.0041 63.9352 38.5109 62.9139 40.3827 61.1059C42.1098 59.4377 43.1788 57.2098 43.3356 54.8643C44.6094 55.4244 46.006 55.703 47.4097 55.703C50.1877 55.703 52.6765 54.4834 54.343 52.8737L54.4065 52.8124L54.4663 52.7475C56.0996 50.9726 57.1019 48.6424 57.3049 46.29L57.316 46.1613V46.0322C57.316 44.4557 56.8964 42.9864 56.2302 41.7165C57.6517 41.2452 58.973 40.4537 60.0745 39.3898C62.049 37.4826 62.8404 35.0305 63.0342 32.9713L63.0474 32.831V32.6902C63.0474 30.1273 61.9482 27.6585 60.0745 25.8486C58.9868 24.7979 57.6846 24.013 56.2833 23.5397C56.9677 22.2118 57.316 20.7208 57.316 19.2065C57.316 16.4224 56.0071 13.9723 54.343 12.3649Z" fill="#F2F2F2"/>
<path fill-rule="evenodd" clip-rule="evenodd" d="M53.1393 19.2068C53.1393 16.0843 50.4943 13.6714 47.4085 13.6714C44.1758 13.6714 41.6777 16.2262 41.6777 19.2068V24.7422H47.4085C50.4943 24.7422 53.1393 22.3294 53.1393 19.2068Z" fill="white"/>
<path d="M51.9645 19.2065C51.9645 17.9291 51.3767 16.7937 50.642 16.084C49.7603 15.2324 48.5848 14.8066 47.4092 14.8066C46.0868 14.8066 44.9112 15.3743 44.1765 16.084C43.2948 16.9356 42.854 18.0711 42.854 19.2065V23.6065H47.4092C48.7317 23.6065 49.9073 23.0388 50.642 22.3291C51.3767 21.6194 51.9645 20.484 51.9645 19.2065ZM52.2584 14.5227C53.4339 15.6582 54.3156 17.3614 54.3156 19.2065C54.3156 21.0517 53.5808 22.7549 52.2584 23.8904C51.0828 25.0258 49.3195 25.8774 47.4092 25.8774H41.6785H40.5029V24.742V19.2065C40.5029 17.3614 41.2376 15.6582 42.5601 14.5227C43.7357 13.3872 45.499 12.5356 47.4092 12.5356C49.1726 12.5356 50.9359 13.3872 52.2584 14.5227Z" fill="#24324A"/>
<path fill-rule="evenodd" clip-rule="evenodd" d="M19.637 13.6714C16.4043 13.6714 13.9062 16.2262 13.9062 19.2068C13.9062 22.3294 16.5512 24.7422 19.637 24.7422H25.3678V19.2068C25.3678 16.2262 22.8698 13.6714 19.637 13.6714Z" fill="white"/>
<path d="M19.6358 14.8066C18.3133 14.8066 17.1378 15.3743 16.4031 16.084C15.5214 16.9356 15.0806 18.0711 15.0806 19.2065C15.0806 20.484 15.6683 21.6194 16.4031 22.3291C17.2847 23.1807 18.4603 23.6065 19.6358 23.6065H24.191V19.2065C24.191 17.9291 23.6033 16.7937 22.8685 16.084C22.1338 15.2324 20.9583 14.8066 19.6358 14.8066ZM14.7867 14.5227C15.9622 13.3872 17.7255 12.5356 19.6358 12.5356C21.5461 12.5356 23.3094 13.2453 24.4849 14.5227C25.6605 15.6582 26.5421 17.3614 26.5421 19.2065V24.742V25.8774H25.3666H19.6358C17.7255 25.8774 15.9622 25.1678 14.7867 23.8904C13.6111 22.7549 12.7295 21.0517 12.7295 19.2065C12.7295 17.3614 13.6111 15.8001 14.7867 14.5227Z" fill="#24324A"/>
<path fill-rule="evenodd" clip-rule="evenodd" d="M37.5651 9.83895C35.3609 7.70993 31.6873 7.70993 29.4832 9.83895C27.279 11.968 27.279 15.5163 29.4832 17.6453L33.5976 21.6195L37.712 17.6453C39.7692 15.5163 39.7692 11.968 37.5651 9.83895Z" fill="white"/>
<path d="M36.829 10.5484C35.9473 9.69675 34.7718 9.27095 33.5962 9.27095C32.4207 9.27095 31.2451 9.69675 30.3635 10.5484C29.4818 11.4 29.041 12.5354 29.041 13.6709C29.041 14.8064 29.4818 15.9419 30.3635 16.7935L33.5962 19.916L36.829 16.7935C37.7106 15.9419 38.1515 14.8064 38.1515 13.6709C38.1515 12.5354 37.7106 11.4 36.829 10.5484ZM38.2984 8.98708C39.7678 10.2645 40.3556 11.9677 40.3556 13.6709C40.3556 15.3741 39.6209 17.0773 38.2984 18.3547L34.184 22.3289L33.4493 23.0386L32.7146 22.3289L28.6002 18.3547C27.2777 17.0773 26.543 15.3741 26.543 13.6709C26.543 11.9677 27.2777 10.2645 28.6002 8.98708C29.9227 7.70967 31.686 7 33.4493 7C35.2126 7 36.9759 7.70967 38.2984 8.98708Z" fill="#24324A"/>
<path d="M24.6324 25.5935C24.1916 25.1677 24.1916 24.458 24.6324 24.0322C25.0732 23.6064 25.8079 23.6064 26.2487 24.0322L34.3306 31.8386C34.7714 32.2644 34.7714 32.9741 34.3306 33.3999C33.8898 33.8257 33.1551 33.8257 32.7142 33.3999L24.6324 25.5935Z" fill="#24324A"/>
<path d="M40.6503 24.1738C41.0911 23.748 41.8259 23.748 42.2667 24.1738C42.7075 24.5996 42.7075 25.3093 42.2667 25.7351L34.3318 33.3996C33.8909 33.8254 33.1562 33.8254 32.7154 33.3996C32.2746 32.9738 32.2746 32.2641 32.7154 31.8383L40.6503 24.1738Z" fill="#24324A"/>
<path fill-rule="evenodd" clip-rule="evenodd" d="M57.1074 36.5228C59.3115 34.3937 59.3115 30.8454 57.1074 28.7164C54.9032 26.5874 51.2297 26.5874 49.0255 28.7164L44.9111 32.6905L49.0255 36.6647C51.2297 38.6518 54.9032 38.6518 57.1074 36.5228Z" fill="white"/>
<path d="M56.3743 35.8125C57.256 34.9609 57.6968 33.8254 57.6968 32.6899C57.6968 31.5545 57.256 30.419 56.3743 29.5674C55.4927 28.7158 54.3171 28.29 53.1416 28.29C51.9661 28.29 50.7905 28.7158 49.9089 29.5674L46.6761 32.6899L49.9089 35.8125C50.7905 36.6641 51.9661 37.0899 53.1416 37.0899C54.3171 37.0899 55.4927 36.6641 56.3743 35.8125ZM57.9907 37.2318C56.6682 38.5092 54.9049 39.2189 53.1416 39.2189C51.3783 39.2189 49.615 38.5092 48.2925 37.2318L44.1781 33.3996L43.4434 32.6899L44.1781 31.9803L48.2925 28.0061C49.615 26.7287 51.3783 26.019 53.1416 26.019C54.9049 26.019 56.6682 26.7287 57.9907 28.0061C59.3132 29.2835 60.0479 30.9867 60.0479 32.6899C59.901 34.2512 59.3132 35.9544 57.9907 37.2318Z" fill="#24324A"/>
<path fill-rule="evenodd" clip-rule="evenodd" d="M47.4095 51.5674C50.6422 51.5674 53.1403 49.0126 53.1403 46.032C53.1403 42.9095 50.4953 40.4966 47.4095 40.4966H41.6787V46.032C41.5317 49.0126 44.1767 51.5674 47.4095 51.5674Z" fill="white"/>
<path d="M47.4092 50.4322C48.7317 50.4322 49.9073 49.8644 50.642 49.1548C51.5236 48.3032 51.9645 47.1677 51.9645 46.0322C51.9645 44.7548 51.3767 43.6193 50.642 42.9097C49.7603 42.0581 48.5848 41.4903 47.4092 41.4903H42.7071V45.8903C42.7071 47.1677 43.2948 48.3032 44.0296 49.0128C44.9112 49.8644 46.0868 50.4322 47.4092 50.4322ZM52.2584 50.716C51.0828 51.8515 49.3195 52.7031 47.4092 52.7031C45.499 52.7031 43.7357 51.9934 42.5601 50.716C41.3846 49.5806 40.5029 47.8774 40.5029 46.0322V40.4968V39.3613H41.6785H47.4092C49.3195 39.3613 51.0828 40.071 52.2584 41.3484C53.4339 42.4839 54.3156 44.1871 54.3156 46.0322C54.1686 47.7354 53.4339 49.4386 52.2584 50.716Z" fill="#24324A"/>
<path fill-rule="evenodd" clip-rule="evenodd" d="M29.483 58.2385C31.6872 60.3676 35.3608 60.3676 37.5649 58.2385C39.769 56.1095 39.769 52.5612 37.5649 50.4322L33.4505 46.458L29.483 50.2902C27.132 52.4192 27.132 55.9676 29.483 58.2385Z" fill="#45C4FF"/>
<path d="M30.2165 57.3867C31.0982 58.2383 32.2738 58.6641 33.4493 58.6641C34.6248 58.6641 35.8004 58.2383 36.682 57.3867C37.5637 56.5351 38.0045 55.3996 38.0045 54.2641C38.0045 53.1287 37.5637 51.9932 36.682 51.1416L33.4493 48.019L30.2165 51.1416C29.3349 51.9932 28.8941 53.1287 28.8941 54.2641C28.8941 55.3996 29.3349 56.5351 30.2165 57.3867ZM28.6002 58.948C27.2777 57.6705 26.543 55.9673 26.543 54.2641C26.543 52.5609 27.2777 50.8577 28.6002 49.5803L32.7146 45.6062L33.4493 44.8965L34.184 45.6062L38.2984 49.5803C39.6209 50.8577 40.3556 52.5609 40.3556 54.2641C40.3556 55.9673 39.6209 57.6705 38.2984 58.948C36.9759 60.2254 35.2126 60.935 33.4493 60.935C31.686 60.935 29.9227 60.2254 28.6002 58.948Z" fill="#24324A"/>
<path fill-rule="evenodd" clip-rule="evenodd" d="M13.9062 46.0318C13.9062 49.1543 16.5512 51.5672 19.637 51.5672C22.8698 51.5672 25.3678 49.0124 25.3678 46.0318V40.4964H19.637C16.5512 40.3544 13.9062 42.9092 13.9062 46.0318Z" fill="white"/>
<path d="M15.0806 46.0322C15.0806 47.3096 15.6683 48.4451 16.4031 49.1548C17.2847 50.0064 18.4603 50.4322 19.6358 50.4322C20.9583 50.4322 22.1338 49.8644 22.8685 49.1548C23.7502 48.3032 24.191 47.1677 24.191 46.0322V41.4903H19.6358C18.3133 41.4903 17.1378 42.0581 16.4031 42.7677C15.5214 43.6193 15.0806 44.7548 15.0806 46.0322ZM14.7867 50.716C13.6111 49.5806 12.7295 47.8774 12.7295 46.0322C12.7295 44.1871 13.4642 42.4839 14.7867 41.3484C15.9622 40.2129 17.7255 39.3613 19.6358 39.3613H25.3666H26.5421V40.4968V46.0322C26.5421 47.8774 25.8074 49.5806 24.4849 50.716C23.3094 51.8515 21.5461 52.7031 19.6358 52.7031C17.7255 52.5612 16.1092 51.8515 14.7867 50.716Z" fill="#24324A"/>
<path fill-rule="evenodd" clip-rule="evenodd" d="M9.93827 28.7164C7.73412 30.8454 7.73412 34.3938 9.93827 36.5228C12.1424 38.6518 15.816 38.6518 18.0201 36.5228L22.1345 32.5486L18.0201 28.7164C15.816 26.4454 12.1424 26.4454 9.93827 28.7164Z" fill="white"/>
<path d="M10.6736 29.4258C9.79192 30.2774 9.35109 31.4129 9.35109 32.5483C9.35109 33.6838 9.79192 34.8193 10.6736 35.6709C11.5552 36.5225 12.7308 36.9483 13.9063 36.9483C15.0819 36.9483 16.2574 36.5225 17.1391 35.6709L20.3718 32.5483L17.1391 29.4258C16.2574 28.5742 15.0819 28.1484 13.9063 28.1484C12.7308 28.1484 11.5552 28.5742 10.6736 29.4258ZM9.0572 27.8645C10.3797 26.5871 12.143 25.8774 13.9063 25.8774C15.6696 25.8774 17.433 26.5871 18.7554 27.8645L22.8698 31.8387L23.6046 32.5483L22.8698 33.258L18.7554 37.2322C17.433 38.5096 15.6696 39.2192 13.9063 39.2192C12.143 39.2192 10.3797 38.6515 9.0572 37.2322C7.73472 35.9548 7 34.2516 7 32.5483C7 30.8451 7.73472 29.1419 9.0572 27.8645Z" fill="#24324A"/>
<path d="M21.989 33.6835C21.4012 33.6835 20.8135 33.2577 20.8135 32.5481C20.8135 31.9803 21.2543 31.4126 21.989 31.4126H33.4506C34.0384 31.4126 34.6261 31.8384 34.6261 32.5481C34.6261 33.1158 34.1853 33.6835 33.4506 33.6835H21.989Z" fill="#24324A"/>
<path d="M25.9548 41.3485C25.514 41.7743 24.7793 41.7743 24.3384 41.3485C23.8976 40.9227 23.8976 40.213 24.3384 39.7872L32.5672 31.8389C33.0081 31.4131 33.7428 31.4131 34.1836 31.8389C34.6244 32.2647 34.6244 32.9744 34.1836 33.4002L25.9548 41.3485Z" fill="#24324A"/>
<path d="M42.7075 39.9291C43.1483 40.3549 43.1483 41.0646 42.7075 41.4904C42.2667 41.9162 41.532 41.9162 41.0911 41.4904L32.7154 33.4002C32.2746 32.9744 32.2746 32.2647 32.7154 31.8389C33.1562 31.4131 33.8909 31.4131 34.3318 31.8389L42.7075 39.9291Z" fill="#24324A"/>
<path d="M44.9125 31.5547C45.5003 31.5547 46.088 31.9805 46.088 32.6902C46.088 33.2579 45.6472 33.8256 44.9125 33.8256H33.4509C32.8632 33.8256 32.2754 33.3998 32.2754 32.6902C32.2754 32.1224 32.7162 31.5547 33.4509 31.5547H44.9125Z" fill="#24324A"/>
<path d="M32.4219 21.4773C32.4219 20.9095 32.8627 20.3418 33.5974 20.3418C34.1852 20.3418 34.773 20.7676 34.773 21.4773V32.5481C34.773 33.1159 34.3321 33.6836 33.5974 33.6836C33.0096 33.6836 32.4219 33.2578 32.4219 32.5481V21.4773Z" fill="#24324A"/>
<path fill-rule="evenodd" clip-rule="evenodd" d="M33.4499 26.3032C36.9765 26.3032 39.9154 29.1419 39.9154 32.5483C39.9154 35.9547 36.9765 38.7934 33.4499 38.7934C29.9232 38.7934 26.9844 35.9547 26.9844 32.5483C26.9844 29.1419 29.9232 26.3032 33.4499 26.3032Z" fill="#FFC300"/>
<path d="M33.4496 25.1675C35.5068 25.1675 37.4171 26.0191 38.8865 27.2965C40.209 28.5739 41.0907 30.419 41.0907 32.5481C41.0907 34.5351 40.209 36.3803 38.8865 37.7996C37.564 39.077 35.6538 39.9286 33.4496 39.9286C31.3924 39.9286 29.4822 39.077 28.0127 37.7996C26.6903 36.5222 25.8086 34.6771 25.8086 32.5481C25.8086 30.561 26.6903 28.7158 28.0127 27.2965C29.4822 26.0191 31.3924 25.1675 33.4496 25.1675ZM37.2701 28.9997C36.2415 28.0062 34.9191 27.4384 33.4496 27.4384C31.9802 27.4384 30.6577 28.0062 29.6291 28.9997C28.6005 29.9932 28.0127 31.2706 28.0127 32.69C28.0127 34.1093 28.6005 35.3867 29.6291 36.3803C30.6577 37.3738 31.9802 37.9416 33.4496 37.9416C34.9191 37.9416 36.2415 37.3738 37.2701 36.3803C38.2987 35.3867 38.8865 34.1093 38.8865 32.69C38.8865 31.1287 38.2987 29.8513 37.2701 28.9997Z" fill="#24324A"/>
</svg>
