<svg width="70" height="70" viewBox="0 0 70 70" fill="none" xmlns="http://www.w3.org/2000/svg">
<path opacity="0.35" d="M44.6605 68.6434C44.4743 68.6434 44.2902 68.6322 44.1026 68.6091C42.3869 68.39 40.9694 67.256 40.3842 65.6495L37.1068 56.644C36.8702 56.6734 37.223 54.9087 36.9885 54.9087C36.7561 54.9087 36.5223 54.894 36.2815 54.8639L32.4147 65.6502C31.8295 67.2574 30.4127 68.3907 28.7166 68.6084C28.515 68.6329 28.3274 68.6448 28.1405 68.6448C26.6425 68.6448 25.2411 67.9084 24.392 66.6764L22.1086 63.3577L18.1312 64.421C17.7448 64.5239 17.3514 64.5757 16.9566 64.5757C15.6819 64.5757 14.4576 64.036 13.598 63.0959C12.4514 61.8443 12.0986 60.0712 12.6796 58.4717L17.0728 46.403C15.9157 45.9102 16.0998 43.4 13.9795 43.75C12.4696 41.1411 13.4139 38.0212 13.9998 36.4C12.6537 35.2695 10.5117 33.8275 10.5117 30.8C10.5117 27.7704 12.6768 25.9042 14.0194 24.7772C13.4328 23.1546 12.4703 20.4582 13.9802 17.8493C15.4922 15.2369 18.3055 14.7168 20.0149 14.4151C20.318 12.7043 20.8374 9.8924 23.4498 8.3811C24.3766 7.8449 25.4168 7.5733 26.541 7.5733C28.0257 7.5733 29.3284 8.0416 30.3763 8.4203C31.504 7.077 33.3695 4.9126 36.3998 4.9126C39.4308 4.9126 40.5998 7.7007 42.4233 8.4203C43.4775 8.0388 44.7774 7.5726 46.2586 7.5726C47.3856 7.5726 48.4272 7.8456 49.3547 8.3839C51.9643 9.8931 52.4837 12.7071 52.7861 14.4158C54.5004 14.7196 57.3095 15.2404 58.8201 17.85C60.33 20.4596 59.3668 23.156 58.7809 24.7772C60.127 25.9077 62.2886 27.7725 62.2886 30.8C62.2886 33.8296 60.1235 35.6958 58.7809 36.8228C59.3668 38.4454 60.3293 41.1411 58.8201 43.75C58.0298 45.1164 56.8839 45.9102 55.7268 46.4002L60.1186 58.4675C60.701 60.0684 60.3475 61.8415 59.1988 63.0959C58.3378 64.0353 57.1149 64.5729 55.8423 64.5729C55.4482 64.5729 55.0548 64.5211 54.6733 64.4196L50.6917 63.3549L48.4097 66.6715C47.5571 67.9084 46.1564 68.6434 44.6605 68.6434Z" fill="#24324A"/>
<path d="M43.2605 67.2432C43.0743 67.2432 42.8903 67.232 42.7026 67.2089C40.9869 66.9898 39.5695 65.8558 38.9842 64.2493L35.7068 55.2438C35.4702 55.2732 35.2344 55.2879 34.9998 55.2879C34.7674 55.2879 34.5337 55.2732 34.2929 55.2431L31.0147 64.2493C30.4296 65.8565 29.0127 66.9898 27.3166 67.2075C27.115 67.232 26.9275 67.2439 26.7406 67.2439C25.2425 67.2439 23.8412 66.5075 22.9921 65.2755L20.7087 61.9568L16.7313 63.0201C16.3449 63.123 15.9515 63.1748 15.5567 63.1748C14.282 63.1748 13.0577 62.6351 12.1981 61.695C11.0515 60.4434 10.6987 58.6703 11.2797 57.0708L15.6729 45.0021C14.5151 44.5121 13.3692 43.7176 12.5789 42.3519C11.069 39.743 12.0322 37.0466 12.6181 35.4247C11.272 34.2942 9.11035 32.4294 9.11035 29.4019C9.11035 26.3723 11.2755 24.5061 12.6181 23.3791C12.0315 21.7565 11.069 19.0601 12.5789 16.4512C14.0909 13.8388 16.9042 13.3187 18.6136 13.017C18.9166 11.3062 19.436 8.49432 22.0484 6.98302C22.9752 6.44682 24.0155 6.17522 25.1397 6.17522C26.6244 6.17522 27.9271 6.64352 28.975 7.02222C30.1041 5.67542 31.9695 3.51172 34.9998 3.51172C38.0308 3.51172 39.8956 5.67612 41.0233 7.01942C42.0775 6.63792 43.3774 6.17172 44.8586 6.17172C45.9856 6.17172 47.0273 6.44472 47.9548 6.98302C50.5644 8.49222 51.0837 11.3062 51.3861 13.0149C53.1004 13.3187 55.9095 13.8395 57.4201 16.4491C58.93 19.0587 57.9668 21.7551 57.3809 23.3763C58.727 24.5068 60.8886 26.3716 60.8886 29.3991C60.8886 32.4287 58.7235 34.2949 57.3809 35.4219C57.9668 37.0445 58.9293 39.7402 57.4201 42.3491C56.6298 43.7155 55.4839 44.5093 54.3268 44.9993L58.7186 57.0666C59.301 58.6675 58.9475 60.4406 57.7988 61.695C56.9378 62.6344 55.7149 63.172 54.4423 63.172C54.0482 63.172 53.6549 63.1202 53.2733 63.0187L49.2917 61.954L47.0097 65.2706C46.1571 66.5082 44.7564 67.2432 43.2605 67.2432Z" fill="#F2F2F2"/>
<path d="M43.2609 62.6943L47.3636 56.731L54.4434 58.6245L47.7395 40.2061L35.7002 44.1002L43.2609 62.6943Z" fill="#FF7575"/>
<path d="M26.7391 62.6943L22.6364 56.731L15.5566 58.6245L22.2605 40.2061L34.9998 44.8002L26.7391 62.6943Z" fill="#FF7575"/>
<path d="M56.3383 29.4001C56.3383 27.6312 52.9979 26.3243 52.5618 24.6933C52.1103 23.0056 54.3363 20.2063 53.4816 18.7286C52.6143 17.2292 49.0695 17.764 47.8529 16.5474C46.6363 15.3308 47.1711 11.786 45.6717 10.9187C44.194 10.0633 41.3947 12.2893 39.707 11.8385C38.0753 11.4024 36.7691 8.06201 35.0002 8.06201C33.2313 8.06201 31.9244 11.4024 30.2934 11.8385C28.6057 12.29 25.8064 10.064 24.3287 10.9187C22.8293 11.786 23.3641 15.3308 22.1475 16.5474C20.9309 17.764 17.3861 17.2292 16.5188 18.7286C15.6634 20.2063 17.8894 23.0056 17.4386 24.6933C17.0025 26.325 13.6621 27.6312 13.6621 29.4001C13.6621 31.169 17.0025 32.4759 17.4386 34.1069C17.8901 35.7946 15.6641 38.5939 16.5188 40.0716C17.2874 41.3995 20.1532 41.1342 21.6442 41.9014L15.5577 58.6237L22.6368 56.7309L26.7395 62.6935L31.9818 48.2903C32.9359 49.3865 33.8746 50.7375 35.0002 50.7375C36.1258 50.7375 37.0645 49.3865 38.0186 48.2903L43.2609 62.6935L47.3636 56.7309L54.4427 58.6237L48.3562 41.9014C49.8472 41.1342 52.713 41.3995 53.4816 40.0716C54.337 38.5939 52.111 35.7946 52.5618 34.1069C52.9986 32.4759 56.3383 31.169 56.3383 29.4001Z" stroke="#40396E" stroke-width="3" stroke-miterlimit="10" stroke-linecap="round" stroke-linejoin="round"/>
<path opacity="0.35" d="M35.0002 51.7882C33.5519 51.7882 32.5166 50.5541 31.6024 49.4656C31.0886 48.8531 30.4495 48.0908 30.0218 47.9767C29.5549 47.8535 28.6274 48.186 27.8098 48.4814C26.4987 48.9553 25.014 49.4929 23.8016 48.7901C22.5738 48.0796 22.2966 46.5109 22.0516 45.1277C21.9095 44.3248 21.7331 43.3252 21.4034 42.9955C20.9932 42.5853 20.9932 41.921 21.4034 41.5108C21.8136 41.1006 22.4779 41.1006 22.8881 41.5108C23.6854 42.3088 23.9066 43.5555 24.1194 44.7623C24.2678 45.6023 24.4715 46.7524 24.853 46.9736C25.2177 47.1829 26.3027 46.7923 27.0951 46.5067C28.2557 46.0867 29.4583 45.652 30.5629 45.9481C31.6311 46.2337 32.434 47.1899 33.2103 48.116C33.7675 48.7796 34.5305 49.6889 34.9995 49.6889C35.4685 49.6889 36.2315 48.7796 36.7887 48.116C37.565 47.1906 38.3679 46.2344 39.4361 45.9481C40.54 45.652 41.7426 46.0867 42.9039 46.5067C43.6956 46.7923 44.7799 47.1843 45.146 46.9736C45.5275 46.7524 45.7312 45.6023 45.8796 44.7623C46.0931 43.5555 46.3129 42.3088 47.1109 41.5108C47.5211 41.1006 48.1854 41.1006 48.5956 41.5108C49.0057 41.921 49.0057 42.5853 48.5956 42.9955C48.2659 43.3252 48.0895 44.3241 47.9474 45.127C47.7031 46.5116 47.4259 48.0803 46.1981 48.7901C44.9857 49.4922 43.5003 48.9539 42.1899 48.4814C41.373 48.186 40.4483 47.8542 39.9779 47.9767C39.5502 48.0908 38.9111 48.8531 38.3973 49.4656C37.4838 50.5548 36.4485 51.7882 35.0002 51.7882Z" fill="#40396E"/>
<path d="M35 49.6882C34.531 49.6882 33.768 48.7789 33.2108 48.1153C32.4345 47.1899 31.6316 46.2337 30.5634 45.9474C30.3233 45.883 30.0636 45.8508 29.7906 45.8508C28.9079 45.8508 27.9867 46.184 27.0956 46.506C26.3844 46.7629 25.6487 47.0289 25.1503 47.0289C25.018 47.0289 24.9186 47.01 24.8542 46.9729C24.4727 46.7517 24.269 45.6016 24.1206 44.7616C23.9078 43.5548 23.6866 42.3081 22.8893 41.5101C22.092 40.7121 20.8446 40.4923 19.6385 40.2788C18.7985 40.1304 17.6484 39.9267 17.4272 39.5452C17.2158 39.1798 17.6078 38.0955 17.8941 37.3031C18.3141 36.1418 18.7481 34.9406 18.4527 33.8353C18.1671 32.7678 17.2102 31.9649 16.2848 31.1886C15.6212 30.6321 14.7119 29.8691 14.7119 29.4001C14.7119 28.9311 15.6212 28.1681 16.2848 27.6109C17.2102 26.8346 18.1671 26.0317 18.4527 24.9642C18.7481 23.8589 18.3141 22.6577 17.8941 21.4964C17.6078 20.704 17.2158 19.619 17.4272 19.2536C17.6477 18.8721 18.7985 18.6684 19.6392 18.52C20.8453 18.3072 22.092 18.0867 22.89 17.2894C23.688 16.4914 23.9078 15.2447 24.1213 14.0379C24.2697 13.1979 24.4727 12.0478 24.8549 11.8266C24.9193 11.7895 25.0194 11.7706 25.151 11.7706C25.6494 11.7706 26.3851 12.0366 27.0963 12.2935C27.9874 12.6155 28.9086 12.9487 29.7913 12.9487C30.0643 12.9487 30.324 12.9165 30.5641 12.8521C31.6323 12.5665 32.4352 11.6103 33.2115 10.6842C33.7687 10.0206 34.5317 9.11133 35.0007 9.11133C35.4697 9.11133 36.2327 10.0206 36.7899 10.6842C37.5662 11.6096 38.3691 12.5658 39.4373 12.8521C39.6774 12.9165 39.9371 12.9487 40.2101 12.9487C41.0928 12.9487 42.014 12.6155 42.9051 12.2935C43.617 12.0366 44.3527 11.7706 44.8511 11.7706C44.9827 11.7706 45.0828 11.7895 45.1472 11.8266C45.5287 12.0478 45.7324 13.1979 45.8808 14.0379C46.0936 15.2447 46.3148 16.4914 47.1121 17.2894C47.9094 18.0874 49.1568 18.3072 50.3629 18.5207C51.2029 18.6691 52.353 18.8728 52.5742 19.2543C52.7856 19.6197 52.3936 20.704 52.1073 21.4964C51.6873 22.6577 51.2533 23.8589 51.5487 24.9642C51.8343 26.0317 52.7912 26.8346 53.7166 27.6109C54.3802 28.1681 55.2895 28.9311 55.2895 29.4001C55.2895 29.8691 54.3802 30.6321 53.7166 31.1893C52.7912 31.9656 51.8343 32.7685 51.5487 33.836C51.2533 34.9413 51.6873 36.1425 52.1073 37.3038C52.3936 38.0962 52.7856 39.1812 52.5742 39.5466C52.3537 39.9281 51.2029 40.1318 50.3622 40.2802C49.1561 40.493 47.9094 40.7135 47.1114 41.5108C46.3134 42.3088 46.0936 43.5555 45.8801 44.7623C45.7317 45.6023 45.5287 46.7524 45.1465 46.9736C45.0821 47.0107 44.982 47.0296 44.8504 47.0296C44.352 47.0296 43.6163 46.7636 42.9051 46.5067C42.014 46.1847 41.0928 45.8515 40.2101 45.8515C39.9371 45.8515 39.6774 45.8837 39.4373 45.9481C38.3691 46.2337 37.5662 47.1899 36.7899 48.116C36.232 48.7796 35.469 49.6882 35 49.6882Z" fill="#F9B84F"/>
<path d="M35 43.4028C42.732 43.4028 49 37.1348 49 29.4028C49 21.6708 42.732 15.4028 35 15.4028C27.268 15.4028 21 21.6708 21 29.4028C21 37.1348 27.268 43.4028 35 43.4028Z" fill="#FFE385"/>
<path d="M34.9996 41.3029C41.5718 41.3029 46.8996 35.9751 46.8996 29.4029C46.8996 22.8307 41.5718 17.5029 34.9996 17.5029C28.4274 17.5029 23.0996 22.8307 23.0996 29.4029C23.0996 35.9751 28.4274 41.3029 34.9996 41.3029Z" fill="#F9B84F"/>
<path d="M31.7663 34.9999C31.4975 34.9999 31.2294 34.8977 31.0243 34.6933L27.518 31.1933C27.1078 30.7838 27.1071 30.1188 27.5166 29.7086C27.9261 29.2984 28.5904 29.2977 29.0013 29.7072L31.7649 32.4659L40.1229 24.1079C40.5324 23.6977 41.1981 23.6977 41.6076 24.1079C42.0178 24.5174 42.0178 25.1831 41.6076 25.5926L32.5076 34.6926C32.3039 34.8977 32.0351 34.9999 31.7663 34.9999Z" fill="#FFE385"/>
</svg>
