<svg width="70" height="70" viewBox="0 0 70 70" fill="none" xmlns="http://www.w3.org/2000/svg">
<path opacity="0.35" d="M27.6062 64.3999C25.4761 64.3999 23.605 62.8886 23.1577 60.8061L22.7475 58.8972L21.0192 60.0515C20.2695 60.5534 19.3952 60.8187 18.4922 60.8187C17.2784 60.8187 16.136 60.3462 15.2764 59.4887L8.76361 52.9759C7.23271 51.4457 6.99541 49.03 8.19731 47.231L10.0621 43.3124L7.96211 43.5749C5.87961 43.1276 3.84961 42.7741 3.84961 40.644V31.5293C3.84961 29.3985 5.36091 27.5274 7.44411 27.0808L9.35231 26.6713L8.19801 24.943C6.99611 23.1433 7.23411 20.7276 8.76431 19.1974L15.275 12.6867C16.1353 11.8264 17.2777 11.3539 18.4929 11.3539C19.3959 11.3539 20.2702 11.6192 21.0206 12.1218L22.7482 13.2761L23.1584 11.3672C23.6057 9.28474 25.4768 7.77344 27.6069 7.77344H32.0365C34.5453 7.77344 36.5865 9.81464 36.5865 12.3234V18.9881V24.8674C37.5938 25.3049 38.5311 25.874 39.3753 26.553V23.4499C39.3753 20.9411 41.4165 18.8999 43.9253 18.8999H47.9762C49.3349 17.1219 51.4706 16.0124 53.8128 16.0124C57.8658 16.0124 61.1628 19.3094 61.1628 23.3624C61.1628 25.5128 60.2353 27.4497 58.7583 28.7951C62.2499 29.3628 64.9253 32.3994 64.9253 36.0499C64.9253 39.972 61.8376 43.1857 57.9659 43.3894C59.746 44.732 60.8996 46.8649 60.8996 49.2624C60.8996 53.3154 57.6026 56.6124 53.5496 56.6124C51.1486 56.6124 48.9877 55.4693 47.6388 53.6374H46.9871C44.4783 53.6374 42.4371 51.5962 42.4371 49.0874V41.9803C41.1358 44.3372 39.0764 46.2251 36.5858 47.3059V59.8499C36.5858 62.3587 34.5446 64.3999 32.0358 64.3999H27.6062Z" fill="#24324A"/>
<path d="M26.2068 63C24.0767 63 22.2056 61.4887 21.7583 59.4062L21.3481 57.4973L19.6198 58.6516C18.8701 59.1535 17.9958 59.4188 17.0928 59.4188C15.879 59.4188 14.7366 58.9463 13.877 58.0888L7.3642 51.576C5.8333 50.0458 5.596 47.6301 6.7979 45.8311L7.9529 44.1028L6.0433 43.6926C3.9615 43.2453 2.4502 41.3742 2.4502 39.2441V30.1294C2.4502 27.9986 3.9615 26.1275 6.0447 25.6809L7.9529 25.2714L6.7986 23.5431C5.5967 21.7434 5.8347 19.3277 7.3649 17.7975L13.8756 11.2868C14.7359 10.4265 15.8783 9.95404 17.0935 9.95404C17.9965 9.95404 18.8708 10.2193 19.6212 10.7219L21.3488 11.8762L21.759 9.96734C22.2063 7.88484 24.0774 6.37354 26.2075 6.37354H30.6371C33.1459 6.37354 35.1871 8.41474 35.1871 10.9235V17.5882V23.4675C36.1944 23.905 37.1317 24.4741 37.9759 25.1531V22.05C37.9759 19.5412 40.0171 17.5 42.5259 17.5H46.5768C47.9355 15.722 50.0712 14.6125 52.4134 14.6125C56.4664 14.6125 59.7634 17.9095 59.7634 21.9625C59.7634 24.1129 58.8359 26.0498 57.3589 27.3952C60.8505 27.9629 63.5259 30.9995 63.5259 34.65C63.5259 38.5721 60.4382 41.7858 56.5665 41.9895C58.3466 43.3321 59.5002 45.465 59.5002 47.8625C59.5002 51.9155 56.2032 55.2125 52.1502 55.2125C49.7492 55.2125 47.5883 54.0694 46.2394 52.2375H45.5877C43.0789 52.2375 41.0377 50.1963 41.0377 47.6875V40.5804C39.7364 42.9373 37.677 44.8252 35.1864 45.906V58.45C35.1864 60.9588 33.1452 63 30.6364 63H26.2068Z" fill="#F2F2F2"/>
<path d="M53.2 33.6001H36.96V35.7001H53.2V33.6001Z" fill="#40396E"/>
<path d="M56.3498 37.4501C57.8962 37.4501 59.1498 36.1965 59.1498 34.6501C59.1498 33.1037 57.8962 31.8501 56.3498 31.8501C54.8034 31.8501 53.5498 33.1037 53.5498 34.6501C53.5498 36.1965 54.8034 37.4501 56.3498 37.4501Z" fill="#D84178"/>
<path d="M56.35 38.4998C54.2276 38.4998 52.5 36.7722 52.5 34.6498C52.5 32.5267 54.2276 30.7998 56.35 30.7998C58.4724 30.7998 60.2 32.5267 60.2 34.6498C60.2 36.7722 58.4724 38.4998 56.35 38.4998ZM56.35 32.8998C55.3847 32.8998 54.6 33.6852 54.6 34.6498C54.6 35.6144 55.3847 36.3998 56.35 36.3998C57.3153 36.3998 58.1 35.6144 58.1 34.6498C58.1 33.6852 57.3153 32.8998 56.35 32.8998Z" fill="#40396E"/>
<path d="M52.4123 24.85C53.9587 24.85 55.2123 23.5964 55.2123 22.05C55.2123 20.5036 53.9587 19.25 52.4123 19.25C50.8659 19.25 49.6123 20.5036 49.6123 22.05C49.6123 23.5964 50.8659 24.85 52.4123 24.85Z" fill="#FFC571"/>
<path d="M52.4125 25.9002C50.2901 25.9002 48.5625 24.1733 48.5625 22.0502C48.5625 19.9271 50.2901 18.2002 52.4125 18.2002C54.5349 18.2002 56.2625 19.9271 56.2625 22.0502C56.2625 24.1733 54.5349 25.9002 52.4125 25.9002ZM52.4125 20.3002C51.4472 20.3002 50.6625 21.0856 50.6625 22.0502C50.6625 23.0148 51.4472 23.8002 52.4125 23.8002C53.3778 23.8002 54.1625 23.0148 54.1625 22.0502C54.1625 21.0856 53.3778 20.3002 52.4125 20.3002Z" fill="#40396E"/>
<path d="M52.1496 50.3998C53.696 50.3998 54.9496 49.1462 54.9496 47.5998C54.9496 46.0534 53.696 44.7998 52.1496 44.7998C50.6032 44.7998 49.3496 46.0534 49.3496 47.5998C49.3496 49.1462 50.6032 50.3998 52.1496 50.3998Z" fill="#FFC571"/>
<path d="M52.1498 51.45C50.0274 51.45 48.2998 49.7224 48.2998 47.6C48.2998 45.4776 50.0274 43.75 52.1498 43.75C54.2722 43.75 55.9998 45.4776 55.9998 47.6C55.9998 49.7224 54.2722 51.45 52.1498 51.45ZM52.1498 45.85C51.1845 45.85 50.3998 46.6347 50.3998 47.6C50.3998 48.5653 51.1845 49.35 52.1498 49.35C53.1151 49.35 53.8998 48.5653 53.8998 47.6C53.8998 46.6347 53.1151 45.85 52.1498 45.85Z" fill="#40396E"/>
<path d="M30.7241 10.9229H26.2945L25.2067 15.9867C23.9544 16.364 22.7539 16.8631 21.6213 17.4714L17.1798 14.5034L10.6691 21.0141L13.6371 25.4556C13.0281 26.5882 12.5297 27.788 12.1517 29.041L7.08789 30.1288V39.2435L12.1517 40.3313C12.529 41.5836 13.0281 42.784 13.6371 43.9166L10.6691 48.3582L17.1798 54.8689L21.6213 51.9008C22.7539 52.5098 23.9537 53.0083 25.2067 53.3856L26.2945 58.4494H30.7241V10.9229Z" fill="#707CC0"/>
<path d="M30.7241 53.2383C20.5356 53.169 12.2966 44.8915 12.2966 34.6862C12.2966 24.4816 20.5356 16.2034 30.7241 16.1341L30.7682 10.8491H26.3386L25.2067 15.9864C23.9544 16.3637 22.7539 16.8628 21.6213 17.4711L17.1798 14.5031L10.6691 21.0138L13.6371 25.4553C13.0281 26.5879 12.5297 27.7877 12.1517 29.0407L7.08789 30.1285V39.2432L12.1517 40.331C12.529 41.5833 13.0281 42.7838 13.6371 43.9164L10.6691 48.3579L17.1798 54.8686L21.6213 51.9006C22.7539 52.5096 23.9537 53.008 25.2067 53.3853L26.2945 58.4491H30.7241V53.2383Z" fill="#707CC0"/>
<path d="M43.3998 33.95H41.2998V22.05C41.2998 21.4697 41.7702 21 42.3498 21H49.6123V23.1H43.3998V33.95Z" fill="#40396E"/>
<path d="M49.3502 48.6501H45.5002C44.9206 48.6501 44.4502 48.1797 44.4502 47.6001V34.9126H46.5502V46.5501H49.3502V48.6501Z" fill="#40396E"/>
<path d="M29.8371 47.9501C22.492 47.9501 16.5371 41.9952 16.5371 34.6501C16.5371 27.305 22.492 21.3501 29.8371 21.3501" fill="#9AA2E6"/>
<path d="M30.4155 41.7397C34.3109 41.7397 37.4687 38.5819 37.4687 34.6865C37.4687 30.7911 34.3109 27.6333 30.4155 27.6333C26.5201 27.6333 23.3623 30.7911 23.3623 34.6865C23.3623 38.5819 26.5201 41.7397 30.4155 41.7397Z" fill="#707CC0"/>
<path d="M30.4498 37.8C32.1895 37.8 33.5998 36.3897 33.5998 34.65C33.5998 32.9103 32.1895 31.5 30.4498 31.5C28.7101 31.5 27.2998 32.9103 27.2998 34.65C27.2998 36.3897 28.7101 37.8 30.4498 37.8Z" fill="#96C362"/>
<path d="M30.6364 59.4998H26.2068C25.7119 59.4998 25.2842 59.1547 25.1806 58.6703L24.2202 54.2008C23.3235 53.9005 22.4471 53.5379 21.6022 53.1179L17.6759 55.7415C17.2587 56.0201 16.705 55.9648 16.3501 55.6106L9.83939 49.0999C9.48519 48.7457 9.4306 48.1906 9.7085 47.7741L12.3328 43.8478C11.9121 43.0029 11.5495 42.1258 11.2492 41.2298L6.7804 40.2694C6.296 40.1665 5.9502 39.7388 5.9502 39.2439V30.1292C5.9502 29.6343 6.296 29.2066 6.7797 29.103L11.2485 28.1426C11.5488 27.2452 11.9121 26.3688 12.3321 25.5246L9.70779 21.5983C9.42919 21.1818 9.4838 20.6267 9.8387 20.2725L16.3494 13.7618C16.7029 13.4076 17.258 13.353 17.6752 13.6309L21.6015 16.2552C22.4471 15.8345 23.3242 15.4712 24.223 15.1702L25.2247 10.6244C25.3311 10.1428 25.7574 9.7998 26.2502 9.7998H30.6798C30.9598 9.7998 31.2279 9.9118 31.4253 10.1106C31.6227 10.3094 31.7319 10.5782 31.7298 10.8582L31.6857 16.1432V26.0685C35.8934 26.7202 39.0588 30.3287 39.0588 34.6869C39.0588 39.0451 35.8934 42.6529 31.6857 43.3046V58.4498C31.6864 59.0294 31.216 59.4998 30.6364 59.4998ZM27.0545 57.3998H29.5857V42.3526C29.5857 41.7891 30.0309 41.3257 30.5937 41.3033C34.163 41.1612 36.9588 38.2548 36.9588 34.6869C36.9588 31.119 34.163 28.2119 30.5937 28.0698C30.0309 28.0474 29.5857 27.584 29.5857 27.0205L29.6207 11.8998H27.0937L26.1431 16.2125C26.0612 16.5842 25.7847 16.8824 25.4207 16.9916C24.2454 17.3458 23.1044 17.819 22.0292 18.3965C21.6883 18.5799 21.2718 18.5603 20.9491 18.3447L17.2237 15.8555L11.9317 21.1475L14.4209 24.8729C14.6365 25.1956 14.6568 25.6114 14.4727 25.953C13.8945 27.0282 13.4227 28.1692 13.0685 29.3438C12.9586 29.7099 12.6576 29.9871 12.2838 30.0676L8.04949 30.9776V38.3955L12.2838 39.3055C12.6576 39.386 12.9586 39.6632 13.0685 40.0293C13.422 41.2032 13.8952 42.3442 14.4727 43.4208C14.6568 43.7631 14.6365 44.1782 14.4209 44.5009L11.9317 48.2256L17.2237 53.5176L20.9491 51.0284C21.2725 50.8121 21.6876 50.7932 22.0292 50.9766C23.1058 51.5548 24.2468 52.0273 25.42 52.3808C25.7861 52.4914 26.0633 52.7917 26.1438 53.1655L27.0545 57.3998Z" fill="#40396E"/>
</svg>
