<svg width="70" height="70" viewBox="0 0 70 70" fill="none" xmlns="http://www.w3.org/2000/svg">
<path opacity="0.35" d="M64.185 28.4995C63.653 26.8573 62.2607 25.6834 60.5485 25.4356L47.4123 23.5428C47.6013 24.9379 45.5741 25.9494 44.8573 24.4906C44.0705 22.8904 43.0688 21.4204 42.0972 19.9294C41.2964 18.7002 40.6188 17.4129 39.874 16.1522C38.6735 14.1201 36.7758 11.6155 37.2994 9.11371C37.3694 8.77911 37.5241 8.53551 37.725 8.37101C37.0278 7.93981 36.2116 7.69971 35.3506 7.69971C33.6335 7.69971 32.0914 8.65381 31.3249 10.1917L24.7862 23.3272L10.1499 25.4363C8.44047 25.6834 7.04817 26.8573 6.51617 28.4995C5.99187 30.1179 6.44337 31.9281 7.66767 33.1125L18.2363 43.3262L15.7429 57.7406C15.4503 59.436 16.1314 61.1195 17.5272 62.1387C18.3007 62.7015 19.2163 62.999 20.1739 62.999C20.8914 62.999 21.6075 62.8247 22.2536 62.4901L35.3506 55.6623L48.4546 62.4929C49.093 62.8247 49.8098 62.9997 50.528 62.9997C51.4849 62.9997 52.4005 62.7022 53.181 62.1352C54.5705 61.1202 55.2516 59.4367 54.9583 57.7413L52.4649 43.3269L63.0342 33.1118C64.2578 31.9288 64.71 30.1179 64.185 28.4995Z" fill="#24324A"/>
<path d="M62.7846 27.0996C62.2526 25.4574 60.8603 24.2835 59.1481 24.0357L44.5139 21.9273L37.9752 8.7904C37.2094 7.2539 35.6673 6.2998 33.9502 6.2998C32.2331 6.2998 30.691 7.2539 29.9245 8.79181L23.3858 21.9273L8.74948 24.0364C7.04008 24.2835 5.64778 25.4574 5.11578 27.0996C4.59148 28.718 5.04298 30.5282 6.26728 31.7126L16.8359 41.9263L14.3425 56.3407C14.0499 58.0354 14.731 59.7196 16.1268 60.7388C16.9003 61.3016 17.8159 61.5991 18.7735 61.5991C19.491 61.5991 20.2071 61.4248 20.8532 61.0902L33.9502 54.2624L47.0542 61.093C47.6926 61.4248 48.4094 61.5998 49.1276 61.5998C50.0845 61.5998 51.0001 61.3023 51.7806 60.7353C53.1701 59.7203 53.8512 58.0368 53.5579 56.3414L51.0645 41.927L61.6338 31.7119C62.8574 30.5289 63.3096 28.718 62.7846 27.0996Z" fill="#F2F2F2"/>
<path d="M33.9506 10.5L41.6296 25.9385L58.8006 28.4144L46.3756 40.4313L49.3086 57.4L33.9506 49.3885L18.5926 57.4L21.5256 40.4313L9.10059 28.4144L26.2716 25.9385L33.9506 10.5Z" fill="#FFC571"/>
<path d="M49.308 58.4497C49.1421 58.4497 48.9748 58.4105 48.8222 58.3307L33.95 50.5726L19.0771 58.3307C18.7229 58.5148 18.2945 58.4833 17.9725 58.2474C17.6498 58.0122 17.4888 57.6139 17.5567 57.2205L20.3952 40.7992L8.36986 29.1687C8.08216 28.8901 7.97716 28.4722 8.10106 28.0907C8.22496 27.7092 8.55396 27.432 8.95016 27.3746L25.5759 24.9778L33.0099 10.0321C33.1877 9.67511 33.5517 9.44971 33.95 9.44971C34.3483 9.44971 34.7123 9.67511 34.8901 10.0321L42.3241 24.9778L58.9498 27.3746C59.346 27.432 59.6757 27.7099 59.7989 28.0907C59.9221 28.4715 59.8178 28.8901 59.5301 29.1687L47.5041 40.7999L50.3426 57.2212C50.4105 57.6146 50.2495 58.0122 49.9268 58.2481C49.7441 58.3818 49.5264 58.4497 49.308 58.4497ZM33.95 48.3382C34.1166 48.3382 34.2839 48.3781 34.4358 48.4572L47.9122 55.4866L45.3404 40.6095C45.2816 40.2672 45.395 39.9179 45.6449 39.6764L56.5313 29.1477L41.4799 26.9777C41.1383 26.9287 40.8429 26.7145 40.6896 26.4058L33.95 12.8573L27.2111 26.4058C27.0571 26.7145 26.7617 26.9287 26.4208 26.9777L11.3694 29.1477L22.2558 39.6764C22.5057 39.9179 22.6198 40.2672 22.5603 40.6095L19.9885 55.4866L33.4649 48.4572C33.6161 48.3781 33.7834 48.3382 33.95 48.3382Z" fill="#40396E"/>
</svg>
