<svg width="70" height="70" viewBox="0 0 70 70" fill="none" xmlns="http://www.w3.org/2000/svg">
<path opacity="0.35" d="M36.4004 67.2C31.3583 67.2 27.2563 63.098 27.2563 58.0559C27.2563 54.7106 29.0749 51.7209 31.8504 50.127V48.9349C30.512 48.4442 29.2541 47.74 28.1313 46.8524L26.4806 47.8716C26.4408 48.4106 26.3533 48.9454 26.2182 49.4676C25.6077 51.8322 24.114 53.8174 22.0105 55.0585C20.6014 55.8901 18.9984 56.329 17.3744 56.329C16.6016 56.329 15.8316 56.2303 15.0805 56.0371C12.7159 55.4267 10.73 53.9329 9.48955 51.8294C6.92755 47.4852 8.37725 41.8691 12.7194 39.3078C14.1278 38.4762 15.7308 38.0373 17.3548 38.0373C18.1255 38.0373 18.8976 38.136 19.6494 38.3299C20.6805 38.5959 21.6465 39.0376 22.511 39.6277L23.3377 39.1174C23.1501 38.2277 23.0563 37.3205 23.0563 36.4C23.0563 35.805 23.0962 35.2142 23.176 34.6276L21.2755 33.6357C19.9308 34.3763 18.4048 34.7788 16.8487 34.7788C15.3724 34.7788 13.8989 34.4134 12.5891 33.7218C8.12945 31.3663 6.41865 25.8237 8.77275 21.3654C9.91235 19.2066 11.8255 17.6197 14.1593 16.8987C15.0385 16.6264 15.9492 16.4885 16.8641 16.4885C18.3383 16.4885 19.8132 16.856 21.1285 17.5511C24.2841 19.2171 26.0873 22.4658 26.0061 25.8405L27.3899 26.5629C28.6856 25.3736 30.2005 24.4545 31.8497 23.856V21.7854C29.0749 20.1915 27.2556 17.2018 27.2556 13.8565C27.2556 8.8144 31.3576 4.7124 36.3997 4.7124C41.4418 4.7124 45.5438 8.8144 45.5438 13.8565C45.5438 17.2018 43.7252 20.1915 40.9497 21.7854V23.8651C42.2881 24.3558 43.546 25.06 44.6688 25.9476L46.2928 24.9452C46.2732 24.1094 46.3691 23.2694 46.5819 22.4448C47.1923 20.0802 48.6861 18.095 50.7896 16.8539C52.1987 16.0223 53.8017 15.5834 55.4257 15.5834C56.1964 15.5834 56.9685 15.6821 57.7203 15.876C60.0842 16.4864 62.0701 17.9802 63.3112 20.0837C64.5523 22.1879 64.9002 24.6484 64.2898 27.0137C63.6794 29.379 62.1849 31.3649 60.0814 32.606C58.6723 33.4369 57.07 33.8758 55.4453 33.8758C54.6739 33.8758 53.9025 33.7771 53.1514 33.5839C52.3954 33.3886 51.6758 33.1023 51.0052 32.7313L49.4624 33.6833C49.65 34.573 49.7438 35.4802 49.7438 36.4007C49.7438 36.9957 49.7039 37.5865 49.6241 38.1731L50.7483 38.7597C52.2596 37.7167 54.0733 37.1357 55.957 37.1357C57.4319 37.1357 58.9033 37.5011 60.2116 38.192C64.6706 40.5475 66.3814 46.0901 64.0273 50.5477C62.8877 52.7065 60.9746 54.2934 58.6408 55.0144C57.7602 55.2867 56.8494 55.4239 55.9352 55.4239C54.4604 55.4239 52.9862 55.0571 51.6716 54.3627C48.8345 52.864 47.0607 50.0465 46.8283 46.9791L45.4101 46.2385C44.1144 47.4278 42.5996 48.3469 40.9504 48.9454V50.1284C43.7252 51.7223 45.5445 54.712 45.5445 58.0573C45.5445 63.098 41.4425 67.2 36.4004 67.2Z" fill="#24324A"/>
<path d="M35 65.8001C29.9579 65.8001 25.8559 61.6981 25.8559 56.656C25.8559 53.3107 27.6745 50.321 30.45 48.7271V47.535C29.1116 47.0443 27.8537 46.3401 26.7309 45.4525L25.0803 46.4717C25.0404 47.0107 24.9529 47.5455 24.8178 48.0677C24.2074 50.4323 22.7136 52.4175 20.6101 53.6586C19.201 54.4902 17.598 54.9291 15.974 54.9291C15.2012 54.9291 14.4312 54.8304 13.6801 54.6372C11.3155 54.0268 9.32956 52.533 8.08916 50.4295C5.52716 46.0853 6.97686 40.4692 11.319 37.9079C12.7274 37.0763 14.3304 36.6374 15.9544 36.6374C16.7251 36.6374 17.4972 36.7361 18.249 36.93C19.2801 37.196 20.2461 37.6377 21.1106 38.2278L21.9373 37.7175C21.7497 36.8278 21.6559 35.9206 21.6559 35.0001C21.6559 34.4051 21.6958 33.8143 21.7756 33.2277L19.8751 32.2358C18.5304 32.9764 17.0044 33.3789 15.4483 33.3789C13.972 33.3789 12.4985 33.0135 11.1888 32.3219C6.72906 29.9664 5.01826 24.4238 7.37236 19.9655C8.51196 17.8067 10.4251 16.2198 12.7589 15.4988C13.6381 15.2265 14.5488 15.0886 15.4637 15.0886C16.9379 15.0886 18.4128 15.4561 19.7281 16.1512C22.8837 17.8172 24.6869 21.0659 24.6057 24.4406L25.9896 25.163C27.2853 23.9737 28.8001 23.0546 30.4493 22.4561V20.3855C27.6745 18.7916 25.8552 15.8019 25.8552 12.4566C25.8552 7.4145 29.9572 3.3125 34.9993 3.3125C40.0414 3.3125 44.1434 7.4145 44.1434 12.4566C44.1434 15.8019 42.3248 18.7916 39.5493 20.3855V22.4652C40.8877 22.9559 42.1456 23.6601 43.2684 24.5477L44.8924 23.5453C44.8728 22.7095 44.9687 21.8695 45.1815 21.0449C45.7919 18.6803 47.2857 16.6951 49.3892 15.454C50.7983 14.6224 52.4013 14.1835 54.0253 14.1835C54.796 14.1835 55.5681 14.2822 56.3199 14.4761C58.6838 15.0865 60.6697 16.5803 61.9108 18.6838C63.1519 20.788 63.4998 23.2485 62.8894 25.6138C62.279 27.9791 60.7845 29.965 58.681 31.2061C57.2719 32.037 55.6696 32.4759 54.0449 32.4759C53.2735 32.4759 52.5021 32.3772 51.751 32.184C50.995 31.9887 50.2754 31.7024 49.6048 31.3314L48.062 32.2834C48.2496 33.1731 48.3434 34.0803 48.3434 35.0008C48.3434 35.5958 48.3035 36.1866 48.2237 36.7732L49.3479 37.3598C50.8592 36.3168 52.6729 35.7358 54.5566 35.7358C56.0315 35.7358 57.5029 36.1012 58.8112 36.7921C63.2702 39.1476 64.981 44.6902 62.6269 49.1478C61.4873 51.3066 59.5742 52.8935 57.2404 53.6145C56.3598 53.8868 55.4491 54.024 54.5349 54.024C53.06 54.024 51.5858 53.6572 50.2712 52.9628C47.4341 51.4641 45.6603 48.6466 45.4279 45.5792L44.0097 44.8386C42.714 46.0279 41.1992 46.947 39.55 47.5455V48.7285C42.3248 50.3224 44.1441 53.3121 44.1441 56.6574C44.1441 61.6981 40.0421 65.8001 35 65.8001Z" fill="#F2F2F2"/>
<path d="M36.0502 12.1211H33.9502V57.8787H36.0502V12.1211Z" fill="#40396E"/>
<path d="M35.0003 17.0505C37.5376 17.0505 39.5944 14.9937 39.5944 12.4564C39.5944 9.91915 37.5376 7.8623 35.0003 7.8623C32.4631 7.8623 30.4062 9.91915 30.4062 12.4564C30.4062 14.9937 32.4631 17.0505 35.0003 17.0505Z" fill="#70BFFF" stroke="#40396E" stroke-width="3" stroke-miterlimit="10"/>
<path d="M35.0003 61.2507C37.5376 61.2507 39.5944 59.1939 39.5944 56.6566C39.5944 54.1194 37.5376 52.0625 35.0003 52.0625C32.4631 52.0625 30.4062 54.1194 30.4062 56.6566C30.4062 59.1939 32.4631 61.2507 35.0003 61.2507Z" fill="#70BFFF" stroke="#40396E" stroke-width="3" stroke-miterlimit="10"/>
<path d="M53.916 22.0848L14.9824 46.125L16.0857 47.9118L55.0193 23.8716L53.916 22.0848Z" fill="#40396E"/>
<path d="M15.2065 23.4808L14.2344 25.3423L54.7945 46.5232L55.7666 44.6617L15.2065 23.4808Z" fill="#40396E"/>
<path d="M35.0002 43.7943C39.857 43.7943 43.7943 39.857 43.7943 35.0002C43.7943 30.1433 39.857 26.2061 35.0002 26.2061C30.1433 26.2061 26.2061 30.1433 26.2061 35.0002C26.2061 39.857 30.1433 43.7943 35.0002 43.7943Z" fill="#70BFFF" stroke="#40396E" stroke-width="3" stroke-miterlimit="10"/>
<path d="M54.5423 49.4709C57.0796 49.4709 59.1364 47.4141 59.1364 44.8768C59.1364 42.3396 57.0796 40.2827 54.5423 40.2827C52.0051 40.2827 49.9482 42.3396 49.9482 44.8768C49.9482 47.4141 52.0051 49.4709 54.5423 49.4709Z" fill="#70BFFF" stroke="#40396E" stroke-width="3" stroke-miterlimit="10"/>
<path d="M15.4584 28.8303C17.9956 28.8303 20.0525 26.7734 20.0525 24.2362C20.0525 21.6989 17.9956 19.6421 15.4584 19.6421C12.9211 19.6421 10.8643 21.6989 10.8643 24.2362C10.8643 26.7734 12.9211 28.8303 15.4584 28.8303Z" fill="#70BFFF" stroke="#40396E" stroke-width="3" stroke-miterlimit="10"/>
<path d="M54.0355 27.9231C56.5728 27.9231 58.6296 25.8662 58.6296 23.329C58.6296 20.7917 56.5728 18.7349 54.0355 18.7349C51.4983 18.7349 49.4414 20.7917 49.4414 23.329C49.4414 25.8662 51.4983 27.9231 54.0355 27.9231Z" fill="#70BFFF" stroke="#40396E" stroke-width="3" stroke-miterlimit="10"/>
<path d="M15.9652 50.3781C18.5024 50.3781 20.5593 48.3213 20.5593 45.784C20.5593 43.2468 18.5024 41.1899 15.9652 41.1899C13.4279 41.1899 11.3711 43.2468 11.3711 45.784C11.3711 48.3213 13.4279 50.3781 15.9652 50.3781Z" fill="#70BFFF" stroke="#40396E" stroke-width="3" stroke-miterlimit="10"/>
</svg>
