<svg width="70" height="70" viewBox="0 0 70 70" fill="none" xmlns="http://www.w3.org/2000/svg">
<path opacity="0.35" d="M18.5173 64.3946C16.0085 64.3946 13.9673 62.3534 13.9673 59.8446C13.9673 57.9266 14.3712 56.1451 15.1174 54.5911H6.63691C4.12811 54.5911 2.08691 52.5499 2.08691 50.0411C2.08691 45.3434 5.03881 41.1301 9.44461 39.5215L12.8137 38.1047C12.2453 37.0673 11.861 36.0509 11.6034 35.1122C10.9335 34.7398 11.1505 33.715 10.629 33.1179C8.33931 30.4971 6.71111 26.2985 9.16531 23.4285C9.21921 23.3655 9.27451 23.3039 9.33121 23.2437C8.72011 19.4427 9.20171 16.1478 10.7725 13.4234C13.0566 9.46136 16.9108 8.07606 18.4613 7.66446C19.0549 7.50696 21.1857 6.99316 23.6833 6.99316C27.9918 6.99316 30.3263 8.52826 31.587 10.0907C31.7326 10.1838 31.8782 10.2811 32.0252 10.384C33.2768 10.9314 34.3597 11.644 35.2613 12.5043C37.0799 10.0396 39.6916 8.54086 42.2102 7.87796C42.7989 7.72256 44.9136 7.21646 47.3916 7.21646C51.348 7.21646 53.6083 8.53526 54.8809 9.86386C55.198 10.0522 55.5109 10.2566 55.8252 10.4806C60.4186 12.6485 62.5473 17.1488 61.7234 22.9476C61.8851 23.0974 62.0391 23.257 62.1833 23.4264C64.6396 26.2992 63.8374 31.0333 61.5477 33.6527C61.0255 34.2505 60.4172 34.7412 59.7459 35.1136C59.4897 36.053 59.1068 37.0687 58.5391 38.1061L61.9551 39.5439C66.3266 41.1392 69.2554 45.3441 69.2554 50.0418C69.2554 52.5506 67.2142 54.5918 64.7054 54.5918H56.2207C56.9697 56.1458 57.375 57.928 57.375 59.8453C57.375 62.3541 55.3338 64.3953 52.825 64.3953H18.5173V64.3946Z" fill="#24324A"/>
<path d="M17.1169 62.9942C14.6081 62.9942 12.5669 60.953 12.5669 58.4442C12.5669 56.5262 12.9708 54.7447 13.717 53.1907H5.23652C2.72772 53.1907 0.686523 51.1495 0.686523 48.6407C0.686523 43.943 3.63842 39.7297 8.04422 38.1211L11.4133 36.7043C10.8449 35.6669 10.4606 34.6505 10.203 33.7118C9.53312 33.3394 8.92412 32.8487 8.40262 32.2516C6.11292 29.6308 5.31072 24.8981 7.76422 22.0281C7.81812 21.9651 7.87342 21.9035 7.93012 21.8433C7.31902 18.0423 7.80062 14.7474 9.37142 12.023C11.6555 8.06097 15.5097 6.67567 17.0602 6.26407C17.6538 6.10657 19.7846 5.59277 22.2822 5.59277C26.5907 5.59277 28.9252 7.12787 30.1859 8.69027C30.3315 8.78337 30.4771 8.88067 30.6241 8.98357C31.8757 9.53097 32.9586 10.2436 33.8602 11.1039C35.6788 8.63917 38.2905 7.14047 40.8091 6.47757C41.3978 6.32217 43.5125 5.81607 45.9905 5.81607C49.9469 5.81607 52.2072 7.13487 53.4798 8.46347C53.7969 8.65177 54.1098 8.85617 54.4241 9.08017C59.0175 11.2481 61.1462 15.7484 60.3223 21.5472C60.484 21.697 60.638 21.8566 60.7822 22.026C63.2385 24.8988 62.4363 29.6329 60.1466 32.2523C59.6244 32.8501 59.0161 33.3408 58.3448 33.7132C58.0886 34.6526 57.7057 35.6683 57.138 36.7057L60.554 38.1435C64.9255 39.7388 67.8543 43.9437 67.8543 48.6414C67.8543 51.1502 65.8131 53.1914 63.3043 53.1914H54.8203C55.5693 54.7454 55.9746 56.5276 55.9746 58.4449C55.9746 60.9537 53.9334 62.9949 51.4246 62.9949H17.1169V62.9942Z" fill="#F2F2F2"/>
<path d="M35.5714 42.3729L26.8921 39.4938L27.6229 36.124C29.4681 34.6302 29.7929 32.5505 30.6609 29.9038C31.3875 30.5842 32.63 30.3308 33.5673 29.2577C34.5872 28.0908 34.8581 26.3989 34.1735 25.4791C33.6261 24.7441 32.6342 24.7266 31.7375 25.344C31.9867 23.7375 31.8397 22.2066 31.8397 20.913C31.8397 14.9217 27.7755 11.3013 22.4408 11.3013C17.1061 11.3013 13.0419 14.9217 13.0419 20.913C13.0419 22.2297 12.9376 23.7935 13.2498 25.4315C13.0419 24.6531 11.7707 24.7112 11.1988 25.4791C10.5135 26.3989 10.7851 28.0901 11.805 29.2577C12.8249 30.4246 13.7013 30.6255 14.3866 29.7064C14.3894 29.7029 14.3915 29.6987 14.3943 29.6945C15.0208 32.5638 15.3491 34.4979 17.0067 36.0491L17.9888 39.4938L9.66788 42.3722C7.01278 43.3123 5.23828 45.8239 5.23828 48.6407H40.0024C40.001 45.8239 38.2265 43.313 35.5714 42.3729Z" fill="#707CC0"/>
<path opacity="0.35" d="M22.5346 37.5151C24.9251 37.5151 27.1273 36.2376 27.1273 36.2376C27.1273 36.2376 26.0276 39.494 22.5346 39.494C19.0696 39.494 17.7207 36.2026 17.7207 36.2026C17.7207 36.2026 20.1441 37.5151 22.5346 37.5151Z" fill="#40396E"/>
<path d="M35.5711 42.3732L27.3356 39.6719C27.0066 42.0848 24.943 43.9468 22.4398 43.9468C19.9366 43.9468 17.8723 42.0855 17.544 39.6719L9.6669 42.3732C7.0118 43.3133 5.2373 45.8249 5.2373 48.6417H40.0014C40.0007 45.8242 38.2262 43.3133 35.5711 42.3732Z" fill="#707CC0"/>
<path d="M40.0013 49.6909C39.4209 49.6909 38.9513 49.2212 38.9513 48.6409C38.9513 46.2742 37.4518 44.1525 35.2209 43.3622L27.2493 40.2234C26.8482 40.0652 26.5843 39.6781 26.5843 39.2462V36.7731C26.5843 36.4952 26.6949 36.2278 26.8909 36.0311C29.616 33.3032 29.5677 30.24 29.5538 29.8998C29.5342 29.4371 29.819 29.0087 30.2565 28.8561C30.4959 28.7721 30.757 28.7784 30.9936 28.8729C31.1091 28.9149 31.7811 29.1228 32.2683 28.5663C33.0719 27.6465 33.1657 26.0162 32.8668 25.6669C32.8136 25.6137 32.6008 25.4478 32.2263 25.732C31.8791 25.9952 31.4073 26.0176 31.0384 25.7887C30.6688 25.5598 30.4784 25.1265 30.5596 24.6995C30.8641 23.1042 31.0356 22.141 31.0356 20.9132C31.0356 15.7262 27.5006 12.1044 22.4396 12.1044C21.8593 12.1044 21.3896 11.6347 21.3896 11.0544C21.3896 10.4741 21.8593 10.0044 22.4396 10.0044C28.6374 10.0044 33.1356 14.5922 33.1356 20.9132C33.1356 21.8246 33.0544 22.6044 32.9116 23.4899C33.5388 23.5648 34.0946 23.8728 34.4621 24.3026C35.6458 25.6865 35.0949 28.5229 33.8496 29.9488C33.1643 30.7335 32.325 31.01 31.5851 31.0422C31.4052 32.4863 30.7809 34.9349 28.6837 37.1966V38.5322L35.956 41.3966C38.9898 42.4704 41.0513 45.3866 41.0513 48.6416C41.0513 49.2212 40.5816 49.6909 40.0013 49.6909Z" fill="#40396E"/>
<path d="M29.2157 49.6907H5.23652C4.65622 49.6907 4.18652 49.221 4.18652 48.6407C4.18652 45.3857 6.24802 42.4695 9.31612 41.3824L16.055 38.5488V37.1957C13.9655 34.9361 13.3964 32.4945 13.2564 31.0399C12.5291 30.9986 11.7108 30.7186 11.0374 29.9486C9.79212 28.5227 9.24122 25.6863 10.4242 24.3024C10.7896 23.8754 11.3426 23.5681 11.967 23.4925C11.8235 22.6063 11.743 21.8265 11.743 20.9137C11.743 14.5927 16.2412 10.0049 22.4397 10.0049C23.02 10.0049 23.4897 10.4746 23.4897 11.0549C23.4897 11.6352 23.02 12.1049 22.4397 12.1049C17.4585 12.1049 13.843 15.8093 13.843 20.9137C13.843 22.1429 14.0152 23.1047 14.3197 24.7C14.4009 25.127 14.2112 25.5603 13.8409 25.7892C13.4713 26.0181 12.9988 25.9964 12.653 25.7325C12.2806 25.4504 12.072 25.6142 12.0174 25.6716C11.722 26.0174 11.8165 27.6477 12.6201 28.5675C13.1416 29.1653 13.8773 28.8776 13.8843 28.8748C14.1272 28.7768 14.3974 28.7733 14.6424 28.8636C15.0834 29.0267 15.362 29.4705 15.3242 29.9395C15.2969 30.2769 15.1373 33.3163 17.8491 36.0323C18.0458 36.229 18.1557 36.4964 18.1557 36.7743V39.2474C18.1557 39.6702 17.9023 40.0517 17.5124 40.2155L10.0742 43.3417C8.13172 44.0312 6.75762 45.665 6.38732 47.5921H29.2164C29.7967 47.5921 30.2664 48.0618 30.2664 48.6421C30.2664 49.2224 29.7953 49.6907 29.2157 49.6907Z" fill="#40396E"/>
<path d="M58.5333 42.408L50.7409 39.3931L50.9432 36.1591C52.7884 34.6653 53.1132 32.5856 53.9812 29.9389C54.7078 30.6193 55.9503 30.3659 56.8876 29.2928C57.9075 28.1259 58.1784 26.434 57.4938 25.5142C56.9464 24.7792 55.9545 24.7617 55.0578 25.3791C55.307 23.7726 55.16 22.2417 55.16 20.9481C55.16 14.9568 51.0958 11.3364 45.7611 11.3364C40.4264 11.3364 36.3622 14.9568 36.3622 20.9481C36.3622 22.2648 36.2579 23.8286 36.5701 25.4666C36.3622 24.6882 35.091 24.7463 34.5191 25.5142C33.8338 26.434 34.1054 28.1252 35.1253 29.2928C36.1452 30.4597 37.0216 30.6606 37.7069 29.7415C37.7097 29.738 37.7118 29.7338 37.7146 29.7296C38.3411 32.5989 38.6694 34.533 40.327 36.0842L41.3091 39.5289L32.6298 42.4073C29.9747 43.3474 31.1227 45.719 31.1227 48.5358L30.415 48.6772L62.965 48.6751C62.9629 45.8597 61.1884 43.3488 58.5333 42.408Z" fill="#707CC0"/>
<path opacity="0.35" d="M46.1967 37.5151C48.5872 37.5151 50.7894 36.2376 50.7894 36.2376C50.7894 36.2376 49.6897 39.494 46.1967 39.494C42.7317 39.494 41.3828 36.2026 41.3828 36.2026C41.3828 36.2026 43.8055 37.5151 46.1967 37.5151Z" fill="#40396E"/>
<path d="M58.8754 42.3732L50.9976 39.6719C50.6686 42.0848 48.605 43.9468 46.1018 43.9468C43.5986 43.9468 41.5343 42.0855 41.206 39.6719L32.9705 42.3732C30.3154 43.3133 31.5341 44.8358 31.5341 47.6526L31.8407 48.431L63.305 48.6417C63.305 45.8242 61.5305 43.3133 58.8754 42.3732Z" fill="#707CC0"/>
<path d="M63.3052 49.6909H39.5129C38.9326 49.6909 38.4629 49.2212 38.4629 48.6409C38.4629 48.0606 38.9326 47.5909 39.5129 47.5909H62.1558C61.7869 45.6645 60.4198 44.0335 58.5249 43.3622L51.0412 40.2136C50.652 40.0498 50.3986 39.6683 50.3986 39.2462V36.7731C50.3986 36.4952 50.5092 36.2278 50.7052 36.0311C53.4156 33.3165 53.2462 30.2792 53.2175 29.9418C53.1783 29.4728 53.4555 29.0269 53.8972 28.8631C54.1415 28.7714 54.4117 28.7756 54.6546 28.8729C54.7701 28.9149 55.4428 29.1228 55.9293 28.5663C56.7329 27.6465 56.8274 26.0162 56.5278 25.6669C56.4753 25.6137 56.2625 25.4478 55.8873 25.732C55.5408 25.9952 55.0676 26.0176 54.6994 25.7887C54.3298 25.5598 54.1394 25.1265 54.2206 24.6995C54.5251 23.1042 54.6966 22.141 54.6966 20.9132C54.6966 15.7262 51.1616 12.1044 46.1006 12.1044C45.5203 12.1044 45.0506 11.6347 45.0506 11.0544C45.0506 10.4741 45.5203 10.0044 46.1006 10.0044C52.2984 10.0044 56.7966 14.5922 56.7966 20.9132C56.7966 21.8246 56.7154 22.6044 56.5726 23.4899C57.1998 23.5648 57.7556 23.8728 58.1231 24.3019C59.3068 25.6865 58.7552 28.5222 57.5106 29.9481C56.8372 30.7188 56.0161 30.9988 55.2867 31.0394C55.1502 32.4961 54.5867 34.937 52.4979 37.1952V38.549L59.2816 41.405C62.293 42.4697 64.3545 45.3859 64.3545 48.6409C64.3552 49.2212 63.8855 49.6909 63.3052 49.6909Z" fill="#40396E"/>
<path d="M40.9071 40.2967C40.3268 40.2967 39.8571 39.827 39.8571 39.2467V37.1964C37.7592 34.934 37.1348 32.4854 36.9556 31.042C36.2192 31.0091 35.3841 30.7319 34.6995 29.9486C33.4542 28.5227 32.9033 25.6863 34.0863 24.3024C34.4517 23.8754 35.0047 23.5681 35.6291 23.4925C35.4856 22.6063 35.4051 21.8265 35.4051 20.9137C35.4051 14.5927 39.9033 10.0049 46.1018 10.0049C46.6821 10.0049 47.1518 10.4746 47.1518 11.0549C47.1518 11.6352 46.6821 12.1049 46.1018 12.1049C41.1206 12.1049 37.5051 15.8093 37.5051 20.9137C37.5051 22.1429 37.6773 23.1047 37.9818 24.7C38.063 25.127 37.8733 25.5603 37.503 25.7892C37.1341 26.0181 36.6609 25.9964 36.3151 25.7325C35.9427 25.4504 35.7341 25.6142 35.6795 25.6716C35.3841 26.0174 35.4786 27.6477 36.2822 28.5675C36.7673 29.1233 37.4323 28.9161 37.5604 28.8692C37.7893 28.7859 38.056 28.7782 38.2856 28.8566C38.7231 29.0092 39.008 29.4376 38.9884 29.9003C38.9737 30.2405 38.9268 33.3037 41.6512 36.0323C41.8479 36.229 41.9578 36.4964 41.9578 36.7743V39.2474C41.9571 39.827 41.4874 40.2967 40.9071 40.2967Z" fill="#40396E"/>
<path d="M47.3865 51.9315L39.151 49.233L38.9431 45.8023C40.7883 44.3092 41.5443 41.8963 42.4123 39.2517C43.1438 40.3136 44.0132 39.9713 44.6537 38.8275C45.4111 37.4765 45.7863 35.6061 45.1136 34.792C44.4948 34.043 43.9222 34.1788 43.5519 34.918C43.8011 33.3129 43.6541 31.7827 43.6541 30.4905C43.6541 24.5041 39.5899 20.8872 34.2552 20.8872C28.9205 20.8872 24.8563 24.5041 24.8563 30.4905C24.8563 31.8065 24.752 33.3682 25.0642 35.0055C24.8563 34.2278 24.0464 33.9842 23.4745 34.7514C22.7892 35.6698 23.0265 37.5045 23.8301 38.8282C24.5455 40.007 25.5157 40.1953 26.2003 39.2762C26.2031 39.2727 26.2052 39.2685 26.208 39.2643C26.8345 42.1315 27.8782 44.2175 29.5358 45.7666L29.3496 49.4115L21.1232 51.9315C18.4681 52.8709 17.1094 55.3804 17.1094 58.1944H51.4171C51.4178 55.3804 50.0416 52.8716 47.3865 51.9315Z" fill="#FFD8BF"/>
<path opacity="0.35" d="M34.3578 47.0782C36.7483 47.0782 38.9505 45.8021 38.9505 45.8021C38.9505 45.8021 37.8508 49.0557 34.3578 49.0557C30.8928 49.0557 29.5439 45.7671 29.5439 45.7671C29.5439 45.7671 31.9673 47.0782 34.3578 47.0782Z" fill="#40396E"/>
<path d="M47.3936 51.9314L39.1581 49.2329C38.8291 51.6444 36.7655 53.5036 34.2623 53.5036C31.7591 53.5036 29.6948 51.6437 29.3665 49.2329L21.131 51.9314C18.4759 52.8708 17.1172 55.3803 17.1172 58.1943H51.4249C51.4249 55.3803 50.0494 52.8715 47.3936 51.9314Z" fill="#70BFFF"/>
<path d="M51.4251 59.494H17.1174C16.5371 59.494 16.0674 59.0243 16.0674 58.444C16.0674 55.0245 17.8468 52.2609 20.7168 51.2144L28.4 47.3588L29.3422 49.2362L21.6023 53.1198C21.5631 53.1394 21.5225 53.1562 21.4819 53.1709C19.6997 53.8016 18.5342 55.3444 18.2402 57.394H50.3023C50.0069 55.3472 48.8358 53.8051 47.0445 53.1709C47.0025 53.1562 46.9619 53.1387 46.922 53.1184L39.1849 49.2166L40.1306 47.3413L47.811 51.2144C50.6908 52.2651 52.4765 55.028 52.4765 58.444C52.4751 59.0243 52.0054 59.494 51.4251 59.494Z" fill="#40396E"/>
<path d="M29.3545 26.3148C32.0887 26.3148 36.435 26.3148 39.1692 26.3148C40.5433 26.3148 41.0739 27.53 41.2307 28.8936C41.7788 33.6438 42.0826 34.9374 42.0826 34.9374C42.0826 34.9374 43.3251 34.4222 43.4525 34.5111C43.7647 32.8745 43.9082 31.8063 43.9082 30.491C43.9082 24.5046 39.5969 20.6406 34.2622 20.6406C28.9275 20.6406 24.6162 24.5046 24.6162 30.491C24.6162 31.807 24.8507 33.3526 25.1629 34.9892C25.8629 34.2892 26.5608 35.0543 26.5608 35.0543C26.5608 35.0543 26.8723 33.5822 27.4099 28.7417C27.5625 27.3774 27.9811 26.3148 29.3545 26.3148Z" fill="#40396E"/>
<path d="M25.0722 35.0054C25.0722 35.0054 25.2101 32.0136 26.2538 31.7539C26.2538 31.7539 39.0253 30.9727 40.048 24.4718C41.1484 17.4746 32.4726 18.7927 30.0184 19.4486C27.8666 20.0226 20.9163 24.3563 25.0722 35.0054Z" fill="#40396E"/>
<path d="M38.997 25.6374C38.997 25.6374 38.5441 28.3548 42.0105 32.6094L43.5904 34.9173C43.5904 34.9173 48.0347 23.6466 39.5885 21.2666L38.997 25.6374Z" fill="#40396E"/>
<path d="M25.8116 35.6887C26.2265 35.6887 26.5627 35.3524 26.5627 34.9376C26.5627 34.5228 26.2265 34.1865 25.8116 34.1865C25.3968 34.1865 25.0605 34.5228 25.0605 34.9376C25.0605 35.3524 25.3968 35.6887 25.8116 35.6887Z" fill="#40396E"/>
<path d="M42.8341 35.6887C43.2489 35.6887 43.5852 35.3524 43.5852 34.9376C43.5852 34.5228 43.2489 34.1865 42.8341 34.1865C42.4193 34.1865 42.083 34.5228 42.083 34.9376C42.083 35.3524 42.4193 35.6887 42.8341 35.6887Z" fill="#40396E"/>
<path d="M40.8656 47.0386H39.6973V47.5895H40.8656V47.0386Z" fill="#707CC0"/>
<path d="M28.6627 46.8887H27.2627V47.5887H28.6627V46.8887Z" fill="#707CC0"/>
</svg>
