<svg width="70" height="70" viewBox="0 0 70 70" fill="none" xmlns="http://www.w3.org/2000/svg">
<path opacity="0.35" d="M37.3835 65.8C36.4289 65.8 35.4838 65.5532 34.6423 65.1H30.5938C28.3222 65.1 26.3832 63.4019 26.0834 61.1502L25.7392 58.5689C24.6762 58.2148 23.6409 57.7862 22.6391 57.2838L20.5688 58.867C19.7834 59.4699 18.8004 59.8035 17.8058 59.8035C16.5897 59.8035 15.4463 59.3298 14.5867 58.4691L10.8307 54.7128C9.22495 53.1084 9.05371 50.5367 10.4339 48.732L12.0167 46.6621C11.515 45.66 11.086 44.6243 10.7326 43.5613L8.14898 43.2168C5.89722 42.916 4.2002 40.9767 4.2002 38.7064V33.3936C4.2002 31.1233 5.89722 29.184 8.14761 28.8832L10.7316 28.5394C11.0854 27.4757 11.514 26.4407 12.0161 25.4386L10.4332 23.3687C9.05234 21.566 9.2229 18.9937 10.8314 17.3865L14.5871 13.6309C15.4487 12.7702 16.591 12.2979 17.8054 12.2979C18.7987 12.2979 19.7803 12.6308 20.5695 13.2344L22.6384 14.8169C23.6406 14.3145 24.6755 13.8858 25.7389 13.5317L26.0837 10.9484C26.3849 8.69736 28.3235 7 30.5938 7H35.9066C38.1782 7 40.1172 8.69805 40.417 10.9498L40.7612 13.5311C41.8242 13.8852 42.8595 14.3138 43.8613 14.8162L45.9315 13.233C46.7225 12.6287 47.7034 12.2972 48.6953 12.2972C49.9114 12.2972 51.0544 12.7709 51.9137 13.6309L55.6697 17.3872C57.2754 18.9916 57.4467 21.5633 56.0665 23.368L54.4833 25.4386C54.8993 26.2705 55.2653 27.125 55.5798 28H62.7169C65.9608 28 68.6002 30.7016 68.6002 34.0218V59.7782C68.6002 63.0984 65.9608 65.8 62.7169 65.8H37.3835Z" fill="black"/>
<path d="M35.9832 64.4001C35.0285 64.4001 34.0835 64.1533 33.2419 63.7001H29.1934C26.9218 63.7001 24.9828 62.002 24.683 59.7503L24.3388 57.169C23.2758 56.8149 22.2405 56.3863 21.2387 55.8839L19.1685 57.4671C18.383 58.07 17.4 58.4036 16.4054 58.4036C15.1893 58.4036 14.0459 57.9299 13.1863 57.0692L9.43032 53.3129C7.82456 51.7085 7.65332 49.1368 9.0335 47.3321L10.6164 45.2622C10.1146 44.2601 9.68565 43.2244 9.33223 42.1614L6.74858 41.8169C4.49683 41.5161 2.7998 39.5768 2.7998 37.3065V31.9937C2.7998 29.7234 4.49683 27.7841 6.74722 27.4833L9.3312 27.1395C9.68496 26.0758 10.1136 25.0408 10.6157 24.0387L9.03281 21.9687C7.65195 20.1661 7.82251 17.5937 9.43101 15.9866L13.1867 12.231C14.0483 11.3703 15.1906 10.8979 16.405 10.8979C17.3983 10.8979 18.3799 11.2309 19.1691 11.8345L21.238 13.417C22.2402 12.9146 23.2752 12.4859 24.3385 12.1318L24.6834 9.54853C24.9845 7.29746 26.9231 5.6001 29.1934 5.6001H34.5063C36.7778 5.6001 38.7169 7.29814 39.0166 9.5499L39.3608 12.1312C40.4238 12.4853 41.4591 12.9139 42.4609 13.4163L44.5312 11.8331C45.3221 11.2288 46.303 10.8973 47.2949 10.8973C48.511 10.8973 49.654 11.371 50.5133 12.231L54.2693 15.9873C55.8751 17.5917 56.0463 20.1634 54.6661 21.9681L53.0829 24.0387C53.4989 24.8706 53.8649 25.7251 54.1794 26.6001H61.3165C64.5605 26.6001 67.1998 29.3017 67.1998 32.6219V58.3783C67.1998 61.6985 64.5605 64.4001 61.3165 64.4001H35.9832Z" fill="#F2F2F2"/>
<path d="M50.6979 38.4035C50.2029 41.1638 49.1198 43.7183 47.5789 45.9329L51.0212 50.4342L47.2668 54.1885L42.7655 50.7462C40.5509 52.2872 39.5746 53.3703 36.8148 53.8652L36.9507 59.4827H29.1774L28.4288 53.8658C25.6685 53.3709 23.114 52.2878 20.8994 50.7468L16.3981 54.1891L12.6437 50.4347L16.086 45.9335C14.5451 43.7189 13.462 41.1638 12.967 38.4041L7.34961 37.6549V32.3454L12.9664 31.5968C13.4614 28.8364 14.5445 26.282 16.0855 24.0673L12.6431 19.5661L16.3975 15.8117L20.8988 19.254C23.1134 17.7131 25.6685 16.63 28.4282 16.135L29.1774 10.5176H34.4869L35.2355 16.1344C37.9959 16.6294 40.5503 17.7125 42.7649 19.2534L47.2662 15.8111L51.0206 19.5655L47.5783 24.0668C49.1192 26.2814 50.2023 28.8364 50.6973 31.5962L56.3147 32.3454V37.6549L50.6979 38.4035ZM31.8322 26.446C27.1079 26.446 23.278 30.2759 23.278 35.0001C23.278 39.7244 27.1079 43.5543 31.8322 43.5543C36.5564 43.5543 40.3863 39.7244 40.3863 35.0001C40.3863 30.2759 36.5564 26.446 31.8322 26.446Z" fill="#9AA2E6"/>
<path d="M61.5998 36.75H35.7432V58.8H61.5998V36.75Z" fill="#D9EEFF"/>
<path d="M61.6004 37.0419V32.2002H36.2584C35.9744 32.2002 35.7441 32.4304 35.7441 32.7145V37.0419H61.6004Z" fill="#2785BD"/>
<path d="M61.3165 60.9001H35.9832C35.3672 60.9001 34.7787 60.6417 34.3408 60.2001H29.1934C28.667 60.2001 28.222 59.8104 28.1526 59.2889L27.5025 54.4128C25.1643 53.9021 22.9665 52.9916 20.9506 51.6982L17.0425 54.6869C16.6245 55.0075 16.0345 54.9679 15.6623 54.5953L11.9053 50.8383C11.5331 50.4664 11.4938 49.8765 11.8137 49.4581L14.802 45.55C13.509 43.5341 12.5988 41.3363 12.0881 38.9978L7.21104 38.3477C6.68945 38.2779 6.2998 37.8329 6.2998 37.3065V31.9937C6.2998 31.4673 6.68945 31.0223 7.21104 30.9525L12.0875 30.3031C12.5978 27.9639 13.5083 25.7668 14.8017 23.7509L11.813 19.8428C11.4931 19.4251 11.5324 18.8345 11.9046 18.4626L15.6616 14.7056C16.0335 14.3344 16.6238 14.294 17.0418 14.614L20.9499 17.6026C22.9658 16.3093 25.1636 15.3987 27.5018 14.8881L28.1526 10.0113C28.2223 9.48975 28.667 9.1001 29.1934 9.1001H34.5063C35.0326 9.1001 35.4776 9.48975 35.547 10.0113L36.1971 14.8874C38.5354 15.398 40.7331 16.3086 42.749 17.602L46.6571 14.6133C47.0762 14.2934 47.6658 14.333 48.0373 14.7049L51.7943 18.4619C52.1666 18.8338 52.2059 19.4237 51.8859 19.8421L48.8976 23.7502C50.151 25.7046 51.0451 27.8347 51.564 30.1001H61.3165C62.6307 30.1001 63.6998 31.2314 63.6998 32.6219V58.3783C63.6998 59.7687 62.6307 60.9001 61.3165 60.9001ZM30.1128 58.1001H34.8525C35.2322 58.1001 35.5822 58.3052 35.7682 58.636C35.8126 58.7153 35.8926 58.8001 35.9832 58.8001H61.3165C61.4501 58.8001 61.5998 58.6196 61.5998 58.3783V32.6219C61.5998 32.3806 61.4501 32.2001 61.3165 32.2001H50.7088C50.2022 32.2001 49.7682 31.8385 49.6762 31.3408C49.2066 28.7944 48.2205 26.4292 46.7453 24.3087C46.4849 23.9341 46.4958 23.4337 46.7733 23.0714L49.6595 19.2966L47.2026 16.8397L43.4282 19.7259C43.0648 20.0027 42.5651 20.0144 42.1909 19.7539C40.041 18.2589 37.6453 17.2663 35.0702 16.8042C34.6208 16.7235 34.2749 16.3619 34.2147 15.9094L33.5868 11.2001H30.1125L29.4842 15.9101C29.4237 16.3626 29.0782 16.7242 28.6291 16.8049C26.0536 17.267 23.6576 18.2596 21.5081 19.7546C21.1331 20.015 20.6331 20.0034 20.2708 19.7266L16.4963 16.8404L14.0395 19.2973L16.9259 23.0721C17.2035 23.4344 17.2144 23.9348 16.954 24.3094C15.4583 26.4586 14.466 28.8546 14.0042 31.4297C13.9236 31.8788 13.562 32.2247 13.1094 32.2855L8.3998 32.9131V36.3871L13.1101 37.0153C13.5626 37.0762 13.9243 37.4221 14.0049 37.8712C14.4667 40.4463 15.4589 42.8423 16.9543 44.9915C17.2147 45.3661 17.2038 45.8665 16.9263 46.2288L14.0401 50.0036L16.497 52.4604L20.2714 49.5743C20.6337 49.2968 21.1341 49.2845 21.5087 49.5463C23.6586 51.0413 26.0543 52.0339 28.6294 52.496C29.0789 52.5767 29.4248 52.9383 29.4849 53.3908L30.1128 58.1001Z" fill="#40396E"/>
<path d="M41.5519 46.8904C41.5509 46.8904 41.5495 46.8904 41.5485 46.8904C41.2416 46.8897 40.9504 46.7543 40.7518 46.5205L38.8534 44.2866C38.4778 43.8443 38.5318 43.1819 38.9737 42.8066C39.4153 42.4313 40.0784 42.4846 40.4537 42.9262L41.557 44.225L44.0258 41.3574C44.4042 40.9178 45.068 40.8679 45.5065 41.2466C45.9461 41.6246 45.9956 42.2877 45.6172 42.7273L42.3476 46.5253C42.1484 46.7571 41.8575 46.8904 41.5519 46.8904Z" fill="#40396E"/>
<path d="M41.5519 54.5576C41.5509 54.5576 41.5495 54.5576 41.5485 54.5576C41.2416 54.5569 40.9504 54.4215 40.7518 54.1877L38.8534 51.9538C38.4778 51.5115 38.5318 50.8491 38.9737 50.4738C39.4153 50.0985 40.0784 50.1518 40.4537 50.5934L41.557 51.8922L44.0258 49.0246C44.4042 48.585 45.068 48.5358 45.5065 48.9138C45.9461 49.2918 45.9956 49.9549 45.6172 50.3945L42.3476 54.1925C42.1484 54.4243 41.8575 54.5576 41.5519 54.5576Z" fill="#40396E"/>
<path d="M57.7504 44.8002H47.9504C47.3704 44.8002 46.9004 44.3299 46.9004 43.7502C46.9004 43.1705 47.3704 42.7002 47.9504 42.7002H57.7504C58.3304 42.7002 58.8004 43.1705 58.8004 43.7502C58.8004 44.3299 58.3304 44.8002 57.7504 44.8002Z" fill="#40396E"/>
<path d="M57.7504 52.4999H47.9504C47.3704 52.4999 46.9004 52.0296 46.9004 51.4499C46.9004 50.8702 47.3704 50.3999 47.9504 50.3999H57.7504C58.3304 50.3999 58.8004 50.8702 58.8004 51.4499C58.8004 52.0296 58.3304 52.4999 57.7504 52.4999Z" fill="#40396E"/>
</svg>
