<svg width="70" height="70" viewBox="0 0 70 70" fill="none" xmlns="http://www.w3.org/2000/svg">
<path opacity="0.35" d="M35.7004 66.4999C52.7108 66.4999 66.5004 52.7103 66.5004 35.6999C66.5004 18.6895 52.7108 4.8999 35.7004 4.8999C18.69 4.8999 4.90039 18.6895 4.90039 35.6999C4.90039 52.7103 18.69 66.4999 35.7004 66.4999Z" fill="black"/>
<path d="M34.3 65.1C51.3104 65.1 65.1 51.3104 65.1 34.3C65.1 17.2896 51.3104 3.5 34.3 3.5C17.2896 3.5 3.5 17.2896 3.5 34.3C3.5 51.3104 17.2896 65.1 34.3 65.1Z" fill="#F2F2F2"/>
<path d="M34.3184 60.5684C48.8158 60.5684 60.5684 48.8158 60.5684 34.3184C60.5684 19.8209 48.8158 8.06836 34.3184 8.06836C19.8209 8.06836 8.06836 19.8209 8.06836 34.3184C8.06836 48.8158 19.8209 60.5684 34.3184 60.5684Z" fill="#D9EEFF"/>
<path d="M34.3002 19.6001L14.7002 29.4001L34.3002 39.2001L53.9002 29.4001L34.3002 19.6001Z" fill="#707CC0"/>
<path d="M34.3004 28.7002C25.7058 28.7002 22.4004 32.9002 22.4004 32.9002V44.8002C30.995 46.2002 34.3004 49.7002 34.3004 49.7002C34.3004 49.7002 37.6058 46.2002 46.2004 44.8002V32.9002C46.2004 32.9002 42.895 28.7002 34.3004 28.7002Z" fill="#9AA2E6"/>
<path d="M52.4996 46.5501C52.4996 47.9032 50.0489 51.1001 50.0489 51.1001C50.0489 51.1001 47.5996 47.9032 47.5996 46.5501C47.5996 45.197 48.6965 44.1001 50.0496 44.1001C51.4027 44.1001 52.4996 45.197 52.4996 46.5501Z" fill="#F9B84F"/>
<path d="M50.05 47.5999C49.4704 47.5999 49 47.1302 49 46.5499V30.4499C49 29.8696 49.4704 29.3999 50.05 29.3999C50.6296 29.3999 51.1 29.8696 51.1 30.4499V46.5499C51.1 47.1302 50.6296 47.5999 50.05 47.5999Z" fill="#40396E"/>
<path d="M34.3 61.6C19.2465 61.6 7 49.3535 7 34.3C7 19.2465 19.2465 7 34.3 7C49.3535 7 61.6 19.2465 61.6 34.3C61.6 49.3535 49.3535 61.6 34.3 61.6ZM34.3 9.1C20.4043 9.1 9.1 20.4043 9.1 34.3C9.1 48.1957 20.4043 59.5 34.3 59.5C48.1957 59.5 59.5 48.1957 59.5 34.3C59.5 20.4043 48.1957 9.1 34.3 9.1Z" fill="#40396E"/>
</svg>
