<svg width="22" height="22" viewBox="0 0 22 22" fill="none" xmlns="http://www.w3.org/2000/svg">
<path d="M5.72917 2.75C4.09203 2.75 2.75 4.09203 2.75 5.72917V16.2708C2.75 17.908 4.09203 19.25 5.72917 19.25H16.2708C17.908 19.25 19.25 17.908 19.25 16.2708V5.72917C19.25 4.09203 17.908 2.75 16.2708 2.75H5.72917ZM5.72917 4.125H16.2708C17.1646 4.125 17.875 4.83539 17.875 5.72917V6.41667H4.125V5.72917C4.125 4.83539 4.83539 4.125 5.72917 4.125ZM4.125 7.79167H17.875V16.2708C17.875 17.1646 17.1646 17.875 16.2708 17.875H5.72917C4.83539 17.875 4.125 17.1646 4.125 16.2708V7.79167ZM7.10417 9.625C6.80027 9.625 6.50883 9.74572 6.29394 9.96061C6.07905 10.1755 5.95833 10.4669 5.95833 10.7708C5.95833 11.0747 6.07905 11.3662 6.29394 11.5811C6.50883 11.7959 6.80027 11.9167 7.10417 11.9167C7.40806 11.9167 7.69951 11.7959 7.91439 11.5811C8.12928 11.3662 8.25 11.0747 8.25 10.7708C8.25 10.4669 8.12928 10.1755 7.91439 9.96061C7.69951 9.74572 7.40806 9.625 7.10417 9.625ZM11 9.625C10.6961 9.625 10.4047 9.74572 10.1898 9.96061C9.97489 10.1755 9.85417 10.4669 9.85417 10.7708C9.85417 11.0747 9.97489 11.3662 10.1898 11.5811C10.4047 11.7959 10.6961 11.9167 11 11.9167C11.3039 11.9167 11.5953 11.7959 11.8102 11.5811C12.0251 11.3662 12.1458 11.0747 12.1458 10.7708C12.1458 10.4669 12.0251 10.1755 11.8102 9.96061C11.5953 9.74572 11.3039 9.625 11 9.625ZM14.8958 9.625C14.5919 9.625 14.3005 9.74572 14.0856 9.96061C13.8707 10.1755 13.75 10.4669 13.75 10.7708C13.75 11.0747 13.8707 11.3662 14.0856 11.5811C14.3005 11.7959 14.5919 11.9167 14.8958 11.9167C15.1997 11.9167 15.4912 11.7959 15.7061 11.5811C15.9209 11.3662 16.0417 11.0747 16.0417 10.7708C16.0417 10.4669 15.9209 10.1755 15.7061 9.96061C15.4912 9.74572 15.1997 9.625 14.8958 9.625ZM7.10417 13.75C6.80027 13.75 6.50883 13.8707 6.29394 14.0856C6.07905 14.3005 5.95833 14.5919 5.95833 14.8958C5.95833 15.1997 6.07905 15.4912 6.29394 15.7061C6.50883 15.9209 6.80027 16.0417 7.10417 16.0417C7.40806 16.0417 7.69951 15.9209 7.91439 15.7061C8.12928 15.4912 8.25 15.1997 8.25 14.8958C8.25 14.5919 8.12928 14.3005 7.91439 14.0856C7.69951 13.8707 7.40806 13.75 7.10417 13.75ZM11 13.75C10.6961 13.75 10.4047 13.8707 10.1898 14.0856C9.97489 14.3005 9.85417 14.5919 9.85417 14.8958C9.85417 15.1997 9.97489 15.4912 10.1898 15.7061C10.4047 15.9209 10.6961 16.0417 11 16.0417C11.3039 16.0417 11.5953 15.9209 11.8102 15.7061C12.0251 15.4912 12.1458 15.1997 12.1458 14.8958C12.1458 14.5919 12.0251 14.3005 11.8102 14.0856C11.5953 13.8707 11.3039 13.75 11 13.75Z" fill="#3E3F43"/>
</svg>
