<svg width="16" height="16" viewBox="0 0 16 16" fill="none" xmlns="http://www.w3.org/2000/svg">
<path d="M12.5644 1.46829C12.3869 1.28818 12.0993 1.28818 11.9217 1.46829L8.0005 5.44555L4.07959 1.46829C3.90201 1.28818 3.61444 1.28818 3.43686 1.46829L1.46717 3.46614C1.28959 3.64625 1.28959 3.93794 1.46717 4.11805L5.29429 7.99987L1.46717 11.8817C1.28959 12.0618 1.28959 12.3535 1.46717 12.5336L3.43686 14.5315C3.61444 14.7116 3.90201 14.7116 4.07959 14.5315L8.0005 10.5542L11.9217 14.5315C12.0993 14.7116 12.3869 14.7116 12.5644 14.5315L14.5341 12.5333C14.7117 12.3532 14.7117 12.0615 14.5341 11.8814L10.7073 7.99987L14.5341 4.11836C14.7117 3.93825 14.7117 3.64656 14.5341 3.46645L12.5644 1.46829Z" fill="white"/>
</svg>
