<svg width="16" height="16" viewBox="0 0 16 16" fill="none" xmlns="http://www.w3.org/2000/svg">
<g clip-path="url(#clip0_1480_2006)">
<path d="M9.54715 16.0061C9.41465 16.0061 9.29215 15.9249 9.2434 15.7986C9.18715 15.6574 9.23715 15.4961 9.3634 15.4099C10.2646 14.7949 11.1809 13.3836 11.1934 11.6161C11.2021 10.3561 10.7621 8.45489 8.72715 6.30364C8.8309 8.98364 7.70465 11.2424 7.6509 11.3474C7.58465 11.4799 7.4384 11.5499 7.29465 11.5199C7.14965 11.4899 7.0434 11.3674 7.0334 11.2211C7.0334 11.2086 6.95215 10.1549 6.2434 9.27739C6.07215 9.83739 5.88215 10.2836 5.7109 10.6886C5.3834 11.4574 5.1259 12.0649 5.1259 13.1024C5.1259 13.8949 5.7684 14.8261 6.3859 15.3174C6.4859 15.3736 6.5534 15.4799 6.5534 15.6036C6.5534 15.7836 6.40715 15.9299 6.2259 15.9299C6.2234 15.9299 6.22215 15.9299 6.21965 15.9299C6.18465 15.9299 6.1484 15.9236 6.1134 15.9124C3.6109 15.0486 2.2334 13.2986 2.2334 10.9849C2.2334 9.01739 3.13465 7.43114 4.0884 5.75114C4.94715 4.23864 5.9209 2.52489 6.39965 0.252389C6.42465 0.138639 6.5084 0.0448885 6.61965 0.00863848C6.73215 -0.0276115 6.85465 0.00113847 6.9409 0.0811384C11.4684 4.26239 13.7659 7.09239 13.7659 10.9474C13.7659 13.4836 11.9734 15.6574 9.59465 16.0036C9.5784 16.0061 9.56215 16.0061 9.54715 16.0061Z" fill="#FF1F1F"/>
</g>
<defs>
<clipPath id="clip0_1480_2006">
<rect width="16" height="16" fill="white"/>
</clipPath>
</defs>
</svg>
