<svg width="16" height="16" viewBox="0 0 16 16" fill="none" xmlns="http://www.w3.org/2000/svg">
<path d="M8.00279 1.66676C7.90934 1.66617 7.8176 1.69179 7.73797 1.74069C7.65834 1.7896 7.59401 1.85984 7.55227 1.94345L5.83482 5.37835L1.7567 6.00595C1.66541 6.02006 1.57982 6.05917 1.50941 6.11895C1.439 6.17873 1.38652 6.25685 1.3578 6.34464C1.32908 6.43242 1.32523 6.52645 1.34669 6.61629C1.36814 6.70613 1.41406 6.78827 1.47935 6.85361L4.30032 9.67457L3.67206 13.7573C3.65801 13.8486 3.66954 13.942 3.70538 14.0272C3.74122 14.1124 3.79996 14.186 3.87509 14.2398C3.95022 14.2936 4.0388 14.3256 4.13098 14.3321C4.22317 14.3386 4.31536 14.3195 4.39732 14.2768L7.99953 12.3972L11.6017 14.2768C11.6837 14.3195 11.7759 14.3386 11.8681 14.3321C11.9603 14.3256 12.0488 14.2936 12.124 14.2398C12.1991 14.186 12.2579 14.1124 12.2937 14.0272C12.3295 13.942 12.3411 13.8486 12.327 13.7573L11.6988 9.67457L14.5197 6.85361C14.585 6.78827 14.6309 6.70613 14.6524 6.61629C14.6738 6.52645 14.67 6.43242 14.6413 6.34464C14.6125 6.25685 14.5601 6.17873 14.4897 6.11895C14.4192 6.05917 14.3337 6.02006 14.2424 6.00595L10.1642 5.37835L8.4468 1.94345C8.40555 1.86083 8.34224 1.79124 8.26387 1.74241C8.1855 1.69357 8.09513 1.66738 8.00279 1.66676Z" fill="#FFC93E"/>
</svg>
