<svg width="16" height="16" viewBox="0 0 16 16" fill="none" xmlns="http://www.w3.org/2000/svg">
<path d="M7.99007 0.990794C7.81337 0.993384 7.64493 1.06602 7.52176 1.19273C7.39858 1.31944 7.33075 1.48988 7.33317 1.66658V2.24275L7.12353 2.09301C7.04252 2.03338 6.94541 1.99958 6.84489 1.996C6.73691 1.99226 6.63062 2.02358 6.54193 2.0853C6.45325 2.14701 6.38694 2.23578 6.35293 2.33833C6.31891 2.44089 6.31903 2.55169 6.35326 2.65417C6.38749 2.75665 6.45399 2.84529 6.5428 2.90681L7.33317 3.47126V4.99991H6.59228C6.39128 4.99991 6.20564 5.10716 6.1053 5.28116L5.73486 5.92243L4.41129 5.15811L4.31754 4.19132C4.30716 4.06527 4.24941 3.94783 4.15591 3.86267C4.0624 3.7775 3.9401 3.73093 3.81364 3.73233C3.74382 3.73318 3.67496 3.74864 3.61148 3.77772C3.548 3.8068 3.49131 3.84885 3.44507 3.90117C3.39883 3.95348 3.36405 4.0149 3.34299 4.08147C3.32192 4.14803 3.31503 4.21828 3.32275 4.28767L3.34749 4.54353L2.84879 4.25577C2.75285 4.1985 2.64404 4.16626 2.53239 4.16202C2.38264 4.15622 2.2353 4.20103 2.11415 4.28924C1.993 4.37744 1.90509 4.50389 1.86462 4.64818C1.82415 4.79247 1.83346 4.94619 1.89107 5.08454C1.94867 5.22288 2.05121 5.33779 2.18213 5.41072L2.68082 5.69848L2.44645 5.80525C2.38542 5.83161 2.33027 5.86987 2.28421 5.9178C2.23814 5.96573 2.2021 6.02236 2.17818 6.08439C2.15427 6.14641 2.14295 6.21258 2.14491 6.27903C2.14687 6.34547 2.16206 6.41086 2.18958 6.47137C2.21711 6.53188 2.25643 6.58629 2.30523 6.63142C2.35403 6.67656 2.41135 6.71151 2.47382 6.73423C2.53629 6.75695 2.60266 6.76699 2.66906 6.76376C2.73546 6.76052 2.80054 6.74409 2.86051 6.7154L3.74463 6.31306L5.06819 7.07738L4.6984 7.71866C4.59774 7.89266 4.59774 8.10781 4.6984 8.28181L5.06819 8.92243L3.74463 9.68676L2.86051 9.28441C2.8001 9.25585 2.73457 9.23969 2.6678 9.23689C2.55129 9.23204 2.43674 9.26807 2.34398 9.33874C2.25122 9.40941 2.18607 9.51028 2.15981 9.6239C2.13355 9.73752 2.14782 9.85674 2.20017 9.96095C2.25251 10.0652 2.33963 10.1478 2.44645 10.1946L2.68082 10.3013L2.18213 10.5891C2.10628 10.6329 2.03979 10.6911 1.98646 10.7606C1.93314 10.8301 1.89402 10.9094 1.87134 10.9939C1.84866 11.0785 1.84286 11.1668 1.85428 11.2536C1.8657 11.3404 1.89411 11.4241 1.93789 11.5C1.98167 11.5758 2.03996 11.6423 2.10943 11.6956C2.1789 11.7489 2.25819 11.788 2.34278 11.8107C2.42737 11.8334 2.51559 11.8391 2.60242 11.8277C2.68924 11.8163 2.77296 11.7878 2.84879 11.744L3.34749 11.4563L3.32275 11.7121C3.31386 11.7787 3.31848 11.8465 3.33634 11.9112C3.3542 11.976 3.38493 12.0365 3.4267 12.0891C3.46846 12.1418 3.5204 12.1854 3.57942 12.2176C3.63844 12.2497 3.70332 12.2696 3.7702 12.276C3.83707 12.2825 3.90457 12.2754 3.96865 12.2553C4.03273 12.2351 4.09209 12.2022 4.14318 12.1585C4.19427 12.1149 4.23604 12.0614 4.266 12.0013C4.29595 11.9411 4.31349 11.8756 4.31754 11.8085L4.41129 10.8417L5.73486 10.0774L6.1053 10.7193C6.20564 10.8926 6.39128 10.9999 6.59228 10.9999H7.33317V12.5286L6.5428 13.093C6.48746 13.1304 6.44017 13.1784 6.4037 13.2343C6.36723 13.2903 6.34233 13.3529 6.33046 13.4186C6.3186 13.4843 6.32001 13.5517 6.33462 13.6169C6.34923 13.682 6.37674 13.7436 6.41552 13.7979C6.4543 13.8523 6.50357 13.8983 6.56043 13.9333C6.61728 13.9683 6.68057 13.9916 6.74656 14.0017C6.81255 14.0119 6.8799 14.0087 6.94465 13.9924C7.00939 13.9761 7.07022 13.947 7.12353 13.9068L7.33317 13.7571V14.3332C7.33192 14.4216 7.34824 14.5093 7.38118 14.5913C7.41412 14.6732 7.46303 14.7479 7.52506 14.8108C7.58709 14.8737 7.66101 14.9236 7.74251 14.9577C7.82402 14.9918 7.91148 15.0094 7.99984 15.0094C8.08818 15.0094 8.17565 14.9918 8.25716 14.9577C8.33866 14.9236 8.41258 14.8737 8.47461 14.8108C8.53664 14.7479 8.58555 14.6732 8.61849 14.5913C8.65143 14.5093 8.66775 14.4216 8.6665 14.3332V13.7571L8.87614 13.9068C8.92945 13.947 8.99028 13.9761 9.05502 13.9924C9.11977 14.0087 9.18712 14.0119 9.25311 14.0017C9.3191 13.9916 9.38239 13.9683 9.43924 13.9333C9.4961 13.8983 9.54537 13.8523 9.58415 13.7979C9.62293 13.7436 9.65044 13.682 9.66505 13.6169C9.67966 13.5517 9.68107 13.4843 9.66921 13.4186C9.65734 13.3529 9.63244 13.2903 9.59597 13.2343C9.5595 13.1784 9.51221 13.1304 9.45687 13.093L8.6665 12.5286V10.9999H9.40739C9.60839 10.9999 9.79403 10.8927 9.89437 10.7187L10.2648 10.0774L11.5884 10.8417L11.6821 11.8085C11.6862 11.8756 11.7037 11.9411 11.7337 12.0013C11.7636 12.0614 11.8054 12.1149 11.8565 12.1585C11.9076 12.2022 11.9669 12.2351 12.031 12.2553C12.0951 12.2754 12.1626 12.2825 12.2295 12.276C12.2963 12.2696 12.3612 12.2497 12.4202 12.2176C12.4793 12.1854 12.5312 12.1418 12.573 12.0891C12.6147 12.0365 12.6455 11.976 12.6633 11.9112C12.6812 11.8465 12.6858 11.7787 12.6769 11.7121L12.6522 11.4563L13.1509 11.744C13.2267 11.7878 13.3104 11.8163 13.3973 11.8277C13.4841 11.8391 13.5723 11.8334 13.6569 11.8107C13.7415 11.788 13.8208 11.7489 13.8902 11.6956C13.9597 11.6423 14.018 11.5758 14.0618 11.5C14.1056 11.4241 14.134 11.3404 14.1454 11.2536C14.1568 11.1668 14.151 11.0785 14.1283 10.9939C14.1057 10.9094 14.0665 10.8301 14.0132 10.7606C13.9599 10.6911 13.8934 10.6329 13.8175 10.5891L13.3188 10.3013L13.5532 10.1946C13.6572 10.1489 13.7425 10.0693 13.7951 9.96874C13.8478 9.86819 13.8647 9.75271 13.843 9.64128C13.8214 9.52986 13.7624 9.42912 13.6759 9.35563C13.5894 9.28213 13.4805 9.24026 13.367 9.23689C13.2884 9.23458 13.2103 9.25087 13.1392 9.28441L12.255 9.68676L10.9315 8.92243L11.3013 8.28116C11.4019 8.10716 11.4019 7.89201 11.3013 7.71801L10.9315 7.07738L12.255 6.31306L13.1392 6.7154C13.1991 6.74409 13.2642 6.76053 13.3306 6.76376C13.397 6.76699 13.4634 6.75695 13.5259 6.73423C13.5883 6.71151 13.6456 6.67656 13.6944 6.63142C13.7432 6.58629 13.7826 6.53188 13.8101 6.47137C13.8376 6.41086 13.8528 6.34547 13.8548 6.27903C13.8567 6.21258 13.8454 6.14641 13.8215 6.08439C13.7976 6.02236 13.7615 5.96573 13.7155 5.9178C13.6694 5.86987 13.6142 5.83161 13.5532 5.80525L13.3188 5.69848L13.8175 5.41072C13.9449 5.33971 14.0454 5.22892 14.1038 5.09532C14.1622 4.96172 14.1751 4.81267 14.1407 4.671C14.1063 4.52933 14.0264 4.40284 13.9132 4.31092C13.8 4.21899 13.6599 4.16669 13.5142 4.16202C13.3866 4.15785 13.2605 4.19039 13.1509 4.25577L12.6522 4.54353L12.6769 4.28767C12.6848 4.21702 12.6775 4.1455 12.6556 4.07789C12.6336 4.01027 12.5975 3.94812 12.5496 3.89557C12.5017 3.84301 12.4432 3.80127 12.3779 3.77312C12.3127 3.74497 12.2421 3.73107 12.1711 3.73233C12.0472 3.73467 11.9286 3.78291 11.8382 3.86771C11.7479 3.95251 11.6923 4.06783 11.6821 4.19132L11.5884 5.15811L10.2648 5.92243L9.89437 5.28051C9.79403 5.10717 9.60839 4.99991 9.40739 4.99991H8.6665V3.47126L9.45687 2.90681C9.5122 2.86946 9.5595 2.8214 9.59597 2.76548C9.63244 2.70955 9.65734 2.64689 9.6692 2.58119C9.68107 2.51549 9.67965 2.44808 9.66505 2.38293C9.65044 2.31778 9.62293 2.25622 9.58415 2.20187C9.54537 2.14753 9.4961 2.1015 9.43924 2.0665C9.38239 2.0315 9.3191 2.00824 9.25311 1.9981C9.18712 1.98795 9.11977 1.99112 9.05502 2.00742C8.99028 2.02372 8.92945 2.05282 8.87614 2.09301L8.6665 2.24275V1.66658C8.66772 1.57744 8.65105 1.48896 8.61748 1.40638C8.58391 1.3238 8.53412 1.24878 8.47106 1.18578C8.40799 1.12277 8.33293 1.07305 8.25031 1.03956C8.1677 1.00607 8.07921 0.989489 7.99007 0.990794ZM7.03759 6.33324H7.89176C7.96333 6.345 8.03634 6.345 8.10791 6.33324H8.96207L9.45296 7.1835L9.92431 7.99991L9.50049 8.73363C9.45213 8.79187 9.41404 8.85792 9.38786 8.92895L8.96207 9.66658H8.10661C8.0681 9.66013 8.02911 9.65708 7.99007 9.65746C7.95821 9.65822 7.92644 9.66127 7.89502 9.66658H7.03759L6.61181 8.92895C6.58603 8.8602 6.54908 8.79619 6.50244 8.73949L6.07536 7.99991L6.56624 7.14965L7.03759 6.33324Z" fill="#1263FF"/>
</svg>
