<svg width="16" height="16" viewBox="0 0 16 16" fill="none" xmlns="http://www.w3.org/2000/svg">
<path d="M7.99967 1.33325C6.18533 1.33325 4.53681 2.06324 3.33301 3.24341V2.99992C3.33423 2.91078 3.31756 2.8223 3.28399 2.73972C3.25042 2.65714 3.20063 2.58213 3.13756 2.51912C3.0745 2.45612 2.99944 2.4064 2.91682 2.37291C2.8342 2.33942 2.74571 2.32283 2.65658 2.32414C2.47988 2.32673 2.31144 2.39936 2.18826 2.52607C2.06509 2.65279 1.99726 2.82322 1.99967 2.99992V4.99992C1.99969 5.17672 2.06994 5.34628 2.19496 5.4713C2.31998 5.59632 2.48954 5.66657 2.66634 5.66659H4.66634C4.75468 5.66783 4.84239 5.65151 4.92437 5.61857C5.00635 5.58563 5.08096 5.53672 5.14388 5.47469C5.20679 5.41266 5.25675 5.33875 5.29084 5.25724C5.32494 5.17574 5.3425 5.08827 5.3425 4.99992C5.3425 4.91157 5.32494 4.8241 5.29084 4.74259C5.25675 4.66109 5.20679 4.58717 5.14388 4.52515C5.08096 4.46312 5.00635 4.41421 4.92437 4.38127C4.84239 4.34832 4.75468 4.332 4.66634 4.33325H4.12728C5.0984 3.30704 6.47072 2.66659 7.99967 2.66659C10.953 2.66659 13.333 5.04656 13.333 7.99992C13.333 10.9533 10.953 13.3333 7.99967 13.3333C7.91133 13.332 7.82362 13.3483 7.74165 13.3813C7.65967 13.4142 7.58505 13.4631 7.52214 13.5251C7.45923 13.5872 7.40927 13.6611 7.37517 13.7426C7.34107 13.8241 7.32351 13.9116 7.32351 13.9999C7.32351 14.0883 7.34107 14.1757 7.37517 14.2572C7.40927 14.3387 7.45923 14.4127 7.52214 14.4747C7.58505 14.5367 7.65967 14.5856 7.74165 14.6186C7.82362 14.6515 7.91133 14.6678 7.99967 14.6666C11.6736 14.6666 14.6663 11.6739 14.6663 7.99992C14.6663 4.32595 11.6736 1.33325 7.99967 1.33325ZM7.98991 3.65747C7.81321 3.66006 7.64477 3.73269 7.5216 3.85941C7.39842 3.98612 7.33059 4.15655 7.33301 4.33325V4.41854C6.39391 4.61927 5.66634 5.42135 5.66634 6.41659C5.66634 7.55928 6.60698 8.49992 7.74967 8.49992H8.08301C8.59694 8.49992 8.99967 8.90265 8.99967 9.41659C8.99967 9.93052 8.59694 10.3333 8.08301 10.3333H7.66634C7.34957 10.3333 7.09532 10.1206 7.02116 9.83586C6.99993 9.75024 6.96192 9.6697 6.90933 9.59888C6.85675 9.52806 6.79063 9.46838 6.71482 9.4233C6.639 9.37821 6.555 9.34862 6.46767 9.33623C6.38033 9.32384 6.29141 9.32891 6.20605 9.35113C6.12069 9.37335 6.04059 9.41229 5.97038 9.46569C5.90018 9.5191 5.84127 9.5859 5.79706 9.66223C5.75286 9.73856 5.72424 9.8229 5.71287 9.91037C5.70149 9.99784 5.70758 10.0867 5.73079 10.1718C5.92696 10.9249 6.56215 11.4759 7.33301 11.6099V11.6666C7.33176 11.7549 7.34808 11.8426 7.38102 11.9246C7.41396 12.0066 7.46287 12.0812 7.5249 12.1441C7.58693 12.207 7.66085 12.257 7.74235 12.2911C7.82385 12.3252 7.91132 12.3427 7.99967 12.3427C8.08802 12.3427 8.17549 12.3252 8.257 12.2911C8.3385 12.257 8.41242 12.207 8.47445 12.1441C8.53648 12.0812 8.58538 12.0066 8.61833 11.9246C8.65127 11.8426 8.66759 11.7549 8.66634 11.6666V11.5474C9.61501 11.2833 10.333 10.4449 10.333 9.41659C10.333 8.18185 9.31774 7.16659 8.08301 7.16659H7.74967C7.32771 7.16659 6.99967 6.83855 6.99967 6.41659C6.99967 5.99462 7.32771 5.66659 7.74967 5.66659H8.16634C8.48074 5.66659 8.73414 5.87726 8.81022 6.15877C8.83241 6.24403 8.87128 6.32404 8.92458 6.39419C8.97788 6.46433 9.04455 6.52322 9.12074 6.56745C9.19693 6.61168 9.28113 6.64037 9.36848 6.65186C9.45582 6.66335 9.54458 6.65742 9.62962 6.63441C9.71465 6.61139 9.79429 6.57176 9.86392 6.51779C9.93355 6.46381 9.99179 6.39658 10.0353 6.31996C10.0788 6.24335 10.1066 6.15888 10.1173 6.07142C10.1279 5.98397 10.1212 5.89528 10.0973 5.81047C9.91067 5.11984 9.3551 4.5988 8.66634 4.41789V4.33325C8.66756 4.24411 8.65089 4.15564 8.61732 4.07305C8.58375 3.99047 8.53396 3.91546 8.47089 3.85245C8.40783 3.78945 8.33277 3.73973 8.25015 3.70624C8.16754 3.67275 8.07904 3.65617 7.98991 3.65747ZM1.99967 7.34627C1.62967 7.34627 1.33301 7.64627 1.33301 8.01294C1.33301 8.38294 1.63301 8.67961 1.99967 8.67961C2.36967 8.67627 2.66634 8.37968 2.66634 8.00968C2.66634 7.64302 2.36634 7.34627 1.99967 7.34627ZM2.46257 9.63924C2.376 9.63862 2.2878 9.65502 2.2028 9.69002C1.8628 9.83336 1.70277 10.2231 1.84277 10.5631C1.94944 10.8197 2.19996 10.9732 2.45996 10.9732C2.54663 10.9732 2.63314 10.9564 2.71647 10.9231C3.05647 10.7798 3.21658 10.39 3.07324 10.05C2.96824 9.79505 2.72225 9.64112 2.46257 9.63924ZM3.76204 11.5813C3.59163 11.5813 3.42163 11.6466 3.29329 11.7766C3.02996 12.0399 3.03329 12.46 3.29329 12.72C3.42329 12.85 3.59269 12.9166 3.76269 12.9166C3.93269 12.9166 4.10665 12.85 4.23665 12.72C4.49665 12.46 4.49275 12.0366 4.23275 11.7766C4.10275 11.6466 3.93246 11.5813 3.76204 11.5813ZM5.70475 12.8814C5.44366 12.8828 5.19777 13.0385 5.09277 13.2935C4.95277 13.6335 5.11605 14.0233 5.45605 14.1633C5.53939 14.1967 5.62663 14.2135 5.70996 14.2135C5.97329 14.2135 6.21983 14.06 6.3265 13.8033C6.4665 13.4633 6.30647 13.0729 5.96647 12.9296V12.9335C5.88064 12.8977 5.79178 12.881 5.70475 12.8814Z" fill="#1D931B"/>
</svg>
