<svg width="22" height="22" viewBox="0 0 22 22" fill="none" xmlns="http://www.w3.org/2000/svg">
<path d="M10.9993 3.6665C3.66602 3.6665 0.916016 10.9998 0.916016 10.9998C0.916016 10.9998 3.66602 18.3332 10.9993 18.3332C18.3327 18.3332 21.0827 10.9998 21.0827 10.9998C21.0827 10.9998 18.3327 3.6665 10.9993 3.6665ZM10.9993 5.49984C15.8357 5.49984 18.2819 9.41134 19.0739 10.9963C18.281 12.5702 15.8164 16.4998 10.9993 16.4998C6.16302 16.4998 3.7168 12.5883 2.9248 11.0034C3.71864 9.4295 6.18227 5.49984 10.9993 5.49984ZM10.9993 7.33317C8.97443 7.33317 7.33268 8.97492 7.33268 10.9998C7.33268 13.0248 8.97443 14.6665 10.9993 14.6665C13.0243 14.6665 14.666 13.0248 14.666 10.9998C14.666 8.97492 13.0243 7.33317 10.9993 7.33317ZM10.9993 9.1665C12.0123 9.1665 12.8327 9.98692 12.8327 10.9998C12.8327 12.0128 12.0123 12.8332 10.9993 12.8332C9.98643 12.8332 9.16602 12.0128 9.16602 10.9998C9.16602 9.98692 9.98643 9.1665 10.9993 9.1665Z" fill="#3E3F43"/>
</svg>
