<svg width="205" height="41" viewBox="0 0 205 41" fill="none" xmlns="http://www.w3.org/2000/svg">
<path d="M32.2773 9.34532C32.2773 8.39599 31.8554 7.55213 31.328 7.02473C30.6951 6.39184 29.8513 6.0754 29.0074 6.0754C28.0581 6.0754 27.2142 6.49732 26.6868 7.02473C26.0539 7.65762 25.7375 8.50147 25.7375 9.34532V12.6152H29.0074C29.9568 12.6152 30.8006 12.1933 31.328 11.6659C31.8554 11.1385 32.2773 10.2946 32.2773 9.34532ZM32.4883 5.86443C33.3322 6.70828 33.9651 7.97406 33.9651 9.34532C33.9651 10.7166 33.4376 11.9823 32.4883 12.8262C31.6445 13.6701 30.3787 14.3029 29.0074 14.3029H24.8937H24.0498V13.4591V9.34532C24.0498 7.97406 24.5772 6.70828 25.5265 5.86443C26.3704 5.02058 27.6362 4.3877 29.0074 4.3877C30.2732 4.3877 31.539 5.02058 32.4883 5.86443Z" fill="#A4BDDE"/>
<path d="M9.07188 6.0754C8.12255 6.0754 7.2787 6.49732 6.75129 7.02473C6.1184 7.65762 5.80196 8.50147 5.80196 9.34532C5.80196 10.2946 6.22388 11.1385 6.75129 11.6659C7.38418 12.2988 8.22803 12.6152 9.07188 12.6152H12.3418V9.34532C12.3418 8.39599 11.9199 7.55213 11.3925 7.02473C10.8651 6.39184 10.0212 6.0754 9.07188 6.0754ZM5.591 5.86443C6.43485 5.02058 7.70062 4.3877 9.07188 4.3877C10.4431 4.3877 11.7089 4.9151 12.5528 5.86443C13.3966 6.70828 14.0295 7.97406 14.0295 9.34532V13.4591V14.3029H13.1857H9.07188C7.70062 14.3029 6.43485 13.7755 5.591 12.8262C4.74715 11.9823 4.11426 10.7166 4.11426 9.34532C4.11426 7.97406 4.74715 6.81377 5.591 5.86443Z" fill="#A4BDDE"/>
<path d="M21.413 2.91145C20.7801 2.27856 19.9362 1.96212 19.0924 1.96212C18.2485 1.96212 17.4047 2.27856 16.7718 2.91145C16.1389 3.54434 15.8225 4.38819 15.8225 5.23204C15.8225 6.07589 16.1389 6.91974 16.7718 7.55263L19.0924 9.87321L21.413 7.55263C22.0459 6.91974 22.3623 6.07589 22.3623 5.23204C22.3623 4.38819 22.0459 3.54434 21.413 2.91145ZM22.4678 1.75115C23.5226 2.70048 23.9445 3.96626 23.9445 5.23204C23.9445 6.49781 23.4171 7.76359 22.4678 8.71292L19.5143 11.6664L18.9869 12.1938L18.4595 11.6664L15.506 8.71292C14.5567 7.76359 14.0293 6.49781 14.0293 5.23204C14.0293 3.96626 14.5567 2.70048 15.506 1.75115C16.4554 0.801821 17.7211 0.274414 18.9869 0.274414C20.2527 0.274414 21.5185 0.801821 22.4678 1.75115Z" fill="#A4BDDE"/>
<path d="M12.6573 14.092C12.3408 13.7755 12.3408 13.2481 12.6573 12.9317C12.9737 12.6152 13.5011 12.6152 13.8175 12.9317L19.619 18.7331C19.9355 19.0496 19.9355 19.577 19.619 19.8934C19.3026 20.2099 18.7752 20.2099 18.4587 19.8934L12.6573 14.092Z" fill="#A4BDDE"/>
<path d="M24.155 13.0371C24.4714 12.7207 24.9989 12.7207 25.3153 13.0371C25.6317 13.3536 25.6317 13.881 25.3153 14.1974L19.6193 19.8934C19.3029 20.2099 18.7755 20.2099 18.459 19.8934C18.1426 19.577 18.1426 19.0496 18.459 18.7331L24.155 13.0371Z" fill="#A4BDDE"/>
<path d="M35.4415 21.6864C36.0744 21.0535 36.3909 20.2097 36.3909 19.3658C36.3909 18.522 36.0744 17.6781 35.4415 17.0452C34.8086 16.4123 33.9648 16.0959 33.1209 16.0959C32.2771 16.0959 31.4332 16.4123 30.8004 17.0452L28.4798 19.3658L30.8004 21.6864C31.4332 22.3193 32.2771 22.6357 33.1209 22.6357C33.9648 22.6357 34.8086 22.3193 35.4415 21.6864ZM36.6018 22.7412C35.6525 23.6906 34.3867 24.218 33.1209 24.218C31.8552 24.218 30.5894 23.6906 29.6401 22.7412L26.6866 19.8932L26.1592 19.3658L26.6866 18.8384L29.6401 15.8849C30.5894 14.9356 31.8552 14.4082 33.1209 14.4082C34.3867 14.4082 35.6525 14.9356 36.6018 15.8849C37.5512 16.8343 38.0786 18.1 38.0786 19.3658C37.9731 20.5261 37.5512 21.7919 36.6018 22.7412Z" fill="#A4BDDE"/>
<path d="M29.0074 32.5518C29.9568 32.5518 30.8006 32.1298 31.328 31.6024C31.9609 30.9695 32.2773 30.1257 32.2773 29.2818C32.2773 28.3325 31.8554 27.4887 31.328 26.9613C30.6951 26.3284 29.8513 25.9064 29.0074 25.9064H25.632V29.1764C25.632 30.1257 26.0539 30.9695 26.5814 31.4969C27.2142 32.1298 28.0581 32.5518 29.0074 32.5518ZM32.4883 32.7627C31.6445 33.6066 30.3787 34.2395 29.0074 34.2395C27.6362 34.2395 26.3704 33.7121 25.5265 32.7627C24.6827 31.9189 24.0498 30.6531 24.0498 29.2818V25.1681V24.3242H24.8937H29.0074C30.3787 24.3242 31.6445 24.8516 32.4883 25.801C33.3322 26.6448 33.9651 27.9106 33.9651 29.2818C33.8596 30.5476 33.3322 31.8134 32.4883 32.7627Z" fill="#A4BDDE"/>
<path fill-rule="evenodd" clip-rule="evenodd" d="M16.1388 38.3536C17.721 39.9358 20.3581 39.9358 21.9403 38.3536C23.5225 36.7714 23.5225 34.1343 21.9403 32.5521L18.9868 29.5986L16.1388 32.4466C14.4511 34.0288 14.4511 36.6659 16.1388 38.3536Z" fill="#A4BDDE"/>
<path d="M16.6663 37.7199C17.2992 38.3527 18.1431 38.6692 18.9869 38.6692C19.8308 38.6692 20.6746 38.3527 21.3075 37.7199C21.9404 37.087 22.2568 36.2431 22.2568 35.3993C22.2568 34.5554 21.9404 33.7116 21.3075 33.0787L18.9869 30.7581L16.6663 33.0787C16.0334 33.7116 15.717 34.5554 15.717 35.3993C15.717 36.2431 16.0334 37.087 16.6663 37.7199ZM15.506 38.8802C14.5567 37.9308 14.0293 36.665 14.0293 35.3993C14.0293 34.1335 14.5567 32.8677 15.506 31.9184L18.4595 28.9649L18.9869 28.4375L19.5143 28.9649L22.4678 31.9184C23.4171 32.8677 23.9445 34.1335 23.9445 35.3993C23.9445 36.665 23.4171 37.9308 22.4678 38.8802C21.5185 39.8295 20.2527 40.3569 18.9869 40.3569C17.7211 40.3569 16.4554 39.8295 15.506 38.8802Z" fill="#A4BDDE"/>
<path d="M5.80196 29.2818C5.80196 30.2312 6.22388 31.075 6.75129 31.6024C7.38418 32.2353 8.22803 32.5518 9.07188 32.5518C10.0212 32.5518 10.8651 32.1298 11.3925 31.6024C12.0254 30.9695 12.3418 30.1257 12.3418 29.2818V25.9064H9.07188C8.12255 25.9064 7.2787 26.3284 6.75129 26.8558C6.1184 27.4887 5.80196 28.3325 5.80196 29.2818ZM5.591 32.7627C4.74715 31.9189 4.11426 30.6531 4.11426 29.2818C4.11426 27.9106 4.64166 26.6448 5.591 25.801C6.43485 24.9571 7.70062 24.3242 9.07188 24.3242H13.1857H14.0295V25.1681V29.2818C14.0295 30.6531 13.5021 31.9189 12.5528 32.7627C11.7089 33.6066 10.4431 34.2395 9.07188 34.2395C7.70062 34.134 6.54033 33.6066 5.591 32.7627Z" fill="#A4BDDE"/>
<path d="M2.63703 16.9398C2.00415 17.5727 1.6877 18.4165 1.6877 19.2604C1.6877 20.1042 2.00415 20.9481 2.63703 21.5809C3.26992 22.2138 4.11377 22.5303 4.95762 22.5303C5.80147 22.5303 6.64532 22.2138 7.27821 21.5809L9.5988 19.2604L7.27821 16.9398C6.64532 16.3069 5.80147 15.9904 4.95762 15.9904C4.11377 15.9904 3.26992 16.3069 2.63703 16.9398ZM1.47674 15.7795C2.42607 14.8301 3.69185 14.3027 4.95762 14.3027C6.2234 14.3027 7.48917 14.8301 8.43851 15.7795L11.392 18.733L11.9194 19.2604L11.392 19.7878L8.43851 22.7412C7.48917 23.6906 6.2234 24.218 4.95762 24.218C3.69185 24.218 2.42607 23.7961 1.47674 22.7412C0.527407 21.7919 0 20.5261 0 19.2604C0 17.9946 0.527407 16.7288 1.47674 15.7795Z" fill="#A4BDDE"/>
<path d="M10.7589 20.1057C10.337 20.1057 9.91504 19.7892 9.91504 19.2618C9.91504 18.8399 10.2315 18.418 10.7589 18.418H18.9864C19.4084 18.418 19.8303 18.7344 19.8303 19.2618C19.8303 19.6837 19.5138 20.1057 18.9864 20.1057H10.7589Z" fill="#A4BDDE"/>
<path d="M13.6066 25.8017C13.2902 26.1181 12.7628 26.1181 12.4463 25.8017C12.1299 25.4852 12.1299 24.9578 12.4463 24.6414L18.3533 18.7344C18.6697 18.418 19.1971 18.418 19.5136 18.7344C19.83 19.0508 19.83 19.5783 19.5136 19.8947L13.6066 25.8017Z" fill="#A4BDDE"/>
<path d="M25.6317 24.7468C25.9482 25.0633 25.9482 25.5907 25.6317 25.9071C25.3153 26.2236 24.7879 26.2236 24.4714 25.9071L18.459 19.8947C18.1426 19.5783 18.1426 19.0508 18.459 18.7344C18.7755 18.418 19.3029 18.418 19.6193 18.7344L25.6317 24.7468Z" fill="#A4BDDE"/>
<path d="M27.214 18.5234C27.6359 18.5234 28.0578 18.8399 28.0578 19.3673C28.0578 19.7892 27.7414 20.2111 27.214 20.2111H18.9864C18.5645 20.2111 18.1426 19.8947 18.1426 19.3673C18.1426 18.9454 18.459 18.5234 18.9864 18.5234H27.214Z" fill="#A4BDDE"/>
<path d="M18.248 11.0333C18.248 10.6114 18.5645 10.1895 19.0919 10.1895C19.5138 10.1895 19.9357 10.5059 19.9357 11.0333V19.2608C19.9357 19.6828 19.6193 20.1047 19.0919 20.1047C18.67 20.1047 18.248 19.7883 18.248 19.2608V11.0333Z" fill="#A4BDDE"/>
<path fill-rule="evenodd" clip-rule="evenodd" d="M18.9869 14.6201C21.5184 14.6201 23.6281 16.7297 23.6281 19.2613C23.6281 21.7928 21.5184 23.9025 18.9869 23.9025C16.4553 23.9025 14.3457 21.7928 14.3457 19.2613C14.3457 16.7297 16.4553 14.6201 18.9869 14.6201Z" fill="#4A5C76"/>
<path d="M18.987 13.7764C20.4637 13.7764 21.835 14.4093 22.8898 15.3586C23.8391 16.3079 24.472 17.6792 24.472 19.2614C24.472 20.7381 23.8391 22.1094 22.8898 23.1642C21.9405 24.1135 20.5692 24.7464 18.987 24.7464C17.5102 24.7464 16.139 24.1135 15.0842 23.1642C14.1348 22.2149 13.502 20.8436 13.502 19.2614C13.502 17.7847 14.1348 16.4134 15.0842 15.3586C16.139 14.4093 17.5102 13.7764 18.987 13.7764ZM21.7295 16.6244C20.9911 15.886 20.0418 15.4641 18.987 15.4641C17.9322 15.4641 16.9828 15.886 16.2445 16.6244C15.5061 17.3627 15.0842 18.3121 15.0842 19.3669C15.0842 20.4217 15.5061 21.371 16.2445 22.1094C16.9828 22.8478 17.9322 23.2697 18.987 23.2697C20.0418 23.2697 20.9911 22.8478 21.7295 22.1094C22.4679 21.371 22.8898 20.4217 22.8898 19.3669C22.8898 18.2066 22.4679 17.2573 21.7295 16.6244Z" fill="#A4BDDE"/>
<path d="M69.8113 21.7567H67.8066V27.299H64.6817V21.7567H62.6378L59.5522 27.299H55.877L60.0042 20.1058L56.1324 13.5415H59.4932L62.5788 19.1035H64.6817V13.5415H67.8066V19.1035H69.8506L72.9559 13.5415H76.3166L72.4645 20.1058L76.5721 27.299H72.8969L69.8113 21.7567Z" fill="#A4BDDE"/>
<path d="M78.098 13.5415H81.2623V22.5035L87.8265 13.5415H90.8139V27.299H87.6693V18.3566L81.105 27.299H78.098V13.5415Z" fill="#A4BDDE"/>
<path d="M103.771 20.1254C104.61 20.3744 105.252 20.7806 105.697 21.344C106.143 21.9074 106.365 22.6018 106.365 23.4272C106.365 24.6458 105.9 25.5957 104.97 26.277C104.053 26.9583 102.736 27.299 101.02 27.299H94.2393V13.5415H100.646C102.245 13.5415 103.49 13.8494 104.38 14.4652C105.271 15.081 105.717 15.9589 105.717 17.0988C105.717 17.7801 105.547 18.3828 105.206 18.9069C104.865 19.4179 104.387 19.8241 103.771 20.1254ZM97.4035 19.241H100.371C101.066 19.241 101.59 19.1035 101.943 18.8283C102.297 18.5401 102.474 18.1208 102.474 17.5705C102.474 17.0333 102.291 16.6206 101.924 16.3323C101.57 16.0441 101.052 15.8999 100.371 15.8999H97.4035V19.241ZM100.902 24.9406C102.395 24.9406 103.142 24.3509 103.142 23.1717C103.142 22.0318 102.395 21.4619 100.902 21.4619H97.4035V24.9406H100.902Z" fill="#A4BDDE"/>
<path d="M118.199 24.351H111.812L110.593 27.299H107.331L113.463 13.5415H116.607L122.759 27.299H119.418L118.199 24.351ZM117.197 21.9336L115.015 16.6664L112.834 21.9336H117.197Z" fill="#A4BDDE"/>
<path d="M134.859 13.5415V27.299H131.715V23.6434H128.806L126.369 27.299H123.008L125.878 23.1521C124.947 22.7721 124.233 22.2022 123.736 21.4422C123.238 20.6692 122.989 19.7455 122.989 18.6711C122.989 17.6098 123.231 16.6992 123.716 15.9392C124.201 15.1662 124.889 14.5766 125.779 14.1704C126.67 13.7511 127.719 13.5415 128.924 13.5415H134.859ZM129.003 16.1358C128.099 16.1358 127.404 16.3454 126.919 16.7647C126.448 17.184 126.212 17.8063 126.212 18.6318C126.212 19.431 126.441 20.0468 126.9 20.4792C127.358 20.9116 128.033 21.1278 128.924 21.1278H131.715V16.1358H129.003Z" fill="#A4BDDE"/>
<path d="M153.404 20.1254C154.243 20.3744 154.885 20.7806 155.33 21.344C155.776 21.9074 155.998 22.6018 155.998 23.4272C155.998 24.6458 155.533 25.5957 154.603 26.277C153.686 26.9583 152.369 27.299 150.653 27.299H143.872V13.5415H150.279C151.878 13.5415 153.122 13.8494 154.013 14.4652C154.904 15.081 155.35 15.9589 155.35 17.0988C155.35 17.7801 155.179 18.3828 154.839 18.9069C154.498 19.4179 154.02 19.8241 153.404 20.1254ZM147.036 19.241H150.004C150.698 19.241 151.223 19.1035 151.576 18.8283C151.93 18.5401 152.107 18.1208 152.107 17.5705C152.107 17.0333 151.924 16.6206 151.557 16.3323C151.203 16.0441 150.685 15.8999 150.004 15.8999H147.036V19.241ZM150.535 24.9406C152.028 24.9406 152.775 24.3509 152.775 23.1717C152.775 22.0318 152.028 21.4619 150.535 21.4619H147.036V24.9406H150.535Z" fill="#A4BDDE"/>
<path d="M165.081 27.5348C163.652 27.5348 162.362 27.2269 161.209 26.6111C160.069 25.9953 159.171 25.1502 158.516 24.0758C157.874 22.9883 157.553 21.7698 157.553 20.4202C157.553 19.0707 157.874 17.8587 158.516 16.7843C159.171 15.6968 160.069 14.8452 161.209 14.2294C162.362 13.6136 163.652 13.3057 165.081 13.3057C166.509 13.3057 167.793 13.6136 168.933 14.2294C170.073 14.8452 170.97 15.6968 171.625 16.7843C172.28 17.8587 172.608 19.0707 172.608 20.4202C172.608 21.7698 172.28 22.9883 171.625 24.0758C170.97 25.1502 170.073 25.9953 168.933 26.6111C167.793 27.2269 166.509 27.5348 165.081 27.5348ZM165.081 24.8226C165.893 24.8226 166.627 24.6392 167.282 24.2723C167.937 23.8924 168.448 23.3683 168.815 22.7001C169.195 22.0318 169.385 21.2719 169.385 20.4202C169.385 19.5686 169.195 18.8087 168.815 18.1404C168.448 17.4722 167.937 16.9547 167.282 16.5878C166.627 16.2078 165.893 16.0179 165.081 16.0179C164.268 16.0179 163.534 16.2078 162.879 16.5878C162.224 16.9547 161.707 17.4722 161.327 18.1404C160.96 18.8087 160.776 19.5686 160.776 20.4202C160.776 21.2719 160.96 22.0318 161.327 22.7001C161.707 23.3683 162.224 23.8924 162.879 24.2723C163.534 24.6392 164.268 24.8226 165.081 24.8226Z" fill="#A4BDDE"/>
<path d="M188.867 24.7047V30.1487H185.919V27.299H176.21V30.1487H173.262L173.281 24.7047H173.832C174.657 24.6785 175.24 24.0758 175.581 22.8966C175.921 21.7174 176.131 20.0337 176.21 17.8456L176.367 13.5415H186.941V24.7047H188.867ZM179.02 18.1404C178.955 19.7782 178.817 21.154 178.607 22.2677C178.398 23.3683 178.077 24.1806 177.644 24.7047H183.796V16.1358H179.079L179.02 18.1404Z" fill="#A4BDDE"/>
<path d="M200.441 24.351H194.053L192.835 27.299H189.572L195.704 13.5415H198.849L205 27.299H201.659L200.441 24.351ZM199.438 21.9336L197.257 16.6664L195.075 21.9336H199.438Z" fill="#A4BDDE"/>
</svg>
