<svg width="22" height="22" viewBox="0 0 22 22" fill="none" xmlns="http://www.w3.org/2000/svg">
<path d="M19.7556 6.37996C19.5803 5.4123 18.745 4.70762 17.7756 4.48762C16.325 4.17996 13.6403 3.95996 10.7356 3.95996C7.83266 3.95996 5.105 4.17996 3.65266 4.48762C2.685 4.70762 1.84797 5.36762 1.67266 6.37996C1.49563 7.47996 1.32031 9.01996 1.32031 11C1.32031 12.98 1.49563 14.52 1.71563 15.62C1.89266 16.5876 2.72797 17.2923 3.69563 17.5123C5.23563 17.82 7.87563 18.04 10.7803 18.04C13.685 18.04 16.325 17.82 17.865 17.5123C18.8327 17.2923 19.668 16.6323 19.845 15.62C20.0203 14.52 20.2403 12.9353 20.285 11C20.1956 9.01996 19.9756 7.47996 19.7556 6.37996ZM8.36031 14.08V7.91996L13.728 11L8.36031 14.08Z" fill="#A4BDDE"/>
</svg>
