<svg width="22" height="22" viewBox="0 0 22 22" fill="none" xmlns="http://www.w3.org/2000/svg">
<path d="M20.9742 16.1338C20.1506 14.6516 18.029 12.8705 17.1531 12.0954C16.9134 11.8832 16.8877 11.5161 17.1059 11.2814C18.7774 9.48523 20.1144 7.42136 20.5746 6.17423C20.7776 5.62332 20.3573 5.04123 19.7651 5.04123H18.045C17.4781 5.04123 17.1462 5.24473 16.9881 5.56878C15.5989 8.41548 14.4072 9.64748 13.5731 10.3675C13.106 10.7709 12.3777 10.4367 12.3777 9.82303C12.3777 8.64053 12.3777 7.11198 12.3777 6.02803C12.3777 5.50232 11.9478 5.07698 11.4175 5.07698L8.27519 5.04123C7.87965 5.04123 7.65369 5.48903 7.8911 5.80298L8.40994 6.54778C8.60519 6.80582 8.7106 7.11978 8.7106 7.44198L8.70785 10.7961C8.70785 11.3795 8.00065 11.6646 7.58081 11.2558C6.16044 9.87253 4.92798 7.04782 4.48431 5.69711C4.35598 5.30615 3.98977 5.04215 3.57452 5.04123L1.88006 5.03711C1.24435 5.03711 0.779605 5.63982 0.952396 6.24665C2.50065 11.6811 5.67735 16.8511 11.3387 17.4117C11.8965 17.4667 12.3777 17.0175 12.3777 16.4615V14.6988C12.3777 14.1932 12.7742 13.7587 13.2839 13.7459C13.3017 13.7454 13.3196 13.7454 13.3375 13.7454C14.8349 13.7454 16.5119 15.9248 17.0986 16.9442C17.2672 17.2375 17.5826 17.4162 17.9236 17.4162H20.2029C20.8679 17.4162 21.2946 16.7109 20.9742 16.1338Z" fill="#A4BDDE"/>
</svg>
