<svg width="22" height="22" viewBox="0 0 22 22" fill="none" xmlns="http://www.w3.org/2000/svg">
<path d="M18.6108 2.73588C18.346 2.7474 18.1029 2.82358 17.8893 2.90775C17.692 2.98545 16.9836 3.28322 15.8555 3.75639C14.7274 4.22955 13.2325 4.85692 11.6392 5.52706C8.45244 6.86734 4.87138 8.37498 3.03646 9.14717C2.97345 9.17343 2.71754 9.25177 2.4349 9.46765C2.1516 9.68403 1.83691 10.1536 1.83691 10.6672C1.83691 11.0815 2.04373 11.5034 2.29346 11.745C2.54319 11.9866 2.79628 12.0995 3.00781 12.1836C3.62665 12.4301 5.53895 13.1938 6.37012 13.5264C6.66129 14.399 7.34518 16.4544 7.50521 16.9603H7.50342C7.6336 17.3721 7.76048 17.6405 7.93669 17.8645C8.02479 17.9765 8.12995 18.078 8.25895 18.1581C8.30845 18.1888 8.36325 18.2127 8.41829 18.2351C8.42597 18.2383 8.43387 18.2391 8.44157 18.2422L8.42008 18.2369C8.43604 18.2433 8.45037 18.2527 8.46663 18.2583C8.49314 18.2675 8.51151 18.2672 8.5472 18.2745C8.67279 18.3131 8.79815 18.3389 8.91423 18.3389C9.41254 18.3389 9.7181 18.0686 9.7181 18.0686L9.73779 18.0542L11.8898 16.2334L14.5252 18.6701C14.5724 18.7367 14.9492 19.2484 15.8232 19.2484C16.344 19.2484 16.7576 18.9924 17.021 18.722C17.2844 18.4517 17.4485 18.175 17.5223 17.8V17.7964V17.7946C17.5735 17.5285 20.104 4.82702 20.104 4.82702L20.0986 4.84851C20.1772 4.49803 20.2003 4.15908 20.1076 3.81368C20.0148 3.46827 19.7645 3.13119 19.4631 2.9543C19.1616 2.77741 18.8757 2.72435 18.6108 2.73588ZM18.2492 4.74288C18.1498 5.24191 15.8979 16.5552 15.7516 17.3059L13.1341 14.8871C12.4594 14.2633 11.4073 14.2414 10.7064 14.8334L9.37077 15.9631L10.0833 13.1773C10.0833 13.1773 14.999 8.20149 15.2951 7.91182C15.5334 7.6799 15.5833 7.59861 15.5833 7.51794C15.5833 7.41069 15.5281 7.33353 15.4007 7.33353C15.2861 7.33353 15.1305 7.44333 15.048 7.49467C13.9952 8.15103 9.48762 10.7199 7.30469 11.9616C7.22269 11.9125 7.14204 11.8616 7.05225 11.8256C6.33598 11.5389 4.95928 10.987 4.15365 10.6654C6.05506 9.86516 9.31439 8.49386 12.3499 7.21716C13.943 6.54713 15.4374 5.91921 16.5645 5.44649C17.5158 5.04746 18.0121 4.84085 18.2492 4.74288ZM15.723 17.4384H15.7248C15.7247 17.4386 15.7231 17.4452 15.723 17.4455C15.7245 17.4377 15.7219 17.444 15.723 17.4384Z" fill="#A4BDDE"/>
</svg>
