<svg width="42" height="42" viewBox="0 0 42 42" fill="none" xmlns="http://www.w3.org/2000/svg">
<path d="M42 21C42 32.598 32.598 42 21 42C9.40202 42 0 32.598 0 21C0 9.40202 9.40202 0 21 0C32.598 0 42 9.40202 42 21Z" fill="#64BC2A"/>
<path fill-rule="evenodd" clip-rule="evenodd" d="M30.6137 13.8844C30.6137 12.3791 29.3173 11.2159 27.8049 11.2159C26.2204 11.2159 24.9961 12.4475 24.9961 13.8844V16.5528H27.8049C29.3173 16.5528 30.6137 15.3896 30.6137 13.8844Z" fill="white"/>
<path d="M30.0385 13.8843C30.0385 13.2685 29.7504 12.7211 29.3903 12.379C28.9582 11.9685 28.382 11.7633 27.8059 11.7633C27.1577 11.7633 26.5815 12.0369 26.2214 12.379C25.7893 12.7896 25.5732 13.3369 25.5732 13.8843V16.0053H27.8059C28.4541 16.0053 29.0302 15.7317 29.3903 15.3896C29.7504 15.0475 30.0385 14.5001 30.0385 13.8843ZM30.1825 11.6264C30.7587 12.1738 31.1908 12.9948 31.1908 13.8843C31.1908 14.7738 30.8307 15.5948 30.1825 16.1422C29.6064 16.6896 28.7421 17.1001 27.8059 17.1001H24.9971H24.4209V16.5527V13.8843C24.4209 12.9948 24.781 12.1738 25.4292 11.6264C26.0054 11.079 26.8696 10.6685 27.8059 10.6685C28.6701 10.6685 29.5344 11.079 30.1825 11.6264Z" fill="#24324A"/>
<path fill-rule="evenodd" clip-rule="evenodd" d="M14.1936 11.2159C12.6091 11.2159 11.3848 12.4475 11.3848 13.8844C11.3848 15.3896 12.6811 16.5528 14.1936 16.5528H17.0024V13.8844C17.0024 12.4475 15.778 11.2159 14.1936 11.2159Z" fill="white"/>
<path d="M14.1936 11.7633C13.5454 11.7633 12.9692 12.0369 12.6091 12.379C12.177 12.7896 11.9609 13.3369 11.9609 13.8843C11.9609 14.5001 12.249 15.0475 12.6091 15.3896C13.0412 15.8001 13.6174 16.0053 14.1936 16.0053H16.4262V13.8843C16.4262 13.2685 16.1381 12.7211 15.778 12.379C15.4179 11.9685 14.8418 11.7633 14.1936 11.7633ZM11.8169 11.6264C12.393 11.079 13.2573 10.6685 14.1936 10.6685C15.1298 10.6685 15.9941 11.0106 16.5702 11.6264C17.1464 12.1738 17.5785 12.9948 17.5785 13.8843V16.5527V17.1001H17.0024H14.1936C13.2573 17.1001 12.393 16.758 11.8169 16.1422C11.2407 15.5948 10.8086 14.7738 10.8086 13.8843C10.8086 12.9948 11.2407 12.2422 11.8169 11.6264Z" fill="#24324A"/>
<path fill-rule="evenodd" clip-rule="evenodd" d="M22.9823 9.36843C21.902 8.34212 20.1015 8.34212 19.0212 9.36843C17.9409 10.3947 17.9409 12.1053 19.0212 13.1316L21.0378 15.0474L23.0543 13.1316C24.0626 12.1053 24.0626 10.3947 22.9823 9.36843Z" fill="white"/>
<path d="M22.6186 9.71052C22.1865 9.3 21.6103 9.09473 21.0341 9.09473C20.458 9.09473 19.8818 9.3 19.4497 9.71052C19.0176 10.121 18.8015 10.6684 18.8015 11.2158C18.8015 11.7631 19.0176 12.3105 19.4497 12.721L21.0341 14.2263L22.6186 12.721C23.0507 12.3105 23.2668 11.7631 23.2668 11.2158C23.2668 10.6684 23.0507 10.121 22.6186 9.71052ZM23.3388 8.95789C24.059 9.57368 24.3471 10.3947 24.3471 11.2158C24.3471 12.0368 23.987 12.8579 23.3388 13.4737L21.3222 15.3895L20.9621 15.7316L20.602 15.3895L18.5854 13.4737C17.9373 12.8579 17.5771 12.0368 17.5771 11.2158C17.5771 10.3947 17.9373 9.57368 18.5854 8.95789C19.2336 8.3421 20.0979 8 20.9621 8C21.8264 8 22.6906 8.3421 23.3388 8.95789Z" fill="#24324A"/>
<path d="M16.6425 16.9632C16.4265 16.7579 16.4265 16.4158 16.6425 16.2105C16.8586 16.0053 17.2187 16.0053 17.4347 16.2105L21.3959 19.9737C21.6119 20.1789 21.6119 20.521 21.3959 20.7263C21.1798 20.9316 20.8197 20.9316 20.6037 20.7263L16.6425 16.9632Z" fill="#24324A"/>
<path d="M24.4926 16.2788C24.7086 16.0736 25.0687 16.0736 25.2848 16.2788C25.5009 16.4841 25.5009 16.8262 25.2848 17.0315L21.3957 20.7262C21.1796 20.9314 20.8195 20.9314 20.6035 20.7262C20.3874 20.5209 20.3874 20.1788 20.6035 19.9736L24.4926 16.2788Z" fill="#24324A"/>
<path fill-rule="evenodd" clip-rule="evenodd" d="M32.5597 22.2317C33.64 21.2054 33.64 19.4948 32.5597 18.4685C31.4794 17.4422 29.6789 17.4422 28.5986 18.4685L26.582 20.3843L28.5986 22.3001C29.6789 23.258 31.4794 23.258 32.5597 22.2317Z" fill="white"/>
<path d="M32.1992 21.8895C32.6313 21.479 32.8473 20.9316 32.8473 20.3842C32.8473 19.8369 32.6313 19.2895 32.1992 18.879C31.767 18.4685 31.1909 18.2632 30.6147 18.2632C30.0385 18.2632 29.4624 18.4685 29.0302 18.879L27.4458 20.3842L29.0302 21.8895C29.4624 22.3 30.0385 22.5053 30.6147 22.5053C31.1909 22.5053 31.767 22.3 32.1992 21.8895ZM32.9914 22.5737C32.3432 23.1895 31.4789 23.5316 30.6147 23.5316C29.7504 23.5316 28.8862 23.1895 28.238 22.5737L26.2214 20.7263L25.8613 20.3842L26.2214 20.0421L28.238 18.1263C28.8862 17.5106 29.7504 17.1685 30.6147 17.1685C31.4789 17.1685 32.3432 17.5106 32.9914 18.1263C33.6396 18.7421 33.9997 19.5632 33.9997 20.3842C33.9277 21.1369 33.6396 21.9579 32.9914 22.5737Z" fill="#24324A"/>
<path fill-rule="evenodd" clip-rule="evenodd" d="M27.8058 29.4842C29.3903 29.4842 30.6146 28.2527 30.6146 26.8158C30.6146 25.3106 29.3183 24.1474 27.8058 24.1474H24.997V26.8158C24.925 28.2527 26.2214 29.4842 27.8058 29.4842Z" fill="white"/>
<path d="M27.8059 28.9369C28.4541 28.9369 29.0302 28.6632 29.3903 28.3211C29.8224 27.9106 30.0385 27.3632 30.0385 26.8159C30.0385 26.2001 29.7504 25.6527 29.3903 25.3106C28.9582 24.9001 28.382 24.6264 27.8059 24.6264H25.5012V26.7475C25.5012 27.3632 25.7893 27.9106 26.1494 28.2527C26.5815 28.6632 27.1577 28.9369 27.8059 28.9369ZM30.1825 29.0738C29.6064 29.6211 28.7421 30.0316 27.8059 30.0316C26.8696 30.0316 26.0054 29.6895 25.4292 29.0738C24.853 28.5264 24.4209 27.7053 24.4209 26.8159V24.1475V23.6001H24.9971H27.8059C28.7421 23.6001 29.6064 23.9422 30.1825 24.558C30.7587 25.1054 31.1908 25.9264 31.1908 26.8159C31.1188 27.6369 30.7587 28.458 30.1825 29.0738Z" fill="#24324A"/>
<path fill-rule="evenodd" clip-rule="evenodd" d="M19.0195 32.7C20.0998 33.7264 21.9003 33.7264 22.9807 32.7C24.061 31.6737 24.061 29.9632 22.9807 28.9369L20.9641 27.0211L19.0195 28.8685C17.8672 29.8948 17.8672 31.6053 19.0195 32.7Z" fill="#45C4FF"/>
<path d="M19.3777 32.2895C19.8098 32.7 20.386 32.9052 20.9621 32.9052C21.5383 32.9052 22.1145 32.7 22.5466 32.2895C22.9787 31.8789 23.1948 31.3316 23.1948 30.7842C23.1948 30.2368 22.9787 29.6895 22.5466 29.2789L20.9621 27.7737L19.3777 29.2789C18.9455 29.6895 18.7295 30.2368 18.7295 30.7842C18.7295 31.3316 18.9455 31.8789 19.3777 32.2895ZM18.5854 33.0421C17.9373 32.4263 17.5771 31.6053 17.5771 30.7842C17.5771 29.9632 17.9373 29.1421 18.5854 28.5263L20.602 26.6105L20.9621 26.2684L21.3222 26.6105L23.3388 28.5263C23.987 29.1421 24.3471 29.9632 24.3471 30.7842C24.3471 31.6053 23.987 32.4263 23.3388 33.0421C22.6906 33.6579 21.8264 34 20.9621 34C20.0979 34 19.2336 33.6579 18.5854 33.0421Z" fill="#24324A"/>
<path fill-rule="evenodd" clip-rule="evenodd" d="M11.3848 26.8157C11.3848 28.321 12.6811 29.4841 14.1936 29.4841C15.778 29.4841 17.0024 28.2526 17.0024 26.8157V24.1473H14.1936C12.6811 24.0789 11.3848 25.3105 11.3848 26.8157Z" fill="white"/>
<path d="M11.9609 26.8159C11.9609 27.4317 12.249 27.979 12.6091 28.3211C13.0412 28.7317 13.6174 28.9369 14.1936 28.9369C14.8418 28.9369 15.4179 28.6632 15.778 28.3211C16.2101 27.9106 16.4262 27.3632 16.4262 26.8159V24.6264H14.1936C13.5454 24.6264 12.9692 24.9001 12.6091 25.2422C12.177 25.6527 11.9609 26.2001 11.9609 26.8159ZM11.8169 29.0738C11.2407 28.5264 10.8086 27.7053 10.8086 26.8159C10.8086 25.9264 11.1687 25.1054 11.8169 24.558C12.393 24.0106 13.2573 23.6001 14.1936 23.6001H17.0024H17.5785V24.1475V26.8159C17.5785 27.7053 17.2184 28.5264 16.5702 29.0738C15.9941 29.6211 15.1298 30.0316 14.1936 30.0316C13.2573 29.9632 12.4651 29.6211 11.8169 29.0738Z" fill="#24324A"/>
<path fill-rule="evenodd" clip-rule="evenodd" d="M9.44012 18.4686C8.3598 19.4949 8.3598 21.2055 9.44012 22.2318C10.5204 23.2581 12.3209 23.2581 13.4013 22.2318L15.4178 20.316L13.4013 18.4686C12.3209 17.3739 10.5204 17.3739 9.44012 18.4686Z" fill="white"/>
<path d="M9.80052 18.8106C9.36839 19.2211 9.15233 19.7684 9.15233 20.3158C9.15233 20.8632 9.36839 21.4105 9.80052 21.8211C10.2326 22.2316 10.8088 22.4369 11.385 22.4369C11.9611 22.4369 12.5373 22.2316 12.9694 21.8211L14.5539 20.3158L12.9694 18.8106C12.5373 18.4 11.9611 18.1948 11.385 18.1948C10.8088 18.1948 10.2326 18.4 9.80052 18.8106ZM9.00829 18.0579C9.65648 17.4421 10.5207 17.1 11.385 17.1C12.2492 17.1 13.1135 17.4421 13.7617 18.0579L15.7782 19.9737L16.1383 20.3158L15.7782 20.6579L13.7617 22.5737C13.1135 23.1895 12.2492 23.5316 11.385 23.5316C10.5207 23.5316 9.65648 23.2579 9.00829 22.5737C8.3601 21.9579 8 21.1369 8 20.3158C8 19.4948 8.3601 18.6737 9.00829 18.0579Z" fill="#24324A"/>
<path d="M15.3467 20.8632C15.0586 20.8632 14.7705 20.658 14.7705 20.3159C14.7705 20.0422 14.9866 19.7685 15.3467 19.7685H20.9643C21.2524 19.7685 21.5405 19.9738 21.5405 20.3159C21.5405 20.5895 21.3244 20.8632 20.9643 20.8632H15.3467Z" fill="#24324A"/>
<path d="M17.2902 24.558C17.0741 24.7633 16.714 24.7633 16.498 24.558C16.2819 24.3528 16.2819 24.0107 16.498 23.8054L20.5311 19.9738C20.7472 19.7686 21.1073 19.7686 21.3234 19.9738C21.5394 20.1791 21.5394 20.5212 21.3234 20.7265L17.2902 24.558Z" fill="#24324A"/>
<path d="M25.5009 23.8738C25.7169 24.0791 25.7169 24.4212 25.5009 24.6264C25.2848 24.8317 24.9247 24.8317 24.7086 24.6264L20.6035 20.7265C20.3874 20.5212 20.3874 20.1791 20.6035 19.9738C20.8195 19.7686 21.1796 19.7686 21.3957 19.9738L25.5009 23.8738Z" fill="#24324A"/>
<path d="M26.5825 19.8368C26.8705 19.8368 27.1586 20.0421 27.1586 20.3842C27.1586 20.6578 26.9426 20.9315 26.5825 20.9315H20.9648C20.6768 20.9315 20.3887 20.7263 20.3887 20.3842C20.3887 20.1105 20.6047 19.8368 20.9648 19.8368H26.5825Z" fill="#24324A"/>
<path d="M20.4609 14.979C20.4609 14.7053 20.677 14.4316 21.0371 14.4316C21.3252 14.4316 21.6133 14.6369 21.6133 14.979V20.3158C21.6133 20.5895 21.3972 20.8632 21.0371 20.8632C20.749 20.8632 20.4609 20.6579 20.4609 20.3158V14.979Z" fill="#24324A"/>
<path fill-rule="evenodd" clip-rule="evenodd" d="M20.9648 17.3053C22.6933 17.3053 24.1337 18.6737 24.1337 20.3158C24.1337 21.9579 22.6933 23.3263 20.9648 23.3263C19.2363 23.3263 17.7959 21.9579 17.7959 20.3158C17.7959 18.6737 19.2363 17.3053 20.9648 17.3053Z" fill="#FFC300"/>
<path d="M20.9629 16.7579C21.9711 16.7579 22.9074 17.1684 23.6276 17.7842C24.2758 18.4 24.7079 19.2894 24.7079 20.3158C24.7079 21.2737 24.2758 22.1631 23.6276 22.8473C22.9794 23.4631 22.0432 23.8736 20.9629 23.8736C19.9546 23.8736 19.0183 23.4631 18.2981 22.8473C17.6499 22.2315 17.2178 21.3421 17.2178 20.3158C17.2178 19.3579 17.6499 18.4684 18.2981 17.7842C19.0183 17.1684 19.9546 16.7579 20.9629 16.7579ZM22.8354 18.6052C22.3312 18.1263 21.6831 17.8526 20.9629 17.8526C20.2426 17.8526 19.5945 18.1263 19.0903 18.6052C18.5862 19.0842 18.2981 19.7 18.2981 20.3842C18.2981 21.0684 18.5862 21.6842 19.0903 22.1631C19.5945 22.6421 20.2426 22.9158 20.9629 22.9158C21.6831 22.9158 22.3312 22.6421 22.8354 22.1631C23.3395 21.6842 23.6276 21.0684 23.6276 20.3842C23.6276 19.6315 23.3395 19.0158 22.8354 18.6052Z" fill="#24324A"/>
</svg>
