<svg width="22" height="22" viewBox="0 0 22 22" fill="none" xmlns="http://www.w3.org/2000/svg">
<path d="M4.8125 2.75C3.68156 2.75 2.75 3.68156 2.75 4.8125V8.47917C2.75 9.6101 3.68156 10.5417 4.8125 10.5417H8.47917C9.6101 10.5417 10.5417 9.6101 10.5417 8.47917V4.8125C10.5417 3.68156 9.6101 2.75 8.47917 2.75H4.8125ZM13.5208 2.75C12.3899 2.75 11.4583 3.68156 11.4583 4.8125V8.47917C11.4583 9.6101 12.3899 10.5417 13.5208 10.5417H17.1875C18.3184 10.5417 19.25 9.6101 19.25 8.47917V4.8125C19.25 3.68156 18.3184 2.75 17.1875 2.75H13.5208ZM4.8125 4.125H8.47917C8.86715 4.125 9.16667 4.42452 9.16667 4.8125V8.47917C9.16667 8.86715 8.86715 9.16667 8.47917 9.16667H4.8125C4.42452 9.16667 4.125 8.86715 4.125 8.47917V4.8125C4.125 4.42452 4.42452 4.125 4.8125 4.125ZM13.5208 4.125H17.1875C17.5755 4.125 17.875 4.42452 17.875 4.8125V8.47917C17.875 8.86715 17.5755 9.16667 17.1875 9.16667H13.5208C13.1329 9.16667 12.8333 8.86715 12.8333 8.47917V4.8125C12.8333 4.42452 13.1329 4.125 13.5208 4.125ZM4.8125 11.4583C3.68156 11.4583 2.75 12.3899 2.75 13.5208V17.1875C2.75 18.3184 3.68156 19.25 4.8125 19.25H8.47917C9.6101 19.25 10.5417 18.3184 10.5417 17.1875V13.5208C10.5417 12.3899 9.6101 11.4583 8.47917 11.4583H4.8125ZM13.5208 11.4583C12.3899 11.4583 11.4583 12.3899 11.4583 13.5208V17.1875C11.4583 18.3184 12.3899 19.25 13.5208 19.25H17.1875C18.3184 19.25 19.25 18.3184 19.25 17.1875V13.5208C19.25 12.3899 18.3184 11.4583 17.1875 11.4583H13.5208ZM4.8125 12.8333H8.47917C8.86715 12.8333 9.16667 13.1329 9.16667 13.5208V17.1875C9.16667 17.5755 8.86715 17.875 8.47917 17.875H4.8125C4.42452 17.875 4.125 17.5755 4.125 17.1875V13.5208C4.125 13.1329 4.42452 12.8333 4.8125 12.8333ZM13.5208 12.8333H17.1875C17.5755 12.8333 17.875 13.1329 17.875 13.5208V17.1875C17.875 17.5755 17.5755 17.875 17.1875 17.875H13.5208C13.1329 17.875 12.8333 17.5755 12.8333 17.1875V13.5208C12.8333 13.1329 13.1329 12.8333 13.5208 12.8333Z" fill="#64BC2A"/>
</svg>
