<svg width="22" height="22" viewBox="0 0 22 22" fill="none" xmlns="http://www.w3.org/2000/svg">
<path d="M1.60452 2.75001C1.51342 2.74872 1.42297 2.76555 1.33843 2.79952C1.25389 2.83349 1.17694 2.88393 1.11206 2.9479C1.04718 3.01187 0.995663 3.08809 0.960499 3.17214C0.925335 3.25619 0.907227 3.3464 0.907227 3.43751C0.907227 3.52862 0.925335 3.61882 0.960499 3.70287C0.995663 3.78692 1.04718 3.86315 1.11206 3.92712C1.17694 3.99109 1.25389 4.04152 1.33843 4.07549C1.42297 4.10947 1.51342 4.1263 1.60452 4.12501H2.86762C3.20126 4.12501 3.47937 4.35551 3.54259 4.6836L3.67955 5.39975L5.1575 13.1619C5.42476 14.5623 6.65862 15.5833 8.08474 15.5833H16.666C18.0921 15.5833 19.3265 14.5627 19.5932 13.1619L21.0711 5.39975C21.0901 5.30036 21.0869 5.19802 21.0618 5.10002C21.0366 5.00202 20.9901 4.91078 20.9257 4.8328C20.8612 4.75482 20.7803 4.69203 20.6888 4.64891C20.5973 4.60579 20.4974 4.5834 20.3962 4.58334H4.92296L4.89342 4.42668C4.70865 3.45838 3.85355 2.75001 2.86762 2.75001H1.60452ZM5.18525 5.95834H19.5655L18.2424 12.905C18.0975 13.6656 17.4408 14.2083 16.666 14.2083H8.08474C7.31022 14.2083 6.65388 13.6656 6.50833 12.905V12.9041L5.18525 5.95834ZM9.16702 16.5C8.80234 16.5 8.45261 16.6449 8.19475 16.9027C7.93688 17.1606 7.79202 17.5103 7.79202 17.875C7.79202 18.2397 7.93688 18.5894 8.19475 18.8473C8.45261 19.1051 8.80234 19.25 9.16702 19.25C9.53169 19.25 9.88143 19.1051 10.1393 18.8473C10.3972 18.5894 10.542 18.2397 10.542 17.875C10.542 17.5103 10.3972 17.1606 10.1393 16.9027C9.88143 16.6449 9.53169 16.5 9.16702 16.5ZM15.5837 16.5C15.219 16.5 14.8693 16.6449 14.6114 16.9027C14.3535 17.1606 14.2087 17.5103 14.2087 17.875C14.2087 18.2397 14.3535 18.5894 14.6114 18.8473C14.8693 19.1051 15.219 19.25 15.5837 19.25C15.9484 19.25 16.2981 19.1051 16.556 18.8473C16.8138 18.5894 16.9587 18.2397 16.9587 17.875C16.9587 17.5103 16.8138 17.1606 16.556 16.9027C16.2981 16.6449 15.9484 16.5 15.5837 16.5Z" fill="#64BC2A"/>
</svg>
