<svg width="22" height="22" viewBox="0 0 22 22" fill="none" xmlns="http://www.w3.org/2000/svg">
<path d="M10.9892 2.74014C10.807 2.74298 10.6334 2.81802 10.5065 2.94877C10.3796 3.07953 10.3098 3.2553 10.3124 3.43748V4.72565C9.97588 4.83863 9.67057 5.0013 9.45486 5.24396C9.26519 5.45734 9.13812 5.70189 9.05382 5.95832H5.74075H5.72912C5.56831 5.95611 5.41182 6.01035 5.28686 6.11159C5.16191 6.21283 5.07639 6.35467 5.0452 6.51243L1.91027 15.022C1.85771 15.117 1.82836 15.223 1.82463 15.3314C1.82089 15.4399 1.84288 15.5477 1.88878 15.646C2.032 17.424 3.41863 19.25 5.72912 19.25C8.04073 19.25 9.42742 17.4221 9.56945 15.6433C9.61521 15.5451 9.63711 15.4375 9.63338 15.3292C9.62964 15.2209 9.60038 15.1151 9.54796 15.0202L6.71561 7.33332H9.05382C9.13812 7.58974 9.26519 7.83429 9.45486 8.04767C9.81003 8.44723 10.3697 8.70832 10.9999 8.70832C11.6302 8.70832 12.1899 8.44723 12.545 8.04767C12.7347 7.83429 12.8618 7.58974 12.9461 7.33332H15.2843L12.4519 15.022C12.3994 15.117 12.37 15.223 12.3663 15.3314C12.3626 15.4399 12.3845 15.5477 12.4304 15.646C12.5737 17.424 13.9603 19.25 16.2708 19.25C18.5824 19.25 19.9691 17.4221 20.1111 15.6433C20.1569 15.5451 20.1788 15.4375 20.175 15.3292C20.1713 15.2209 20.142 15.1151 20.0896 15.0202L16.9538 6.50975C16.9247 6.36633 16.8505 6.23595 16.7422 6.13758C16.6338 6.03921 16.4969 5.97798 16.3513 5.96279C16.3299 5.96029 16.3084 5.9588 16.2869 5.95832C16.2815 5.95825 16.2762 5.95825 16.2708 5.95832H12.9461C12.8618 5.70189 12.7347 5.45734 12.545 5.24396C12.3293 5.0013 12.024 4.83863 11.6874 4.72565V3.43748C11.6888 3.34546 11.6716 3.25412 11.637 3.16886C11.6023 3.0836 11.5509 3.00615 11.4858 2.94112C11.4207 2.87609 11.3432 2.82479 11.2579 2.79027C11.1726 2.75575 11.0812 2.7387 10.9892 2.74014ZM10.9776 5.96727C10.9928 5.96777 11.008 5.96777 11.0232 5.96727C11.2834 5.97429 11.4188 6.04621 11.5174 6.15705C11.6155 6.2674 11.6732 6.44109 11.6794 6.62165C11.6785 6.63804 11.6782 6.65446 11.6785 6.67088C11.672 6.85097 11.6152 7.02449 11.5174 7.13459C11.4142 7.25065 11.2864 7.33332 10.9999 7.33332C10.7135 7.33332 10.5857 7.25065 10.4825 7.13459C10.3844 7.02424 10.3267 6.85054 10.3205 6.66999C10.3214 6.65359 10.3217 6.63717 10.3214 6.62075C10.3279 6.44066 10.3847 6.26714 10.4825 6.15705C10.5812 6.04603 10.7165 5.97407 10.9776 5.96727ZM5.72912 8.63581L7.95096 14.6666H3.50727L5.72912 8.63581ZM16.2708 8.63581L18.4926 14.6666H14.0489L16.2708 8.63581ZM3.32913 16.0416H8.1291C7.86845 16.9965 7.09001 17.875 5.72912 17.875C4.36822 17.875 3.58979 16.9965 3.32913 16.0416ZM13.8708 16.0416H18.6708C18.4101 16.9965 17.6317 17.875 16.2708 17.875C14.9099 17.875 14.1315 16.9965 13.8708 16.0416Z" fill="#64BC2A"/>
</svg>
