<svg width="32" height="32" viewBox="0 0 32 32" fill="none" xmlns="http://www.w3.org/2000/svg">
<path d="M15.9842 3.98568C15.7192 3.98982 15.4667 4.09897 15.2821 4.28915C15.0976 4.47934 14.996 4.73501 14.9998 5V6.8737C14.5103 7.03804 14.0662 7.27464 13.7524 7.6276C13.4766 7.93797 13.2917 8.29368 13.1691 8.66667H8.3501H8.33317C8.09927 8.66347 7.87165 8.74235 7.6899 8.88961C7.50814 9.03687 7.38376 9.24318 7.33838 9.47266L2.77848 21.8503C2.70203 21.9883 2.65934 22.1425 2.65391 22.3003C2.64848 22.458 2.68046 22.6148 2.74723 22.7578C2.95555 25.344 4.97246 28 8.33317 28C11.6955 28 13.7125 25.3413 13.9191 22.7539C13.9857 22.6111 14.0175 22.4545 14.0121 22.297C14.0067 22.1395 13.9641 21.9856 13.8879 21.8477L9.76807 10.6667H13.1691C13.2917 11.0397 13.4766 11.3954 13.7524 11.7057C14.269 12.2869 15.0832 12.6667 15.9998 12.6667C16.9165 12.6667 17.7306 12.2869 18.2472 11.7057C18.5231 11.3954 18.7079 11.0397 18.8306 10.6667H22.2316L18.1118 21.8503C18.0354 21.9883 17.9927 22.1425 17.9872 22.3003C17.9818 22.458 18.0138 22.6148 18.0806 22.7578C18.2889 25.344 20.3058 28 23.6665 28C27.0289 28 29.0459 25.3413 29.2524 22.7539C29.319 22.6111 29.3509 22.4545 29.3454 22.297C29.34 22.1395 29.2974 21.9856 29.2212 21.8477L24.66 9.46875C24.6176 9.26014 24.5098 9.0705 24.3522 8.92742C24.1946 8.78433 23.9954 8.69527 23.7837 8.67318C23.7526 8.66954 23.7213 8.66737 23.6899 8.66667C23.6821 8.66658 23.6743 8.66658 23.6665 8.66667H18.8306C18.7079 8.29368 18.5231 7.93797 18.2472 7.6276C17.9335 7.27464 17.4894 7.03804 16.9998 6.8737V5C17.0018 4.86616 16.9768 4.73329 16.9264 4.60927C16.876 4.48526 16.8013 4.37262 16.7066 4.27802C16.6118 4.18343 16.4991 4.10882 16.375 4.0586C16.251 4.00838 16.1181 3.98359 15.9842 3.98568ZM15.9673 8.67969C15.9894 8.68042 16.0116 8.68042 16.0337 8.67969C16.4122 8.68991 16.6091 8.79451 16.7524 8.95573C16.8951 9.11624 16.9791 9.36888 16.9881 9.63151C16.9868 9.65536 16.9864 9.67925 16.9868 9.70313C16.9774 9.96507 16.8948 10.2175 16.7524 10.3776C16.6024 10.5464 16.4165 10.6667 15.9998 10.6667C15.5832 10.6667 15.3973 10.5464 15.2472 10.3776C15.1046 10.2171 15.0206 9.96445 15.0116 9.70182C15.0128 9.67798 15.0133 9.65409 15.0129 9.63021C15.0222 9.36826 15.1049 9.11587 15.2472 8.95573C15.3908 8.79425 15.5876 8.68958 15.9673 8.67969ZM8.33317 12.5612L11.5649 21.3333H5.1014L8.33317 12.5612ZM23.6665 12.5612L26.8983 21.3333H20.4347L23.6665 12.5612ZM4.84228 23.3333H11.8241C11.4449 24.7222 10.3127 26 8.33317 26C6.35368 26 5.22142 24.7222 4.84228 23.3333ZM20.1756 23.3333H27.1574C26.7783 24.7222 25.646 26 23.6665 26C21.687 26 20.5548 24.7222 20.1756 23.3333Z" fill="#24324A"/>
</svg>
