<svg width="32" height="32" viewBox="0 0 32 32" fill="none" xmlns="http://www.w3.org/2000/svg">
<path d="M2.33358 4C2.20107 3.99813 2.0695 4.02261 1.94654 4.07202C1.82357 4.12143 1.71165 4.1948 1.61728 4.28784C1.52291 4.38088 1.44797 4.49176 1.39682 4.61401C1.34568 4.73627 1.31934 4.86747 1.31934 5C1.31934 5.13253 1.34568 5.26373 1.39682 5.38599C1.44797 5.50824 1.52291 5.61912 1.61728 5.71216C1.71165 5.8052 1.82357 5.87857 1.94654 5.92798C2.0695 5.97739 2.20107 6.00187 2.33358 6H4.17082C4.65611 6 5.06064 6.33528 5.15259 6.8125L5.35181 7.85417L7.50155 19.1445C7.89029 21.1816 9.685 22.6667 11.7594 22.6667H24.2411C26.3155 22.6667 28.111 21.1821 28.4989 19.1445L30.6487 7.85417C30.6763 7.70961 30.6716 7.56075 30.635 7.4182C30.5984 7.27565 30.5309 7.14294 30.4371 7.02952C30.3433 6.9161 30.2257 6.82477 30.0925 6.76205C29.9594 6.69933 29.8141 6.66676 29.6669 6.66667H7.1604L7.11743 6.4388C6.84868 5.03035 5.60489 4 4.17082 4H2.33358ZM7.54191 8.66667H28.4586L26.5341 18.7708C26.3234 19.8772 25.3681 20.6667 24.2411 20.6667H11.7594C10.6328 20.6667 9.6781 19.8772 9.46639 18.7708V18.7695L7.54191 8.66667ZM13.3336 24C12.8031 24 12.2944 24.2107 11.9194 24.5858C11.5443 24.9609 11.3336 25.4696 11.3336 26C11.3336 26.5304 11.5443 27.0391 11.9194 27.4142C12.2944 27.7893 12.8031 28 13.3336 28C13.864 28 14.3727 27.7893 14.7478 27.4142C15.1229 27.0391 15.3336 26.5304 15.3336 26C15.3336 25.4696 15.1229 24.9609 14.7478 24.5858C14.3727 24.2107 13.864 24 13.3336 24ZM22.6669 24C22.1365 24 21.6278 24.2107 21.2527 24.5858C20.8776 24.9609 20.6669 25.4696 20.6669 26C20.6669 26.5304 20.8776 27.0391 21.2527 27.4142C21.6278 27.7893 22.1365 28 22.6669 28C23.1973 28 23.7061 27.7893 24.0811 27.4142C24.4562 27.0391 24.6669 26.5304 24.6669 26C24.6669 25.4696 24.4562 24.9609 24.0811 24.5858C23.7061 24.2107 23.1973 24 22.6669 24Z" fill="#24324A"/>
</svg>
