<svg width="32" height="32" viewBox="0 0 32 32" fill="none" xmlns="http://www.w3.org/2000/svg">
<path fill-rule="evenodd" clip-rule="evenodd" d="M15.4288 5.62857C18.3939 5.62857 20.7657 7.98553 20.7657 10.854C20.7657 13.7224 18.3939 16.0794 15.4288 16.0794C12.4636 16.0794 10.0918 13.7224 10.0918 10.854C10.0918 7.98553 12.4636 5.62857 15.4288 5.62857ZM22.88 10.854C22.88 6.78292 19.5263 3.51429 15.4288 3.51429C11.3312 3.51429 7.97751 6.78292 7.97751 10.854C7.97751 14.925 11.3312 18.1937 15.4288 18.1937C19.5263 18.1937 22.88 14.925 22.88 10.854ZM15.4288 22.648C20.7684 22.648 25.3533 25.3014 27.6676 29.1194C27.9702 29.6187 28.6203 29.7781 29.1196 29.4755C29.6189 29.1728 29.7783 28.5227 29.4756 28.0235C26.7516 23.5294 21.4549 20.5337 15.4288 20.5337C9.40262 20.5337 4.10593 23.5294 1.38186 28.0235C1.07922 28.5227 1.23863 29.1728 1.73792 29.4755C2.2372 29.7781 2.88729 29.6187 3.18992 29.1194C5.50419 25.3014 10.0891 22.648 15.4288 22.648Z" fill="white"/>
</svg>
