<svg width="18" height="18" viewBox="0 0 18 18" fill="none" xmlns="http://www.w3.org/2000/svg">
<path fill-rule="evenodd" clip-rule="evenodd" d="M8.67843 3.16608C10.3463 3.16608 11.6805 4.49186 11.6805 6.10537C11.6805 7.71887 10.3463 9.04466 8.67843 9.04466C7.01054 9.04466 5.6764 7.71887 5.6764 6.10537C5.6764 4.49186 7.01054 3.16608 8.67843 3.16608ZM12.8697 6.10537C12.8697 3.8154 10.9833 1.97679 8.67843 1.97679C6.37354 1.97679 4.48711 3.8154 4.48711 6.10537C4.48711 8.39534 6.37354 10.2339 8.67843 10.2339C10.9833 10.2339 12.8697 8.39534 12.8697 6.10537ZM8.67843 12.7395C11.682 12.7395 14.261 14.232 15.5628 16.3797C15.733 16.6605 16.0987 16.7502 16.3795 16.58C16.6604 16.4097 16.75 16.044 16.5798 15.7632C15.0475 13.2353 12.0681 11.5502 8.67843 11.5502C5.28873 11.5502 2.30934 13.2353 0.777054 15.7632C0.606821 16.044 0.696489 16.4097 0.977337 16.58C1.25818 16.7502 1.62386 16.6605 1.79409 16.3797C3.09587 14.232 5.67487 12.7395 8.67843 12.7395Z" fill="#64BC2A"/>
</svg>
