<svg width="26" height="26" viewBox="0 0 26 26" fill="none" xmlns="http://www.w3.org/2000/svg">
<path d="M23.3468 7.54C23.1396 6.39641 22.1524 5.56359 21.0068 5.30359C19.2924 4.94 16.1196 4.68 12.6868 4.68C9.25598 4.68 6.03238 4.94 4.31598 5.30359C3.17238 5.56359 2.18316 6.34359 1.97598 7.54C1.76676 8.84 1.55957 10.66 1.55957 13C1.55957 15.34 1.76676 17.16 2.02676 18.46C2.23598 19.6036 3.22316 20.4364 4.36676 20.6964C6.18676 21.06 9.30676 21.32 12.7396 21.32C16.1724 21.32 19.2924 21.06 21.1124 20.6964C22.256 20.4364 23.2432 19.6564 23.4524 18.46C23.6596 17.16 23.9196 15.2872 23.9724 13C23.8668 10.66 23.6068 8.84 23.3468 7.54ZM9.87957 16.64V9.36L16.2232 13L9.87957 16.64Z" fill="#64BC2A"/>
</svg>
