<svg width="26" height="26" viewBox="0 0 26 26" fill="none" xmlns="http://www.w3.org/2000/svg">
<path d="M24.7882 19.0677C23.8148 17.316 21.3074 15.2111 20.2723 14.2951C19.989 14.0443 19.9587 13.6105 20.2165 13.3331C22.192 11.2103 23.772 8.77121 24.3158 7.29733C24.5558 6.64625 24.0591 5.95833 23.3593 5.95833H21.3264C20.6563 5.95833 20.2642 6.19883 20.0773 6.58179C18.4355 9.94608 17.0272 11.4021 16.0413 12.253C15.4894 12.7297 14.6287 12.3348 14.6287 11.6095C14.6287 10.212 14.6287 8.40558 14.6287 7.12454C14.6287 6.50325 14.1206 6.00058 13.4939 6.00058L9.78021 5.95833C9.31275 5.95833 9.04571 6.48754 9.32629 6.85858L9.93946 7.73879C10.1702 8.04375 10.2948 8.41479 10.2948 8.79558L10.2915 12.7595C10.2915 13.449 9.45575 13.786 8.95959 13.3028C7.28096 11.668 5.82442 8.32975 5.30009 6.73346C5.14842 6.27142 4.71563 5.95942 4.22488 5.95833L2.22234 5.95346C1.47105 5.95346 0.921795 6.66575 1.126 7.38292C2.95575 13.8055 6.71004 19.9155 13.4007 20.5779C14.0599 20.6429 14.6287 20.1121 14.6287 19.455V17.3718C14.6287 16.7743 15.0972 16.2608 15.6995 16.2457C15.7207 16.2451 15.7418 16.2451 15.7629 16.2451C17.5325 16.2451 19.5145 18.8208 20.2078 20.0254C20.4072 20.3721 20.7798 20.5833 21.1828 20.5833H23.8765C24.6625 20.5833 25.1668 19.7497 24.7882 19.0677Z" fill="#64BC2A"/>
</svg>
