<svg width="26" height="26" viewBox="0 0 26 26" fill="none" xmlns="http://www.w3.org/2000/svg">
<path d="M21.9946 3.23307C21.6816 3.24669 21.3943 3.33673 21.1419 3.4362C20.9088 3.52802 20.0715 3.87993 18.7383 4.43913C17.4051 4.99833 15.6384 5.73976 13.7554 6.53174C9.98925 8.11571 5.75709 9.89747 3.58854 10.8101C3.51407 10.8411 3.21163 10.9337 2.8776 11.1888C2.5428 11.4445 2.1709 11.9995 2.1709 12.6064C2.1709 13.0961 2.41531 13.5947 2.71045 13.8802C3.00559 14.1657 3.3047 14.2992 3.55469 14.3986C4.28604 14.6898 6.54603 15.5924 7.52832 15.9855C7.87244 17.0168 8.68067 19.4459 8.86979 20.0438H8.86768C9.02152 20.5304 9.17148 20.8476 9.37972 21.1123C9.48384 21.2447 9.60813 21.3646 9.76058 21.4593C9.81907 21.4956 9.88384 21.5238 9.94889 21.5503C9.95796 21.5541 9.9673 21.5551 9.9764 21.5588L9.95101 21.5524C9.96987 21.56 9.9868 21.5712 10.006 21.5778C10.0373 21.5886 10.0591 21.5882 10.1012 21.5968C10.2497 21.6425 10.3978 21.673 10.535 21.673C11.1239 21.673 11.485 21.3535 11.485 21.3535L11.5083 21.3366L14.0516 19.1847L17.1662 22.0645C17.2219 22.1432 17.6672 22.7479 18.7002 22.7479C19.3157 22.7479 19.8044 22.4454 20.1157 22.1258C20.4271 21.8063 20.621 21.4793 20.7082 21.0361V21.0319V21.0298C20.7687 20.7152 23.7593 5.70443 23.7593 5.70443L23.7529 5.72982C23.8458 5.31561 23.8731 4.91504 23.7635 4.50684C23.6539 4.09863 23.358 3.70026 23.0018 3.49121C22.6455 3.28216 22.3077 3.21946 21.9946 3.23307ZM21.5672 5.60498C21.4497 6.19475 18.7884 19.565 18.6156 20.4521L15.5221 17.5936C14.7248 16.8564 13.4814 16.8305 12.653 17.5301L11.0745 18.8652L11.9167 15.5729C11.9167 15.5729 17.7261 9.69243 18.076 9.3501C18.3577 9.07601 18.4167 8.97994 18.4167 8.8846C18.4167 8.75785 18.3514 8.66667 18.2008 8.66667C18.0654 8.66667 17.8815 8.79643 17.784 8.8571C16.5398 9.6328 11.2126 12.6687 8.63281 14.1362C8.53591 14.0782 8.44059 14.018 8.33447 13.9754C7.48798 13.6366 5.86097 12.9843 4.90885 12.6043C7.15597 11.6586 11.0079 10.038 14.5954 8.52913C16.4781 7.73729 18.2442 6.99519 19.5762 6.43652C20.7005 5.96494 21.287 5.72076 21.5672 5.60498ZM18.5817 20.6087H18.5838C18.5838 20.6091 18.5818 20.6169 18.5817 20.6172C18.5835 20.6079 18.5805 20.6154 18.5817 20.6087Z" fill="#64BC2A"/>
</svg>
