<svg width="290" height="54" viewBox="0 0 290 54" fill="none" xmlns="http://www.w3.org/2000/svg">
<path d="M95.164 37L90.964 27.816L96.508 24.736L102.752 37H95.164ZM88.304 29.916V24.708H94.828V29.916H88.304ZM96.872 27.9L90.768 27.284L95.584 17.4H102.472L96.872 27.9ZM78.756 37H71.168L77.44 24.736L82.984 27.816L78.756 37ZM90.208 37H83.768V17.4H90.208V37ZM85.672 29.916H79.092V24.708H85.672V29.916ZM77.076 27.9L71.448 17.4H78.336L83.068 27.284L77.076 27.9ZM104.072 37V17.4H110.568V27.592L117.316 17.4H123.532V37H117.036V26.836L110.316 37H104.072ZM127.013 37V17.4H136.953C139.38 17.4 141.256 17.848 142.581 18.744C143.925 19.64 144.597 20.9 144.597 22.524C144.597 24.1107 143.981 25.3707 142.749 26.304C141.517 27.2187 139.856 27.676 137.765 27.676L138.325 26.164C140.547 26.164 142.292 26.6027 143.561 27.48C144.831 28.3573 145.465 29.636 145.465 31.316C145.465 33.052 144.775 34.4333 143.393 35.46C142.012 36.4867 140.043 37 137.485 37H127.013ZM133.509 32.38H137.177C137.719 32.38 138.12 32.2493 138.381 31.988C138.661 31.708 138.801 31.316 138.801 30.812C138.801 30.308 138.661 29.9347 138.381 29.692C138.12 29.4307 137.719 29.3 137.177 29.3H133.509V32.38ZM133.509 24.932H136.309C136.869 24.932 137.28 24.8107 137.541 24.568C137.803 24.3253 137.933 23.9707 137.933 23.504C137.933 23.0187 137.803 22.6547 137.541 22.412C137.28 22.1507 136.869 22.02 136.309 22.02H133.509V24.932ZM146.17 37L154.738 17.4H161.234L169.802 37H162.97L156.642 20.536H159.218L152.89 37H146.17ZM151.266 33.584L152.946 28.824H161.962L163.642 33.584H151.266ZM181.186 37V31.036L182.726 32.352H178.218C176.407 32.352 174.839 32.0627 173.514 31.484C172.207 30.8867 171.199 30.0373 170.49 28.936C169.781 27.8347 169.426 26.5187 169.426 24.988C169.426 23.42 169.79 22.076 170.518 20.956C171.265 19.8173 172.319 18.94 173.682 18.324C175.045 17.708 176.65 17.4 178.498 17.4H187.682V37H181.186ZM169.51 37L174.438 29.86H181.018L176.426 37H169.51ZM181.186 28.964V20.9L182.726 22.496H178.61C177.77 22.496 177.135 22.692 176.706 23.084C176.295 23.476 176.09 24.0733 176.09 24.876C176.09 25.6973 176.305 26.3227 176.734 26.752C177.163 27.1627 177.789 27.368 178.61 27.368H182.726L181.186 28.964ZM199.556 37V17.4H209.496C211.923 17.4 213.799 17.848 215.124 18.744C216.468 19.64 217.14 20.9 217.14 22.524C217.14 24.1107 216.524 25.3707 215.292 26.304C214.06 27.2187 212.399 27.676 210.308 27.676L210.868 26.164C213.09 26.164 214.835 26.6027 216.104 27.48C217.374 28.3573 218.008 29.636 218.008 31.316C218.008 33.052 217.318 34.4333 215.936 35.46C214.555 36.4867 212.586 37 210.028 37H199.556ZM206.052 32.38H209.72C210.262 32.38 210.663 32.2493 210.924 31.988C211.204 31.708 211.344 31.316 211.344 30.812C211.344 30.308 211.204 29.9347 210.924 29.692C210.663 29.4307 210.262 29.3 209.72 29.3H206.052V32.38ZM206.052 24.932H208.852C209.412 24.932 209.823 24.8107 210.084 24.568C210.346 24.3253 210.476 23.9707 210.476 23.504C210.476 23.0187 210.346 22.6547 210.084 22.412C209.823 22.1507 209.412 22.02 208.852 22.02H206.052V24.932ZM230.333 37.448C228.746 37.448 227.272 37.196 225.909 36.692C224.565 36.188 223.398 35.4787 222.409 34.564C221.42 33.6307 220.645 32.5387 220.085 31.288C219.544 30.0373 219.273 28.6747 219.273 27.2C219.273 25.7067 219.544 24.344 220.085 23.112C220.645 21.8613 221.42 20.7787 222.409 19.864C223.398 18.9307 224.565 18.212 225.909 17.708C227.272 17.204 228.746 16.952 230.333 16.952C231.938 16.952 233.413 17.204 234.757 17.708C236.101 18.212 237.268 18.9307 238.257 19.864C239.246 20.7787 240.012 21.8613 240.553 23.112C241.113 24.344 241.393 25.7067 241.393 27.2C241.393 28.6747 241.113 30.0373 240.553 31.288C240.012 32.5387 239.246 33.6307 238.257 34.564C237.268 35.4787 236.101 36.188 234.757 36.692C233.413 37.196 231.938 37.448 230.333 37.448ZM230.333 32.1C230.949 32.1 231.518 31.988 232.041 31.764C232.582 31.54 233.049 31.2227 233.441 30.812C233.852 30.3827 234.169 29.8693 234.393 29.272C234.617 28.656 234.729 27.9653 234.729 27.2C234.729 26.4347 234.617 25.7533 234.393 25.156C234.169 24.54 233.852 24.0267 233.441 23.616C233.049 23.1867 232.582 22.86 232.041 22.636C231.518 22.412 230.949 22.3 230.333 22.3C229.717 22.3 229.138 22.412 228.597 22.636C228.074 22.86 227.608 23.1867 227.197 23.616C226.805 24.0267 226.497 24.54 226.273 25.156C226.049 25.7533 225.937 26.4347 225.937 27.2C225.937 27.9653 226.049 28.656 226.273 29.272C226.497 29.8693 226.805 30.3827 227.197 30.812C227.608 31.2227 228.074 31.54 228.597 31.764C229.138 31.988 229.717 32.1 230.333 32.1ZM256.132 34.2V22.524H251.624L251.568 23.924C251.531 24.9507 251.466 25.912 251.372 26.808C251.279 27.704 251.148 28.5253 250.98 29.272C250.831 30.0187 250.635 30.6813 250.392 31.26C250.15 31.82 249.851 32.2867 249.496 32.66L242.524 31.876C243.14 31.876 243.644 31.6707 244.036 31.26C244.447 30.8307 244.774 30.2427 245.016 29.496C245.259 28.7307 245.436 27.8347 245.548 26.808C245.679 25.7627 245.772 24.6147 245.828 23.364L246.052 17.4H262.628V34.2H256.132ZM241.964 40.836V31.876H265.204V40.836H259.156V37H248.012V40.836H241.964ZM266.045 37L274.613 17.4H281.109L289.677 37H282.845L276.517 20.536H279.093L272.765 37H266.045ZM271.141 33.584L272.821 28.824H281.837L283.517 33.584H271.141Z" fill="#24324A"/>
<path fill-rule="evenodd" clip-rule="evenodd" d="M46.1393 12.2067C46.1393 9.08411 43.4943 6.67123 40.4085 6.67123C37.1758 6.67123 34.6777 9.22604 34.6777 12.2067V17.7421H40.4085C43.4943 17.7421 46.1393 15.3292 46.1393 12.2067Z" fill="white"/>
<path d="M44.9645 12.2065C44.9645 10.9291 44.3767 9.79365 43.642 9.08398C42.7603 8.23237 41.5848 7.80657 40.4092 7.80657C39.0868 7.80657 37.9112 8.37431 37.1765 9.08398C36.2948 9.93558 35.854 11.0711 35.854 12.2065V16.6065H40.4092C41.7317 16.6065 42.9073 16.0387 43.642 15.3291C44.3767 14.6194 44.9645 13.4839 44.9645 12.2065ZM45.2584 7.5227C46.4339 8.65817 47.3156 10.3614 47.3156 12.2065C47.3156 14.0517 46.5808 15.7549 45.2584 16.8904C44.0828 18.0258 42.3195 18.8774 40.4092 18.8774H34.6785H33.5029V17.742V12.2065C33.5029 10.3614 34.2376 8.65817 35.5601 7.5227C36.7357 6.38723 38.499 5.53563 40.4092 5.53563C42.1726 5.53563 43.9359 6.38723 45.2584 7.5227Z" fill="#24324A"/>
<path fill-rule="evenodd" clip-rule="evenodd" d="M12.637 6.67123C9.40428 6.67123 6.90625 9.22604 6.90625 12.2067C6.90625 15.3292 9.55122 17.7421 12.637 17.7421H18.3678V12.2067C18.3678 9.22604 15.8698 6.67123 12.637 6.67123Z" fill="white"/>
<path d="M12.6358 7.80657C11.3133 7.80657 10.1378 8.37431 9.40306 9.08398C8.52141 9.93558 8.08058 11.0711 8.08058 12.2065C8.08058 13.4839 8.66835 14.6194 9.40306 15.3291C10.2847 16.1807 11.4603 16.6065 12.6358 16.6065H17.191V12.2065C17.191 10.9291 16.6033 9.79365 15.8685 9.08398C15.1338 8.23237 13.9583 7.80657 12.6358 7.80657ZM7.78669 7.5227C8.96223 6.38723 10.7255 5.53563 12.6358 5.53563C14.5461 5.53563 16.3094 6.2453 17.4849 7.5227C18.6605 8.65817 19.5421 10.3614 19.5421 12.2065V17.742V18.8774H18.3666H12.6358C10.7255 18.8774 8.96223 18.1678 7.78669 16.8904C6.61115 15.7549 5.72949 14.0517 5.72949 12.2065C5.72949 10.3614 6.61115 8.80011 7.78669 7.5227Z" fill="#24324A"/>
<path fill-rule="evenodd" clip-rule="evenodd" d="M30.5651 2.8389C28.3609 0.709889 24.6873 0.709889 22.4832 2.8389C20.279 4.96791 20.279 8.51626 22.4832 10.6453L26.5976 14.6194L30.712 10.6453C32.7692 8.51626 32.7692 4.96791 30.5651 2.8389Z" fill="white"/>
<path d="M29.829 3.54843C28.9473 2.69683 27.7718 2.27102 26.5962 2.27102C25.4207 2.27102 24.2451 2.69683 23.3635 3.54843C22.4818 4.40003 22.041 5.53551 22.041 6.67098C22.041 7.80645 22.4818 8.94193 23.3635 9.79353L26.5962 12.9161L29.829 9.79353C30.7106 8.94193 31.1515 7.80645 31.1515 6.67098C31.1515 5.53551 30.7106 4.40003 29.829 3.54843ZM31.2984 1.98715C32.7678 3.26456 33.3556 4.96777 33.3556 6.67098C33.3556 8.37419 32.6209 10.0774 31.2984 11.3548L27.184 15.329L26.4493 16.0386L25.7146 15.329L21.6002 11.3548C20.2777 10.0774 19.543 8.37419 19.543 6.67098C19.543 4.96777 20.2777 3.26456 21.6002 1.98715C22.9227 0.709747 24.686 7.62939e-05 26.4493 7.62939e-05C28.2126 7.62939e-05 29.9759 0.709747 31.2984 1.98715Z" fill="#24324A"/>
<path d="M17.6324 18.5935C17.1916 18.1677 17.1916 17.4581 17.6324 17.0323C18.0732 16.6065 18.8079 16.6065 19.2487 17.0323L27.3306 24.8386C27.7714 25.2644 27.7714 25.9741 27.3306 26.3999C26.8898 26.8257 26.1551 26.8257 25.7142 26.3999L17.6324 18.5935Z" fill="#24324A"/>
<path d="M33.6503 17.174C34.0911 16.7482 34.8259 16.7482 35.2667 17.174C35.7075 17.5998 35.7075 18.3094 35.2667 18.7352L27.3318 26.3997C26.8909 26.8255 26.1562 26.8255 25.7154 26.3997C25.2746 25.9739 25.2746 25.2642 25.7154 24.8384L33.6503 17.174Z" fill="#24324A"/>
<path fill-rule="evenodd" clip-rule="evenodd" d="M50.1074 29.5227C52.3115 27.3937 52.3115 23.8453 50.1074 21.7163C47.9032 19.5873 44.2297 19.5873 42.0255 21.7163L37.9111 25.6905L42.0255 29.6646C44.2297 31.6517 47.9032 31.6517 50.1074 29.5227Z" fill="white"/>
<path d="M49.3743 28.8128C50.256 27.9612 50.6968 26.8257 50.6968 25.6902C50.6968 24.5548 50.256 23.4193 49.3743 22.5677C48.4927 21.7161 47.3171 21.2903 46.1416 21.2903C44.9661 21.2903 43.7905 21.7161 42.9089 22.5677L39.6761 25.6902L42.9089 28.8128C43.7905 29.6644 44.9661 30.0902 46.1416 30.0902C47.3171 30.0902 48.4927 29.6644 49.3743 28.8128ZM50.9907 30.2321C49.6682 31.5095 47.9049 32.2192 46.1416 32.2192C44.3783 32.2192 42.615 31.5095 41.2925 30.2321L37.1781 26.3999L36.4434 25.6902L37.1781 24.9806L41.2925 21.0064C42.615 19.729 44.3783 19.0193 46.1416 19.0193C47.9049 19.0193 49.6682 19.729 50.9907 21.0064C52.3132 22.2838 53.0479 23.987 53.0479 25.6902C52.901 27.2515 52.3132 28.9547 50.9907 30.2321Z" fill="#24324A"/>
<path fill-rule="evenodd" clip-rule="evenodd" d="M40.4095 44.5675C43.6422 44.5675 46.1403 42.0127 46.1403 39.0321C46.1403 35.9095 43.4953 33.4966 40.4095 33.4966H34.6787V39.0321C34.5317 42.0127 37.1767 44.5675 40.4095 44.5675Z" fill="white"/>
<path d="M40.4092 43.4322C41.7317 43.4322 42.9073 42.8644 43.642 42.1548C44.5236 41.3032 44.9645 40.1677 44.9645 39.0322C44.9645 37.7548 44.3767 36.6194 43.642 35.9097C42.7603 35.0581 41.5848 34.4903 40.4092 34.4903H35.7071V38.8903C35.7071 40.1677 36.2948 41.3032 37.0296 42.0128C37.9112 42.8644 39.0868 43.4322 40.4092 43.4322ZM45.2584 43.716C44.0828 44.8515 42.3195 45.7031 40.4092 45.7031C38.499 45.7031 36.7357 44.9935 35.5601 43.716C34.3846 42.5806 33.5029 40.8774 33.5029 39.0322V33.4968V32.3613H34.6785H40.4092C42.3195 32.3613 44.0828 33.071 45.2584 34.3484C46.4339 35.4839 47.3156 37.1871 47.3156 39.0322C47.1686 40.7354 46.4339 42.4386 45.2584 43.716Z" fill="#24324A"/>
<path fill-rule="evenodd" clip-rule="evenodd" d="M22.483 51.2384C24.6872 53.3675 28.3608 53.3675 30.5649 51.2384C32.769 49.1094 32.769 45.5611 30.5649 43.4321L26.4505 39.4579L22.483 43.2901C20.132 45.4191 20.132 48.9675 22.483 51.2384Z" fill="#45C4FF"/>
<path d="M23.2165 50.3869C24.0982 51.2385 25.2738 51.6643 26.4493 51.6643C27.6248 51.6643 28.8004 51.2385 29.682 50.3869C30.5637 49.5353 31.0045 48.3999 31.0045 47.2644C31.0045 46.1289 30.5637 44.9934 29.682 44.1418L26.4493 41.0193L23.2165 44.1418C22.3349 44.9934 21.8941 46.1289 21.8941 47.2644C21.8941 48.3999 22.3349 49.5353 23.2165 50.3869ZM21.6002 51.9482C20.2777 50.6708 19.543 48.9676 19.543 47.2644C19.543 45.5612 20.2777 43.858 21.6002 42.5806L25.7146 38.6064L26.4493 37.8967L27.184 38.6064L31.2984 42.5806C32.6209 43.858 33.3556 45.5612 33.3556 47.2644C33.3556 48.9676 32.6209 50.6708 31.2984 51.9482C29.9759 53.2256 28.2126 53.9353 26.4493 53.9353C24.686 53.9353 22.9227 53.2256 21.6002 51.9482Z" fill="#24324A"/>
<path fill-rule="evenodd" clip-rule="evenodd" d="M6.90625 39.032C6.90625 42.1545 9.55122 44.5674 12.637 44.5674C15.8698 44.5674 18.3678 42.0126 18.3678 39.032V33.4966H12.637C9.55122 33.3546 6.90625 35.9094 6.90625 39.032Z" fill="white"/>
<path d="M8.08058 39.0322C8.08058 40.3096 8.66835 41.4451 9.40306 42.1548C10.2847 43.0064 11.4603 43.4322 12.6358 43.4322C13.9583 43.4322 15.1338 42.8644 15.8685 42.1548C16.7502 41.3032 17.191 40.1677 17.191 39.0322V34.4903H12.6358C11.3133 34.4903 10.1378 35.0581 9.40306 35.7677C8.52141 36.6194 8.08058 37.7548 8.08058 39.0322ZM7.78669 43.716C6.61115 42.5806 5.72949 40.8774 5.72949 39.0322C5.72949 37.1871 6.46421 35.4839 7.78669 34.3484C8.96223 33.2129 10.7255 32.3613 12.6358 32.3613H18.3666H19.5421V33.4968V39.0322C19.5421 40.8774 18.8074 42.5806 17.4849 43.716C16.3094 44.8515 14.5461 45.7031 12.6358 45.7031C10.7255 45.5612 9.10918 44.8515 7.78669 43.716Z" fill="#24324A"/>
<path fill-rule="evenodd" clip-rule="evenodd" d="M2.93827 21.7164C0.73412 23.8454 0.73412 27.3938 2.93827 29.5228C5.14241 31.6518 8.81599 31.6518 11.0201 29.5228L15.1345 25.5487L11.0201 21.7164C8.81599 19.4455 5.14241 19.4455 2.93827 21.7164Z" fill="white"/>
<path d="M3.67358 22.4257C2.79192 23.2773 2.35109 24.4128 2.35109 25.5482C2.35109 26.6837 2.79192 27.8192 3.67358 28.6708C4.55523 29.5224 5.73078 29.9482 6.90632 29.9482C8.08187 29.9482 9.25741 29.5224 10.1391 28.6708L13.3718 25.5482L10.1391 22.4257C9.25741 21.5741 8.08187 21.1483 6.90632 21.1483C5.73078 21.1483 4.55523 21.5741 3.67358 22.4257ZM2.0572 20.8644C3.37969 19.587 5.143 18.8773 6.90632 18.8773C8.66964 18.8773 10.433 19.587 11.7554 20.8644L15.8698 24.8386L16.6046 25.5482L15.8698 26.2579L11.7554 30.2321C10.433 31.5095 8.66964 32.2191 6.90632 32.2191C5.143 32.2191 3.37969 31.6514 2.0572 30.2321C0.734715 28.9546 0 27.2514 0 25.5482C0 23.845 0.734715 22.1418 2.0572 20.8644Z" fill="#24324A"/>
<path d="M14.989 26.6838C14.4012 26.6838 13.8135 26.258 13.8135 25.5484C13.8135 24.9806 14.2543 24.4129 14.989 24.4129H26.4506C27.0384 24.4129 27.6261 24.8387 27.6261 25.5484C27.6261 26.1161 27.1853 26.6838 26.4506 26.6838H14.989Z" fill="#24324A"/>
<path d="M18.9548 34.3484C18.514 34.7742 17.7793 34.7742 17.3384 34.3484C16.8976 33.9226 16.8976 33.213 17.3384 32.7872L25.5672 24.8389C26.0081 24.4131 26.7428 24.4131 27.1836 24.8389C27.6244 25.2647 27.6244 25.9743 27.1836 26.4001L18.9548 34.3484Z" fill="#24324A"/>
<path d="M35.7075 32.9291C36.1483 33.3549 36.1483 34.0646 35.7075 34.4904C35.2667 34.9162 34.532 34.9162 34.0911 34.4904L25.7154 26.4001C25.2746 25.9743 25.2746 25.2647 25.7154 24.8389C26.1562 24.4131 26.8909 24.4131 27.3318 24.8389L35.7075 32.9291Z" fill="#24324A"/>
<path d="M37.9125 24.5547C38.5003 24.5547 39.088 24.9805 39.088 25.6902C39.088 26.2579 38.6472 26.8257 37.9125 26.8257H26.4509C25.8632 26.8257 25.2754 26.3999 25.2754 25.6902C25.2754 25.1225 25.7162 24.5547 26.4509 24.5547H37.9125Z" fill="#24324A"/>
<path d="M25.4219 14.4776C25.4219 13.9098 25.8627 13.3421 26.5974 13.3421C27.1852 13.3421 27.773 13.7679 27.773 14.4776V25.5484C27.773 26.1161 27.3321 26.6839 26.5974 26.6839C26.0096 26.6839 25.4219 26.2581 25.4219 25.5484V14.4776Z" fill="#24324A"/>
<path fill-rule="evenodd" clip-rule="evenodd" d="M26.4499 19.3032C29.9765 19.3032 32.9154 22.1419 32.9154 25.5483C32.9154 28.9547 29.9765 31.7934 26.4499 31.7934C22.9232 31.7934 19.9844 28.9547 19.9844 25.5483C19.9844 22.1419 22.9232 19.3032 26.4499 19.3032Z" fill="#FFC300"/>
<path d="M26.4496 18.1677C28.5068 18.1677 30.4171 19.0194 31.8865 20.2968C33.209 21.5742 34.0907 23.4193 34.0907 25.5483C34.0907 27.5354 33.209 29.3805 31.8865 30.7999C30.564 32.0773 28.6538 32.9289 26.4496 32.9289C24.3924 32.9289 22.4822 32.0773 21.0127 30.7999C19.6903 29.5225 18.8086 27.6773 18.8086 25.5483C18.8086 23.5612 19.6903 21.7161 21.0127 20.2968C22.4822 19.0194 24.3924 18.1677 26.4496 18.1677ZM30.2701 22C29.2415 21.0064 27.9191 20.4387 26.4496 20.4387C24.9802 20.4387 23.6577 21.0064 22.6291 22C21.6005 22.9935 21.0127 24.2709 21.0127 25.6903C21.0127 27.1096 21.6005 28.387 22.6291 29.3805C23.6577 30.3741 24.9802 30.9418 26.4496 30.9418C27.9191 30.9418 29.2415 30.3741 30.2701 29.3805C31.2987 28.387 31.8865 27.1096 31.8865 25.6903C31.8865 24.129 31.2987 22.8516 30.2701 22Z" fill="#24324A"/>
</svg>
