<svg width="26" height="26" viewBox="0 0 26 26" fill="none" xmlns="http://www.w3.org/2000/svg">
<path d="M12.7274 2.16667C11.5229 2.16667 10.5043 2.97619 9.77685 4.13127L9.77473 4.13339C9.7743 4.13407 9.77411 4.13482 9.77367 4.1355L8.29467 6.4598C8.14035 6.70223 8.08865 6.99603 8.15095 7.27657C8.21325 7.55711 8.38444 7.80141 8.62686 7.95573C8.7469 8.03215 8.88081 8.08417 9.02095 8.10883C9.16109 8.13349 9.30472 8.1303 9.44363 8.09945C9.72417 8.03716 9.96847 7.86596 10.1228 7.62354L11.605 5.29395C11.606 5.29219 11.6071 5.29043 11.6081 5.28866C12.1062 4.49627 12.5117 4.33334 12.7274 4.33334C12.9425 4.33334 13.3405 4.49561 13.8298 5.2802L15.8695 8.83383L15.0232 9.31625C14.8985 9.38721 14.7948 9.48994 14.7226 9.61397C14.6505 9.73801 14.6125 9.87894 14.6125 10.0224C14.6125 10.1659 14.6505 10.3068 14.7226 10.4309C14.7948 10.5549 14.8985 10.6576 15.0232 10.7286L18.8275 12.8953C18.951 12.9656 19.0908 13.0023 19.2329 13.0017C19.3749 13.0011 19.5144 12.9633 19.6373 12.892C19.7602 12.8207 19.8622 12.7184 19.9333 12.5954C20.0043 12.4723 20.0418 12.3328 20.0421 12.1907V7.85417C20.0424 7.71159 20.0053 7.57143 19.9344 7.44775C19.8634 7.32407 19.7612 7.22124 19.6379 7.14958C19.5147 7.07779 19.3747 7.0397 19.2321 7.03914C19.0895 7.03858 18.9492 7.07558 18.8254 7.14641L17.7516 7.75896L15.6929 4.17359C15.6867 4.16255 15.6804 4.15161 15.6738 4.14079C14.9534 2.98139 13.9336 2.16667 12.7274 2.16667ZM7.81542 9.20516C7.70201 9.21065 7.59101 9.23984 7.48957 9.29086L3.70743 11.192C3.57964 11.2564 3.47112 11.3534 3.39286 11.4732C3.31459 11.593 3.26936 11.7314 3.26174 11.8743C3.25412 12.0172 3.28437 12.1596 3.34944 12.287C3.41452 12.4145 3.5121 12.5225 3.63232 12.6001L4.59504 13.219L2.25064 17.1662C1.55866 18.3294 1.3933 19.6529 2.0052 20.687C2.6171 21.7212 3.84021 22.2231 5.20442 22.2231C5.20618 22.2232 5.20794 22.2232 5.20971 22.2231L8.6713 22.2083C8.81481 22.2097 8.95717 22.1826 9.0901 22.1285C9.22304 22.0744 9.34391 21.9945 9.44568 21.8933C9.54746 21.7921 9.62811 21.6717 9.68297 21.5391C9.73782 21.4064 9.76578 21.2642 9.76522 21.1207C9.76466 20.9772 9.73559 20.8352 9.6797 20.703C9.62382 20.5708 9.54222 20.4511 9.43966 20.3507C9.33709 20.2503 9.21561 20.1713 9.08225 20.1182C8.9489 20.0652 8.80633 20.0392 8.66283 20.0417L5.20442 20.0565C4.33859 20.0565 3.99201 19.7892 3.87035 19.5836C3.7487 19.378 3.68658 18.9918 4.11368 18.2738C4.11368 18.2735 4.11368 18.2731 4.11368 18.2728L6.41894 14.3912L7.41552 15.0323C7.54648 15.1164 7.69894 15.1608 7.85457 15.1603C8.07005 15.1603 8.27672 15.0747 8.42909 14.9223C8.58146 14.77 8.66707 14.5633 8.66707 14.3478V10.0145C8.66657 9.87633 8.63084 9.74058 8.56328 9.62007C8.49571 9.49956 8.39853 9.39827 8.28092 9.32577C8.14147 9.23952 7.9792 9.19748 7.81542 9.20516ZM21.118 14.0706C20.9209 14.0705 20.7274 14.1241 20.5585 14.2257C20.3896 14.3274 20.2516 14.4732 20.1594 14.6474C20.0672 14.8217 20.0243 15.0178 20.0353 15.2146C20.0464 15.4114 20.1109 15.6015 20.2219 15.7644L21.8755 18.2643C22.2969 18.9773 22.2368 19.3639 22.1156 19.5688C21.994 19.7744 21.6477 20.0417 20.7816 20.0417H16.7921V18.6991C16.7919 18.5571 16.7545 18.4176 16.6836 18.2945C16.6127 18.1714 16.5107 18.0691 16.3879 17.9977C16.2648 17.9258 16.1249 17.8875 15.9822 17.8868C15.8396 17.886 15.6993 17.9228 15.5754 17.9935L11.7838 20.1549C11.6591 20.2258 11.5554 20.3286 11.4832 20.4526C11.4111 20.5766 11.3731 20.7176 11.3731 20.861C11.3731 21.0045 11.4111 21.1455 11.4832 21.2695C11.5554 21.3935 11.6591 21.4963 11.7838 21.5672L15.5754 23.7286C15.6992 23.7996 15.8395 23.8367 15.9821 23.8362C16.1248 23.8358 16.2648 23.7978 16.3881 23.726C16.5114 23.6543 16.6137 23.5514 16.6846 23.4276C16.7555 23.3038 16.7926 23.1635 16.7921 23.0208V22.2083H20.7816C22.146 22.2083 23.3691 21.7063 23.9808 20.6722C24.5924 19.6381 24.4273 18.3145 23.7364 17.1514C23.7272 17.1363 23.7177 17.1215 23.7078 17.1069L22.0289 14.5689C21.9309 14.4163 21.7962 14.2906 21.637 14.2036C21.4779 14.1165 21.2994 14.0708 21.118 14.0706Z" fill="white"/>
</svg>
